<svg width="24" height="24" viewBox="0 0 24 24" fill="none" xmlns="http://www.w3.org/2000/svg">
<g clip-path="url(#clip0)">
<path d="M22.5 16.5H1.5V14.25H10.5V12.75H4.5V4.5H9V3H3.75C3.55109 3 3.36032 3.07902 3.21967 3.21967C3.07902 3.36032 3 3.55109 3 3.75V12.75H1.5V2.25C1.5 2.05109 1.57902 1.86032 1.71967 1.71967C1.86032 1.57902 2.05109 1.5 2.25 1.5H10.5V0H2.25C1.65326 0 1.08097 0.237053 0.65901 0.65901C0.237053 1.08097 0 1.65326 0 2.25L0 17.25C0 17.4489 0.0790176 17.6397 0.21967 17.7803C0.360322 17.921 0.551088 18 0.75 18H7.3875L6.855 21.75H6C5.80109 21.75 5.61032 21.829 5.46967 21.9697C5.32902 22.1103 5.25 22.3011 5.25 22.5H3.75V24H20.25V22.5H18.75C18.75 22.3011 18.671 22.1103 18.5303 21.9697C18.3897 21.829 18.1989 21.75 18 21.75H17.1525L16.62 18H23.25C23.4489 18 23.6397 17.921 23.7803 17.7803C23.921 17.6397 24 17.4489 24 17.25V12.75H22.5V16.5ZM15.6375 21.75H8.3625L8.895 18H15.0975L15.6375 21.75Z" fill="#EF4744"/>
<path d="M17.25 13.5C18.585 13.5 19.8901 13.1041 21.0001 12.3624C22.1101 11.6207 22.9753 10.5665 23.4862 9.33312C23.9971 8.09972 24.1308 6.74251 23.8703 5.43314C23.6099 4.12377 22.967 2.92104 22.023 1.97703C21.079 1.03303 19.8762 0.390153 18.5669 0.129702C17.2575 -0.130748 15.9003 0.00292468 14.6669 0.513816C13.4335 1.02471 12.3793 1.88987 11.6376 2.9999C10.8959 4.10994 10.5 5.41498 10.5 6.75C10.5 8.54021 11.2112 10.2571 12.477 11.523C13.7429 12.7888 15.4598 13.5 17.25 13.5ZM22.44 6H18V1.56C19.1197 1.7228 20.1569 2.24299 20.9569 3.04307C21.757 3.84314 22.2772 4.88029 22.44 6ZM16.5 1.56V6.75C16.4994 6.84871 16.5183 6.94655 16.5557 7.03793C16.593 7.12931 16.648 7.21242 16.7175 7.2825L20.385 10.95C19.7449 11.4333 19.0027 11.7635 18.2151 11.9153C17.4276 12.0671 16.6158 12.0365 15.8419 11.8257C15.0681 11.615 14.3528 11.2297 13.751 10.6996C13.1492 10.1694 12.6769 9.50841 12.3703 8.76731C12.0637 8.02622 11.9309 7.22472 11.9822 6.42435C12.0335 5.62397 12.2675 4.84598 12.6662 4.1501C13.065 3.45422 13.6179 2.85894 14.2824 2.40996C14.947 1.96097 15.7056 1.67022 16.5 1.56Z" fill="#EF4744"/>
</g>
<defs>
<clipPath id="clip0">
<rect width="24" height="24" fill="white"/>
</clipPath>
</defs>
</svg>
