<svg width="24" height="24" viewBox="0 0 24 24" fill="none" xmlns="http://www.w3.org/2000/svg">
<g clip-path="url(#clip0)">
<path d="M20.475 18.75L15 16.7325V15.6825C15.8303 15.2051 16.5352 14.5373 17.0568 13.7341C17.5784 12.9308 17.9017 12.0152 18 11.0625C18.23 10.9297 18.4207 10.7382 18.5524 10.5076C18.6842 10.277 18.7524 10.0156 18.75 9.75V8.25C18.7497 7.98696 18.6803 7.72861 18.5487 7.50087C18.417 7.27314 18.2278 7.08402 18 6.9525V6C18 4.4087 17.3679 2.88258 16.2426 1.75736C15.1174 0.632141 13.5913 0 12 0C10.4087 0 8.88258 0.632141 7.75736 1.75736C6.63214 2.88258 6 4.4087 6 6V6.9525C5.7722 7.08402 5.58299 7.27314 5.45135 7.50087C5.31971 7.72861 5.25027 7.98696 5.25 8.25V9.75C5.24762 10.0156 5.3158 10.277 5.44758 10.5076C5.57935 10.7382 5.76998 10.9297 6 11.0625C6.09832 12.0152 6.42158 12.9308 6.94317 13.7341C7.46475 14.5373 8.16972 15.2051 9 15.6825V16.7325L3.525 18.75C2.8425 18.9225 0 19.7775 0 21.75V23.25C0 23.4489 0.0790176 23.6397 0.21967 23.7803C0.360322 23.921 0.551088 24 0.75 24H23.25C23.4489 24 23.6397 23.921 23.7803 23.7803C23.921 23.6397 24 23.4489 24 23.25V21.75C24 19.8075 21.1575 18.96 20.475 18.75ZM7.5 10.5C7.5 10.3011 7.42098 10.1103 7.28033 9.96967C7.13968 9.82902 6.94891 9.75 6.75 9.75V8.25C6.94891 8.25 7.13968 8.17098 7.28033 8.03033C7.42098 7.88968 7.5 7.69891 7.5 7.5C8.805 7.425 11.34 7.1025 12.3375 5.775C13.5577 6.68312 14.9913 7.26169 16.5 7.455V7.5C16.5 7.69891 16.579 7.88968 16.7197 8.03033C16.8603 8.17098 17.0511 8.25 17.25 8.25V9.75C17.0511 9.75 16.8603 9.82902 16.7197 9.96967C16.579 10.1103 16.5 10.3011 16.5 10.5C16.4983 11.3503 16.2558 12.1827 15.8005 12.9008C15.3452 13.6189 14.6958 14.1933 13.9275 14.5575C13.7999 14.6183 13.692 14.7139 13.6164 14.8333C13.5407 14.9528 13.5004 15.0911 13.5 15.2325V17.04C13.3461 17.3093 13.1293 17.5372 12.868 17.7044C12.6068 17.8716 12.309 17.973 12 18C11.691 17.973 11.3932 17.8716 11.132 17.7044C10.8707 17.5372 10.6539 17.3093 10.5 17.04V15.2325C10.4996 15.0911 10.4593 14.9528 10.3836 14.8333C10.308 14.7139 10.2001 14.6183 10.0725 14.5575C9.30418 14.1933 8.65476 13.6189 8.19947 12.9008C7.74418 12.1827 7.50166 11.3503 7.5 10.5ZM22.5 22.5H1.5V21.75C1.5 21.165 2.94 20.475 3.93 20.25H4.0125L9.4575 18.21C9.75525 18.6043 10.139 18.9254 10.5796 19.1489C11.0202 19.3725 11.506 19.4925 12 19.5C12.4984 19.4864 12.987 19.3583 13.4279 19.1255C13.8688 18.8926 14.2502 18.5614 14.5425 18.1575L19.9875 20.1975H20.07C21.0675 20.445 22.5 21.135 22.5 21.6975V22.5Z" fill="#EF4744"/>
</g>
<defs>
<clipPath id="clip0">
<rect width="24" height="24" fill="white"/>
</clipPath>
</defs>
</svg>
