<svg width="24" height="24" viewBox="0 0 24 24" fill="none" xmlns="http://www.w3.org/2000/svg">
<path d="M1.5 22.5V0.75H0V23.25C0 23.4489 0.0790176 23.6397 0.21967 23.7803C0.360322 23.921 0.551088 24 0.75 24H23.25V22.5H1.5Z" fill="#EF4744"/>
<path d="M6 19.5H3V21H6V19.5Z" fill="#EF4744"/>
<path d="M6 16.5H3V18H6V16.5Z" fill="#EF4744"/>
<path d="M11.25 19.5H8.25V21H11.25V19.5Z" fill="#EF4744"/>
<path d="M11.25 16.5H8.25V18H11.25V16.5Z" fill="#EF4744"/>
<path d="M11.25 13.5H8.25V15H11.25V13.5Z" fill="#EF4744"/>
<path d="M16.5 19.5H13.5V21H16.5V19.5Z" fill="#EF4744"/>
<path d="M16.5 16.5H13.5V18H16.5V16.5Z" fill="#EF4744"/>
<path d="M16.5 13.5H13.5V15H16.5V13.5Z" fill="#EF4744"/>
<path d="M16.5 10.5H13.5V12H16.5V10.5Z" fill="#EF4744"/>
<path d="M16.5 7.5H13.5V9H16.5V7.5Z" fill="#EF4744"/>
<path d="M16.5 4.5H13.5V6H16.5V4.5Z" fill="#EF4744"/>
<path d="M16.5 1.5H13.5V3H16.5V1.5Z" fill="#EF4744"/>
<path d="M6 13.5H3V15H6V13.5Z" fill="#EF4744"/>
<path d="M6 10.5H3V12H6V10.5Z" fill="#EF4744"/>
<path d="M6 7.5H3V9H6V7.5Z" fill="#EF4744"/>
<path d="M21.75 19.5H18.75V21H21.75V19.5Z" fill="#EF4744"/>
<path d="M21.75 16.5H18.75V18H21.75V16.5Z" fill="#EF4744"/>
</svg>
