<svg width="24" height="24" viewBox="0 0 24 24" fill="none" xmlns="http://www.w3.org/2000/svg">
<path d="M18.75 0H5.25C3.85761 0 2.52226 0.553123 1.53769 1.53769C0.553123 2.52226 0 3.85761 0 5.25L0 18.75C0 20.1424 0.553123 21.4777 1.53769 22.4623C2.52226 23.4469 3.85761 24 5.25 24H18.75C20.1424 24 21.4777 23.4469 22.4623 22.4623C23.4469 21.4777 24 20.1424 24 18.75V5.25C24 3.85761 23.4469 2.52226 22.4623 1.53769C21.4777 0.553123 20.1424 0 18.75 0ZM22.5 18.75C22.5 19.7446 22.1049 20.6984 21.4016 21.4016C20.6984 22.1049 19.7446 22.5 18.75 22.5H5.25C4.25544 22.5 3.30161 22.1049 2.59835 21.4016C1.89509 20.6984 1.5 19.7446 1.5 18.75V5.25C1.5 4.25544 1.89509 3.30161 2.59835 2.59835C3.30161 1.89509 4.25544 1.5 5.25 1.5H18.75C19.7446 1.5 20.6984 1.89509 21.4016 2.59835C22.1049 3.30161 22.5 4.25544 22.5 5.25V18.75Z" fill="#EF4744"/>
<path d="M6.74945 6.885V4.5H5.24945V6.885C4.8176 7.04412 4.44493 7.33183 4.1817 7.70935C3.91847 8.08686 3.77734 8.53602 3.77734 8.99625C3.77734 9.45648 3.91847 9.90563 4.1817 10.2832C4.44493 10.6607 4.8176 10.9484 5.24945 11.1075V19.5H6.74945V11.115C7.18381 10.9573 7.5591 10.6698 7.82432 10.2914C8.08953 9.91297 8.2318 9.46209 8.2318 9C8.2318 8.53791 8.08953 8.08703 7.82432 7.70862C7.5591 7.33022 7.18381 7.04265 6.74945 6.885Z" fill="#EF4744"/>
<path d="M12.7494 12.885V4.5H11.2494V12.885C10.8176 13.0441 10.4449 13.3318 10.1817 13.7093C9.91847 14.0869 9.77734 14.536 9.77734 14.9963C9.77734 15.4565 9.91847 15.9056 10.1817 16.2832C10.4449 16.6607 10.8176 16.9484 11.2494 17.1075V19.5H12.7494V17.115C13.1813 16.9559 13.554 16.6682 13.8172 16.2907C14.0804 15.9131 14.2215 15.464 14.2215 15.0037C14.2215 14.5435 14.0804 14.0944 13.8172 13.7168C13.554 13.3393 13.1813 13.0516 12.7494 12.8925V12.885Z" fill="#EF4744"/>
<path d="M18.7494 8.385V4.5H17.2494V8.385C16.8176 8.54412 16.4449 8.83183 16.1817 9.20935C15.9185 9.58686 15.7773 10.036 15.7773 10.4963C15.7773 10.9565 15.9185 11.4056 16.1817 11.7832C16.4449 12.1607 16.8176 12.4484 17.2494 12.6075V19.5H18.7494V12.615C19.1813 12.4559 19.554 12.1682 19.8172 11.7907C20.0804 11.4131 20.2215 10.964 20.2215 10.5037C20.2215 10.0435 20.0804 9.59437 19.8172 9.21685C19.554 8.83933 19.1813 8.55161 18.7494 8.3925V8.385Z" fill="#EF4744"/>
</svg>
