<svg width="24" height="24" viewBox="0 0 24 24" fill="none" xmlns="http://www.w3.org/2000/svg">
<path d="M21.75 0H2.25C1.65326 0 1.08097 0.237053 0.65901 0.65901C0.237053 1.08097 0 1.65326 0 2.25L0 21.75C0 22.3467 0.237053 22.919 0.65901 23.341C1.08097 23.7629 1.65326 24 2.25 24H21.75C22.3467 24 22.919 23.7629 23.341 23.341C23.7629 22.919 24 22.3467 24 21.75V2.25C24 1.65326 23.7629 1.08097 23.341 0.65901C22.919 0.237053 22.3467 0 21.75 0V0ZM22.5 21.75C22.5 21.9489 22.421 22.1397 22.2803 22.2803C22.1397 22.421 21.9489 22.5 21.75 22.5H2.25C2.05109 22.5 1.86032 22.421 1.71967 22.2803C1.57902 22.1397 1.5 21.9489 1.5 21.75V7.5H22.5V21.75ZM22.5 6H1.5V2.25C1.5 2.05109 1.57902 1.86032 1.71967 1.71967C1.86032 1.57902 2.05109 1.5 2.25 1.5H21.75C21.9489 1.5 22.1397 1.57902 22.2803 1.71967C22.421 1.86032 22.5 2.05109 22.5 2.25V6Z" fill="#EF4744"/>
<path d="M4.5 3H3V4.5H4.5V3Z" fill="#EF4744"/>
<path d="M7.5 3H6V4.5H7.5V3Z" fill="#EF4744"/>
<path d="M21 3H19.5V4.5H21V3Z" fill="#EF4744"/>
<path d="M9 14.2499C9.46421 14.2486 9.91665 14.1038 10.2953 13.8352C10.6739 13.5667 10.9603 13.1876 11.115 12.7499H20.25V11.2499H11.115C10.9559 10.8181 10.6682 10.4454 10.2907 10.1822C9.91314 9.91896 9.46398 9.77783 9.00375 9.77783C8.54352 9.77783 8.09437 9.91896 7.71685 10.1822C7.33933 10.4454 7.05161 10.8181 6.8925 11.2499H3.75V12.7499H6.885C7.03974 13.1876 7.32605 13.5667 7.7047 13.8352C8.08335 14.1038 8.53579 14.2486 9 14.2499ZM9 11.2499C9.14834 11.2499 9.29334 11.2939 9.41668 11.3763C9.54001 11.4587 9.63614 11.5759 9.69291 11.7129C9.74968 11.85 9.76453 12.0008 9.73559 12.1463C9.70665 12.2917 9.63522 12.4254 9.53033 12.5303C9.42544 12.6352 9.2918 12.7066 9.14632 12.7355C9.00083 12.7645 8.85003 12.7496 8.71299 12.6928C8.57594 12.6361 8.45881 12.5399 8.3764 12.4166C8.29399 12.2933 8.25 12.1483 8.25 11.9999C8.25 11.801 8.32902 11.6103 8.46967 11.4696C8.61032 11.329 8.80109 11.2499 9 11.2499Z" fill="#EF4744"/>
<path d="M15 20.2499C15.4642 20.2486 15.9166 20.1038 16.2953 19.8352C16.6739 19.5667 16.9603 19.1876 17.115 18.7499H20.25V17.2499H17.115C16.9559 16.8181 16.6682 16.4454 16.2907 16.1822C15.9131 15.919 15.464 15.7778 15.0037 15.7778C14.5435 15.7778 14.0944 15.919 13.7168 16.1822C13.3393 16.4454 13.0516 16.8181 12.8925 17.2499H3.75V18.7499H12.885C13.0397 19.1876 13.3261 19.5667 13.7047 19.8352C14.0834 20.1038 14.5358 20.2486 15 20.2499ZM15 17.2499C15.1483 17.2499 15.2933 17.2939 15.4167 17.3763C15.54 17.4587 15.6361 17.5759 15.6929 17.7129C15.7497 17.85 15.7645 18.0008 15.7356 18.1463C15.7066 18.2917 15.6352 18.4254 15.5303 18.5303C15.4254 18.6352 15.2918 18.7066 15.1463 18.7355C15.0008 18.7645 14.85 18.7496 14.713 18.6928C14.5759 18.6361 14.4588 18.54 14.3764 18.4166C14.294 18.2933 14.25 18.1483 14.25 17.9999C14.25 17.801 14.329 17.6103 14.4697 17.4696C14.6103 17.329 14.8011 17.2499 15 17.2499Z" fill="#EF4744"/>
</svg>
