<svg width="24" height="24" viewBox="0 0 24 24" fill="none" xmlns="http://www.w3.org/2000/svg">
<path d="M5.25 12C6.07843 12 6.75 11.3284 6.75 10.5C6.75 9.67157 6.07843 9 5.25 9C4.42157 9 3.75 9.67157 3.75 10.5C3.75 11.3284 4.42157 12 5.25 12Z" fill="#EF4744"/>
<path d="M5.25 16.5C6.07843 16.5 6.75 15.8284 6.75 15C6.75 14.1716 6.07843 13.5 5.25 13.5C4.42157 13.5 3.75 14.1716 3.75 15C3.75 15.8284 4.42157 16.5 5.25 16.5Z" fill="#EF4744"/>
<path d="M5.25 21C6.07843 21 6.75 20.3284 6.75 19.5C6.75 18.6716 6.07843 18 5.25 18C4.42157 18 3.75 18.6716 3.75 19.5C3.75 20.3284 4.42157 21 5.25 21Z" fill="#EF4744"/>
<path d="M20.25 9.75H8.25V11.25H20.25V9.75Z" fill="#EF4744"/>
<path d="M20.25 14.25H8.25V15.75H20.25V14.25Z" fill="#EF4744"/>
<path d="M20.25 18.75H8.25V20.25H20.25V18.75Z" fill="#EF4744"/>
<path d="M21.75 0H2.25C1.65326 0 1.08097 0.237053 0.65901 0.65901C0.237053 1.08097 0 1.65326 0 2.25L0 21.75C0 22.3467 0.237053 22.919 0.65901 23.341C1.08097 23.7629 1.65326 24 2.25 24H21.75C22.3467 24 22.919 23.7629 23.341 23.341C23.7629 22.919 24 22.3467 24 21.75V2.25C24 1.65326 23.7629 1.08097 23.341 0.65901C22.919 0.237053 22.3467 0 21.75 0V0ZM22.5 21.75C22.5 21.9489 22.421 22.1397 22.2803 22.2803C22.1397 22.421 21.9489 22.5 21.75 22.5H2.25C2.05109 22.5 1.86032 22.421 1.71967 22.2803C1.57902 22.1397 1.5 21.9489 1.5 21.75V7.5H22.5V21.75ZM22.5 6H1.5V2.25C1.5 2.05109 1.57902 1.86032 1.71967 1.71967C1.86032 1.57902 2.05109 1.5 2.25 1.5H21.75C21.9489 1.5 22.1397 1.57902 22.2803 1.71967C22.421 1.86032 22.5 2.05109 22.5 2.25V6Z" fill="#EF4744"/>
<path d="M4.5 3H3V4.5H4.5V3Z" fill="#EF4744"/>
<path d="M7.5 3H6V4.5H7.5V3Z" fill="#EF4744"/>
<path d="M21 3H19.5V4.5H21V3Z" fill="#EF4744"/>
</svg>
