<svg width="24" height="24" viewBox="0 0 24 24" fill="none" xmlns="http://www.w3.org/2000/svg">
<path d="M17.25 9.75H18.75V8.25C18.7497 7.98696 18.6803 7.72861 18.5487 7.50087C18.417 7.27314 18.2278 7.08402 18 6.9525V6C18 4.4087 17.3679 2.88258 16.2426 1.75736C15.1174 0.632141 13.5913 0 12 0C10.4087 0 8.88258 0.632141 7.75736 1.75736C6.63214 2.88258 6 4.4087 6 6V6.9525C5.7722 7.08402 5.58299 7.27314 5.45135 7.50087C5.31971 7.72861 5.25027 7.98696 5.25 8.25V9.75C5.24762 10.0156 5.3158 10.277 5.44758 10.5076C5.57935 10.7382 5.76998 10.9297 6 11.0625C6.09891 12.015 6.42242 12.9304 6.94394 13.7336C7.46547 14.5367 8.17012 15.2047 9 15.6825V16.725L3.525 18.75C2.8425 18.9225 0 19.7775 0 21.75V23.25C0 23.4489 0.0790176 23.6397 0.21967 23.7803C0.360322 23.921 0.551088 24 0.75 24H11.25V22.5H1.5V21.75C1.5 21.165 2.94 20.475 3.93 20.25H4.0125L10.0125 18C10.1635 17.9439 10.2925 17.8407 10.3803 17.7056C10.4681 17.5706 10.5101 17.4108 10.5 17.25V15.2325C10.4996 15.0911 10.4593 14.9528 10.3836 14.8333C10.308 14.7139 10.2001 14.6183 10.0725 14.5575C9.30418 14.1933 8.65476 13.6189 8.19947 12.9008C7.74418 12.1827 7.50166 11.3503 7.5 10.5C7.5 10.3011 7.42098 10.1103 7.28033 9.96967C7.13968 9.82902 6.94891 9.75 6.75 9.75V8.25C6.94891 8.25 7.13968 8.17098 7.28033 8.03033C7.42098 7.88968 7.5 7.69891 7.5 7.5V6C7.5 4.80653 7.97411 3.66193 8.81802 2.81802C9.66193 1.97411 10.8065 1.5 12 1.5C13.1935 1.5 14.3381 1.97411 15.182 2.81802C16.0259 3.66193 16.5 4.80653 16.5 6V7.5C16.5 7.69891 16.579 7.88968 16.7197 8.03033C16.8603 8.17098 17.0511 8.25 17.25 8.25V9.75Z" fill="#EF4744"/>
<path d="M15 11.25H13.5C13.0858 11.25 12.75 11.5858 12.75 12V13.5C12.75 13.9142 13.0858 14.25 13.5 14.25H15C15.4142 14.25 15.75 13.9142 15.75 13.5V12C15.75 11.5858 15.4142 11.25 15 11.25Z" fill="#EF4744"/>
<path d="M15 15.75H13.5C13.0858 15.75 12.75 16.0858 12.75 16.5V18C12.75 18.4142 13.0858 18.75 13.5 18.75H15C15.4142 18.75 15.75 18.4142 15.75 18V16.5C15.75 16.0858 15.4142 15.75 15 15.75Z" fill="#EF4744"/>
<path d="M15 20.25H13.5C13.0858 20.25 12.75 20.5858 12.75 21V22.5C12.75 22.9142 13.0858 23.25 13.5 23.25H15C15.4142 23.25 15.75 22.9142 15.75 22.5V21C15.75 20.5858 15.4142 20.25 15 20.25Z" fill="#EF4744"/>
<path d="M21.75 12H17.25V13.5H21.75V12Z" fill="#EF4744"/>
<path d="M21.75 16.5H17.25V18H21.75V16.5Z" fill="#EF4744"/>
<path d="M21.75 21H17.25V22.5H21.75V21Z" fill="#EF4744"/>
</svg>
