<svg width="24" height="24" viewBox="0 0 24 24" fill="none" xmlns="http://www.w3.org/2000/svg">
<path d="M22.5 1.5H15V0.75C15 0.551088 14.921 0.360322 14.7803 0.21967C14.6397 0.0790176 14.4489 0 14.25 0L9.75 0C9.55109 0 9.36032 0.0790176 9.21967 0.21967C9.07902 0.360322 9 0.551088 9 0.75V1.5H1.5C1.10218 1.5 0.720644 1.65804 0.43934 1.93934C0.158035 2.22064 0 2.60218 0 3L0 19.5C0 19.8978 0.158035 20.2794 0.43934 20.5607C0.720644 20.842 1.10218 21 1.5 21H11.25V22.5H9C9 22.8978 9.15804 23.2794 9.43934 23.5607C9.72064 23.842 10.1022 24 10.5 24H13.5C13.8978 24 14.2794 23.842 14.5607 23.5607C14.842 23.2794 15 22.8978 15 22.5H12.75V21H22.5C22.8978 21 23.2794 20.842 23.5607 20.5607C23.842 20.2794 24 19.8978 24 19.5V3C24 2.60218 23.842 2.22064 23.5607 1.93934C23.2794 1.65804 22.8978 1.5 22.5 1.5ZM22.5 19.5H1.5V3H22.5V19.5Z" fill="#EF4744"/>
<path d="M6 11.25C6 12.4367 6.35189 13.5967 7.01118 14.5834C7.67047 15.5701 8.60754 16.3392 9.7039 16.7933C10.8003 17.2474 12.0067 17.3662 13.1705 17.1347C14.3344 16.9032 15.4035 16.3318 16.2426 15.4926C17.0818 14.6535 17.6532 13.5844 17.8847 12.4205C18.1162 11.2567 17.9974 10.0503 17.5433 8.9539C17.0892 7.85754 16.3201 6.92047 15.3334 6.26118C14.3467 5.60189 13.1867 5.25 12 5.25C10.4087 5.25 8.88258 5.88214 7.75736 7.00736C6.63214 8.13258 6 9.6587 6 11.25ZM12 15.75C10.8762 15.7435 9.79554 15.3167 8.97053 14.5537C8.14551 13.7906 7.63587 12.7464 7.54184 11.6266C7.44782 10.5067 7.77621 9.39221 8.46243 8.50225C9.14865 7.6123 10.143 7.01131 11.25 6.8175V9.135C10.952 9.22853 10.6767 9.38308 10.4416 9.58883C10.2066 9.79458 10.017 10.047 9.88487 10.3301C9.75274 10.6131 9.681 10.9206 9.67421 11.2329C9.66741 11.5451 9.72572 11.8554 9.84542 12.144C9.96511 12.4325 10.1436 12.6929 10.3694 12.9087C10.5953 13.1245 10.8636 13.2908 11.1573 13.3972C11.451 13.5036 11.7636 13.5477 12.0753 13.5267C12.3869 13.5056 12.6908 13.4199 12.9675 13.275L14.61 14.9175C13.8477 15.4595 12.9354 15.7505 12 15.75ZM12.75 6.8175C13.4999 6.94531 14.2051 7.26112 14.7998 7.73542C15.3945 8.20972 15.8592 8.82703 16.1506 9.52968C16.442 10.2323 16.5505 10.9974 16.4661 11.7533C16.3816 12.5093 16.1068 13.2315 15.6675 13.8525L14.025 12.2175C14.1584 11.9339 14.2311 11.6256 14.2383 11.3123C14.2456 10.999 14.1874 10.6876 14.0674 10.3981C13.9473 10.1086 13.7682 9.84738 13.5413 9.63116C13.3144 9.41495 13.0449 9.2485 12.75 9.1425V6.8175ZM12.75 11.25C12.75 11.3983 12.706 11.5433 12.6236 11.6667C12.5412 11.79 12.4241 11.8861 12.287 11.9429C12.15 11.9997 11.9992 12.0145 11.8537 11.9856C11.7082 11.9567 11.5746 11.8852 11.4697 11.7803C11.3648 11.6754 11.2934 11.5418 11.2644 11.3963C11.2355 11.2508 11.2503 11.1 11.3071 10.963C11.3639 10.8259 11.46 10.7088 11.5833 10.6264C11.7067 10.544 11.8517 10.5 12 10.5C12.1989 10.5 12.3897 10.579 12.5303 10.7197C12.671 10.8603 12.75 11.0511 12.75 11.25Z" fill="#EF4744"/>
</svg>
