<svg width="24" height="24" viewBox="0 0 24 24" fill="none" xmlns="http://www.w3.org/2000/svg">
<mask id="mask0" mask-type="alpha" maskUnits="userSpaceOnUse" x="2" y="0" width="20" height="24">
<path fill-rule="evenodd" clip-rule="evenodd" d="M21.2825 4.71751L16.7825 0.217512C16.7124 0.148001 16.6293 0.0930075 16.5379 0.0556841C16.4465 0.0183607 16.3487 -0.000558134 16.25 1.25357e-05H4.25C3.65326 1.25357e-05 3.08097 0.237065 2.65901 0.659022C2.23705 1.08098 2 1.65327 2 2.25001V21.75C2 22.3467 2.23705 22.919 2.65901 23.341C3.08097 23.7629 3.65326 24 4.25 24H19.25C19.8467 24 20.419 23.7629 20.841 23.341C21.2629 22.919 21.5 22.3467 21.5 21.75V5.25001C21.5006 5.15131 21.4816 5.05346 21.4443 4.96208C21.407 4.8707 21.352 4.78759 21.2825 4.71751ZM20 21.75C20 21.9489 19.921 22.1397 19.7803 22.2803C19.6397 22.421 19.4489 22.5 19.25 22.5H4.25C4.05109 22.5 3.86032 22.421 3.71967 22.2803C3.57902 22.1397 3.5 21.9489 3.5 21.75V2.25001C3.5 2.0511 3.57902 1.86033 3.71967 1.71968C3.86032 1.57903 4.05109 1.50001 4.25 1.50001H15.5V4.50001C15.5 4.89783 15.658 5.27937 15.9393 5.56067C16.2206 5.84197 16.6022 6.00001 17 6.00001H20V21.75ZM17.75 8.25H11.75V9.75H17.75V8.25ZM11.75 11.25H14.75V12.75H11.75V11.25ZM11.75 18.75H14.75V20.25H11.75V18.75ZM11.75 15.75V17.25H17.75V15.75H11.75ZM9.5 8.25H6.5C6.30109 8.25 6.11032 8.32902 5.96967 8.46967C5.82902 8.61032 5.75 8.80109 5.75 9V12C5.75 12.1989 5.82902 12.3897 5.96967 12.5303C6.11032 12.671 6.30109 12.75 6.5 12.75H9.5C9.69891 12.75 9.88968 12.671 10.0303 12.5303C10.171 12.3897 10.25 12.1989 10.25 12V9C10.25 8.80109 10.171 8.61032 10.0303 8.46967C9.88968 8.32902 9.69891 8.25 9.5 8.25ZM8.75 11.25H7.25V9.75H8.75V11.25ZM6.5 15.75H9.5C9.69891 15.75 9.88968 15.829 10.0303 15.9697C10.171 16.1103 10.25 16.3011 10.25 16.5V19.5C10.25 19.6989 10.171 19.8897 10.0303 20.0303C9.88968 20.171 9.69891 20.25 9.5 20.25H6.5C6.30109 20.25 6.11032 20.171 5.96967 20.0303C5.82902 19.8897 5.75 19.6989 5.75 19.5V16.5C5.75 16.3011 5.82902 16.1103 5.96967 15.9697C6.11032 15.829 6.30109 15.75 6.5 15.75ZM7.25 18.75H8.75V17.25H7.25V18.75Z" fill="black"/>
</mask>
<g mask="url(#mask0)">
<rect width="24" height="24" fill="#EF4744"/>
</g>
</svg>
