<svg width="24" height="24" viewBox="0 0 24 24" fill="none" xmlns="http://www.w3.org/2000/svg">
<path d="M21.75 0H2.25C1.65326 0 1.08097 0.237053 0.65901 0.65901C0.237053 1.08097 0 1.65326 0 2.25L0 21.75C0 22.3467 0.237053 22.919 0.65901 23.341C1.08097 23.7629 1.65326 24 2.25 24H21.75C22.3467 24 22.919 23.7629 23.341 23.341C23.7629 22.919 24 22.3467 24 21.75V2.25C24 1.65326 23.7629 1.08097 23.341 0.65901C22.919 0.237053 22.3467 0 21.75 0V0ZM22.5 21.75C22.5 21.9489 22.421 22.1397 22.2803 22.2803C22.1397 22.421 21.9489 22.5 21.75 22.5H2.25C2.05109 22.5 1.86032 22.421 1.71967 22.2803C1.57902 22.1397 1.5 21.9489 1.5 21.75V7.5H22.5V21.75ZM22.5 6H1.5V2.25C1.5 2.05109 1.57902 1.86032 1.71967 1.71967C1.86032 1.57902 2.05109 1.5 2.25 1.5H21.75C21.9489 1.5 22.1397 1.57902 22.2803 1.71967C22.421 1.86032 22.5 2.05109 22.5 2.25V6Z" fill="#EF4744"/>
<path d="M4.5 3H3V4.5H4.5V3Z" fill="#EF4744"/>
<path d="M7.5 3H6V4.5H7.5V3Z" fill="#EF4744"/>
<path d="M21 3H19.5V4.5H21V3Z" fill="#EF4744"/>
<path d="M3.75 21H6.75C6.94891 21 7.13968 20.921 7.28033 20.7803C7.42098 20.6397 7.5 20.4489 7.5 20.25V9.75C7.5 9.55109 7.42098 9.36032 7.28033 9.21967C7.13968 9.07902 6.94891 9 6.75 9H3.75C3.55109 9 3.36032 9.07902 3.21967 9.21967C3.07902 9.36032 3 9.55109 3 9.75V20.25C3 20.4489 3.07902 20.6397 3.21967 20.7803C3.36032 20.921 3.55109 21 3.75 21ZM4.5 10.5H6V19.5H4.5V10.5Z" fill="#EF4744"/>
<path d="M17.25 21H20.25C20.4489 21 20.6397 20.921 20.7803 20.7803C20.921 20.6397 21 20.4489 21 20.25V9.75C21 9.55109 20.921 9.36032 20.7803 9.21967C20.6397 9.07902 20.4489 9 20.25 9H17.25C17.0511 9 16.8603 9.07902 16.7197 9.21967C16.579 9.36032 16.5 9.55109 16.5 9.75V20.25C16.5 20.4489 16.579 20.6397 16.7197 20.7803C16.8603 20.921 17.0511 21 17.25 21ZM18 10.5H19.5V19.5H18V10.5Z" fill="#EF4744"/>
<path d="M10.5 15H13.5C13.6989 15 13.8897 14.921 14.0303 14.7803C14.171 14.6397 14.25 14.4489 14.25 14.25V9.75C14.25 9.55109 14.171 9.36032 14.0303 9.21967C13.8897 9.07902 13.6989 9 13.5 9H10.5C10.3011 9 10.1103 9.07902 9.96967 9.21967C9.82902 9.36032 9.75 9.55109 9.75 9.75V14.25C9.75 14.4489 9.82902 14.6397 9.96967 14.7803C10.1103 14.921 10.3011 15 10.5 15ZM11.25 10.5H12.75V13.5H11.25V10.5Z" fill="#EF4744"/>
<path d="M10.5 21H13.5C13.6989 21 13.8897 20.921 14.0303 20.7803C14.171 20.6397 14.25 20.4489 14.25 20.25V17.25C14.25 17.0511 14.171 16.8603 14.0303 16.7197C13.8897 16.579 13.6989 16.5 13.5 16.5H10.5C10.3011 16.5 10.1103 16.579 9.96967 16.7197C9.82902 16.8603 9.75 17.0511 9.75 17.25V20.25C9.75 20.4489 9.82902 20.6397 9.96967 20.7803C10.1103 20.921 10.3011 21 10.5 21ZM11.25 18H12.75V19.5H11.25V18Z" fill="#EF4744"/>
</svg>
