<svg width="24" height="24" viewBox="0 0 24 24" fill="none" xmlns="http://www.w3.org/2000/svg">
    <path d="M23.9176 6.41252L22.4176 3.41252C22.3554 3.28772 22.2596 3.18272 22.141 3.10934C22.0225 3.03595 21.8858 2.99707 21.7463 2.99707C21.6069 2.99707 21.4702 3.03595 21.3516 3.10934C21.233 3.18272 21.1373 3.28772 21.0751 3.41252L19.5751 6.41252C19.5241 6.51764 19.4984 6.63321 19.5001 6.75002V23.25C19.5001 23.4489 19.5791 23.6397 19.7197 23.7803C19.8604 23.921 20.0512 24 20.2501 24H23.2501C23.449 24 23.6398 23.921 23.7804 23.7803C23.9211 23.6397 24.0001 23.4489 24.0001 23.25V6.75002C23.9994 6.63261 23.9711 6.51701 23.9176 6.41252ZM21.0001 18.75V7.50002H22.5001V18.75H21.0001ZM21.0001 22.5V20.25H22.5001V22.5H21.0001Z" fill="#EF4744"/>
    <path d="M17.25 0H11.25C10.6533 0 10.081 0.237053 9.65901 0.65901C9.23705 1.08097 9 1.65326 9 2.25V21.75C9 22.3467 9.23705 22.919 9.65901 23.341C10.081 23.7629 10.6533 24 11.25 24H17.25C17.4489 24 17.6397 23.921 17.7803 23.7803C17.921 23.6397 18 23.4489 18 23.25V0.75C18 0.551088 17.921 0.360322 17.7803 0.21967C17.6397 0.0790176 17.4489 0 17.25 0V0ZM16.5 22.5H11.25C11.0511 22.5 10.8603 22.421 10.7197 22.2803C10.579 22.1397 10.5 21.9489 10.5 21.75V20.25H14.25V18.75H10.5V16.5H12.75V15H10.5V12.75H14.25V11.25H10.5V9H12.75V7.5H10.5V5.25H14.25V3.75H10.5V2.25C10.5 2.05109 10.579 1.86032 10.7197 1.71967C10.8603 1.57902 11.0511 1.5 11.25 1.5H16.5V22.5Z" fill="#EF4744"/>
    <path d="M6.75 12H0.75C0.551088 12 0.360322 12.079 0.21967 12.2197C0.0790176 12.3603 0 12.5511 0 12.75L0 23.25C0 23.4489 0.0790176 23.6397 0.21967 23.7803C0.360322 23.921 0.551088 24 0.75 24H6.75C6.94891 24 7.13968 23.921 7.28033 23.7803C7.42098 23.6397 7.5 23.4489 7.5 23.25V12.75C7.5 12.5511 7.42098 12.3603 7.28033 12.2197C7.13968 12.079 6.94891 12 6.75 12ZM6 13.5V15.75H1.5V13.5H6ZM1.5 22.5V18.75H6V22.5H1.5Z" fill="#EF4744"/>
</svg>
