<svg width="48" height="48" viewBox="0 0 48 48" fill="none" xmlns="http://www.w3.org/2000/svg">
<g clip-path="url(#clip0)">
<path d="M47.3833 3.26518C47.2625 3.12184 47.0897 3.03231 46.903 3.01637L36.4566 2.12415L36.2672 0.618713C36.2185 0.231431 35.8642 -0.0430685 35.4779 0.0055877L25.7872 1.22396C25.7491 1.21403 25.71 1.20653 25.6693 1.20306L12.3496 0.0653065C11.9661 0.0315564 11.6179 0.326494 11.5853 0.709275L11.3867 3.03428L1.06965 4.3314C0.687899 4.3794 0.408618 4.73874 0.456524 5.12078L5.72284 47.009C5.74674 47.2001 5.70577 47.3837 5.78387 47.5684C5.89337 47.8273 6.15399 48.0001 6.43515 48.0001H41.1141C41.5046 48.0001 41.8209 47.6837 41.8209 47.2933V46.3727L43.1897 46.4897C43.5733 46.5229 43.9215 46.2286 43.9541 45.8457L47.5469 3.7809C47.5629 3.59406 47.5041 3.40862 47.3833 3.26518ZM5.72837 35.7209L1.94734 5.64568L5.72837 5.17037V35.7209ZM12.9336 1.5339L19.1192 2.06218L12.8209 2.85409L12.9336 1.5339ZM34.953 1.49631L35.3141 4.36853H12.1062L34.953 1.49631ZM42.6059 45.0211L41.8209 44.954V24.2995C41.8209 23.9091 41.5046 23.5927 41.1141 23.5927C40.7236 23.5927 40.4073 23.909 40.4073 24.2995V46.5864H7.14193V5.78209H40.4074V21.0013C40.4074 21.3917 40.7237 21.7081 41.1142 21.7081C41.5047 21.7081 41.821 21.3917 41.821 21.0013V5.07531C41.821 4.68493 41.5047 4.36853 41.1142 4.36853H36.7388L36.6369 3.55824L46.0784 4.36468L42.6059 45.0211Z" fill="url(#paint0_linear)"/>
<path d="M37.3447 8.13794H33.5752C33.3389 8.13794 33.1182 8.25597 32.9872 8.45266L31.3875 10.8523C29.6656 9.61881 27.5574 8.89178 25.2825 8.89178C24.8921 8.89178 24.5757 9.2081 24.5757 9.59856V19.3992C24.5757 19.7896 24.892 20.106 25.2825 20.106H35.0831C35.4736 20.106 35.7899 19.7897 35.7899 19.3992C35.7899 16.3901 34.5181 13.6728 32.4842 11.7555L33.9536 9.5515H37.3448C37.7352 9.5515 38.0516 9.23519 38.0516 8.84472C38.0516 8.45425 37.7351 8.13794 37.3447 8.13794ZM34.3491 18.6924H25.9892V10.3325C27.7033 10.4649 29.2846 11.0762 30.6023 12.0301L29.9717 12.9761C29.7747 13.2714 29.8324 13.6804 30.1045 13.9089C30.4231 14.1765 30.9172 14.1059 31.1477 13.7602L31.6875 12.9506C33.1902 14.4433 34.1762 16.4555 34.3491 18.6924Z" fill="url(#paint1_linear)"/>
<path d="M37.3446 31.5085H30.9513L29.8248 29.7062C31.6497 27.8152 32.7741 25.2438 32.7741 22.4148C32.7741 22.0243 32.4578 21.708 32.0673 21.708H22.9735V12.6141C22.9735 12.2238 22.6571 11.9073 22.2667 11.9073C16.4729 11.9073 11.7593 16.621 11.7593 22.4148C11.7593 28.2085 16.4729 32.9222 22.2667 32.9222C24.7157 32.9222 26.9715 32.0799 28.7602 30.67L29.9602 32.59C30.0894 32.7966 30.3159 32.9222 30.5595 32.9222H37.3446C37.735 32.9222 38.0514 32.6058 38.0514 32.2154C38.0514 31.8249 37.735 31.5085 37.3446 31.5085ZM27.3896 25.8096C27.1827 25.4784 26.7465 25.3779 26.4156 25.5848C26.0846 25.7916 25.9839 26.2278 26.1908 26.5588L28.0062 29.4634C26.4397 30.7413 24.4412 31.5087 22.2668 31.5087C17.2525 31.5087 13.1729 27.4292 13.1729 22.4148C13.1729 17.6383 16.8747 13.7101 21.56 13.3482V22.4148C21.56 22.8052 21.8764 23.1216 22.2668 23.1216H31.3334C31.1756 25.1655 30.3389 27.022 29.0495 28.4658L27.3896 25.8096Z" fill="url(#paint2_linear)"/>
<path d="M16.2364 35.2783H10.2053C9.81504 35.2783 9.49854 35.5946 9.49854 35.9851C9.49854 36.3756 9.81494 36.6919 10.2053 36.6919H16.2364C16.6268 36.6919 16.9432 36.3756 16.9432 35.9851C16.9432 35.5946 16.6268 35.2783 16.2364 35.2783Z" fill="url(#paint3_linear)"/>
<path d="M25.2823 35.2783H19.2512C18.8608 35.2783 18.5444 35.5946 18.5444 35.9851C18.5444 36.3756 18.8608 36.6919 19.2512 36.6919H25.2823C25.6727 36.6919 25.9891 36.3756 25.9891 35.9851C25.9891 35.5946 25.6727 35.2783 25.2823 35.2783Z" fill="url(#paint4_linear)"/>
<path d="M20.0059 39.0479H10.2053C9.81504 39.0479 9.49854 39.3642 9.49854 39.7546C9.49854 40.1451 9.81494 40.4614 10.2053 40.4614H20.0059C20.3963 40.4614 20.7127 40.1451 20.7127 39.7546C20.7127 39.3642 20.3962 39.0479 20.0059 39.0479Z" fill="url(#paint5_linear)"/>
<path d="M25.2825 39.0479H23.0207C22.6305 39.0479 22.314 39.3642 22.314 39.7546C22.314 40.1451 22.6304 40.4614 23.0207 40.4614H25.2825C25.6728 40.4614 25.9892 40.1451 25.9892 39.7546C25.9892 39.3642 25.6728 39.0479 25.2825 39.0479Z" fill="url(#paint6_linear)"/>
<path d="M13.2209 42.8171H10.2053C9.81504 42.8171 9.49854 43.1335 9.49854 43.5239C9.49854 43.9144 9.81494 44.2307 10.2053 44.2307H13.2209C13.6113 44.2307 13.9277 43.9144 13.9277 43.5239C13.9277 43.1335 13.6113 42.8171 13.2209 42.8171Z" fill="url(#paint7_linear)"/>
<path d="M25.2808 42.8171H16.2341C15.8438 42.8171 15.5273 43.1335 15.5273 43.5239C15.5273 43.9144 15.8437 44.2307 16.2341 44.2307H25.2808C25.6712 44.2307 25.9876 43.9144 25.9876 43.5239C25.9876 43.1335 25.6712 42.8171 25.2808 42.8171Z" fill="url(#paint8_linear)"/>
</g>
<defs>
<linearGradient id="paint0_linear" x1="24.0003" y1="0" x2="24.0003" y2="48.0001" gradientUnits="userSpaceOnUse">
<stop stop-color="#EF4744"/>
<stop offset="1" stop-color="#FF9966"/>
</linearGradient>
<linearGradient id="paint1_linear" x1="31.3136" y1="8.13794" x2="31.3136" y2="20.106" gradientUnits="userSpaceOnUse">
<stop stop-color="#EF4744"/>
<stop offset="1" stop-color="#FF9966"/>
</linearGradient>
<linearGradient id="paint2_linear" x1="24.9053" y1="11.9073" x2="24.9053" y2="32.9222" gradientUnits="userSpaceOnUse">
<stop stop-color="#EF4744"/>
<stop offset="1" stop-color="#FF9966"/>
</linearGradient>
<linearGradient id="paint3_linear" x1="13.2209" y1="35.2783" x2="13.2209" y2="36.6919" gradientUnits="userSpaceOnUse">
<stop stop-color="#EF4744"/>
<stop offset="1" stop-color="#FF9966"/>
</linearGradient>
<linearGradient id="paint4_linear" x1="22.2668" y1="35.2783" x2="22.2668" y2="36.6919" gradientUnits="userSpaceOnUse">
<stop stop-color="#EF4744"/>
<stop offset="1" stop-color="#FF9966"/>
</linearGradient>
<linearGradient id="paint5_linear" x1="15.1056" y1="39.0479" x2="15.1056" y2="40.4614" gradientUnits="userSpaceOnUse">
<stop stop-color="#EF4744"/>
<stop offset="1" stop-color="#FF9966"/>
</linearGradient>
<linearGradient id="paint6_linear" x1="24.1516" y1="39.0479" x2="24.1516" y2="40.4614" gradientUnits="userSpaceOnUse">
<stop stop-color="#EF4744"/>
<stop offset="1" stop-color="#FF9966"/>
</linearGradient>
<linearGradient id="paint7_linear" x1="11.7131" y1="42.8171" x2="11.7131" y2="44.2307" gradientUnits="userSpaceOnUse">
<stop stop-color="#EF4744"/>
<stop offset="1" stop-color="#FF9966"/>
</linearGradient>
<linearGradient id="paint8_linear" x1="20.7575" y1="42.8171" x2="20.7575" y2="44.2307" gradientUnits="userSpaceOnUse">
<stop stop-color="#EF4744"/>
<stop offset="1" stop-color="#FF9966"/>
</linearGradient>
<clipPath id="clip0">
<rect width="48" height="48" fill="white"/>
</clipPath>
</defs>
</svg>
