<svg width="48" height="48" viewBox="0 0 48 48" fill="none" xmlns="http://www.w3.org/2000/svg">
<g clip-path="url(#clip0)">
<path d="M4.97405 40.5049C3.70888 40.9023 2.72962 41.9114 2.37035 43.188C2.3567 43.2375 2.34406 43.2876 2.33262 43.337C2.26899 43.6171 2.23799 43.9035 2.24029 44.1908V47.3978C2.24029 47.7304 2.50985 47.9999 2.84242 47.9999H22.566C22.8985 47.9999 23.1681 47.7304 23.1681 47.3978V44.1904C23.1704 43.9029 23.1394 43.6163 23.0758 43.336C23.0641 43.2859 23.0516 43.2368 23.0382 43.188C22.6789 41.9115 21.6997 40.9024 20.4344 40.505L16.1474 39.1149V37.3218C17.7076 36.3594 18.793 34.7873 19.1402 32.9874L19.3722 32.1895C20.4245 31.7992 21.0173 30.6823 20.7508 29.592C20.618 29.0334 20.2254 28.5724 19.6952 28.3521V25.5666C19.6952 21.7063 16.5659 18.5769 12.7055 18.5769C8.84522 18.5769 5.71587 21.7063 5.71587 25.5666V28.3511C5.18439 28.571 4.7907 29.0326 4.65753 29.5922C4.39119 30.6824 4.98398 31.799 6.0362 32.1892L6.26822 32.9871C6.61544 34.787 7.70098 36.3591 9.26109 37.3215V39.1146L4.97405 40.5049ZM20.063 41.6505C20.9423 41.9235 21.6244 42.6217 21.877 43.507C21.8866 43.5413 21.8951 43.5758 21.9032 43.6099C21.9455 43.8004 21.9657 43.995 21.9634 44.1901V46.795H3.44455V44.1904C3.44244 43.9951 3.46281 43.8002 3.50546 43.6095C3.51349 43.5753 3.52222 43.5412 3.53155 43.5069C3.78404 42.6216 4.46625 41.9233 5.34546 41.6504L9.80481 40.2045C11.6355 41.094 13.773 41.094 15.6037 40.2045L20.063 41.6505ZM13.204 25.8785C13.7566 26.4442 15.1494 27.6335 17.4756 28.148C15.9502 27.9891 13.5849 27.5282 11.5329 26.2059C12.119 26.1182 12.6759 26.0091 13.204 25.8785ZM6.92012 25.5666C6.91982 22.3714 9.50976 19.781 12.705 19.7807C15.9002 19.7804 18.4907 22.3703 18.491 25.5656V25.5667V27.1061C16.5768 26.8492 15.278 26.0538 14.5582 25.4757C15.5383 25.1443 16.4601 24.6607 17.2897 24.0426C17.5511 23.837 17.5963 23.4584 17.3907 23.1971C17.1887 22.9403 16.8189 22.8914 16.5572 23.0869C13.4235 25.4902 7.80093 25.2364 7.74493 25.2338C7.41286 25.2169 7.12986 25.4724 7.1129 25.8044C7.1128 25.8055 7.1128 25.8067 7.1127 25.8078L7.00713 28.127C7.00572 28.1969 6.97421 28.2627 6.92072 28.3077L6.92012 25.5666ZM7.44598 32.7355C7.44236 32.7163 7.43785 32.6975 7.43243 32.6787L7.11511 31.587C7.06834 31.3411 6.87416 31.1497 6.62749 31.1065C6.14759 31.0227 5.79766 30.6056 5.79866 30.1184C5.79866 30.0376 5.80829 29.957 5.82736 29.8785C5.87111 29.6874 6.0073 29.5309 6.19034 29.461C6.93357 29.7716 7.78778 29.421 8.09838 28.6778C8.16421 28.5202 8.20195 28.3523 8.20967 28.1817L8.28865 26.4484H8.29337C8.65755 26.4484 9.16645 26.4378 9.76858 26.3967C13.5576 29.6059 18.8868 29.4404 19.1161 29.4315C19.119 29.4315 19.1218 29.4309 19.1247 29.4308C19.3507 29.479 19.5285 29.6535 19.581 29.8785C19.7125 30.4179 19.3818 30.9618 18.8424 31.0934C18.822 31.0984 18.8015 31.1027 18.7808 31.1064C18.5464 31.1501 18.3591 31.3265 18.3015 31.5579L17.9758 32.6785C17.9703 32.6972 17.9658 32.7161 17.9622 32.7353C17.4161 35.6393 14.6192 37.5507 11.7153 37.0046C9.5484 36.597 7.85352 34.9022 7.44598 32.7353V32.7355ZM12.7045 38.3013C13.4681 38.3017 14.2259 38.1682 14.9435 37.907V39.1839C13.5203 39.8281 11.8888 39.8281 10.4656 39.1839V37.907C11.1831 38.1682 11.9407 38.3017 12.7042 38.3013H12.7045Z" fill="url(#paint0_linear)"/>
<path d="M45.7618 47.3975V43.5927C45.7623 42.0137 44.7559 40.6101 43.2602 40.1038L40.5763 39.194C42.4254 38.2496 43.4159 36.1863 42.9963 34.1528L42.4856 31.6767C43.1783 31.186 43.5009 30.322 43.2993 29.4974C43.1766 28.9816 42.8184 28.5534 42.3322 28.3417L42.3412 25.9071C42.3699 22.0137 39.237 18.8343 35.3437 18.8056C31.4503 18.7769 28.2709 21.9098 28.2422 25.8031C28.242 25.8239 28.242 25.8447 28.242 25.8655L28.2484 28.0725V28.0864L28.2542 28.3459C27.7723 28.5591 27.4179 28.9854 27.296 29.498C27.0766 30.3952 27.479 31.3292 28.2819 31.7861L27.6814 34.0426C27.1407 36.0721 28.038 38.2106 29.8649 39.2467L27.3352 40.1041C25.8395 40.6104 24.8332 42.0141 24.8337 43.593V47.3978C24.8337 47.7304 25.1033 47.9999 25.4359 47.9999H45.1596C45.4922 47.9999 45.7618 47.7304 45.7618 47.3978C45.7618 47.3977 45.7618 47.3976 45.7618 47.3975ZM32.5497 39.6081L34.6894 41.7421V43.0963L31.4762 39.9719L32.5497 39.6081ZM34.7366 38.1613H35.8589C36.3395 38.1608 36.8181 38.0991 37.2832 37.9781V38.668L35.2978 40.6481L33.3124 38.668V37.9782C33.7775 38.0991 34.256 38.1607 34.7366 38.1613ZM35.8936 41.7545L38.0457 39.6081L39.119 39.9719L35.8936 43.1083V41.7545ZM41.1421 37.2127C40.5106 38.0057 39.5581 38.4757 38.5446 38.4944V38.5056L38.4875 38.4862V37.522C39.9781 36.7441 41.1257 35.4391 41.7066 33.8612L41.817 34.3962C42.0232 35.3887 41.7757 36.4213 41.1421 37.2127ZM35.2915 20.0181C38.5198 20.0181 41.1369 22.6352 41.1368 25.8636C41.1368 25.8761 41.1368 25.8885 41.1367 25.901L41.1296 27.8631C39.5917 27.7458 38.1317 27.139 36.9636 26.1319C37.8945 25.3387 38.6728 24.3824 39.2606 23.3099C39.4282 23.0227 39.3313 22.654 39.0441 22.4864C38.7569 22.3188 38.3882 22.4157 38.2205 22.7029C38.2176 22.7078 38.2148 22.7128 38.2121 22.7178C37.4872 24.0009 35.9789 26.6706 31.2095 26.9368L31.1864 26.9381C30.7348 26.9633 30.3133 27.2739 30.0843 27.7483C30.0468 27.8241 29.9845 27.8847 29.908 27.9204C29.762 27.9891 29.5887 27.9592 29.4744 27.8454L29.4519 27.8228L29.446 25.8638C29.4495 22.6368 32.0646 20.0217 35.2915 20.0181ZM28.4658 29.7839C28.5177 29.5702 28.7025 29.4151 28.922 29.401C29.1104 29.3839 29.2798 29.2789 29.3792 29.1178C30.1005 29.2893 30.8444 28.9374 31.1691 28.2707C31.192 28.2191 31.2272 28.1739 31.2718 28.1392H31.2765C32.2776 28.0834 34.1065 27.9808 35.9613 26.8505C37.3954 28.1761 39.2452 28.9627 41.1948 29.0759C41.288 29.2591 41.4685 29.382 41.6731 29.4013C41.8927 29.4154 42.0775 29.5706 42.1294 29.7844C42.1458 29.8517 42.154 29.9209 42.154 29.9902C42.1549 30.4085 41.8546 30.7667 41.4425 30.8386C41.1531 30.8931 40.9436 31.1462 40.9442 31.4407C40.9328 32.8629 40.3999 34.2314 39.4468 35.2869C38.4719 36.3643 37.1977 36.9576 35.8587 36.9576H34.7366C33.3976 36.9576 32.1234 36.3643 31.1486 35.2869C30.1939 34.2287 29.6611 32.8566 29.6516 31.4314C29.6516 31.139 29.4414 30.8888 29.1533 30.8383C28.7412 30.7664 28.4409 30.4082 28.4418 29.9899C28.4416 29.9206 28.4497 29.8513 28.466 29.7839H28.4658ZM29.3503 37.1925C28.7696 36.3672 28.5846 35.327 28.8451 34.352L28.9392 33.9984C29.5353 35.517 30.6609 36.7687 32.1079 37.5222V38.4862L31.7319 38.6137C30.7716 38.5017 29.905 37.9845 29.3505 37.1925H29.3503ZM26.038 43.5927C26.0378 42.53 26.7151 41.5854 27.7216 41.2445L30.1953 40.4061L34.6894 44.776V46.7954H26.0382L26.038 43.5927ZM44.5573 46.7954H35.8936V44.7883L40.3995 40.4062L42.8732 41.2446C43.8798 41.5855 44.5571 42.5301 44.5569 43.5928L44.5573 46.7954Z" fill="url(#paint1_linear)"/>
<path d="M29.5394 12.8873C32.4378 9.82146 32.3022 4.98659 29.2363 2.08815C27.7003 0.635824 25.6311 -0.115027 23.5211 0.0143296C19.6567 0.268326 16.5194 3.48127 16.3791 7.32715C16.291 9.53846 17.1655 11.6795 18.7764 13.197C19.7142 14.1 20.1596 15.3995 19.9726 16.6879L19.8985 17.256C19.8602 17.4504 19.9044 17.6519 20.0205 17.8124C20.0878 17.9056 20.1757 17.982 20.2774 18.0356V20.7739C20.2787 21.8942 21.1865 22.8019 22.3068 22.8032H25.694C26.8141 22.8018 27.7217 21.894 27.723 20.7739V18.0031C27.7784 17.9685 27.8293 17.9273 27.8744 17.8802C28.0175 17.7308 28.095 17.5304 28.0895 17.3236C28.0895 17.3177 28.0895 17.312 28.0889 17.3063L28.0368 16.318V16.315C27.9537 15.1517 28.3892 14.0112 29.2265 13.1992C29.3334 13.0987 29.439 12.9938 29.5394 12.8873ZM21.4816 18.1221H26.5194V19.1689H21.4816V18.1221ZM25.694 21.599H22.3067C21.8512 21.5984 21.4821 21.2293 21.4815 20.7739V20.3731H26.5193V20.7739C26.5188 21.2295 26.1495 21.5986 25.6939 21.599H25.694ZM28.4004 12.3232C27.3045 13.3788 26.7314 14.865 26.8349 16.383L26.863 16.9178H21.1569L21.1658 16.8496C21.4048 15.1771 20.8235 13.4918 19.6043 12.3222C18.2454 11.0432 17.508 9.2377 17.5828 7.37301C17.7009 4.13438 20.3441 1.42993 23.5954 1.21637C27.1422 0.998304 30.1943 3.69673 30.4124 7.24356C30.5217 9.02154 29.889 10.7653 28.665 12.0596C28.5799 12.1492 28.4913 12.2375 28.4004 12.3232Z" fill="url(#paint2_linear)"/>
<path d="M26.6498 7.49361H25.2003L25.1601 3.31575C25.1565 2.98318 24.884 2.71664 24.5514 2.72025C24.3142 2.72286 24.1008 2.86436 24.0061 3.08183L20.7991 10.4686C20.6668 10.7737 20.8067 11.1282 21.1117 11.2607C21.1873 11.2935 21.2688 11.3105 21.3511 11.3105H22.8006L22.8407 15.4887C22.8444 15.8213 23.1168 16.088 23.4494 16.0843C23.6865 16.0817 23.9001 15.9402 23.9948 15.7228L27.2017 8.33548C27.3341 8.0304 27.1942 7.67585 26.8891 7.54338C26.8137 7.51057 26.7322 7.49361 26.6498 7.49361ZM24.0178 12.6467L23.999 10.7026C23.9959 10.3724 23.7273 10.1062 23.3969 10.1062H22.2688L23.983 6.15719L24.0018 8.10125C24.0051 8.43152 24.2737 8.69756 24.604 8.69756H25.732L24.0178 12.6467Z" fill="url(#paint3_linear)"/>
</g>
<defs>
<linearGradient id="paint0_linear" x1="12.7042" y1="18.5769" x2="12.7042" y2="47.9999" gradientUnits="userSpaceOnUse">
<stop stop-color="#EF4744"/>
<stop offset="1" stop-color="#FF9966"/>
</linearGradient>
<linearGradient id="paint1_linear" x1="35.2977" y1="18.8054" x2="35.2977" y2="47.9999" gradientUnits="userSpaceOnUse">
<stop stop-color="#EF4744"/>
<stop offset="1" stop-color="#FF9966"/>
</linearGradient>
<linearGradient id="paint2_linear" x1="24.0003" y1="0" x2="24.0003" y2="22.8032" gradientUnits="userSpaceOnUse">
<stop stop-color="#EF4744"/>
<stop offset="1" stop-color="#FF9966"/>
</linearGradient>
<linearGradient id="paint3_linear" x1="24.0004" y1="2.72021" x2="24.0004" y2="16.0844" gradientUnits="userSpaceOnUse">
<stop stop-color="#EF4744"/>
<stop offset="1" stop-color="#FF9966"/>
</linearGradient>
<clipPath id="clip0">
<rect width="48" height="48" fill="white"/>
</clipPath>
</defs>
</svg>
