<svg width="48" height="48" viewBox="0 0 48 48" fill="none" xmlns="http://www.w3.org/2000/svg">
<path d="M24 0C21.349 0 19.2 2.149 19.2 4.8C19.2 7.451 21.349 9.6 24 9.6C26.6499 9.5974 28.7974 7.4499 28.8 4.8C28.8 2.149 26.651 0 24 0ZM24 8C22.2327 8 20.8 6.5673 20.8 4.8C20.8 3.0327 22.2327 1.6 24 1.6C25.7673 1.6 27.2 3.0327 27.2 4.8C27.2 6.5673 25.7673 8 24 8Z" fill="url(#paint0_linear)"/>
<path d="M27.2 10.3999H27.0112L26.8424 10.4839C25.0523 11.3752 22.9477 11.3752 21.1576 10.4839L20.9888 10.3999H20.8C18.592 10.4025 16.8026 12.1919 16.8 14.3999V19.1999C16.8 20.5254 17.8745 21.5999 19.2 21.5999H28.8C30.1255 21.5999 31.2 20.5254 31.2 19.1999V14.3999C31.1974 12.1919 29.408 10.4025 27.2 10.3999ZM29.6 19.1999C29.6 19.6417 29.2418 19.9999 28.8 19.9999H19.2C18.7582 19.9999 18.4 19.6417 18.4 19.1999V14.3999C18.4002 13.1407 19.3735 12.0957 20.6296 12.0063C22.7671 12.9983 25.233 12.9983 27.3704 12.0063C28.6264 12.0957 29.5998 13.1407 29.6 14.3999V19.1999Z" fill="url(#paint1_linear)"/>
<path d="M40.8 26.3999C38.149 26.3999 36 28.5489 36 31.1999C36 33.8509 38.149 35.9999 40.8 35.9999C43.451 35.9999 45.6 33.8509 45.6 31.1999C45.5974 28.55 43.4499 26.4025 40.8 26.3999ZM40.8 34.3999C39.0327 34.3999 37.6 32.9672 37.6 31.1999C37.6 29.4326 39.0327 27.9999 40.8 27.9999C42.5673 27.9999 44 29.4326 44 31.1999C44 32.9672 42.5673 34.3999 40.8 34.3999Z" fill="url(#paint2_linear)"/>
<path d="M44.0001 36.8H43.8113L43.6425 36.88C41.8524 37.7712 39.7478 37.7712 37.9577 36.88L37.7889 36.8H37.6001C35.3921 36.8026 33.6027 38.592 33.6001 40.8V45.6C33.6001 46.9255 34.6746 48 36.0001 48H45.6001C46.9256 48 48.0001 46.9255 48.0001 45.6V40.8C47.9975 38.592 46.2081 36.8026 44.0001 36.8ZM46.4001 45.6C46.4001 46.0419 46.0419 46.4 45.6001 46.4H36.0001C35.5583 46.4 35.2001 46.0419 35.2001 45.6V40.8C35.2003 39.5408 36.1736 38.4958 37.4297 38.4064C39.5672 39.3984 42.033 39.3984 44.1705 38.4064C45.4266 38.4958 46.3999 39.5408 46.4001 40.8V45.6Z" fill="url(#paint3_linear)"/>
<path d="M7.1999 26.3999C4.5489 26.3999 2.3999 28.5489 2.3999 31.1999C2.3999 33.8509 4.5489 35.9999 7.1999 35.9999C9.8509 35.9999 11.9999 33.8509 11.9999 31.1999C11.9973 28.55 9.8498 26.4025 7.1999 26.3999ZM7.1999 34.3999C5.4326 34.3999 3.9999 32.9672 3.9999 31.1999C3.9999 29.4326 5.4326 27.9999 7.1999 27.9999C8.9672 27.9999 10.3999 29.4326 10.3999 31.1999C10.3999 32.9672 8.9672 34.3999 7.1999 34.3999Z" fill="url(#paint4_linear)"/>
<path d="M10.4 36.8H10.2112L10.0424 36.88C8.2523 37.7712 6.1477 37.7712 4.3576 36.88L4.1888 36.8H4C1.792 36.8026 0.0026 38.592 0 40.8V45.6C0 46.9255 1.0745 48 2.4 48H12C13.3255 48 14.4 46.9255 14.4 45.6V40.8C14.3974 38.592 12.608 36.8026 10.4 36.8ZM12.8 45.6C12.8 46.0419 12.4418 46.4 12 46.4H2.4C1.9582 46.4 1.6 46.0419 1.6 45.6V40.8C1.6002 39.5408 2.5735 38.4958 3.8296 38.4064C5.9671 39.3984 8.4329 39.3984 10.5704 38.4064C11.8265 38.4958 12.7998 39.5408 12.8 40.8V45.6Z" fill="url(#paint5_linear)"/>
<path d="M31.9387 40.6275C31.9383 40.6266 31.9379 40.6257 31.9375 40.6247C31.7643 40.2182 31.2944 40.0291 30.888 40.2023C27.2755 41.7163 23.2635 41.9925 19.4776 40.9879L20.2264 40.7679C20.6506 40.6437 20.8938 40.1993 20.7696 39.7751C20.6454 39.3509 20.201 39.1077 19.7768 39.2319L16.5768 40.1703C16.5648 40.1703 16.556 40.1839 16.5448 40.1879C16.4707 40.2155 16.4011 40.2541 16.3384 40.3023C16.3106 40.3173 16.2839 40.3341 16.2584 40.3527C16.174 40.428 16.1071 40.5208 16.0624 40.6247C16.019 40.7293 15.9983 40.8419 16.0016 40.9551C16.0211 41.0634 16.0478 41.1703 16.0816 41.2751C16.0864 41.2863 16.0816 41.2991 16.0904 41.3103L17.6904 44.3719C17.895 44.7638 18.3785 44.9157 18.7704 44.7111C19.1623 44.5065 19.3142 44.023 19.1096 43.6311L18.4584 42.3863C22.7598 43.6793 27.3779 43.428 31.5136 41.6759C31.9204 41.5038 32.1108 41.0344 31.9387 40.6275Z" fill="url(#paint6_linear)"/>
<path d="M45.367 21.0344C45.0546 20.7221 44.5482 20.7221 44.2358 21.0344L43.1038 22.1664C42.4414 15.1594 37.9927 9.07884 31.515 6.32644C31.1085 6.15324 30.6386 6.34234 30.4654 6.74884C30.2922 7.15534 30.4813 7.62524 30.8878 7.79844C36.6988 10.2681 40.7382 15.6653 41.4694 21.9368L40.567 21.0344C40.2492 20.7274 39.7428 20.7362 39.4358 21.054C39.1364 21.364 39.1364 21.8555 39.4358 22.1656L41.8358 24.5656C42.1478 24.8784 42.6544 24.8791 42.9672 24.567C42.9677 24.5665 42.9682 24.566 42.9686 24.5656L45.3686 22.1656C45.6805 21.8528 45.6798 21.3464 45.367 21.0344Z" fill="url(#paint7_linear)"/>
<path d="M17.5769 6.92747C17.5743 6.88077 17.5674 6.83447 17.5561 6.78907C17.5561 6.78187 17.5473 6.77707 17.5441 6.76907C17.5409 6.76107 17.5441 6.75547 17.5441 6.74907C17.5223 6.71017 17.4971 6.67317 17.4689 6.63867C17.443 6.59177 17.4124 6.54757 17.3777 6.50667C17.3304 6.46477 17.278 6.42907 17.2217 6.40027C17.1936 6.37637 17.1636 6.35467 17.1321 6.33547L13.9321 4.87387C13.5234 4.70607 13.056 4.90137 12.8882 5.31007C12.7295 5.69657 12.895 6.14017 13.2681 6.32827L14.9249 7.08588C8.68755 10.424 4.79555 16.9259 4.80005 24.0003C4.80005 24.4421 5.15825 24.8003 5.60005 24.8003C6.04185 24.8003 6.40005 24.4421 6.40005 24.0003C6.39605 17.771 9.69015 12.0051 15.0585 8.84508L14.4801 10.0539C14.2894 10.4516 14.4565 10.9286 14.8537 11.1203C14.9616 11.173 15.08 11.2004 15.2001 11.2003C15.5073 11.1999 15.7871 11.0236 15.9201 10.7467L17.5201 7.40828C17.5201 7.40028 17.5201 7.39148 17.5265 7.38348C17.5473 7.32878 17.5618 7.27188 17.5697 7.21388C17.5834 7.17078 17.5936 7.12668 17.6001 7.08188C17.5974 7.02977 17.5897 6.97808 17.5769 6.92747Z" fill="url(#paint8_linear)"/>
<defs>
<linearGradient id="paint0_linear" x1="24" y1="0" x2="24" y2="9.6" gradientUnits="userSpaceOnUse">
<stop stop-color="#EF4744"/>
<stop offset="1" stop-color="#FF9966"/>
</linearGradient>
<linearGradient id="paint1_linear" x1="24" y1="10.3999" x2="24" y2="21.5999" gradientUnits="userSpaceOnUse">
<stop stop-color="#EF4744"/>
<stop offset="1" stop-color="#FF9966"/>
</linearGradient>
<linearGradient id="paint2_linear" x1="40.8" y1="26.3999" x2="40.8" y2="35.9999" gradientUnits="userSpaceOnUse">
<stop stop-color="#EF4744"/>
<stop offset="1" stop-color="#FF9966"/>
</linearGradient>
<linearGradient id="paint3_linear" x1="40.8001" y1="36.8" x2="40.8001" y2="48" gradientUnits="userSpaceOnUse">
<stop stop-color="#EF4744"/>
<stop offset="1" stop-color="#FF9966"/>
</linearGradient>
<linearGradient id="paint4_linear" x1="7.1999" y1="26.3999" x2="7.1999" y2="35.9999" gradientUnits="userSpaceOnUse">
<stop stop-color="#EF4744"/>
<stop offset="1" stop-color="#FF9966"/>
</linearGradient>
<linearGradient id="paint5_linear" x1="7.2" y1="36.8" x2="7.2" y2="48" gradientUnits="userSpaceOnUse">
<stop stop-color="#EF4744"/>
<stop offset="1" stop-color="#FF9966"/>
</linearGradient>
<linearGradient id="paint6_linear" x1="24.0016" y1="39.1995" x2="24.0016" y2="44.8022" gradientUnits="userSpaceOnUse">
<stop stop-color="#EF4744"/>
<stop offset="1" stop-color="#FF9966"/>
</linearGradient>
<linearGradient id="paint7_linear" x1="38.0016" y1="6.26221" x2="38.0016" y2="24.8007" gradientUnits="userSpaceOnUse">
<stop stop-color="#EF4744"/>
<stop offset="1" stop-color="#FF9966"/>
</linearGradient>
<linearGradient id="paint8_linear" x1="11.2001" y1="4.81372" x2="11.2001" y2="24.8003" gradientUnits="userSpaceOnUse">
<stop stop-color="#EF4744"/>
<stop offset="1" stop-color="#FF9966"/>
</linearGradient>
</defs>
</svg>
