<svg width="48" height="48" viewBox="0 0 48 48" fill="none" xmlns="http://www.w3.org/2000/svg">
<g clip-path="url(#clip0)">
<path d="M5.18054 2.69641C4.04382 2.69641 3.11914 3.62146 3.11914 4.75781C3.11914 5.89453 4.04382 6.81958 5.18054 6.81958C6.31726 6.81958 7.24231 5.89453 7.24231 4.75781C7.24231 3.62146 6.31726 2.69641 5.18054 2.69641ZM5.18054 5.41443C4.81873 5.41443 4.52393 5.12 4.52393 4.75781C4.52393 4.396 4.81873 4.10156 5.18054 4.10156C5.54272 4.10156 5.83716 4.396 5.83716 4.75781C5.83716 5.12 5.54272 5.41443 5.18054 5.41443Z" fill="url(#paint0_linear)"/>
<path d="M10.4299 2.69641C9.29321 2.69641 8.36816 3.62146 8.36816 4.75781C8.36816 5.89453 9.29321 6.81958 10.4299 6.81958C11.5667 6.81958 12.4913 5.89453 12.4913 4.75781C12.4913 3.62146 11.5667 2.69641 10.4299 2.69641ZM10.4299 5.41443C10.0677 5.41443 9.77332 5.12 9.77332 4.75781C9.77332 4.396 10.0677 4.10156 10.4299 4.10156C10.7917 4.10156 11.0865 4.396 11.0865 4.75781C11.0865 5.12 10.7917 5.41443 10.4299 5.41443Z" fill="url(#paint1_linear)"/>
<path d="M15.6781 2.69641C14.5414 2.69641 13.6167 3.62146 13.6167 4.75781C13.6167 5.89453 14.5414 6.81958 15.6781 6.81958C16.8148 6.81958 17.7399 5.89453 17.7399 4.75781C17.7399 3.62146 16.8148 2.69641 15.6781 2.69641ZM15.6781 5.41443C15.3163 5.41443 15.0215 5.12 15.0215 4.75781C15.0215 4.396 15.3163 4.10156 15.6781 4.10156C16.0403 4.10156 16.3347 4.396 16.3347 4.75781C16.3347 5.12 16.0403 5.41443 15.6781 5.41443Z" fill="url(#paint2_linear)"/>
<path d="M47.244 13.8585C47.6322 13.8585 47.9468 13.5439 47.9468 13.1557L47.9999 3.09155C47.9999 1.38684 46.6131 0 44.9084 0H3.09191C1.3872 0 0 1.3872 0 3.09191V37.0824C0 38.6275 1.13928 39.9114 2.6217 40.1385C2.77514 40.1623 2.93225 40.1744 3.09191 40.1744H16.7611V42.6939H14.64C13.2253 42.6939 12.074 43.8449 12.074 45.2596V46.7775C12.074 47.4231 12.5991 47.9483 13.2447 47.9483H16.5948C16.9826 47.9483 17.2972 47.6337 17.2972 47.2455C17.2972 46.8577 16.9826 46.5431 16.5948 46.5431H13.4791V45.2596C13.4791 44.6194 13.9999 44.0987 14.64 44.0987H33.3068C33.947 44.0987 34.4677 44.6194 34.4677 45.2596V46.5431H20.956C20.5682 46.5431 20.2536 46.8577 20.2536 47.2455C20.2536 47.6337 20.5682 47.9483 20.956 47.9483H34.7017C35.3473 47.9483 35.8725 47.4231 35.8725 46.7775V45.2596C35.8725 43.8449 34.7215 42.6939 33.3065 42.6939H31.1854V40.1744H44.8549C45.0146 40.1744 45.1717 40.1623 45.3247 40.1385C46.8075 39.9114 47.9464 38.6275 47.9464 37.0824V17.5114C47.9464 17.1233 47.6322 16.8087 47.244 16.8087C46.8562 16.8087 46.5417 17.1233 46.5417 17.5114V33.0128H24.5822V9.55589H46.5417V13.1557C46.5417 13.5439 46.8562 13.8585 47.244 13.8585ZM1.45678 9.55589H23.1771V32.9622H1.45678V9.55589ZM29.7806 42.6939H18.1662V40.1744H29.7806V42.6939ZM46.5417 34.4179V37.0824C46.5417 37.9544 45.8766 38.674 45.027 38.7608C44.9702 38.7663 44.9131 38.7692 44.8549 38.7692H3.09191C3.03369 38.7692 2.97619 38.7663 2.91979 38.7608C2.07019 38.674 1.40515 37.9544 1.40515 37.0824V34.4179H46.5417ZM23.8798 8.15074H1.45678V3.09155C1.45678 2.16174 2.21337 1.40515 3.14355 1.40515H44.8549C45.7851 1.40515 46.5417 2.16174 46.5417 3.09191V8.15074H23.8798Z" fill="url(#paint3_linear)"/>
<path d="M4.39758 12.3556H7.95679C8.3446 12.3556 8.65918 12.0414 8.65918 11.6532C8.65918 11.2654 8.3446 10.9508 7.95679 10.9508H4.39758C4.0094 10.9508 3.69482 11.2654 3.69482 11.6532C3.69482 12.0414 4.0094 12.3556 4.39758 12.3556Z" fill="url(#paint4_linear)"/>
<path d="M10.3918 12.3556H12.0779C12.4657 12.3556 12.7803 12.0414 12.7803 11.6532C12.7803 11.2654 12.4657 10.9508 12.0779 10.9508H10.3918C10.0037 10.9508 9.68945 11.2654 9.68945 11.6532C9.68945 12.0414 10.0037 12.3556 10.3918 12.3556Z" fill="url(#paint5_linear)"/>
<path d="M9.73633 13.4304H7.39478C7.00696 13.4304 6.69238 13.745 6.69238 14.1332C6.69238 14.521 7.00696 14.8356 7.39478 14.8356H9.73633C10.1245 14.8356 10.4391 14.521 10.4391 14.1332C10.4391 13.745 10.1245 13.4304 9.73633 13.4304Z" fill="url(#paint6_linear)"/>
<path d="M20.7886 15.999H18.447C18.0592 15.999 17.7446 16.3136 17.7446 16.7014C17.7446 17.0892 18.0592 17.4038 18.447 17.4038H20.7886C21.1768 17.4038 21.491 17.0892 21.491 16.7014C21.491 16.3136 21.1768 15.999 20.7886 15.999Z" fill="url(#paint7_linear)"/>
<path d="M11.188 14.1332C11.188 14.521 11.5026 14.8356 11.8904 14.8356H17.5103C17.8984 14.8356 18.213 14.521 18.213 14.1332C18.213 13.745 17.8984 13.4304 17.5103 13.4304H11.8904C11.5026 13.4304 11.188 13.745 11.188 14.1332Z" fill="url(#paint8_linear)"/>
<path d="M8.93994 16.7014C8.93994 17.0892 9.25452 17.4038 9.6427 17.4038H10.8604C11.2482 17.4038 11.5627 17.0892 11.5627 16.7014C11.5627 16.3136 11.2482 15.999 10.8604 15.999H9.6427C9.25452 15.999 8.93994 16.3136 8.93994 16.7014Z" fill="url(#paint9_linear)"/>
<path d="M16.2927 17.4038C16.6809 17.4038 16.9955 17.0892 16.9955 16.7014C16.9955 16.3136 16.6809 15.999 16.2927 15.999H12.921C12.5328 15.999 12.2183 16.3136 12.2183 16.7014C12.2183 17.0892 12.5328 17.4038 12.921 17.4038H16.2927Z" fill="url(#paint10_linear)"/>
<path d="M8.65918 25.8065C8.65918 25.4183 8.3446 25.1041 7.95679 25.1041H4.39758C4.0094 25.1041 3.69482 25.4183 3.69482 25.8065C3.69482 26.1943 4.0094 26.5089 4.39758 26.5089H7.95679C8.3446 26.5089 8.65918 26.1943 8.65918 25.8065Z" fill="url(#paint11_linear)"/>
<path d="M10.3918 25.1041C10.0037 25.1041 9.68945 25.4183 9.68945 25.8065C9.68945 26.1943 10.0037 26.5089 10.3918 26.5089H12.0779C12.4657 26.5089 12.7803 26.1943 12.7803 25.8065C12.7803 25.4183 12.4657 25.1041 12.0779 25.1041H10.3918Z" fill="url(#paint12_linear)"/>
<path d="M10.4391 28.2861C10.4391 27.8983 10.1245 27.5837 9.73633 27.5837H7.39478C7.00696 27.5837 6.69238 27.8983 6.69238 28.2861C6.69238 28.6743 7.00696 28.9889 7.39478 28.9889H9.73633C10.1245 28.9889 10.4391 28.6743 10.4391 28.2861Z" fill="url(#paint13_linear)"/>
<path d="M10.8604 30.1523H9.6427C9.25452 30.1523 8.93994 30.4666 8.93994 30.8547C8.93994 31.2426 9.25452 31.5571 9.6427 31.5571H10.8604C11.2482 31.5571 11.5627 31.2426 11.5627 30.8547C11.5627 30.4666 11.2482 30.1523 10.8604 30.1523Z" fill="url(#paint14_linear)"/>
<path d="M20.7886 30.1523H18.447C18.0592 30.1523 17.7446 30.4666 17.7446 30.8547C17.7446 31.2426 18.0592 31.5571 18.447 31.5571H20.7886C21.1768 31.5571 21.491 31.2426 21.491 30.8547C21.491 30.4666 21.1768 30.1523 20.7886 30.1523Z" fill="url(#paint15_linear)"/>
<path d="M18.213 28.2861C18.213 27.8983 17.8984 27.5837 17.5103 27.5837H11.8904C11.5026 27.5837 11.188 27.8983 11.188 28.2861C11.188 28.6743 11.5026 28.9889 11.8904 28.9889H17.5103C17.8984 28.9889 18.213 28.6743 18.213 28.2861Z" fill="url(#paint16_linear)"/>
<path d="M16.2927 30.1523H12.921C12.5328 30.1523 12.2183 30.4666 12.2183 30.8547C12.2183 31.2426 12.5328 31.5571 12.921 31.5571H16.2927C16.6809 31.5571 16.9955 31.2426 16.9955 30.8547C16.9955 30.4666 16.6809 30.1523 16.2927 30.1523Z" fill="url(#paint17_linear)"/>
<path d="M4.39758 20.6228H6.3645C6.75232 20.6228 7.06689 20.3082 7.06689 19.9204C7.06689 19.5322 6.75232 19.218 6.3645 19.218H4.39758C4.0094 19.218 3.69482 19.5322 3.69482 19.9204C3.69482 20.3082 4.0094 20.6228 4.39758 20.6228Z" fill="url(#paint18_linear)"/>
<path d="M16.2458 19.9204C16.2458 19.5322 15.9316 19.218 15.5435 19.218H8.3313C7.94348 19.218 7.62891 19.5322 7.62891 19.9204C7.62891 20.3082 7.94348 20.6228 8.3313 20.6228H15.5435C15.9316 20.6228 16.2458 20.3082 16.2458 19.9204Z" fill="url(#paint19_linear)"/>
<path d="M14.9351 22.4C14.9351 22.0122 14.6205 21.6976 14.2323 21.6976H7.39478C7.00696 21.6976 6.69238 22.0122 6.69238 22.4C6.69238 22.7882 7.00696 23.1028 7.39478 23.1028H14.2323C14.6205 23.1028 14.9351 22.7882 14.9351 22.4Z" fill="url(#paint20_linear)"/>
<path d="M16.1993 23.1028H17.5104C17.8986 23.1028 18.2131 22.7882 18.2131 22.4C18.2131 22.0122 17.8986 21.6976 17.5104 21.6976H16.1993C15.8112 21.6976 15.4966 22.0122 15.4966 22.4C15.4966 22.7882 15.8112 23.1028 16.1993 23.1028Z" fill="url(#paint21_linear)"/>
<path d="M32.1578 27.1549H27.6622C27.274 27.1549 26.9595 27.4695 26.9595 27.8573C26.9595 28.2455 27.274 28.5597 27.6622 28.5597H32.1578C32.546 28.5597 32.8606 28.2455 32.8606 27.8573C32.8606 27.4695 32.546 27.1549 32.1578 27.1549Z" fill="url(#paint22_linear)"/>
<path d="M43.585 27.1549H34.6868C34.299 27.1549 33.9844 27.4695 33.9844 27.8573C33.9844 28.2455 34.299 28.5597 34.6868 28.5597H43.585C43.9731 28.5597 44.2877 28.2455 44.2877 27.8573C44.2877 27.4695 43.9731 27.1549 43.585 27.1549Z" fill="url(#paint23_linear)"/>
<path d="M32.1578 29.8711H27.6622C27.274 29.8711 26.9595 30.1857 26.9595 30.5739C26.9595 30.9617 27.274 31.2762 27.6622 31.2762H32.1578C32.546 31.2762 32.8606 30.9617 32.8606 30.5739C32.8606 30.1857 32.546 29.8711 32.1578 29.8711Z" fill="url(#paint24_linear)"/>
<path d="M43.585 29.8711H34.6868C34.299 29.8711 33.9844 30.1857 33.9844 30.5739C33.9844 30.9617 34.299 31.2762 34.6868 31.2762H43.585C43.9731 31.2762 44.2877 30.9617 44.2877 30.5739C44.2877 30.1857 43.9731 29.8711 43.585 29.8711Z" fill="url(#paint25_linear)"/>
<path d="M44.3087 12.7661C44.3087 11.7653 43.4946 10.9508 42.4938 10.9508H28.7528C27.752 10.9508 26.9375 11.7653 26.9375 12.7661V22.2803V22.281V23.9451C26.9375 24.9459 27.752 25.7604 28.7528 25.7604H42.4938C43.4946 25.7604 44.3087 24.9459 44.3087 23.9451V12.7661ZM42.9039 23.9451C42.9039 24.1714 42.7197 24.3552 42.4938 24.3552H28.7528C28.5265 24.3552 28.3427 24.1714 28.3427 23.9451V22.5718L33.4879 17.4291L37.0391 21.431C37.2965 21.7214 37.7407 21.7478 38.0308 21.4904C38.3212 21.2329 38.3475 20.7891 38.0901 20.4987L37.7678 20.1357L39.3557 18.5486L42.9039 22.5476V23.9451ZM42.9039 20.4305L40.2002 17.3837C39.9977 17.1555 39.7065 17.0193 39.4015 17.0101C39.095 17.0013 38.7976 17.1196 38.5819 17.3353L36.8336 19.0825L34.3324 16.2642C34.1299 16.0356 33.8387 15.8994 33.5337 15.8906C33.229 15.8822 32.9298 15.9998 32.7141 16.2155L28.3427 20.5851V12.7661C28.3427 12.5398 28.5265 12.3556 28.7528 12.3556H42.4938C42.7201 12.3556 42.9039 12.5398 42.9039 12.7661V20.4305Z" fill="url(#paint26_linear)"/>
</g>
<defs>
<linearGradient id="paint0_linear" x1="5.18073" y1="2.69641" x2="5.18073" y2="6.81958" gradientUnits="userSpaceOnUse">
<stop stop-color="#EF4744"/>
<stop offset="1" stop-color="#FF9966"/>
</linearGradient>
<linearGradient id="paint1_linear" x1="10.4297" y1="2.69641" x2="10.4297" y2="6.81958" gradientUnits="userSpaceOnUse">
<stop stop-color="#EF4744"/>
<stop offset="1" stop-color="#FF9966"/>
</linearGradient>
<linearGradient id="paint2_linear" x1="15.6783" y1="2.69641" x2="15.6783" y2="6.81958" gradientUnits="userSpaceOnUse">
<stop stop-color="#EF4744"/>
<stop offset="1" stop-color="#FF9966"/>
</linearGradient>
<linearGradient id="paint3_linear" x1="24" y1="0" x2="24" y2="47.9483" gradientUnits="userSpaceOnUse">
<stop stop-color="#EF4744"/>
<stop offset="1" stop-color="#FF9966"/>
</linearGradient>
<linearGradient id="paint4_linear" x1="6.177" y1="10.9508" x2="6.177" y2="12.3556" gradientUnits="userSpaceOnUse">
<stop stop-color="#EF4744"/>
<stop offset="1" stop-color="#FF9966"/>
</linearGradient>
<linearGradient id="paint5_linear" x1="11.2349" y1="10.9508" x2="11.2349" y2="12.3556" gradientUnits="userSpaceOnUse">
<stop stop-color="#EF4744"/>
<stop offset="1" stop-color="#FF9966"/>
</linearGradient>
<linearGradient id="paint6_linear" x1="8.56573" y1="13.4304" x2="8.56573" y2="14.8356" gradientUnits="userSpaceOnUse">
<stop stop-color="#EF4744"/>
<stop offset="1" stop-color="#FF9966"/>
</linearGradient>
<linearGradient id="paint7_linear" x1="19.6178" y1="15.999" x2="19.6178" y2="17.4038" gradientUnits="userSpaceOnUse">
<stop stop-color="#EF4744"/>
<stop offset="1" stop-color="#FF9966"/>
</linearGradient>
<linearGradient id="paint8_linear" x1="14.7005" y1="13.4304" x2="14.7005" y2="14.8356" gradientUnits="userSpaceOnUse">
<stop stop-color="#EF4744"/>
<stop offset="1" stop-color="#FF9966"/>
</linearGradient>
<linearGradient id="paint9_linear" x1="10.2513" y1="15.999" x2="10.2513" y2="17.4038" gradientUnits="userSpaceOnUse">
<stop stop-color="#EF4744"/>
<stop offset="1" stop-color="#FF9966"/>
</linearGradient>
<linearGradient id="paint10_linear" x1="14.6069" y1="15.999" x2="14.6069" y2="17.4038" gradientUnits="userSpaceOnUse">
<stop stop-color="#EF4744"/>
<stop offset="1" stop-color="#FF9966"/>
</linearGradient>
<linearGradient id="paint11_linear" x1="6.177" y1="25.1041" x2="6.177" y2="26.5089" gradientUnits="userSpaceOnUse">
<stop stop-color="#EF4744"/>
<stop offset="1" stop-color="#FF9966"/>
</linearGradient>
<linearGradient id="paint12_linear" x1="11.2349" y1="25.1041" x2="11.2349" y2="26.5089" gradientUnits="userSpaceOnUse">
<stop stop-color="#EF4744"/>
<stop offset="1" stop-color="#FF9966"/>
</linearGradient>
<linearGradient id="paint13_linear" x1="8.56573" y1="27.5837" x2="8.56573" y2="28.9889" gradientUnits="userSpaceOnUse">
<stop stop-color="#EF4744"/>
<stop offset="1" stop-color="#FF9966"/>
</linearGradient>
<linearGradient id="paint14_linear" x1="10.2513" y1="30.1523" x2="10.2513" y2="31.5571" gradientUnits="userSpaceOnUse">
<stop stop-color="#EF4744"/>
<stop offset="1" stop-color="#FF9966"/>
</linearGradient>
<linearGradient id="paint15_linear" x1="19.6178" y1="30.1523" x2="19.6178" y2="31.5571" gradientUnits="userSpaceOnUse">
<stop stop-color="#EF4744"/>
<stop offset="1" stop-color="#FF9966"/>
</linearGradient>
<linearGradient id="paint16_linear" x1="14.7005" y1="27.5837" x2="14.7005" y2="28.9889" gradientUnits="userSpaceOnUse">
<stop stop-color="#EF4744"/>
<stop offset="1" stop-color="#FF9966"/>
</linearGradient>
<linearGradient id="paint17_linear" x1="14.6069" y1="30.1523" x2="14.6069" y2="31.5571" gradientUnits="userSpaceOnUse">
<stop stop-color="#EF4744"/>
<stop offset="1" stop-color="#FF9966"/>
</linearGradient>
<linearGradient id="paint18_linear" x1="5.38086" y1="19.218" x2="5.38086" y2="20.6228" gradientUnits="userSpaceOnUse">
<stop stop-color="#EF4744"/>
<stop offset="1" stop-color="#FF9966"/>
</linearGradient>
<linearGradient id="paint19_linear" x1="11.9374" y1="19.218" x2="11.9374" y2="20.6228" gradientUnits="userSpaceOnUse">
<stop stop-color="#EF4744"/>
<stop offset="1" stop-color="#FF9966"/>
</linearGradient>
<linearGradient id="paint20_linear" x1="10.8137" y1="21.6976" x2="10.8137" y2="23.1028" gradientUnits="userSpaceOnUse">
<stop stop-color="#EF4744"/>
<stop offset="1" stop-color="#FF9966"/>
</linearGradient>
<linearGradient id="paint21_linear" x1="16.8549" y1="21.6976" x2="16.8549" y2="23.1028" gradientUnits="userSpaceOnUse">
<stop stop-color="#EF4744"/>
<stop offset="1" stop-color="#FF9966"/>
</linearGradient>
<linearGradient id="paint22_linear" x1="29.91" y1="27.1549" x2="29.91" y2="28.5597" gradientUnits="userSpaceOnUse">
<stop stop-color="#EF4744"/>
<stop offset="1" stop-color="#FF9966"/>
</linearGradient>
<linearGradient id="paint23_linear" x1="39.136" y1="27.1549" x2="39.136" y2="28.5597" gradientUnits="userSpaceOnUse">
<stop stop-color="#EF4744"/>
<stop offset="1" stop-color="#FF9966"/>
</linearGradient>
<linearGradient id="paint24_linear" x1="29.91" y1="29.8711" x2="29.91" y2="31.2762" gradientUnits="userSpaceOnUse">
<stop stop-color="#EF4744"/>
<stop offset="1" stop-color="#FF9966"/>
</linearGradient>
<linearGradient id="paint25_linear" x1="39.136" y1="29.8711" x2="39.136" y2="31.2762" gradientUnits="userSpaceOnUse">
<stop stop-color="#EF4744"/>
<stop offset="1" stop-color="#FF9966"/>
</linearGradient>
<linearGradient id="paint26_linear" x1="35.6231" y1="10.9508" x2="35.6231" y2="25.7604" gradientUnits="userSpaceOnUse">
<stop stop-color="#EF4744"/>
<stop offset="1" stop-color="#FF9966"/>
</linearGradient>
<clipPath id="clip0">
<rect width="48" height="48" fill="white"/>
</clipPath>
</defs>
</svg>
