<svg width="48" height="48" viewBox="0 0 48 48" fill="none" xmlns="http://www.w3.org/2000/svg">
<path d="M33 6.75C31.7595 6.75 30.75 7.7595 30.75 9V15C30.75 16.2405 31.7595 17.25 33 17.25H45C46.2405 17.25 47.25 16.2405 47.25 15V9C47.25 7.7595 46.2405 6.75 45 6.75H41.9805C42.4567 6.1215 42.75 5.3475 42.75 4.5C42.75 2.43225 41.0677 0.75 39 0.75C37.1895 0.75 35.6745 2.04075 35.3258 3.75H27C24.9323 3.75 23.25 5.43225 23.25 7.5V14.3258C21.783 14.625 20.625 15.783 20.3258 17.25H12C9.93225 17.25 8.25 18.9323 8.25 21V27.8258C6.54075 28.1745 5.25 29.6895 5.25 31.5C5.25 32.3475 5.54325 33.1215 6.0195 33.75H3C1.7595 33.75 0.75 34.7595 0.75 36V42C0.75 43.2405 1.7595 44.25 3 44.25H15C16.2405 44.25 17.25 43.2405 17.25 42V36C17.25 34.7595 16.2405 33.75 15 33.75H11.9805C12.4567 33.1215 12.75 32.3475 12.75 31.5C12.75 29.6895 11.4593 28.1745 9.75 27.8258V21C9.75 19.7595 10.7595 18.75 12 18.75H20.3258C20.4398 19.3072 20.6873 19.812 21.0187 20.25H18C16.7595 20.25 15.75 21.2595 15.75 22.5V28.5C15.75 29.7405 16.7595 30.75 18 30.75H23.91C23.8627 30.8827 23.8125 31.014 23.7705 31.149L21.75 31.6687V37.332L23.7705 37.851C23.9722 38.499 24.231 39.1245 24.543 39.72L23.4818 41.5133L27.4867 45.5182L29.28 44.4577C29.8763 44.7697 30.5025 45.0293 31.1497 45.2302L31.668 47.25H37.332L37.8503 45.2302C38.4975 45.0285 39.123 44.7697 39.72 44.4577L41.5133 45.5182L45.5182 41.5133L44.457 39.72C44.769 39.1245 45.0277 38.499 45.2295 37.851L47.25 37.3313V31.668L45.2295 31.149C45.0277 30.501 44.769 29.8755 44.457 29.28L45.5182 27.4867L41.5133 23.4818L39.72 24.543C39.1245 24.2302 38.4982 23.9722 37.8503 23.7705L37.332 21.75H32.112C31.8015 20.8792 30.9765 20.25 30 20.25H26.9805C27.4567 19.6215 27.75 18.8475 27.75 18C27.75 16.1895 26.4592 14.6745 24.75 14.3258V7.5C24.75 6.2595 25.7595 5.25 27 5.25H35.3258C35.4398 5.80725 35.6873 6.312 36.0188 6.75H33ZM15.75 36V42C15.75 42.414 15.4132 42.75 15 42.75H3C2.58675 42.75 2.25 42.414 2.25 42V36C2.25 35.586 2.58675 35.25 3 35.25H15C15.4132 35.25 15.75 35.586 15.75 36ZM11.25 31.5C11.25 32.7405 10.2405 33.75 9 33.75C7.7595 33.75 6.75 32.7405 6.75 31.5C6.75 30.2595 7.7595 29.25 9 29.25C10.2405 29.25 11.25 30.2595 11.25 31.5ZM36.6128 24.9825L37.035 25.0957C37.8525 25.3155 38.6348 25.6388 39.3585 26.0558L39.738 26.2747L41.2747 25.365L43.6343 27.7245L42.7253 29.2627L42.9442 29.6423C43.3612 30.3645 43.6845 31.146 43.9043 31.965L44.0182 32.3872L45.75 32.8313V36.168L44.0182 36.6128L43.9043 37.035C43.6845 37.854 43.3605 38.6355 42.9442 39.3577L42.7253 39.7373L43.6343 41.2755L41.2747 43.6343L39.738 42.7253L39.3585 42.9442C38.634 43.362 37.8525 43.6852 37.0358 43.9043L36.6128 44.0175L36.168 45.75H32.832L32.3872 44.0175L31.9642 43.9043C31.1475 43.6852 30.366 43.3612 29.6415 42.9442L29.262 42.7253L27.7253 43.6343L25.3657 41.2755L26.2747 39.7373L26.0558 39.3577C25.6388 38.6355 25.3155 37.854 25.0957 37.035L24.9817 36.6128L23.25 36.1687V32.832L24.9817 32.3872L25.0957 31.965C25.2075 31.5487 25.3553 31.1453 25.5195 30.7507H27.1515C26.5605 31.9028 26.25 33.177 26.25 34.5C26.25 39.0488 29.9513 42.75 34.5 42.75C39.0488 42.75 42.75 39.0488 42.75 34.5C42.75 29.9513 39.0488 26.25 34.5 26.25C33.7298 26.25 32.9782 26.3632 32.25 26.5695V23.25H36.168L36.6128 24.9825ZM32.25 28.5V28.1415C32.97 27.8865 33.7238 27.75 34.5 27.75C38.2215 27.75 41.25 30.7778 41.25 34.5C41.25 38.2222 38.2215 41.25 34.5 41.25C30.7785 41.25 27.75 38.2222 27.75 34.5C27.75 33.1478 28.1467 31.8608 28.8923 30.75H30C31.2405 30.75 32.25 29.7405 32.25 28.5ZM30.75 22.5V28.5C30.75 28.914 30.4132 29.25 30 29.25H18C17.5868 29.25 17.25 28.914 17.25 28.5V22.5C17.25 22.0868 17.5868 21.75 18 21.75H30C30.4132 21.75 30.75 22.0868 30.75 22.5ZM26.25 18C26.25 19.2405 25.2405 20.25 24 20.25C22.7595 20.25 21.75 19.2405 21.75 18C21.75 16.7595 22.7595 15.75 24 15.75C25.2405 15.75 26.25 16.7595 26.25 18ZM45.75 9V15C45.75 15.4132 45.4132 15.75 45 15.75H33C32.5868 15.75 32.25 15.4132 32.25 15V9C32.25 8.58675 32.5868 8.25 33 8.25H45C45.4132 8.25 45.75 8.58675 45.75 9ZM36.75 4.5C36.75 3.2595 37.7595 2.25 39 2.25C40.2405 2.25 41.25 3.2595 41.25 4.5C41.25 5.7405 40.2405 6.75 39 6.75C37.7595 6.75 36.75 5.7405 36.75 4.5Z" fill="url(#paint0_linear)"/>
<path d="M33.75 9.75H44.25V11.25H33.75V9.75Z" fill="url(#paint1_linear)"/>
<path d="M33.75 12.75H44.25V14.25H33.75V12.75Z" fill="url(#paint2_linear)"/>
<path d="M18.75 23.25H29.25V24.75H18.75V23.25Z" fill="url(#paint3_linear)"/>
<path d="M18.75 26.25H29.25V27.75H18.75V26.25Z" fill="url(#paint4_linear)"/>
<path d="M3.75 36.75H14.25V38.25H3.75V36.75Z" fill="url(#paint5_linear)"/>
<path d="M3.75 39.75H14.25V41.25H3.75V39.75Z" fill="url(#paint6_linear)"/>
<path d="M34.5 38.25C36.5677 38.25 38.25 36.5677 38.25 34.5C38.25 32.4323 36.5677 30.75 34.5 30.75C32.4323 30.75 30.75 32.4323 30.75 34.5C30.75 36.5677 32.4323 38.25 34.5 38.25ZM34.5 32.25C35.7405 32.25 36.75 33.2595 36.75 34.5C36.75 35.7405 35.7405 36.75 34.5 36.75C33.2595 36.75 32.25 35.7405 32.25 34.5C32.25 33.2595 33.2595 32.25 34.5 32.25Z" fill="url(#paint7_linear)"/>
<defs>
<linearGradient id="paint0_linear" x1="24" y1="0.75" x2="24" y2="47.25" gradientUnits="userSpaceOnUse">
<stop stop-color="#EF4744"/>
<stop offset="1" stop-color="#FF9966"/>
</linearGradient>
<linearGradient id="paint1_linear" x1="39" y1="9.75" x2="39" y2="11.25" gradientUnits="userSpaceOnUse">
<stop stop-color="#EF4744"/>
<stop offset="1" stop-color="#FF9966"/>
</linearGradient>
<linearGradient id="paint2_linear" x1="39" y1="12.75" x2="39" y2="14.25" gradientUnits="userSpaceOnUse">
<stop stop-color="#EF4744"/>
<stop offset="1" stop-color="#FF9966"/>
</linearGradient>
<linearGradient id="paint3_linear" x1="24" y1="23.25" x2="24" y2="24.75" gradientUnits="userSpaceOnUse">
<stop stop-color="#EF4744"/>
<stop offset="1" stop-color="#FF9966"/>
</linearGradient>
<linearGradient id="paint4_linear" x1="24" y1="26.25" x2="24" y2="27.75" gradientUnits="userSpaceOnUse">
<stop stop-color="#EF4744"/>
<stop offset="1" stop-color="#FF9966"/>
</linearGradient>
<linearGradient id="paint5_linear" x1="9" y1="36.75" x2="9" y2="38.25" gradientUnits="userSpaceOnUse">
<stop stop-color="#EF4744"/>
<stop offset="1" stop-color="#FF9966"/>
</linearGradient>
<linearGradient id="paint6_linear" x1="9" y1="39.75" x2="9" y2="41.25" gradientUnits="userSpaceOnUse">
<stop stop-color="#EF4744"/>
<stop offset="1" stop-color="#FF9966"/>
</linearGradient>
<linearGradient id="paint7_linear" x1="34.5" y1="30.75" x2="34.5" y2="38.25" gradientUnits="userSpaceOnUse">
<stop stop-color="#EF4744"/>
<stop offset="1" stop-color="#FF9966"/>
</linearGradient>
</defs>
</svg>
