<svg width="48" height="48" viewBox="0 0 48 48" fill="none" xmlns="http://www.w3.org/2000/svg">
<g clip-path="url(#clip0)">
<path d="M45.7975 31.9576L41.7117 30.1416C41.4231 30.0134 41.2366 29.7264 41.2366 29.4107V28.2887C42.6091 27.1951 43.4912 25.5111 43.4912 23.6239V22.0445C43.9434 21.7946 44.2427 21.3118 44.2427 20.7711V20.6178C44.2427 17.3294 41.5674 14.6541 38.279 14.6541H36.776C33.4875 14.6541 30.8123 17.3294 30.8123 20.6178V22.0086C30.8123 22.4839 31.0168 22.9145 31.3734 23.19C31.4338 23.2367 31.4975 23.2777 31.5638 23.3133V23.6239C31.5638 25.5111 32.4459 27.1951 33.8183 28.2886V29.4107C33.8183 29.7265 33.6318 30.0134 33.3433 30.1416L29.2574 31.9576C27.9193 32.5523 27.0547 33.8827 27.0547 35.347V44.6661C27.0547 45.0545 27.3695 45.3693 27.7578 45.3693C28.1461 45.3693 28.4609 45.0545 28.4609 44.6661V35.3471C28.4609 35.2656 28.4668 35.1851 28.4752 35.1052L30.3579 36.9879C30.6509 37.281 30.8123 37.6706 30.8123 38.085V44.6662C30.8123 45.0546 31.1271 45.3694 31.5154 45.3694C31.9037 45.3694 32.2185 45.0546 32.2185 44.6662V38.085C32.2185 37.2951 31.9109 36.5523 31.3523 35.9936L29.1077 33.7491C29.3099 33.5393 29.5526 33.3654 29.8286 33.2427L33.8455 31.4574L36.8244 34.4363V44.6663C36.8244 45.0546 37.1392 45.3695 37.5275 45.3695C37.9158 45.3695 38.2306 45.0546 38.2306 44.6663V34.4363L41.2095 31.4574L45.2263 33.2426C45.5024 33.3653 45.7451 33.5392 45.9473 33.7491L43.7027 35.9936C43.1442 36.5523 42.8365 37.2951 42.8365 38.085V44.6662C42.8365 45.0546 43.1513 45.3694 43.5396 45.3694C43.9279 45.3694 44.2427 45.0546 44.2427 44.6662V38.085C44.2427 37.6706 44.4041 37.281 44.6971 36.9879L46.5797 35.1053C46.5882 35.1852 46.594 35.2656 46.594 35.3471V44.6662C46.594 45.0546 46.9088 45.3694 47.2971 45.3694C47.6854 45.3694 48.0002 45.0546 48.0002 44.6662V35.3471C48.0002 33.8827 47.1356 32.5523 45.7975 31.9576ZM37.5276 33.1506L34.9137 30.5367C35.1124 30.2023 35.2246 29.8155 35.2246 29.4107V29.1246C35.9336 29.4225 36.7116 29.5876 37.5276 29.5876C38.3435 29.5876 39.1215 29.4225 39.8304 29.1246V29.4107C39.8304 29.8155 39.9426 30.2024 40.1414 30.5368L37.5276 33.1506ZM37.5275 28.1813C35.0145 28.1813 32.97 26.1368 32.97 23.6239V23.3076C33.4088 23.1336 33.837 22.857 34.247 22.4786C34.5323 22.2153 34.5502 21.7704 34.2867 21.4851C34.0235 21.1998 33.5787 21.182 33.2932 21.4453C32.9415 21.7699 32.5902 21.9797 32.2491 22.0686C32.2408 22.0708 32.2348 22.0717 32.2304 22.0721C32.2254 22.0624 32.2185 22.0416 32.2185 22.0086V20.6178C32.2185 18.1048 34.263 16.0603 36.776 16.0603H38.279C40.792 16.0603 42.8365 18.1048 42.8365 20.6178V20.7711C42.8365 20.7938 42.8228 20.8137 42.8048 20.8173C38.5941 21.6486 36.4826 20.0815 35.7702 19.3691C35.4956 19.0945 35.0503 19.0945 34.7758 19.3691C34.5013 19.6437 34.5013 20.0889 34.7758 20.3634C36.9592 22.5468 40.1453 22.5861 42.085 22.3532V23.6239C42.085 26.1368 40.0405 28.1813 37.5275 28.1813Z" fill="url(#paint0_linear)"/>
<path d="M15.5327 32.7555L12.4464 31.5981C12.1359 31.4817 11.9274 31.1808 11.9274 30.8492V30.3025C13.7215 29.2732 14.9335 27.3396 14.9335 25.1271V22.8726C14.9335 20.9661 14.0332 19.2668 12.6365 18.1744C12.6647 17.9887 12.6789 17.8003 12.6789 17.612C12.6789 15.5667 11.015 13.9028 8.96981 13.9028C6.92456 13.9028 5.26059 15.5668 5.26059 17.612C5.26059 17.8003 5.27644 17.9879 5.30456 18.1732C3.90703 19.2657 3.006 20.9653 3.006 22.8726V25.1271C3.006 27.3396 4.218 29.2731 6.01209 30.3024V30.8491C6.01209 31.1807 5.8035 31.4817 5.493 31.598L2.40675 32.7554C0.967219 33.2954 0 34.6911 0 36.2285V44.6664C0 45.0547 0.314813 45.3695 0.703125 45.3695C1.09144 45.3695 1.40625 45.0547 1.40625 44.6664V36.2285C1.40625 36.1076 1.416 35.9883 1.43466 35.8712L2.55159 36.9882C2.84466 37.2813 3.006 37.6709 3.006 38.0853V44.6665C3.006 45.0548 3.32081 45.3696 3.70913 45.3696C4.09744 45.3696 4.41225 45.0548 4.41225 44.6665V38.0853C4.41225 37.2953 4.10466 36.5526 3.546 35.9939L2.11913 34.567C2.34 34.3546 2.60363 34.1836 2.90053 34.0723L5.44509 33.1181L8.26669 35.9396V44.6665C8.26669 45.0548 8.5815 45.3696 8.96981 45.3696C9.35813 45.3696 9.67294 45.0548 9.67294 44.6665V35.9396L12.4944 33.1181L15.0389 34.0723C15.3358 34.1837 15.5994 34.3547 15.8204 34.567L14.3934 35.9939C13.8349 36.5526 13.5272 37.2953 13.5272 38.0853V44.6665C13.5272 45.0548 13.842 45.3696 14.2303 45.3696C14.6186 45.3696 14.9334 45.0548 14.9334 44.6665V38.0853C14.9334 37.6709 15.0948 37.2813 15.3878 36.9882L16.5048 35.8713C16.5233 35.9884 16.5332 36.1077 16.5332 36.2285V44.6665C16.5332 45.0548 16.848 45.3696 17.2363 45.3696C17.6246 45.3696 17.9394 45.0548 17.9394 44.6665V36.2285C17.9394 34.691 16.9723 33.2954 15.5327 32.7555ZM8.96981 15.3091C10.1568 15.3091 11.1367 16.2118 11.2595 17.3667C10.554 17.0722 9.78066 16.9089 8.96972 16.9089C8.15878 16.9089 7.38544 17.0722 6.68006 17.3667C6.80297 16.2118 7.78284 15.3091 8.96981 15.3091ZM4.41234 22.8726C4.41225 20.3596 6.45675 18.3152 8.96981 18.3152C11.4828 18.3152 13.5273 20.3597 13.5273 22.8726V23.6448C10.2536 23.3967 7.11028 21.5381 7.077 21.5182C6.909 21.4175 6.70669 21.3913 6.51863 21.4461C6.33056 21.5008 6.17391 21.6315 6.08634 21.8067C5.76909 22.4412 5.04469 22.9546 4.41234 23.2952V22.8726ZM4.41225 25.1271V24.8544C5.05791 24.5756 6.20541 23.9844 6.94706 23.0522C8.09222 23.6515 10.7288 24.8701 13.5272 25.0543V25.1271C13.5272 27.6401 11.4827 29.6846 8.96972 29.6846C6.45675 29.6846 4.41225 27.6402 4.41225 25.1271ZM8.96981 34.6539L6.74616 32.4304C7.15688 32.0301 7.40738 31.4766 7.41703 30.8845C7.91241 31.0183 8.43263 31.0909 8.96981 31.0909C9.50691 31.0909 10.0271 31.0183 10.5225 30.8845C10.5322 31.4766 10.7827 32.0301 11.1934 32.4304L8.96981 34.6539Z" fill="url(#paint1_linear)"/>
<path d="M23.2483 7.13892H21.7451C21.3568 7.13892 21.042 7.45373 21.042 7.84204C21.042 8.23035 21.3568 8.54517 21.7451 8.54517H23.2483C23.6366 8.54517 23.9514 8.23035 23.9514 7.84204C23.9514 7.45373 23.6366 7.13892 23.2483 7.13892Z" fill="url(#paint2_linear)"/>
<path d="M18.7391 7.13892H12.7271C12.3387 7.13892 12.0239 7.45373 12.0239 7.84204C12.0239 8.23035 12.3387 8.54517 12.7271 8.54517H18.7391C19.1274 8.54517 19.4422 8.23035 19.4422 7.84204C19.4422 7.45373 19.1274 7.13892 18.7391 7.13892Z" fill="url(#paint3_linear)"/>
<path d="M23.2484 10.8967H17.2363C16.848 10.8967 16.5332 11.2115 16.5332 11.5999C16.5332 11.9882 16.848 12.303 17.2363 12.303H23.2484C23.6367 12.303 23.9515 11.9882 23.9515 11.5999C23.9515 11.2115 23.6367 10.8967 23.2484 10.8967Z" fill="url(#paint4_linear)"/>
<path d="M14.2303 10.8967H12.7271C12.3387 10.8967 12.0239 11.2115 12.0239 11.5999C12.0239 11.9882 12.3387 12.303 12.7271 12.303H14.2303C14.6186 12.303 14.9335 11.9882 14.9335 11.5999C14.9335 11.2115 14.6186 10.8967 14.2303 10.8967Z" fill="url(#paint5_linear)"/>
<path d="M24.7514 2.63037H11.2243C9.17901 2.63037 7.51514 4.29434 7.51514 6.3395V11.6001C7.51514 11.9884 7.82995 12.3032 8.21826 12.3032C8.60657 12.3032 8.92139 11.9884 8.92139 11.6001V6.3395C8.92139 5.06965 9.95451 4.03662 11.2243 4.03662H24.7515C26.0214 4.03662 27.0545 5.06975 27.0545 6.3395V13.1032C27.0545 14.373 26.0214 15.4061 24.7515 15.4061H23.2485C23.0016 15.4061 22.7727 15.5356 22.6456 15.7474C21.4948 17.6656 19.6833 18.7353 18.3663 19.295C18.3486 19.3025 18.3265 19.312 18.2997 19.2832C18.281 19.263 18.2848 19.2557 18.2949 19.2361C19.0368 17.8013 19.4062 16.3412 19.4216 16.2797C19.4742 16.0697 19.4269 15.8472 19.2937 15.6764C19.1605 15.5057 18.956 15.4061 18.7394 15.4061H14.9819C14.5935 15.4061 14.2787 15.7209 14.2787 16.1092C14.2787 16.4975 14.5935 16.8123 14.9819 16.8123H17.7909C17.6215 17.3099 17.3723 17.9586 17.0457 18.5903C16.7616 19.1397 16.849 19.7871 17.2685 20.2393C17.5531 20.5463 17.9379 20.7091 18.3344 20.7091C18.529 20.7091 18.7264 20.6699 18.9163 20.5892C20.3467 19.9813 22.2913 18.8398 23.6359 16.8123H24.7514C26.7967 16.8123 28.4607 15.1483 28.4607 13.1032V6.3395C28.4607 4.29425 26.7967 2.63037 24.7514 2.63037Z" fill="url(#paint6_linear)"/>
<path d="M22.4971 23.6727C22.1088 23.6727 21.7939 23.9875 21.7939 24.3759V28.1334C21.7939 28.5218 22.1088 28.8366 22.4971 28.8366C22.8854 28.8366 23.2002 28.5218 23.2002 28.1334V24.3759C23.2002 23.9875 22.8854 23.6727 22.4971 23.6727Z" fill="url(#paint7_linear)"/>
<path d="M22.4971 29.6848C22.1088 29.6848 21.7939 29.9996 21.7939 30.3879C21.7939 30.7763 22.1088 31.0911 22.4971 31.0911H22.5046C22.8929 31.0911 23.2039 30.7763 23.2039 30.3879C23.2039 29.9996 22.8854 29.6848 22.4971 29.6848Z" fill="url(#paint8_linear)"/>
<path d="M30.8658 26.8643C29.8555 26.4836 29.3482 26.2784 29.0952 26.1702C28.7972 24.5497 27.8953 23.0658 26.5823 22.0549C25.1545 20.9558 23.3721 20.4853 21.5635 20.73C18.4757 21.1477 16.1694 23.5128 15.8244 26.615C15.6118 28.5261 16.2195 30.4373 17.4916 31.8588C18.7647 33.2812 20.5891 34.0971 22.4969 34.0971C25.1821 34.0972 27.6189 32.4711 28.6678 30.0157L30.7998 29.3377C31.3394 29.1662 31.6978 28.6895 31.7126 28.1235C31.7276 27.5581 31.3951 27.0638 30.8658 26.8643ZM27.9242 28.7765C27.717 28.8424 27.5518 29.0006 27.477 29.2048C26.7134 31.29 24.712 32.691 22.4968 32.691C20.9886 32.691 19.5461 32.0459 18.5395 30.9211C17.5191 29.7809 17.0512 28.3069 17.222 26.7706C17.4944 24.3209 19.3149 22.4534 21.752 22.1237C22.0006 22.0901 22.2483 22.0734 22.4942 22.0734C23.6662 22.0734 24.792 22.4517 25.7245 23.1693C26.8586 24.0424 27.5806 25.3024 27.7572 26.7169C27.8139 27.1719 28.1514 27.3085 28.8908 27.6076C29.2017 27.7334 29.6109 27.8926 30.1092 28.0817L27.9242 28.7765Z" fill="url(#paint9_linear)"/>
</g>
<defs>
<linearGradient id="paint0_linear" x1="37.5275" y1="14.6541" x2="37.5275" y2="45.3695" gradientUnits="userSpaceOnUse">
<stop stop-color="#EF4744"/>
<stop offset="1" stop-color="#FF9966"/>
</linearGradient>
<linearGradient id="paint1_linear" x1="8.96972" y1="13.9028" x2="8.96972" y2="45.3696" gradientUnits="userSpaceOnUse">
<stop stop-color="#EF4744"/>
<stop offset="1" stop-color="#FF9966"/>
</linearGradient>
<linearGradient id="paint2_linear" x1="22.4967" y1="7.13892" x2="22.4967" y2="8.54517" gradientUnits="userSpaceOnUse">
<stop stop-color="#EF4744"/>
<stop offset="1" stop-color="#FF9966"/>
</linearGradient>
<linearGradient id="paint3_linear" x1="15.7331" y1="7.13892" x2="15.7331" y2="8.54517" gradientUnits="userSpaceOnUse">
<stop stop-color="#EF4744"/>
<stop offset="1" stop-color="#FF9966"/>
</linearGradient>
<linearGradient id="paint4_linear" x1="20.2424" y1="10.8967" x2="20.2424" y2="12.303" gradientUnits="userSpaceOnUse">
<stop stop-color="#EF4744"/>
<stop offset="1" stop-color="#FF9966"/>
</linearGradient>
<linearGradient id="paint5_linear" x1="13.4787" y1="10.8967" x2="13.4787" y2="12.303" gradientUnits="userSpaceOnUse">
<stop stop-color="#EF4744"/>
<stop offset="1" stop-color="#FF9966"/>
</linearGradient>
<linearGradient id="paint6_linear" x1="17.9879" y1="2.63037" x2="17.9879" y2="20.7091" gradientUnits="userSpaceOnUse">
<stop stop-color="#EF4744"/>
<stop offset="1" stop-color="#FF9966"/>
</linearGradient>
<linearGradient id="paint7_linear" x1="22.4971" y1="23.6727" x2="22.4971" y2="28.8366" gradientUnits="userSpaceOnUse">
<stop stop-color="#EF4744"/>
<stop offset="1" stop-color="#FF9966"/>
</linearGradient>
<linearGradient id="paint8_linear" x1="22.4989" y1="29.6848" x2="22.4989" y2="31.0911" gradientUnits="userSpaceOnUse">
<stop stop-color="#EF4744"/>
<stop offset="1" stop-color="#FF9966"/>
</linearGradient>
<linearGradient id="paint9_linear" x1="23.7479" y1="20.6667" x2="23.7479" y2="34.0971" gradientUnits="userSpaceOnUse">
<stop stop-color="#EF4744"/>
<stop offset="1" stop-color="#FF9966"/>
</linearGradient>
<clipPath id="clip0">
<rect width="48" height="48" fill="white"/>
</clipPath>
</defs>
</svg>
