<svg width="48" height="48" viewBox="0 0 48 48" fill="none" xmlns="http://www.w3.org/2000/svg">
<g clip-path="url(#clip0)">
<path d="M47.6442 20.182L47.6443 20.1819L41.5151 16.1185V2.53656C41.5151 2.09752 41.1591 1.74158 40.7201 1.74158H7.27886C6.83982 1.74158 6.48388 2.09752 6.48388 2.53656V16.1194L0.355728 20.1819L0.355834 20.1821C0.141507 20.3245 0 20.5678 0 20.8445V45.4635C0 45.9026 0.35594 46.2585 0.794983 46.2585H47.205C47.6441 46.2585 48 45.9026 48 45.4635V20.8445C48 20.5678 47.8585 20.3245 47.6442 20.182ZM6.48388 22.9622L3.99028 21.6395H6.48388V22.9622ZM1.58997 22.1661L19.8719 31.8638L1.58997 43.9822V22.1661ZM23.9997 31.035L44.5672 44.6685H3.43231L23.9997 31.035ZM28.1278 31.8639L46.4099 22.1661V43.9826L28.1278 31.8639ZM41.5151 21.6395H44.0098L41.5151 22.9627V21.6395ZM44.5672 20.0495H41.5151V18.026L44.5672 20.0495ZM39.9251 3.33154V23.8062L26.6195 30.8641L24.4388 29.4186C24.1727 29.2422 23.8266 29.2422 23.5604 29.4186L21.3801 30.8639L8.07384 23.8056V3.33154H39.9251ZM6.48388 20.0495H3.43305L6.48388 18.0271V20.0495Z" fill="url(#paint0_linear)"/>
<path d="M24.0002 22.6487H30.334C30.773 22.6487 31.129 22.2928 31.129 21.8537C31.129 21.4147 30.773 21.0587 30.334 21.0587H24.0002C20.9461 21.0587 18.4614 18.574 18.4614 15.5199V15.2854C18.4614 12.2313 20.9461 9.74656 24.0002 9.74656C27.0543 9.74656 29.539 12.2313 29.539 15.2854V15.8719C29.539 16.533 29.0012 17.0709 28.34 17.0709C27.6787 17.0709 27.1409 16.5331 27.1409 15.8719V14.7576C27.1409 12.8641 25.6005 11.3235 23.7069 11.3235C21.8134 11.3235 20.2729 12.864 20.2729 14.7576C20.2729 16.6511 21.8134 18.1916 23.7069 18.1916C24.5728 18.1916 25.3643 17.8688 25.9689 17.3381C26.4612 18.1313 27.3397 18.6608 28.34 18.6608C29.8778 18.6608 31.129 17.4097 31.129 15.8717V15.2853C31.129 11.3544 27.931 8.15649 24.0002 8.15649C20.0694 8.15649 16.8714 11.3544 16.8714 15.2853V15.5198C16.8714 19.4508 20.0694 22.6487 24.0002 22.6487ZM23.7069 16.6016C22.6901 16.6016 21.8629 15.7744 21.8629 14.7576C21.8629 13.7408 22.6902 12.9135 23.7069 12.9135C24.7236 12.9135 25.551 13.7408 25.551 14.7576C25.551 15.7744 24.7237 16.6016 23.7069 16.6016Z" fill="url(#paint1_linear)"/>
</g>
<defs>
<linearGradient id="paint0_linear" x1="24" y1="1.74158" x2="24" y2="46.2585" gradientUnits="userSpaceOnUse">
<stop stop-color="#EF4744"/>
<stop offset="1" stop-color="#FF9966"/>
</linearGradient>
<linearGradient id="paint1_linear" x1="24.0002" y1="8.15649" x2="24.0002" y2="22.6487" gradientUnits="userSpaceOnUse">
<stop stop-color="#EF4744"/>
<stop offset="1" stop-color="#FF9966"/>
</linearGradient>
<clipPath id="clip0">
<rect width="48" height="48" fill="white"/>
</clipPath>
</defs>
</svg>
