<svg width="48" height="48" viewBox="0 0 48 48" fill="none" xmlns="http://www.w3.org/2000/svg">
<path d="M47.04 39.6187L40.6938 33.2726C40.0273 32.6062 39.0339 32.4086 38.163 32.7693C37.2922 33.1299 36.7294 33.9721 36.7294 34.9147V35.869C36.7294 36.095 36.5456 36.2789 36.3195 36.2789H35.6777V9.84861C35.6777 9.59503 35.5769 9.35178 35.3976 9.17249L26.5052 0.280064C26.3259 0.100781 26.0826 0 25.8291 0H1.63782C1.10972 0 0.681641 0.42808 0.681641 0.956175V47.0438C0.681641 47.5719 1.10972 48 1.63782 48H34.7215C35.2496 48 35.6777 47.5719 35.6777 47.0438V44.3108H36.3195C36.5456 44.3108 36.7294 44.4947 36.7294 44.7207V45.675C36.7294 46.6176 37.2922 47.4598 38.163 47.8204C38.4521 47.9401 38.7545 47.9984 39.0541 47.9984C39.6573 47.9984 40.2486 47.7623 40.6938 47.3171L47.04 40.971C47.2193 40.7917 47.32 40.5484 47.32 40.2949C47.32 40.0413 47.2193 39.798 47.04 39.6187ZM26.7852 3.26457L32.4131 8.89243H26.7852V3.26457ZM33.7653 46.0877H2.59399V1.91235H24.8729V9.84861C24.8729 10.3767 25.301 10.8048 25.8291 10.8048H33.7653V36.2789H31.7573C31.2292 36.2789 30.8012 36.707 30.8012 37.2351V43.3546C30.8012 43.8827 31.2292 44.3108 31.7573 44.3108H33.7653V46.0877ZM39.3415 45.9649C39.173 46.1335 38.9894 46.0928 38.8948 46.0537C38.8003 46.0145 38.6418 45.9133 38.6418 45.675V44.7207C38.6418 43.4402 37.6 42.3984 36.3195 42.3984H32.7135V38.1913H36.3195C37.6 38.1913 38.6418 37.1495 38.6418 35.869V34.9147C38.6418 34.6765 38.8003 34.5752 38.8948 34.5361C38.9893 34.4969 39.173 34.4564 39.3415 34.6249L45.0116 40.2949L39.3415 45.9649Z" fill="url(#paint0_linear)"/>
<path d="M7.42248 16.6374H23.2472C23.7753 16.6374 24.2034 16.2094 24.2034 15.6813C24.2034 15.1532 23.7753 14.7251 23.2472 14.7251H7.42248C6.89439 14.7251 6.46631 15.1532 6.46631 15.6813C6.46631 16.2094 6.89439 16.6374 7.42248 16.6374Z" fill="url(#paint1_linear)"/>
<path d="M28.9364 21.0359H7.42248C6.89439 21.0359 6.46631 21.464 6.46631 21.9921C6.46631 22.5202 6.89439 22.9482 7.42248 22.9482H28.9364C29.4645 22.9482 29.8926 22.5202 29.8926 21.9921C29.8926 21.464 29.4645 21.0359 28.9364 21.0359Z" fill="url(#paint2_linear)"/>
<path d="M28.9364 27.3467H7.42248C6.89439 27.3467 6.46631 27.7748 6.46631 28.3029C6.46631 28.831 6.89439 29.259 7.42248 29.259H28.9364C29.4645 29.259 29.8926 28.831 29.8926 28.3029C29.8926 27.7748 29.4645 27.3467 28.9364 27.3467Z" fill="url(#paint3_linear)"/>
<path d="M28.9364 33.6575H7.42248C6.89439 33.6575 6.46631 34.0856 6.46631 34.6136C6.46631 35.1417 6.89439 35.5698 7.42248 35.5698H28.9364C29.4645 35.5698 29.8926 35.1417 29.8926 34.6136C29.8926 34.0856 29.4645 33.6575 28.9364 33.6575Z" fill="url(#paint4_linear)"/>
<path d="M28.9367 14.7251H26.8331C26.305 14.7251 25.877 15.1532 25.877 15.6813C25.877 16.2094 26.305 16.6374 26.8331 16.6374H28.9367C29.4648 16.6374 29.8929 16.2094 29.8929 15.6813C29.8929 15.1532 29.4648 14.7251 28.9367 14.7251Z" fill="url(#paint5_linear)"/>
<defs>
<linearGradient id="paint0_linear" x1="24.0008" y1="0" x2="24.0008" y2="48" gradientUnits="userSpaceOnUse">
<stop stop-color="#EF4744"/>
<stop offset="1" stop-color="#FF9966"/>
</linearGradient>
<linearGradient id="paint1_linear" x1="15.3348" y1="14.7251" x2="15.3348" y2="16.6374" gradientUnits="userSpaceOnUse">
<stop stop-color="#EF4744"/>
<stop offset="1" stop-color="#FF9966"/>
</linearGradient>
<linearGradient id="paint2_linear" x1="18.1795" y1="21.0359" x2="18.1795" y2="22.9482" gradientUnits="userSpaceOnUse">
<stop stop-color="#EF4744"/>
<stop offset="1" stop-color="#FF9966"/>
</linearGradient>
<linearGradient id="paint3_linear" x1="18.1795" y1="27.3467" x2="18.1795" y2="29.259" gradientUnits="userSpaceOnUse">
<stop stop-color="#EF4744"/>
<stop offset="1" stop-color="#FF9966"/>
</linearGradient>
<linearGradient id="paint4_linear" x1="18.1795" y1="33.6575" x2="18.1795" y2="35.5698" gradientUnits="userSpaceOnUse">
<stop stop-color="#EF4744"/>
<stop offset="1" stop-color="#FF9966"/>
</linearGradient>
<linearGradient id="paint5_linear" x1="27.8849" y1="14.7251" x2="27.8849" y2="16.6374" gradientUnits="userSpaceOnUse">
<stop stop-color="#EF4744"/>
<stop offset="1" stop-color="#FF9966"/>
</linearGradient>
</defs>
</svg>
