<svg width="48" height="48" viewBox="0 0 48 48" fill="none" xmlns="http://www.w3.org/2000/svg">
<g clip-path="url(#clip0)">
<path d="M34.6482 8.04642C34.2827 7.67984 33.6891 7.67984 33.3225 8.04642C32.9566 8.41226 32.9566 9.00589 33.3225 9.37247C33.3327 9.38272 33.3441 9.39298 33.3543 9.40323C33.7227 9.73905 34.2929 9.72879 34.6482 9.37247C34.9972 9.02347 35.014 8.46866 34.698 8.10098C34.683 8.08231 34.6661 8.06436 34.6482 8.04642Z" fill="url(#paint0_linear)"/>
<path d="M45.2573 2.74219C41.601 -0.914062 35.6527 -0.914062 31.9964 2.74219L24.662 10.0763C22.0161 12.7225 21.2115 16.6882 22.5628 20.1324L20.1319 22.5637C16.6873 21.2124 12.7216 22.017 10.0758 24.6628L2.74094 31.9973C-0.914948 35.6532 -0.914948 41.6019 2.74094 45.2582C6.39719 48.9141 12.3456 48.9141 16.0018 45.2582L23.3363 37.9237C25.9825 35.2775 26.7867 31.3118 25.4354 27.8676L27.8663 25.4366C31.3383 26.7986 35.296 25.964 37.9225 23.3372L45.2573 16.0027C48.9132 12.3468 48.9132 6.39807 45.2573 2.74219ZM22.0102 36.5977L14.6758 43.9318C11.7442 46.8636 6.99924 46.864 4.06735 43.9318C1.13547 41.0002 1.1351 36.2556 4.06735 33.3234L11.4018 25.9889C13.3167 24.0736 16.0959 23.365 18.6484 24.0472L16.041 26.6547C15.0401 26.7971 14.11 27.2585 13.3904 27.9785L6.05698 35.3126C4.22665 37.1418 4.22629 40.1129 6.05661 41.9421C7.88583 43.7725 10.8569 43.7732 12.6865 41.9425L20.021 34.6091C20.7406 33.8892 21.2024 32.959 21.3445 31.9585L23.9522 29.3511C24.6341 31.9036 23.9255 34.6824 22.0102 36.5977ZM14.7168 33.2816C15.4693 34.0349 16.4998 34.4399 17.6062 34.3715L11.3601 40.6165C10.2636 41.7136 8.47983 41.714 7.38266 40.6161C6.28586 39.52 6.28513 37.7362 7.38303 36.639L13.628 30.3929C13.5588 31.5073 13.9701 32.5356 14.7168 33.2816ZM19.7844 30.8665L18.6945 31.9559C17.9651 32.6858 16.776 32.6895 16.0428 31.9556C15.3115 31.2253 15.3115 30.0359 16.0432 29.3046L29.3037 16.0441C30.0332 15.3146 31.2223 15.3105 31.9554 16.0444C32.6867 16.775 32.6867 17.9641 31.955 18.6954L19.7844 30.8665ZM36.5968 22.0111C34.6815 23.926 31.9027 24.635 29.3502 23.9528L31.9576 21.3453C32.9577 21.2032 33.8875 20.7418 34.6071 20.0226C34.6075 20.0222 34.6079 20.0219 34.6079 20.0215L41.9413 12.6874C43.7712 10.8585 43.7723 7.88745 41.9416 6.05786C40.4295 4.54468 38.0862 4.24731 36.243 5.33459C35.797 5.59753 35.649 6.17249 35.912 6.61853C36.1753 7.06458 36.7502 7.21289 37.1959 6.94995C38.3018 6.29736 39.7081 6.47571 40.6156 7.38391C41.7127 8.48035 41.7131 10.2642 40.6156 11.3613L34.3706 17.6071C34.4394 16.493 34.0285 15.4647 33.2815 14.7184C32.5743 14.0105 31.6328 13.6205 30.6297 13.6205C30.5503 13.6205 30.4712 13.6241 30.3924 13.6289L31.9968 12.0245C32.363 11.6583 32.363 11.0647 31.9968 10.6985C31.6306 10.3323 31.037 10.3323 30.6707 10.6985L27.9776 13.3912C27.2577 14.1112 26.7962 15.0414 26.6538 16.0419L24.0464 18.6493C23.3641 16.0968 24.0731 13.3176 25.988 11.4027L33.3225 4.06824C36.254 1.13672 40.999 1.13599 43.9312 4.06824C46.8628 7.00012 46.8631 11.7448 43.9312 14.677L36.5968 22.0111Z" fill="url(#paint1_linear)"/>
<path d="M15.3812 15.3809C15.7471 15.015 15.7471 14.421 15.3812 14.0548L11.4027 10.0763C11.0365 9.71008 10.4425 9.71008 10.0763 10.0763C9.71008 10.4425 9.71008 11.0361 10.0763 11.4023L14.0548 15.3809C14.421 15.7471 15.015 15.7474 15.3812 15.3809Z" fill="url(#paint2_linear)"/>
<path d="M5.00024 19.4055C5.00024 19.9233 5.41992 20.343 5.93774 20.343H11.5638C12.0817 20.343 12.5013 19.9233 12.5013 19.4055C12.5013 18.8877 12.0817 18.4677 11.5638 18.4677H5.93774C5.41992 18.4677 5.00024 18.8877 5.00024 19.4055Z" fill="url(#paint3_linear)"/>
<path d="M20.343 11.5638V5.93774C20.343 5.41992 19.9233 4.99988 19.4055 4.99988C18.8877 4.99988 18.4677 5.41992 18.4677 5.93774V11.5638C18.4677 12.0817 18.8877 12.5013 19.4055 12.5013C19.9233 12.5013 20.343 12.0817 20.343 11.5638Z" fill="url(#paint4_linear)"/>
<path d="M32.6191 32.6187C32.2529 32.985 32.2529 33.5789 32.6191 33.9452L36.5977 37.9237C36.9639 38.2899 37.5575 38.2899 37.9237 37.9237C38.2899 37.5575 38.2899 36.9638 37.9237 36.5976L33.9452 32.6187C33.579 32.2529 32.985 32.2529 32.6191 32.6187Z" fill="url(#paint5_linear)"/>
<path d="M27.7507 36.4362V42.0623C27.7507 42.5801 28.1704 43.0001 28.6882 43.0001C29.2064 43.0001 29.6261 42.5801 29.6261 42.0623V36.4362C29.6261 35.9183 29.2064 35.4987 28.6882 35.4987C28.1704 35.4987 27.7507 35.9183 27.7507 36.4362Z" fill="url(#paint6_linear)"/>
<path d="M43.0001 28.6882C43.0001 28.1704 42.5801 27.7507 42.0623 27.7507H36.4365C35.9183 27.7507 35.4987 28.1704 35.4987 28.6882C35.4987 29.2061 35.9183 29.6261 36.4365 29.6261H42.0623C42.5801 29.6261 43.0001 29.2061 43.0001 28.6882Z" fill="url(#paint7_linear)"/>
</g>
<defs>
<linearGradient id="paint0_linear" x1="33.9856" y1="7.77148" x2="33.9856" y2="9.64763" gradientUnits="userSpaceOnUse">
<stop stop-color="#EF4744"/>
<stop offset="1" stop-color="#FF9966"/>
</linearGradient>
<linearGradient id="paint1_linear" x1="23.9991" y1="0" x2="23.9991" y2="48.0001" gradientUnits="userSpaceOnUse">
<stop stop-color="#EF4744"/>
<stop offset="1" stop-color="#FF9966"/>
</linearGradient>
<linearGradient id="paint2_linear" x1="12.7286" y1="9.80164" x2="12.7286" y2="15.6557" gradientUnits="userSpaceOnUse">
<stop stop-color="#EF4744"/>
<stop offset="1" stop-color="#FF9966"/>
</linearGradient>
<linearGradient id="paint3_linear" x1="8.75079" y1="18.4677" x2="8.75079" y2="20.343" gradientUnits="userSpaceOnUse">
<stop stop-color="#EF4744"/>
<stop offset="1" stop-color="#FF9966"/>
</linearGradient>
<linearGradient id="paint4_linear" x1="19.4053" y1="4.99988" x2="19.4053" y2="12.5013" gradientUnits="userSpaceOnUse">
<stop stop-color="#EF4744"/>
<stop offset="1" stop-color="#FF9966"/>
</linearGradient>
<linearGradient id="paint5_linear" x1="35.2714" y1="32.3444" x2="35.2714" y2="38.1983" gradientUnits="userSpaceOnUse">
<stop stop-color="#EF4744"/>
<stop offset="1" stop-color="#FF9966"/>
</linearGradient>
<linearGradient id="paint6_linear" x1="28.6884" y1="35.4987" x2="28.6884" y2="43.0001" gradientUnits="userSpaceOnUse">
<stop stop-color="#EF4744"/>
<stop offset="1" stop-color="#FF9966"/>
</linearGradient>
<linearGradient id="paint7_linear" x1="39.2494" y1="27.7507" x2="39.2494" y2="29.6261" gradientUnits="userSpaceOnUse">
<stop stop-color="#EF4744"/>
<stop offset="1" stop-color="#FF9966"/>
</linearGradient>
<clipPath id="clip0">
<rect width="48.0001" height="48" fill="white"/>
</clipPath>
</defs>
</svg>
