<svg width="48" height="48" viewBox="0 0 48 48" fill="none" xmlns="http://www.w3.org/2000/svg">
<g clip-path="url(#clip0)">
<path d="M10.0646 32.517C8.93583 32.517 7.85129 32.8648 6.92666 33.5225L7.82483 34.784C8.48523 34.3137 9.25941 34.0653 10.0646 34.0653C12.1989 34.0653 13.9355 35.802 13.9355 37.9362C13.9355 38.7414 13.6871 39.5156 13.2169 40.176L14.4783 41.0742C15.1361 40.1495 15.4839 39.065 15.4839 37.9362C15.4839 34.9488 13.0521 32.517 10.0646 32.517Z" fill="url(#paint0_linear)"/>
<path d="M10.064 41.8066C7.92973 41.8066 6.19311 40.07 6.19311 37.9357C6.19311 37.1305 6.44147 36.3563 6.91172 35.6959L5.65028 34.7977C4.99253 35.7224 4.64475 36.8069 4.64475 37.9357C4.64475 40.9231 7.07654 43.3549 10.064 43.3549C11.1928 43.3549 12.2773 43.0072 13.2019 42.3494L12.3038 41.088C11.6434 41.5582 10.8692 41.8066 10.064 41.8066Z" fill="url(#paint1_linear)"/>
<path d="M45.6767 15.4842C44.6689 15.4842 43.8172 16.1337 43.4967 17.0326H37.0174C36.6969 16.1337 35.8452 15.4842 34.8374 15.4842C33.557 15.4842 32.5148 16.5264 32.5148 17.8068C32.5148 18.3897 32.7386 18.917 33.0947 19.3257L28.2652 27.9116C28.137 27.8889 28.0058 27.8711 27.8705 27.8711C27.5764 27.8711 27.2967 27.9316 27.0366 28.0322L25.2304 25.9247C25.4274 25.5841 25.548 25.1948 25.548 24.7744C25.548 23.4941 24.5058 22.4519 23.2254 22.4519C22.6285 22.4519 22.0891 22.6847 21.6771 23.0556V18.5624C21.6771 16.839 20.5683 15.3497 18.9187 14.8541L13.9353 13.3598V12.1762C15.3373 11.1945 16.2578 9.57505 16.2578 7.74242V5.65765C16.6929 5.25431 17.0615 4.77044 17.3386 4.21665L18.1245 2.64598L16.237 2.01658C15.4504 1.75499 14.7041 1.38945 14.015 0.931291C13.1021 0.321926 12.0418 0.000610352 10.947 0.000610352C7.89907 0.000610352 5.41776 2.47965 5.41624 5.52761L5.41473 7.87397C5.41397 9.28625 5.96286 10.6138 6.96158 11.6126C7.20313 11.8541 7.46472 12.0685 7.74181 12.2567V13.3598L2.7584 14.8548C1.10873 15.3497 0 16.8398 0 18.5632V26.3228H20.5823L16.6339 30.2712L15.6379 29.2747L13.9787 30.3812C13.5489 30.1581 13.1006 29.9722 12.6387 29.8251L12.2467 27.8711H7.8813L7.48929 29.8251C7.0266 29.9714 6.57827 30.1581 6.14922 30.3812L4.4901 29.2747L1.40358 32.3612L2.51004 34.0203C2.28701 34.4502 2.10102 34.8985 1.95398 35.3604L0 35.7532V40.1185L1.95398 40.5105C2.10027 40.9732 2.28701 41.4216 2.51004 41.8506L1.40358 43.5097L4.4901 46.5963L6.14922 45.4898C6.57903 45.7128 7.02736 45.8988 7.48929 46.0459L7.88205 47.9998H12.2474L12.6394 46.0459C13.1021 45.8996 13.5504 45.7128 13.9795 45.4898L15.6386 46.5963L18.7251 43.5097L17.6187 41.8506C17.8417 41.4208 18.0277 40.9725 18.1747 40.5105L20.1287 40.1178V35.7524L18.1747 35.3604C18.0284 34.8977 17.8417 34.4494 17.6187 34.0203L18.7251 32.3612L17.7287 31.3659L22.2305 26.8641C22.5333 27.0096 22.8678 27.0969 23.2254 27.0969C23.5195 27.0969 23.7993 27.0365 24.0593 26.9359L25.8655 29.0434C25.6686 29.384 25.548 29.7733 25.548 30.1937C25.548 31.474 26.5902 32.5162 27.8705 32.5162C29.1509 32.5162 30.1931 31.474 30.1931 30.1937C30.1931 29.6108 29.9693 29.0834 29.6132 28.6748L34.4424 20.0892C34.5716 20.1116 34.7028 20.1293 34.8381 20.1293C35.8459 20.1293 36.6976 19.4799 37.0182 18.581H43.4974C43.818 19.4799 44.6696 20.1293 45.6774 20.1293C46.9578 20.1293 48 19.0871 48 17.8068C48 16.5264 46.957 15.4842 45.6767 15.4842ZM10.7573 19.3551H10.9191L11.5212 24.7744H10.1551L10.7573 19.3551ZM11.0544 17.8068H10.6219L10.0719 16.1579C10.3089 16.2206 10.563 16.2584 10.8385 16.2584C11.1141 16.2584 11.3681 16.2206 11.604 16.1579L11.0544 17.8068ZM10.947 1.54897C11.7359 1.54897 12.4992 1.78032 13.1565 2.21769C13.9583 2.75372 14.83 3.17936 15.7467 3.48443L15.9403 3.54944C15.3513 4.70391 14.1829 5.41988 12.8863 5.41988C12.2073 5.41988 11.5485 5.22028 10.9833 4.84378L9.34688 3.75244L8.78136 4.03482C8.24798 4.30208 7.67074 4.48466 7.08141 4.5769C7.50895 2.84028 9.08037 1.54897 10.947 1.54897ZM6.96385 6.15285C7.74483 6.06931 8.51372 5.86027 9.22969 5.53517L10.1241 6.13206C11.4766 7.03326 13.2609 7.19203 14.7094 6.62689V7.74242C14.7094 9.87671 12.963 11.6133 10.8162 11.6133H10.6998C9.70108 11.6133 8.76284 11.2247 8.05708 10.5186C7.3517 9.81245 6.96309 8.87345 6.96385 7.87548V6.15285ZM10.699 13.1617H10.8155C11.3617 13.1617 11.8883 13.0789 12.3861 12.9296V13.7223C12.1949 14.0187 11.6615 14.7101 10.8385 14.7101C10.0156 14.7101 9.48221 14.0187 9.29017 13.7223V12.9674C9.74379 13.0929 10.2159 13.1617 10.699 13.1617ZM1.54836 18.5632C1.54836 17.5289 2.2133 16.6353 3.2037 16.3382L8.01965 14.8934L9.27619 18.6637L8.59727 24.7744H6.19345V18.581H4.64509V24.7744H1.54836V18.5632ZM20.1287 24.7744H17.032V18.581H15.4836V24.7744H13.0798L12.4009 18.6637L13.6574 14.8934L18.4734 16.3382C19.4638 16.6345 20.1287 17.5289 20.1287 18.5632V24.7744ZM18.5803 37.0211V38.8492L16.9299 39.1788L16.8097 39.6517C16.6441 40.3007 16.3878 40.9192 16.048 41.4896L15.7989 41.9085L16.7322 43.3105L15.4401 44.6026L14.0381 43.6693L13.6192 43.9184C13.0488 44.2582 12.4304 44.5153 11.7813 44.6801L11.3084 44.8003L10.9788 46.4515H9.15068L8.82105 44.801L8.34815 44.6808C7.69909 44.5153 7.08066 44.259 6.51023 43.9191L6.09138 43.67L4.68931 44.6033L3.39725 43.3113L4.33095 41.9092L4.08146 41.4904C3.74162 40.9199 3.48457 40.3015 3.31975 39.6524L3.19954 39.1795L1.54836 38.8499V37.0218L3.19879 36.6922L3.319 36.2193C3.48457 35.5702 3.74087 34.9518 4.08071 34.3814L4.32982 33.9625L3.39649 32.5604L4.68856 31.2684L6.09063 32.2021L6.50947 31.9526C7.0799 31.6128 7.69834 31.3557 8.34739 31.1909L8.8203 31.0707L9.14993 29.4195H10.978L11.3077 31.0699L11.7806 31.1901C12.4296 31.3557 13.048 31.612 13.6185 31.9518L14.0373 32.2009L15.4394 31.2676L16.7315 32.5597L15.7978 33.9618L16.0472 34.3806C16.3871 34.951 16.6441 35.5695 16.809 36.2185L16.9292 36.6914L18.5803 37.0211ZM22.4513 24.7744C22.4513 24.3472 22.7983 24.0002 23.2254 24.0002C23.6526 24.0002 23.9996 24.3472 23.9996 24.7744C23.9996 25.2019 23.6526 25.5486 23.2254 25.5486C22.7983 25.5486 22.4513 25.2019 22.4513 24.7744ZM27.8705 30.9679C27.4434 30.9679 27.0963 30.6212 27.0963 30.1937C27.0963 29.7665 27.4434 29.4195 27.8705 29.4195C28.2977 29.4195 28.6447 29.7665 28.6447 30.1937C28.6447 30.6212 28.2977 30.9679 27.8705 30.9679ZM34.8381 18.581C34.411 18.581 34.064 18.2343 34.064 17.8068C34.064 17.3796 34.411 17.0326 34.8381 17.0326C35.2653 17.0326 35.6123 17.3796 35.6123 17.8068C35.6123 18.2343 35.2653 18.581 34.8381 18.581ZM45.6767 18.581C45.2495 18.581 44.9025 18.2343 44.9025 17.8068C44.9025 17.3796 45.2495 17.0326 45.6767 17.0326C46.1038 17.0326 46.4509 17.3796 46.4509 17.8068C46.4509 18.2343 46.1038 18.581 45.6767 18.581Z" fill="url(#paint2_linear)"/>
<path d="M44.9026 20.9046H40.2576V46.4525H38.7092V24.7755H34.0641V46.4525H32.5158V36.3882H27.8707V46.4525H26.3223V33.2915H21.6772V46.4525H20.1289V48.0009H47.9994V46.4525H44.9026V20.9046ZM41.8059 22.4529H43.3543V46.4525H41.8059V22.4529ZM35.6125 26.3238H37.1608V46.4525H35.6125V26.3238ZM29.419 37.9365H30.9674V46.4525H29.419V37.9365ZM23.2256 34.8398H24.7739V46.4525H23.2256V34.8398Z" fill="url(#paint3_linear)"/>
<path d="M17.0319 46.4517H18.5803V48.0001H17.0319V46.4517Z" fill="url(#paint4_linear)"/>
<path d="M12.387 37.9357C12.387 36.6554 11.3448 35.6131 10.0644 35.6131C8.78405 35.6131 7.74183 36.6554 7.74183 37.9357C7.74183 39.2161 8.78405 40.2583 10.0644 40.2583C11.3448 40.2583 12.387 39.2161 12.387 37.9357ZM9.29022 37.9357C9.29022 37.5086 9.63725 37.1615 10.0644 37.1615C10.4916 37.1615 10.8386 37.5086 10.8386 37.9357C10.8386 38.3633 10.4916 38.7099 10.0644 38.7099C9.63725 38.7099 9.29022 38.3633 9.29022 37.9357Z" fill="url(#paint5_linear)"/>
<path d="M46.4507 0.00111607H34.0638C33.2099 0.00111607 32.5154 0.695535 32.5154 1.54948V3.09784H22.4511C21.5971 3.09784 20.9027 3.79226 20.9027 4.6462V12.388C20.9027 13.242 21.5971 13.9364 22.4511 13.9364H24.7736V17.0331L28.9023 13.9364H34.838C35.6919 13.9364 36.3863 13.242 36.3863 12.388V10.8396H38.7089V13.9364L42.8376 10.8396H46.4507C47.3046 10.8396 47.9991 10.1452 47.9991 9.29129V1.54948C47.9991 0.695535 47.3046 0.00111607 46.4507 0.00111607ZM34.838 12.388H28.3867L26.322 13.9364V12.388H22.4511L22.4496 4.6462H34.838V12.388ZM46.4507 9.29129H42.322L40.2572 10.8396V9.29129H36.3863V4.6462C36.3863 3.79226 35.6919 3.09784 34.838 3.09784H34.0638V1.54948H46.4507V9.29129Z" fill="url(#paint6_linear)"/>
<path d="M39.4831 4.645H41.0315V6.19339H39.4831V4.645Z" fill="url(#paint7_linear)"/>
<path d="M42.58 4.645H44.1284V6.19339H42.58V4.645Z" fill="url(#paint8_linear)"/>
<path d="M23.9997 6.19303H33.2899V7.74139H23.9997V6.19303Z" fill="url(#paint9_linear)"/>
<path d="M23.9997 9.29155H33.2899V10.8399H23.9997V9.29155Z" fill="url(#paint10_linear)"/>
</g>
<defs>
<linearGradient id="paint0_linear" x1="24" y1="0.000610352" x2="24" y2="48.0009" gradientUnits="userSpaceOnUse">
<stop stop-color="#EF4744"/>
<stop offset="1" stop-color="#FF9966"/>
</linearGradient>
<linearGradient id="paint1_linear" x1="24" y1="0.000610352" x2="24" y2="48.0009" gradientUnits="userSpaceOnUse">
<stop stop-color="#EF4744"/>
<stop offset="1" stop-color="#FF9966"/>
</linearGradient>
<linearGradient id="paint2_linear" x1="24" y1="0.000610352" x2="24" y2="48.0009" gradientUnits="userSpaceOnUse">
<stop stop-color="#EF4744"/>
<stop offset="1" stop-color="#FF9966"/>
</linearGradient>
<linearGradient id="paint3_linear" x1="24" y1="0.000610352" x2="24" y2="48.0009" gradientUnits="userSpaceOnUse">
<stop stop-color="#EF4744"/>
<stop offset="1" stop-color="#FF9966"/>
</linearGradient>
<linearGradient id="paint4_linear" x1="24" y1="0.000610352" x2="24" y2="48.0009" gradientUnits="userSpaceOnUse">
<stop stop-color="#EF4744"/>
<stop offset="1" stop-color="#FF9966"/>
</linearGradient>
<linearGradient id="paint5_linear" x1="24" y1="0.000610352" x2="24" y2="48.0009" gradientUnits="userSpaceOnUse">
<stop stop-color="#EF4744"/>
<stop offset="1" stop-color="#FF9966"/>
</linearGradient>
<linearGradient id="paint6_linear" x1="24" y1="0.000610352" x2="24" y2="48.0009" gradientUnits="userSpaceOnUse">
<stop stop-color="#EF4744"/>
<stop offset="1" stop-color="#FF9966"/>
</linearGradient>
<linearGradient id="paint7_linear" x1="24" y1="0.000610352" x2="24" y2="48.0009" gradientUnits="userSpaceOnUse">
<stop stop-color="#EF4744"/>
<stop offset="1" stop-color="#FF9966"/>
</linearGradient>
<linearGradient id="paint8_linear" x1="24" y1="0.000610352" x2="24" y2="48.0009" gradientUnits="userSpaceOnUse">
<stop stop-color="#EF4744"/>
<stop offset="1" stop-color="#FF9966"/>
</linearGradient>
<linearGradient id="paint9_linear" x1="24" y1="0.000610352" x2="24" y2="48.0009" gradientUnits="userSpaceOnUse">
<stop stop-color="#EF4744"/>
<stop offset="1" stop-color="#FF9966"/>
</linearGradient>
<linearGradient id="paint10_linear" x1="24" y1="0.000610352" x2="24" y2="48.0009" gradientUnits="userSpaceOnUse">
<stop stop-color="#EF4744"/>
<stop offset="1" stop-color="#FF9966"/>
</linearGradient>
<clipPath id="clip0">
<rect width="48" height="48" fill="white"/>
</clipPath>
</defs>
</svg>
