<svg width="48" height="48" viewBox="0 0 48 48" fill="none" xmlns="http://www.w3.org/2000/svg">
<g clip-path="url(#clip0)">
<path d="M44.63 2.13745H39.1573C38.7687 2.13745 38.4542 2.45203 38.4542 2.84058C38.4542 3.22876 38.7687 3.5437 39.1573 3.5437H44.63C44.7592 3.5437 44.8643 3.64881 44.8643 3.77808V31.3274C44.8643 31.7156 45.1793 32.0305 45.5675 32.0305C45.956 32.0305 46.2706 31.7156 46.2706 31.3274V3.77808C46.2706 2.87317 45.5349 2.13745 44.63 2.13745Z" fill="url(#paint0_linear)"/>
<path d="M45.5674 33.6863C45.1793 33.6863 44.8643 34.0009 44.8643 34.3895V43.874C44.8643 45.322 43.6866 46.5001 42.2386 46.5001C40.7906 46.5001 39.6128 45.322 39.6128 43.874V28.2342C39.6128 26.0109 37.8038 24.2022 35.5805 24.2022C33.3572 24.2022 31.5485 26.0109 31.5485 28.2342V32.9902C31.5485 34.4382 30.3704 35.6159 28.9228 35.6159C27.4748 35.6159 26.2967 34.4382 26.2967 32.9902V29.4804L29.8756 25.9011C30.3642 25.4129 30.5286 24.7233 30.3741 24.0975L38.9998 15.4717C39.7414 14.7301 39.7414 13.5231 38.9998 12.7815L29.7618 3.54386H36.095C36.4836 3.54386 36.7981 3.22892 36.7981 2.84073C36.7981 2.45218 36.4836 2.13761 36.095 2.13761H28.3555L26.6808 0.462555C25.9389 -0.279022 24.7322 -0.279022 23.9906 0.462555L15.3656 9.0872C15.2169 9.05058 15.0635 9.02934 14.906 9.02934C14.3981 9.02934 13.9202 9.22709 13.5609 9.58634L9.83034 13.3173C9.08876 14.0589 9.08876 15.2655 9.83034 16.0071L14.7779 20.955C12.6055 23.0768 10.0563 25.006 7.19288 26.6917C6.36012 27.1821 5.56617 27.8024 4.83265 28.5356C3.50989 29.8587 2.54529 31.3972 2.11683 32.8679C1.64624 34.4843 1.86634 35.8543 2.73719 36.7252C3.318 37.306 4.11524 37.5902 5.0359 37.5902C6.38355 37.5898 7.99488 36.9804 9.57435 35.8016C9.88527 35.569 9.94935 35.1285 9.71718 34.8176C9.48463 34.5063 9.04408 34.4422 8.73317 34.6747C6.72303 36.1747 4.61988 36.619 3.73145 35.7309C3.24732 35.2464 3.15101 34.3466 3.46705 33.2612C3.83033 32.0139 4.66859 30.6889 5.82728 29.5302C6.47657 28.8809 7.17604 28.3334 7.90626 27.9039C10.8726 26.1574 13.5163 24.155 15.7721 21.9496L17.5127 23.6899C15.307 25.9461 13.3049 28.5898 11.5585 31.5561C11.3402 31.9267 11.0835 32.2999 10.7949 32.665C10.5543 32.9697 10.6063 33.412 10.911 33.6526C11.0399 33.7545 11.1937 33.8039 11.3465 33.8039C11.5541 33.8039 11.7599 33.7123 11.8987 33.5366C12.2268 33.1213 12.5202 32.695 12.7703 32.2695C14.4563 29.4057 16.3855 26.8565 18.5073 24.6841L23.4549 29.6317C23.8141 29.9913 24.2917 30.189 24.8 30.189C24.8304 30.189 24.8604 30.1861 24.8904 30.1846V32.9902C24.8904 35.2134 26.6995 37.0222 28.9228 37.0222C31.146 37.0222 32.9548 35.2134 32.9548 32.9902V28.2342C32.9548 26.7866 34.1329 25.6085 35.5809 25.6085C37.0285 25.6085 38.2066 26.7862 38.2066 28.2342V43.874C38.2066 46.0976 40.0153 47.9063 42.2386 47.9063C44.4622 47.9063 46.2709 46.0976 46.2709 43.874V34.3895C46.2706 34.0009 45.956 33.6863 45.5674 33.6863ZM24.9849 1.45682C25.1783 1.26346 25.4928 1.26346 25.6862 1.45682L38.0052 13.7762C38.1985 13.9692 38.1985 14.2841 38.0052 14.4771L29.5735 22.9087L26.2846 19.6198L27.7091 18.1952C27.9838 17.9202 27.9838 17.4753 27.7091 17.2006C27.4345 16.9263 26.9892 16.9263 26.7149 17.2006L25.2899 18.6252L20.3102 13.6454L21.7351 12.2209C22.0098 11.9466 22.0098 11.5013 21.7351 11.2266C21.4605 10.9523 21.0152 10.9519 20.7409 11.2266L19.3159 12.6512L18.5583 11.8935L24.1657 6.28605C24.4403 6.01102 24.4403 5.56608 24.1657 5.29142C23.891 5.01676 23.4457 5.01676 23.1714 5.29142L17.5636 10.8988L16.5532 9.88847L24.9849 1.45682ZM24.4495 28.6374L10.8246 15.0129C10.6312 14.8195 10.6312 14.5049 10.8246 14.3116L14.5556 10.581C14.6493 10.4872 14.7738 10.4356 14.906 10.4356C15.0386 10.4356 15.1631 10.4872 15.2569 10.581L28.8814 24.2055C29.0747 24.3989 29.0747 24.7134 28.8814 24.9068L25.1508 28.6374C25.057 28.7311 24.9325 28.7828 24.8 28.7828C24.6674 28.7828 24.5432 28.7311 24.4495 28.6374Z" fill="url(#paint1_linear)"/>
<path d="M15.7287 16.2956C15.454 16.0209 15.0087 16.0209 14.7341 16.2956C14.4594 16.5703 14.4594 17.0152 14.7341 17.2899L22.1726 24.7283C22.3099 24.8653 22.4897 24.9342 22.6699 24.9342C22.8497 24.9342 23.0295 24.8653 23.1668 24.7283C23.4415 24.4533 23.4415 24.0084 23.1668 23.7337L15.7287 16.2956Z" fill="url(#paint2_linear)"/>
<path d="M41.5801 16.9949H41.5728C41.1843 16.9949 40.8734 17.3095 40.8734 17.698C40.8734 18.0866 41.1916 18.4011 41.5801 18.4011C41.9687 18.4011 42.2833 18.0866 42.2833 17.698C42.2833 17.3095 41.9687 16.9949 41.5801 16.9949Z" fill="url(#paint3_linear)"/>
<path d="M42.1584 18.9165C41.7698 18.9216 41.4629 19.2402 41.4677 19.6284C41.4725 20.0137 41.79 20.3228 42.1741 20.3228H42.1833C42.5715 20.3176 42.8824 19.999 42.8776 19.6108C42.8729 19.2256 42.559 18.9165 42.1745 18.9165C42.1716 18.9165 42.1686 18.9165 42.1657 18.9165H42.1584Z" fill="url(#paint4_linear)"/>
<path d="M37.7958 21.0828C37.4073 21.0828 37.0964 21.3973 37.0964 21.7859C37.0964 22.1741 37.4146 22.489 37.8032 22.489C38.1917 22.489 38.5063 22.1741 38.5063 21.7859C38.5063 21.3973 38.1917 21.0828 37.8032 21.0828H37.7958Z" fill="url(#paint5_linear)"/>
</g>
<defs>
<linearGradient id="paint0_linear" x1="42.3624" y1="2.13745" x2="42.3624" y2="32.0305" gradientUnits="userSpaceOnUse">
<stop stop-color="#EF4744"/>
<stop offset="1" stop-color="#FF9966"/>
</linearGradient>
<linearGradient id="paint1_linear" x1="24.0728" y1="-0.0936279" x2="24.0728" y2="47.9063" gradientUnits="userSpaceOnUse">
<stop stop-color="#EF4744"/>
<stop offset="1" stop-color="#FF9966"/>
</linearGradient>
<linearGradient id="paint2_linear" x1="18.9504" y1="16.0896" x2="18.9504" y2="24.9342" gradientUnits="userSpaceOnUse">
<stop stop-color="#EF4744"/>
<stop offset="1" stop-color="#FF9966"/>
</linearGradient>
<linearGradient id="paint3_linear" x1="41.5783" y1="16.9949" x2="41.5783" y2="18.4011" gradientUnits="userSpaceOnUse">
<stop stop-color="#EF4744"/>
<stop offset="1" stop-color="#FF9966"/>
</linearGradient>
<linearGradient id="paint4_linear" x1="42.1727" y1="18.9165" x2="42.1727" y2="20.3228" gradientUnits="userSpaceOnUse">
<stop stop-color="#EF4744"/>
<stop offset="1" stop-color="#FF9966"/>
</linearGradient>
<linearGradient id="paint5_linear" x1="37.8013" y1="21.0828" x2="37.8013" y2="22.489" gradientUnits="userSpaceOnUse">
<stop stop-color="#EF4744"/>
<stop offset="1" stop-color="#FF9966"/>
</linearGradient>
<clipPath id="clip0">
<rect width="48" height="48" fill="white"/>
</clipPath>
</defs>
</svg>
