<svg width="48" height="48" viewBox="0 0 48 48" fill="none" xmlns="http://www.w3.org/2000/svg">
<path d="M12.75 40.5002H11.8965C12.453 39.6491 12.7495 38.6543 12.75 37.6374V35.7512C12.7503 35.3365 12.6817 34.9246 12.5468 34.5324L10.227 27.7877C10.1276 27.4169 9.93521 27.0776 9.66798 26.8019C9.40075 26.5263 9.06757 26.3235 8.7 26.2127L10.1137 20.9304C10.2375 20.4827 10.2179 20.0075 10.0579 19.5714C9.89782 19.1353 9.60526 18.7603 9.22125 18.4989C9.01726 18.3524 8.78864 18.2437 8.54625 18.1779C8.35126 18.1216 8.1492 18.0936 7.94625 18.0947C7.45625 18.0901 6.97846 18.2475 6.58706 18.5423C6.19567 18.8371 5.91258 19.253 5.78175 19.7252L1.77975 32.0252C1.57834 32.6507 1.54319 33.3178 1.67775 33.9609L2.83425 38.4549C2.94407 38.8812 2.99975 39.3197 3 39.7599V40.5002H2.25C2.05109 40.5002 1.86032 40.5792 1.71967 40.7199C1.57902 40.8605 1.5 41.0513 1.5 41.2502V45.7502C1.5 45.9491 1.57902 46.1399 1.71967 46.2805C1.86032 46.4212 2.05109 46.5002 2.25 46.5002H12.75C12.9489 46.5002 13.1397 46.4212 13.2803 46.2805C13.421 46.1399 13.5 45.9491 13.5 45.7502V41.2502C13.5 41.0513 13.421 40.8605 13.2803 40.7199C13.1397 40.5792 12.9489 40.5002 12.75 40.5002ZM4.287 38.0777L3.1395 33.6234C3.06374 33.2447 3.08673 32.8529 3.20625 32.4857L7.221 20.1452C7.2465 20.0506 7.2905 19.962 7.35046 19.8846C7.41041 19.8071 7.48513 19.7423 7.57029 19.6939C7.65545 19.6455 7.74936 19.6145 7.84659 19.6026C7.94382 19.5907 8.04244 19.5982 8.13675 19.6247C8.2196 19.646 8.29753 19.6832 8.36625 19.7342C8.49494 19.8204 8.59319 19.9451 8.64704 20.0903C8.7009 20.2356 8.70762 20.3941 8.66625 20.5434L7.1175 26.3252C6.72511 26.5022 6.39236 26.789 6.15945 27.151C5.92654 27.513 5.80343 27.9347 5.805 28.3652C5.80208 28.562 5.82734 28.7583 5.88 28.9479L7.2375 34.0194C7.28902 34.2116 7.41476 34.3754 7.58706 34.4748C7.75936 34.5743 7.9641 34.6012 8.15625 34.5497C8.3484 34.4982 8.51221 34.3724 8.61165 34.2001C8.7111 34.0278 8.73802 33.8231 8.6865 33.6309L7.32675 28.5422C7.31111 28.4845 7.30379 28.4249 7.305 28.3652C7.30355 28.2113 7.35089 28.0609 7.44023 27.9356C7.52956 27.8103 7.6563 27.7165 7.80225 27.6677C7.8195 27.6617 7.89075 27.6377 7.902 27.6354C8.09842 27.5967 8.30221 27.637 8.46906 27.7477C8.6359 27.8583 8.75232 28.0304 8.793 28.2264L11.1278 35.0207C11.2088 35.2557 11.2501 35.5026 11.25 35.7512V37.6374C11.2506 38.378 11.0313 39.1021 10.62 39.7179L10.0988 40.5002H4.5V39.7599C4.49974 39.1925 4.42818 38.6273 4.287 38.0777ZM12 45.0002H3V42.0002H12V45.0002Z" fill="url(#paint0_linear)"/>
<path d="M34.5 41.2502V45.7502C34.5 45.9491 34.579 46.1399 34.7197 46.2806C34.8603 46.4212 35.0511 46.5002 35.25 46.5002H45.75C45.9489 46.5002 46.1397 46.4212 46.2803 46.2806C46.421 46.1399 46.5 45.9491 46.5 45.7502V41.2502C46.5 41.0513 46.421 40.8605 46.2803 40.7199C46.1397 40.5792 45.9489 40.5002 45.75 40.5002H45V39.76C44.9999 39.3185 45.0556 38.8788 45.1657 38.4512L46.3223 33.9572C46.4568 33.3141 46.4217 32.6469 46.2202 32.0215L42.2183 19.7252C42.087 19.2542 41.8043 18.8395 41.4137 18.5453C41.0231 18.2511 40.5465 18.0938 40.0575 18.0977C39.8545 18.0966 39.6525 18.1247 39.4575 18.181C39.2151 18.2467 38.9865 18.3555 38.7825 18.502C38.3985 18.7633 38.1059 19.1384 37.9459 19.5744C37.7858 20.0105 37.7663 20.4857 37.89 20.9335L39.3 26.2157C38.9324 26.3265 38.5992 26.5293 38.332 26.805C38.0648 27.0806 37.8724 27.4199 37.773 27.7907L35.4533 34.5355C35.3187 34.9267 35.25 35.3375 35.25 35.7512V37.6375C35.2505 38.6544 35.547 39.6491 36.1035 40.5002H35.25C35.0511 40.5002 34.8603 40.5792 34.7197 40.7199C34.579 40.8605 34.5 41.0513 34.5 41.2502ZM43.5 39.76V40.5002H37.9012L37.38 39.718C36.9687 39.1021 36.7494 38.378 36.75 37.6375V35.7512C36.7499 35.5026 36.7912 35.2557 36.8722 35.0207L39.207 28.2265C39.2477 28.0304 39.3641 27.8584 39.5309 27.7477C39.6978 27.637 39.9016 27.5967 40.098 27.6355C40.1092 27.6355 40.1805 27.6617 40.1978 27.6677C40.3437 27.7165 40.4704 27.8103 40.5598 27.9356C40.6491 28.0609 40.6964 28.2113 40.695 28.3652C40.6962 28.425 40.6889 28.4846 40.6732 28.5422L39.3105 33.631C39.259 33.8231 39.2859 34.0279 39.3853 34.2002C39.4848 34.3725 39.6486 34.4982 39.8407 34.5497C40.0329 34.6012 40.2376 34.5743 40.4099 34.4749C40.5822 34.3754 40.708 34.2116 40.7595 34.0195L42.117 28.948C42.1697 28.7583 42.1949 28.5621 42.192 28.3652C42.1938 27.9351 42.0712 27.5136 41.8388 27.1516C41.6065 26.7897 41.2743 26.5026 40.8825 26.3252L39.3345 20.5427C39.2931 20.3934 39.2999 20.2349 39.3537 20.0896C39.4076 19.9443 39.5058 19.8197 39.6345 19.7335C39.7032 19.6825 39.7812 19.6453 39.864 19.624C39.9583 19.5975 40.0569 19.59 40.1542 19.6018C40.2514 19.6137 40.3453 19.6448 40.4305 19.6932C40.5156 19.7416 40.5903 19.8064 40.6503 19.8838C40.7103 19.9613 40.7542 20.0499 40.7798 20.1445L44.7945 32.485C44.914 32.8522 44.937 33.244 44.8612 33.6227L43.7137 38.077C43.5723 38.6268 43.5004 39.1922 43.5 39.76ZM36 42.0002H45V45.0002H36V42.0002Z" fill="url(#paint1_linear)"/>
<path d="M36.3 6.81335L24.3 1.56335C24.2054 1.52205 24.1032 1.50073 24 1.50073C23.8968 1.50073 23.7946 1.52205 23.7 1.56335L11.7 6.81335C11.5663 6.87169 11.4525 6.96776 11.3726 7.08978C11.2927 7.2118 11.2501 7.35448 11.25 7.50035V22.5003C11.25 22.6387 11.2882 22.7743 11.3605 22.8922C11.4328 23.0101 11.5363 23.1058 11.6595 23.1686L23.6595 29.2736C23.765 29.3273 23.8816 29.3553 24 29.3553C24.1169 29.3552 24.2321 29.3279 24.3368 29.2758L36.3368 23.2458C36.461 23.1834 36.5655 23.0876 36.6385 22.9692C36.7115 22.8508 36.7501 22.7144 36.75 22.5753V7.50035C36.7499 7.35448 36.7073 7.2118 36.6274 7.08978C36.5475 6.96776 36.4337 6.87169 36.3 6.81335ZM24 3.0686L34.1287 7.50035L24 11.9321L21.3675 10.7801L25.3733 9.02735C25.5068 8.96887 25.6204 8.87275 25.7001 8.75073C25.7799 8.62872 25.8224 8.48611 25.8224 8.34035C25.8224 8.19458 25.7799 8.05197 25.7001 7.92996C25.6204 7.80795 25.5068 7.71183 25.3733 7.65335L22.155 6.2501C22.0604 6.2088 21.9582 6.18748 21.855 6.18748C21.7518 6.18748 21.6496 6.2088 21.555 6.2501L16.2817 8.55485L13.875 7.50035L24 3.0686ZM17.25 10.6158L18.75 11.2721V14.5368L17.25 13.7868V10.6158ZM18.15 9.37385L21.852 7.7561L23.1945 8.34185L19.5 9.9611L18.15 9.37385ZM12.75 8.6471L15.75 9.9596V14.2503C15.7499 14.3897 15.7887 14.5264 15.862 14.6449C15.9352 14.7635 16.0401 14.8593 16.1647 14.9216L19.1647 16.4216C19.2791 16.4787 19.4062 16.5057 19.5339 16.4999C19.6617 16.4941 19.7858 16.4558 19.8945 16.3885C20.0033 16.3213 20.093 16.2274 20.1552 16.1157C20.2174 16.004 20.2501 15.8782 20.25 15.7503V11.9253L23.25 13.2378V27.3821L12.75 22.0406V8.6471ZM24.75 27.3888V13.2408L35.25 8.6471V22.1126L24.75 27.3888Z" fill="url(#paint2_linear)"/>
<path d="M28.9184 21.9246L25.9132 23.4351C25.7354 23.5246 25.6005 23.681 25.5382 23.87C25.4758 24.059 25.491 24.265 25.5805 24.4427C25.67 24.6204 25.8265 24.7553 26.0155 24.8177C26.2044 24.8801 26.4104 24.8648 26.5882 24.7753L29.5934 23.2648C29.7711 23.1753 29.906 23.0189 29.9684 22.8299C30.0308 22.6409 30.0155 22.4349 29.926 22.2572C29.8365 22.0795 29.6801 21.9446 29.4911 21.8822C29.3021 21.8198 29.0961 21.8351 28.9184 21.9246Z" fill="url(#paint3_linear)"/>
<path d="M26.2501 21.8556C26.3667 21.8556 26.4818 21.8284 26.5861 21.7761L29.5486 20.2874C29.7263 20.1979 29.8612 20.0414 29.9236 19.8525C29.986 19.6635 29.9707 19.4575 29.8812 19.2798C29.7917 19.102 29.6353 18.9672 29.4463 18.9048C29.2573 18.8424 29.0513 18.8576 28.8736 18.9471L25.9118 20.4359C25.7611 20.5119 25.6404 20.6365 25.5692 20.7896C25.4981 20.9426 25.4807 21.1153 25.5198 21.2795C25.5589 21.4437 25.6523 21.5899 25.7848 21.6945C25.9173 21.799 26.0813 21.8558 26.2501 21.8556Z" fill="url(#paint4_linear)"/>
<defs>
<linearGradient id="paint0_linear" x1="24" y1="1.50073" x2="24" y2="46.5002" gradientUnits="userSpaceOnUse">
<stop stop-color="#EF4744"/>
<stop offset="1" stop-color="#FF9966"/>
</linearGradient>
<linearGradient id="paint1_linear" x1="24" y1="1.50073" x2="24" y2="46.5002" gradientUnits="userSpaceOnUse">
<stop stop-color="#EF4744"/>
<stop offset="1" stop-color="#FF9966"/>
</linearGradient>
<linearGradient id="paint2_linear" x1="24" y1="1.50073" x2="24" y2="46.5002" gradientUnits="userSpaceOnUse">
<stop stop-color="#EF4744"/>
<stop offset="1" stop-color="#FF9966"/>
</linearGradient>
<linearGradient id="paint3_linear" x1="24" y1="1.50073" x2="24" y2="46.5002" gradientUnits="userSpaceOnUse">
<stop stop-color="#EF4744"/>
<stop offset="1" stop-color="#FF9966"/>
</linearGradient>
<linearGradient id="paint4_linear" x1="24" y1="1.50073" x2="24" y2="46.5002" gradientUnits="userSpaceOnUse">
<stop stop-color="#EF4744"/>
<stop offset="1" stop-color="#FF9966"/>
</linearGradient>
</defs>
</svg>
