<svg width="48" height="48" viewBox="0 0 48 48" fill="none" xmlns="http://www.w3.org/2000/svg">
<g clip-path="url(#clip0)">
<path d="M12.8403 30.2097C13.2886 29.9512 13.442 29.3773 13.1835 28.9291C12.9246 28.4812 12.3511 28.3274 11.9028 28.5859C11.4546 28.8449 11.3008 29.4187 11.5597 29.8666C11.8182 30.3148 12.3921 30.4687 12.8403 30.2097Z" fill="url(#paint0_linear)"/>
<path d="M8.99852 36.6802L13.7197 44.858C14.7385 46.6246 17.0303 47.2787 18.8426 46.231C20.636 45.1946 21.2523 42.9032 20.2148 41.1084L17.4023 36.2363L19.838 34.8301C20.2862 34.5708 20.44 33.9977 20.1811 33.5494L18.962 31.4379C19.1074 31.4097 20.0632 31.2222 36.9188 27.9157C39.0025 27.8025 40.251 25.5236 39.1985 23.7017L36.0827 18.3052L38.0738 15.2894C38.2694 14.9928 38.2811 14.6116 38.1035 14.304L36.2285 11.0564C36.0509 10.7488 35.7136 10.5686 35.3602 10.5895L31.7534 10.8059L28.2945 4.8147C27.7936 3.94678 26.896 3.42126 25.894 3.40881C25.8819 3.40845 25.8702 3.40845 25.8581 3.40845C24.8899 3.40845 24.011 3.89038 23.4902 4.7052L11.2434 20.3065L3.2816 24.9032C0.150131 26.7105 -0.934585 30.7278 0.879624 33.8677C2.53709 36.7388 6.03148 37.8682 8.99852 36.6802ZM18.5914 42.0463C19.1092 42.942 18.8027 44.0883 17.9044 44.6072C17.0032 45.1283 15.8555 44.8082 15.3435 43.9209L10.656 35.8009L13.9035 33.9259C19.3286 43.3236 18.5043 41.8958 18.5914 42.0463ZM16.4648 34.6122L15.5273 32.9884L17.1511 32.0509L18.0886 33.6747L16.4648 34.6122ZM34.8944 12.4956L36.19 14.7397L35.0347 16.4895L32.8015 12.6212L34.8944 12.4956ZM25.0583 5.73315C25.3099 5.32153 25.7091 5.27905 25.871 5.28345C26.031 5.28528 26.4298 5.33508 26.6704 5.75183L37.5747 24.6392C37.9299 25.254 37.4981 26.0271 36.7859 26.0447C36.6581 26.0476 36.5991 26.0707 36.2717 26.1318L24.7372 6.1532C24.9792 5.84192 25.0104 5.81189 25.0583 5.73315ZM23.4895 7.74255L34.3268 26.5134L17.9711 29.7214L12.9979 21.1078L23.4895 7.74255ZM2.5034 32.9302C2.09178 32.2179 1.87425 31.4093 1.87425 30.5912C1.87425 28.9191 2.77293 27.3619 4.2191 26.527L11.5261 22.3082L16.2136 30.4271L8.9066 34.6462C6.66795 35.9382 3.79576 35.1685 2.5034 32.9302Z" fill="url(#paint1_linear)"/>
<path d="M9.93586 30.8034C9.67695 30.3551 9.10346 30.2013 8.65522 30.4602L7.03144 31.3977C6.58393 31.6563 6.00934 31.5021 5.7508 31.0546C5.49189 30.6063 4.9184 30.4525 4.47016 30.7114C4.02192 30.9703 3.86811 31.5438 4.12702 31.9921C4.89863 33.3288 6.61982 33.8001 7.96894 33.0215L9.59272 32.084C10.041 31.8251 10.1948 31.252 9.93586 30.8034Z" fill="url(#paint2_linear)"/>
<path d="M46.6066 5.41304L41.3826 8.32002C40.9304 8.57197 40.7674 9.1429 41.0193 9.59517C41.2706 10.0471 41.8411 10.2108 42.2945 9.95845L47.5181 7.05147C47.9708 6.79951 48.1334 6.22859 47.8814 5.77632C47.6298 5.32368 47.0589 5.16109 46.6066 5.41304Z" fill="url(#paint3_linear)"/>
<path d="M46.0585 15.1238L42.4363 14.1533C41.936 14.0193 41.4219 14.3159 41.2878 14.8161C41.1538 15.3164 41.4508 15.8302 41.9511 15.9642L45.5736 16.9347C46.0768 17.0698 46.5884 16.7684 46.7217 16.2718C46.8557 15.7716 46.5587 15.2574 46.0585 15.1238Z" fill="url(#paint4_linear)"/>
<path d="M36.956 2.00803L35.9845 5.63058C35.8504 6.13083 36.1471 6.64462 36.6473 6.77902C37.1472 6.91269 37.6613 6.61679 37.7957 6.11618L38.7669 2.49362C38.901 1.99338 38.6043 1.47922 38.1041 1.34519C37.6042 1.21115 37.0901 1.50778 36.956 2.00803Z" fill="url(#paint5_linear)"/>
</g>
<defs>
<linearGradient id="paint0_linear" x1="12.3715" y1="28.4604" x2="12.3715" y2="30.3355" gradientUnits="userSpaceOnUse">
<stop stop-color="#EF4744"/>
<stop offset="1" stop-color="#FF9966"/>
</linearGradient>
<linearGradient id="paint1_linear" x1="19.7897" y1="3.40845" x2="19.7897" y2="46.7335" gradientUnits="userSpaceOnUse">
<stop stop-color="#EF4744"/>
<stop offset="1" stop-color="#FF9966"/>
</linearGradient>
<linearGradient id="paint2_linear" x1="7.03144" y1="30.3345" x2="7.03144" y2="33.3978" gradientUnits="userSpaceOnUse">
<stop stop-color="#EF4744"/>
<stop offset="1" stop-color="#FF9966"/>
</linearGradient>
<linearGradient id="paint3_linear" x1="44.4504" y1="5.29443" x2="44.4504" y2="10.0771" gradientUnits="userSpaceOnUse">
<stop stop-color="#EF4744"/>
<stop offset="1" stop-color="#FF9966"/>
</linearGradient>
<linearGradient id="paint4_linear" x1="44.0048" y1="14.1211" x2="44.0048" y2="16.967" gradientUnits="userSpaceOnUse">
<stop stop-color="#EF4744"/>
<stop offset="1" stop-color="#FF9966"/>
</linearGradient>
<linearGradient id="paint5_linear" x1="37.3757" y1="1.31299" x2="37.3757" y2="6.81112" gradientUnits="userSpaceOnUse">
<stop stop-color="#EF4744"/>
<stop offset="1" stop-color="#FF9966"/>
</linearGradient>
<clipPath id="clip0">
<rect width="48" height="48" fill="white"/>
</clipPath>
</defs>
</svg>
