<svg width="48" height="48" viewBox="0 0 48 48" fill="none" xmlns="http://www.w3.org/2000/svg">
<path d="M29.9034 0.474121L28.82 1.55744L29.8107 2.54805H17.1035V4.08032H29.8107L28.82 5.07094L29.9034 6.15426L32.7434 3.31419L29.9034 0.474121Z" fill="url(#paint0_linear)"/>
<path d="M31.6606 7.91109H18.9535L19.9441 6.92048L18.8608 5.83716L16.0207 8.67723L18.8608 11.5173L19.9441 10.434L18.9535 9.44336H31.6606V7.91109Z" fill="url(#paint1_linear)"/>
<path d="M32.8581 38.0655L27.8307 37.1507V36.7539C29.7108 35.6621 31.0875 33.7996 31.5166 31.5978C32.9094 31.3097 33.9598 30.0739 33.9598 28.5968V21.0297C33.9598 20.1632 33.7207 19.348 33.3124 18.637H48L46.7206 14.1597C46.3168 12.7454 45.1186 11.6752 43.6667 11.4331L41.6211 11.0921V10.5535C42.5995 9.6786 43.1534 8.45738 43.1534 7.14499V4.84658C43.1534 2.31143 41.0917 0.249756 38.5566 0.249756C36.0215 0.249756 33.9598 2.31143 33.9598 4.84658V7.14499C33.9598 8.45738 34.5137 9.67937 35.4921 10.5535V11.0921L33.4457 11.4331C31.9946 11.6744 30.7964 12.7454 30.3926 14.1597L29.9153 15.8291C28.1617 14.1842 25.8901 13.2741 23.4737 13.2741C21.3798 13.2741 19.4499 13.9682 17.8832 15.1266L17.6074 14.1597C17.2036 12.7454 16.0054 11.6752 14.5535 11.4331L12.5079 11.0921V10.5535C13.4863 9.6786 14.0402 8.45738 14.0402 7.14499V4.84658C14.0402 2.31143 11.9785 0.249756 9.4434 0.249756C6.90826 0.249756 4.84658 2.31143 4.84658 4.84658V7.14499C4.84658 8.45738 5.4005 9.67937 6.37885 10.5535V11.0921L4.33327 11.4338C2.88221 11.6752 1.68397 12.7462 1.28021 14.1605L0 18.637H14.9764C14.3827 19.8713 14.0402 21.2488 14.0402 22.7075V28.5968C14.0402 30.0739 15.0906 31.3097 16.4834 31.5978C16.9132 33.7996 18.2892 35.6629 20.1693 36.7539V37.1507L15.1419 38.0647C13.1477 38.4279 11.5472 39.859 10.9642 41.8004L9.17985 47.7502H38.8201L37.0358 41.8004C36.4528 39.859 34.8523 38.4279 32.8581 38.0655ZM31.6614 29.9161V27.2775C32.1172 27.5434 32.4275 28.0322 32.4275 28.5968C32.4275 29.1615 32.1172 29.6503 31.6614 29.9161ZM31.8659 14.5803C32.108 13.7322 32.8274 13.0902 33.6978 12.9446L37.0243 12.3915V9.81114L36.7202 9.5813C35.9395 8.99061 35.4921 8.10266 35.4921 7.14499V4.84658C35.4921 3.15648 36.8665 1.78203 38.5566 1.78203C40.2467 1.78203 41.6211 3.15648 41.6211 4.84658V7.14499C41.6211 8.10266 41.1737 8.99061 40.393 9.5813L40.0889 9.81038V12.3907L43.4154 12.9446C44.2865 13.0894 45.0052 13.7315 45.248 14.5803L45.9682 17.1048H31.9318C31.7204 16.9546 31.4959 16.8205 31.2591 16.7048L31.8659 14.5803ZM2.03199 17.104L2.75273 14.5803C2.99483 13.7322 3.71423 13.0902 4.58456 12.9446L7.91113 12.3915V9.81114L7.60697 9.5813C6.82628 8.99061 6.37885 8.10266 6.37885 7.14499V4.84658C6.37885 3.15648 7.7533 1.78203 9.4434 1.78203C11.1335 1.78203 12.5079 3.15648 12.5079 4.84658V7.14499C12.5079 8.10266 12.0605 8.99061 11.2798 9.5813L10.9757 9.81038V12.3907L14.3022 12.9446C15.1733 13.0894 15.892 13.7315 16.1348 14.5803L16.6129 16.2536C16.3593 16.5225 16.1233 16.8067 15.9027 17.104H2.03199ZM16.3386 29.9161C15.8828 29.6503 15.5725 29.1615 15.5725 28.5968C15.5725 28.0322 15.8828 27.5434 16.3386 27.2775V29.9161ZM16.3386 24.7661V25.6411C16.0659 25.7123 15.81 25.8196 15.5725 25.9582V22.7075C15.5725 18.3513 19.1166 14.8064 23.4737 14.8064C25.5836 14.8064 27.5687 15.6284 29.0611 17.1209L29.7368 17.7973L29.9429 17.8479C31.4062 18.2134 32.4275 19.5219 32.4275 21.0297V25.9582C32.19 25.8196 31.9341 25.7115 31.6614 25.6411V24.7661H29.2319C27.1557 24.7661 25.1714 23.7747 23.9265 22.1145L23.3174 21.3009L21.7951 22.824C20.5417 24.0766 18.8761 24.7661 17.1048 24.7661H16.3386ZM17.8709 30.1291V26.2632C19.7625 26.0877 21.5177 25.2672 22.8784 23.9073L23.1764 23.6093C24.7125 25.3047 26.9251 26.2984 29.2319 26.2984H30.1291V30.1291C30.1291 33.5085 27.3794 36.2582 24 36.2582C20.6206 36.2582 17.8709 33.5085 17.8709 30.1291ZM21.7667 37.4564C22.4739 37.6725 23.2231 37.7905 24 37.7905C24.7769 37.7905 25.5261 37.6725 26.2333 37.4564L24 39.1312L21.7667 37.4564ZM22.8339 40.1716L21.2703 41.7345L20.2559 38.6922L20.7439 38.6041L22.8339 40.1716ZM27.2561 38.6041L27.7433 38.693L26.729 41.7353L25.1653 40.1724L27.2561 38.6041ZM11.2392 46.218L12.4329 42.2409C12.8489 40.8542 13.992 39.8314 15.417 39.5733L18.7343 38.9703L20.6014 44.5723L24 41.1722L27.3993 44.5715L29.2664 38.9695L32.5838 39.5725C34.008 39.8314 35.1519 40.8542 35.5679 42.2402L36.7608 46.218H11.2392Z" fill="url(#paint2_linear)"/>
<path d="M45.4506 43.1536C44.1834 43.1536 43.1522 44.1848 43.1522 45.452C43.1522 46.7192 44.1834 47.7504 45.4506 47.7504C46.7178 47.7504 47.749 46.7192 47.749 45.452C47.749 44.1848 46.7178 43.1536 45.4506 43.1536ZM45.4506 46.2181C45.0284 46.2181 44.6844 45.8749 44.6844 45.452C44.6844 45.0291 45.0284 44.6858 45.4506 44.6858C45.8727 44.6858 46.2167 45.0291 46.2167 45.452C46.2167 45.8749 45.8727 46.2181 45.4506 46.2181Z" fill="url(#paint3_linear)"/>
<path d="M2.54695 43.1536C1.27976 43.1536 0.248535 44.1848 0.248535 45.452C0.248535 46.7192 1.27976 47.7504 2.54695 47.7504C3.81414 47.7504 4.84536 46.7192 4.84536 45.452C4.84536 44.1848 3.81414 43.1536 2.54695 43.1536ZM2.54695 46.2181C2.1248 46.2181 1.78081 45.8749 1.78081 45.452C1.78081 45.0291 2.1248 44.6858 2.54695 44.6858C2.96909 44.6858 3.31308 45.0291 3.31308 45.452C3.31308 45.8749 2.96909 46.2181 2.54695 46.2181Z" fill="url(#paint4_linear)"/>
<path d="M3.31304 40.0889H1.78076V41.6211H3.31304V40.0889Z" fill="url(#paint5_linear)"/>
<path d="M3.31304 37.0244H1.78076V38.5567H3.31304V37.0244Z" fill="url(#paint6_linear)"/>
<path d="M3.31304 33.96H1.78076V35.4922H3.31304V33.96Z" fill="url(#paint7_linear)"/>
<path d="M46.2167 40.0889H44.6844V41.6211H46.2167V40.0889Z" fill="url(#paint8_linear)"/>
<path d="M46.2167 37.0244H44.6844V38.5567H46.2167V37.0244Z" fill="url(#paint9_linear)"/>
<path d="M46.2167 33.96H44.6844V35.4922H46.2167V33.96Z" fill="url(#paint10_linear)"/>
<defs>
<linearGradient id="paint0_linear" x1="24.9235" y1="0.474121" x2="24.9235" y2="6.15426" gradientUnits="userSpaceOnUse">
<stop stop-color="#EF4744"/>
<stop offset="1" stop-color="#FF9966"/>
</linearGradient>
<linearGradient id="paint1_linear" x1="23.8407" y1="5.83716" x2="23.8407" y2="11.5173" gradientUnits="userSpaceOnUse">
<stop stop-color="#EF4744"/>
<stop offset="1" stop-color="#FF9966"/>
</linearGradient>
<linearGradient id="paint2_linear" x1="24" y1="0.249756" x2="24" y2="47.7502" gradientUnits="userSpaceOnUse">
<stop stop-color="#EF4744"/>
<stop offset="1" stop-color="#FF9966"/>
</linearGradient>
<linearGradient id="paint3_linear" x1="45.4506" y1="43.1536" x2="45.4506" y2="47.7504" gradientUnits="userSpaceOnUse">
<stop stop-color="#EF4744"/>
<stop offset="1" stop-color="#FF9966"/>
</linearGradient>
<linearGradient id="paint4_linear" x1="2.54695" y1="43.1536" x2="2.54695" y2="47.7504" gradientUnits="userSpaceOnUse">
<stop stop-color="#EF4744"/>
<stop offset="1" stop-color="#FF9966"/>
</linearGradient>
<linearGradient id="paint5_linear" x1="2.5469" y1="40.0889" x2="2.5469" y2="41.6211" gradientUnits="userSpaceOnUse">
<stop stop-color="#EF4744"/>
<stop offset="1" stop-color="#FF9966"/>
</linearGradient>
<linearGradient id="paint6_linear" x1="2.5469" y1="37.0244" x2="2.5469" y2="38.5567" gradientUnits="userSpaceOnUse">
<stop stop-color="#EF4744"/>
<stop offset="1" stop-color="#FF9966"/>
</linearGradient>
<linearGradient id="paint7_linear" x1="2.5469" y1="33.96" x2="2.5469" y2="35.4922" gradientUnits="userSpaceOnUse">
<stop stop-color="#EF4744"/>
<stop offset="1" stop-color="#FF9966"/>
</linearGradient>
<linearGradient id="paint8_linear" x1="45.4506" y1="40.0889" x2="45.4506" y2="41.6211" gradientUnits="userSpaceOnUse">
<stop stop-color="#EF4744"/>
<stop offset="1" stop-color="#FF9966"/>
</linearGradient>
<linearGradient id="paint9_linear" x1="45.4506" y1="37.0244" x2="45.4506" y2="38.5567" gradientUnits="userSpaceOnUse">
<stop stop-color="#EF4744"/>
<stop offset="1" stop-color="#FF9966"/>
</linearGradient>
<linearGradient id="paint10_linear" x1="45.4506" y1="33.96" x2="45.4506" y2="35.4922" gradientUnits="userSpaceOnUse">
<stop stop-color="#EF4744"/>
<stop offset="1" stop-color="#FF9966"/>
</linearGradient>
</defs>
</svg>
