<svg width="48" height="48" viewBox="0 0 48 48" fill="none" xmlns="http://www.w3.org/2000/svg">
<path d="M37.9356 11.3718L39.0682 10.2393L39.6854 10.8565C39.8557 11.0268 40.0795 11.1122 40.3027 11.1122C40.5259 11.1122 40.7491 11.0268 40.9194 10.8565C41.2605 10.5154 41.2605 9.9631 40.9194 9.62203L39.6864 8.38906C39.6859 8.38856 39.6859 8.38806 39.6854 8.38756C39.6849 8.38756 39.6844 8.38756 39.6839 8.38706L38.451 7.1536C38.1104 6.81302 37.5576 6.81302 37.217 7.1536C36.8759 7.49467 36.8759 8.04699 37.217 8.38756L37.8342 9.00479L36.5773 10.2617C33.3034 7.81727 29.2934 6.31065 24.9458 6.13137V4.36357H27.1276C28.3311 4.36357 29.3099 3.38479 29.3099 2.18178C29.3099 0.978782 28.3311 0 27.1276 0H21.0187C19.8157 0 18.8369 0.978782 18.8369 2.18178C18.8369 3.38479 19.8157 4.36357 21.0187 4.36357H23.2005V6.13137C18.4124 6.32862 14.0354 8.14037 10.5981 11.0363L8.56666 9.00479L9.18389 8.38756C9.52497 8.04699 9.52497 7.49467 9.18389 7.1536C8.84332 6.81302 8.29101 6.81302 7.94993 7.1536L6.71696 8.38706C6.71646 8.38756 6.71597 8.38756 6.71547 8.38756C6.71497 8.38806 6.71497 8.38856 6.71447 8.38906L5.4815 9.62203C5.14093 9.9631 5.14093 10.5154 5.4815 10.8565C5.65179 11.0268 5.87551 11.1122 6.09873 11.1122C6.32196 11.1122 6.54518 11.0268 6.71547 10.8565L7.3327 10.2393L9.30824 12.2143C5.49349 16.0101 3.12793 21.261 3.12793 27.0543C3.12793 38.604 12.5242 47.9998 24.0734 47.9998C35.6225 47.9998 45.0188 38.604 45.0188 27.0543C45.0188 20.8176 42.2752 15.2121 37.9356 11.3718ZM20.5822 2.18178C20.5822 1.94108 20.778 1.74533 21.0187 1.74533H27.1276C27.3688 1.74533 27.564 1.94108 27.564 2.18178C27.564 2.42249 27.3688 2.61824 27.1276 2.61824H24.0963C24.0879 2.61774 24.0814 2.61375 24.0734 2.61375C24.0654 2.61375 24.0584 2.61824 24.0499 2.61824H21.0187C20.778 2.61824 20.5822 2.42249 20.5822 2.18178ZM24.0734 46.2544C13.4865 46.2544 4.87326 37.6412 4.87326 27.0543C4.87326 16.4675 13.4865 7.85472 24.0734 7.85472C34.6602 7.85472 43.2735 16.4675 43.2735 27.0543C43.2735 37.6412 34.6602 46.2544 24.0734 46.2544Z" fill="url(#paint0_linear)"/>
<path d="M32.185 39.0306C31.4509 39.5289 30.6664 39.9624 29.8529 40.317C29.4114 40.5102 29.2097 41.0246 29.403 41.4665C29.5463 41.7946 29.8669 41.9899 30.203 41.9899C30.3198 41.9899 30.4382 41.9664 30.552 41.9165C31.4634 41.5185 32.3423 41.0331 33.1653 40.4753C33.5643 40.2041 33.6681 39.6613 33.3975 39.2628C33.1263 38.8638 32.583 38.7599 32.185 39.0306Z" fill="url(#paint1_linear)"/>
<path d="M24.0736 10.8472C15.1362 10.8472 7.86523 18.1176 7.86523 27.055C7.86523 35.9924 15.1362 43.2633 24.0736 43.2633C24.5555 43.2633 24.946 42.8723 24.946 42.3904C24.946 41.9085 24.5555 41.518 24.0736 41.518C16.0985 41.518 9.61106 35.0301 9.61106 27.055C9.61106 19.0804 16.0985 12.5925 24.0736 12.5925C32.0481 12.5925 38.536 19.0804 38.536 27.055C38.536 30.303 37.4849 33.3711 35.4948 35.9285C35.1992 36.3085 35.2681 36.8568 35.6486 37.1529C36.0267 37.4476 36.5765 37.3797 36.8731 36.9996C39.1028 34.1332 40.2814 30.6945 40.2814 27.055C40.2814 18.1176 33.0109 10.8472 24.0736 10.8472Z" fill="url(#paint2_linear)"/>
<path d="M23.6369 23.563C21.9525 23.563 20.5822 24.9333 20.5822 26.6177C20.5822 27.1211 20.7166 27.5895 20.9333 28.0085L16.2361 32.2437C15.8781 32.5663 15.8496 33.1181 16.1722 33.4762C16.3445 33.6674 16.5822 33.7643 16.8209 33.7643C17.0286 33.7643 17.2379 33.6904 17.4047 33.5401L22.1448 29.2659C22.5882 29.5166 23.0926 29.6719 23.6369 29.6719C25.3208 29.6719 26.6916 28.3016 26.6916 26.6172C26.6916 24.9333 25.3208 23.563 23.6369 23.563ZM23.6369 27.9266C22.9148 27.9266 22.328 27.3393 22.328 26.6177C22.328 25.8956 22.9148 25.3083 23.6369 25.3083C24.359 25.3083 24.9458 25.8956 24.9458 26.6177C24.9458 27.3393 24.359 27.9266 23.6369 27.9266Z" fill="url(#paint3_linear)"/>
<defs>
<linearGradient id="paint0_linear" x1="24.0734" y1="0" x2="24.0734" y2="47.9998" gradientUnits="userSpaceOnUse">
<stop stop-color="#EF4744"/>
<stop offset="1" stop-color="#FF9966"/>
</linearGradient>
<linearGradient id="paint1_linear" x1="31.4389" y1="38.8799" x2="31.4389" y2="41.9899" gradientUnits="userSpaceOnUse">
<stop stop-color="#EF4744"/>
<stop offset="1" stop-color="#FF9966"/>
</linearGradient>
<linearGradient id="paint2_linear" x1="24.0733" y1="10.8472" x2="24.0733" y2="43.2633" gradientUnits="userSpaceOnUse">
<stop stop-color="#EF4744"/>
<stop offset="1" stop-color="#FF9966"/>
</linearGradient>
<linearGradient id="paint3_linear" x1="21.3197" y1="23.563" x2="21.3197" y2="33.7643" gradientUnits="userSpaceOnUse">
<stop stop-color="#EF4744"/>
<stop offset="1" stop-color="#FF9966"/>
</linearGradient>
</defs>
</svg>
