<svg width="48" height="48" viewBox="0 0 48 48" fill="none" xmlns="http://www.w3.org/2000/svg">
<path d="M16 0C9.3726 0 4 5.3726 4 12V20.8C4.0035 23.8913 6.5087 26.3965 9.6 26.4H10.4V24.8H9.6C7.392 24.7974 5.6026 23.008 5.6 20.8V12C5.6 6.2562 10.2562 1.6 16 1.6C21.7438 1.6 26.4 6.2562 26.4 12V20.8C26.3974 23.008 24.608 24.7974 22.4 24.8H21.6V26.4H22.4C25.4913 26.3965 27.9965 23.8913 28 20.8V12C28 5.3726 22.6274 0 16 0Z" fill="url(#paint0_linear)"/>
<path d="M6.59156 37.7032L7.17636 36.7824L5.82516 35.9248L5.24036 36.8464C3.47166 39.6336 3.60296 43.2224 5.57076 45.8728V48H7.17076V45.6C7.17086 45.4183 7.10906 45.2419 6.99556 45.1C5.29476 42.9738 5.13246 40.002 6.59156 37.7032Z" fill="url(#paint1_linear)"/>
<path d="M44.0001 0H33.6001C31.3921 0.0026 29.6027 1.792 29.6001 4V12C29.6027 14.208 31.3921 15.9974 33.6001 16H35.2001V19.2C35.2 19.5235 35.3948 19.8153 35.6937 19.9392C35.7908 19.9797 35.8949 20.0003 36.0001 20C36.2123 20 36.4157 19.9156 36.5657 19.7656L40.3313 16H44.0001C46.2081 15.9974 47.9975 14.208 48.0001 12V4C47.9975 1.792 46.2081 0.0026 44.0001 0ZM46.4001 12C46.4001 13.3255 45.3256 14.4 44.0001 14.4H40.0001C39.7879 14.4 39.5845 14.4844 39.4345 14.6344L36.8001 17.2688V15.2C36.8001 14.7582 36.4419 14.4 36.0001 14.4H33.6001C32.2746 14.4 31.2001 13.3255 31.2001 12V4C31.2001 2.6745 32.2746 1.6 33.6001 1.6H44.0001C45.3256 1.6 46.4001 2.6745 46.4001 4V12Z" fill="url(#paint2_linear)"/>
<path d="M39.2001 4H33.6001V5.6H39.2001V4Z" fill="url(#paint3_linear)"/>
<path d="M44 4H40.8V5.6H44V4Z" fill="url(#paint4_linear)"/>
<path d="M44.0001 7.19995H33.6001V8.79995H44.0001V7.19995Z" fill="url(#paint5_linear)"/>
<path d="M39.2001 10.3999H33.6001V11.9999H39.2001V10.3999Z" fill="url(#paint6_linear)"/>
<path d="M26.7595 36.8464L26.1747 35.9248L24.8235 36.7824L25.4083 37.704C26.8675 40.0025 26.7052 42.9741 25.0043 45.1C24.8908 45.2419 24.829 45.4183 24.8291 45.6V48H26.4291V45.8728C28.3969 43.2224 28.5282 39.6336 26.7595 36.8464Z" fill="url(#paint7_linear)"/>
<path d="M47.2 27.1999H40C36.9984 27.2034 34.5334 29.5728 34.4112 32.5719L32 36.9127V33.5999C31.9965 30.5086 29.4913 28.0034 26.4 27.9999H23.476L23.4544 27.9831L23.44 27.9999H21.6C20.7163 27.9999 20 27.2836 20 26.3999V24.5175C22.4719 23.0903 23.9962 20.4542 24 17.5999V11.2C23.9988 9.87445 23.669 8.56995 23.04 7.40315C22.8385 7.03195 22.3831 6.88126 22 7.05916L8.4592 13.4304C8.1788 13.5624 7.9999 13.8445 8 14.1544V17.5999C8.0038 20.4542 9.5281 23.0903 12 24.5175V26.3999C12 27.2836 11.2837 27.9999 10.4 27.9999H5.6C2.5087 28.0034 0.0035 30.5086 0 33.5999V47.9999H1.6V33.5999C1.6026 31.3919 3.392 29.6025 5.6 29.5999H8.1456L15.3496 39.6655C15.4976 39.8724 15.7352 39.9965 15.9896 39.9999H16C16.2518 39.9999 16.4889 39.8813 16.64 39.6799L24.24 29.5999H26.4C28.608 29.6025 30.3974 31.3919 30.4 33.5999V39.9999C30.4004 40.4417 30.7589 40.7996 31.2007 40.7992C31.4909 40.7989 31.7582 40.6416 31.8992 40.3879L35.6704 33.5999H40.2568L32.4568 47.9999H34.2768L42.08 33.5999H42.4C45.4913 33.5964 47.9965 31.0912 48 27.9999C48 27.5581 47.6418 27.1999 47.2 27.1999ZM9.6 17.5999V14.6623L21.9528 8.84955C22.2483 9.59795 22.4 10.3954 22.4 11.2V17.5999C22.4 21.1345 19.5346 23.9999 16 23.9999C12.4654 23.9999 9.6 21.1345 9.6 17.5999ZM16.0168 37.8495L13.548 34.3999H18.6168L16.0168 37.8495ZM19.8272 32.7999H12.4L10.1096 29.5999H10.4C12.1673 29.5999 13.6 28.1672 13.6 26.3999V25.2311C15.1622 25.7228 16.8378 25.7228 18.4 25.2311V26.3999C18.4 28.1672 19.8327 29.5999 21.6 29.5999H22.24L19.8272 32.7999ZM42.4 31.9999H36.08C36.4625 30.1386 38.0998 28.802 40 28.7999H46.32C45.9375 30.6612 44.3002 31.9978 42.4 31.9999Z" fill="url(#paint8_linear)"/>
<defs>
<linearGradient id="paint0_linear" x1="16" y1="0" x2="16" y2="26.4" gradientUnits="userSpaceOnUse">
<stop stop-color="#EF4744"/>
<stop offset="1" stop-color="#FF9966"/>
</linearGradient>
<linearGradient id="paint1_linear" x1="5.58769" y1="35.9248" x2="5.58769" y2="48" gradientUnits="userSpaceOnUse">
<stop stop-color="#EF4744"/>
<stop offset="1" stop-color="#FF9966"/>
</linearGradient>
<linearGradient id="paint2_linear" x1="38.8001" y1="0" x2="38.8001" y2="20" gradientUnits="userSpaceOnUse">
<stop stop-color="#EF4744"/>
<stop offset="1" stop-color="#FF9966"/>
</linearGradient>
<linearGradient id="paint3_linear" x1="36.4001" y1="4" x2="36.4001" y2="5.6" gradientUnits="userSpaceOnUse">
<stop stop-color="#EF4744"/>
<stop offset="1" stop-color="#FF9966"/>
</linearGradient>
<linearGradient id="paint4_linear" x1="42.4" y1="4" x2="42.4" y2="5.6" gradientUnits="userSpaceOnUse">
<stop stop-color="#EF4744"/>
<stop offset="1" stop-color="#FF9966"/>
</linearGradient>
<linearGradient id="paint5_linear" x1="38.8001" y1="7.19995" x2="38.8001" y2="8.79995" gradientUnits="userSpaceOnUse">
<stop stop-color="#EF4744"/>
<stop offset="1" stop-color="#FF9966"/>
</linearGradient>
<linearGradient id="paint6_linear" x1="36.4001" y1="10.3999" x2="36.4001" y2="11.9999" gradientUnits="userSpaceOnUse">
<stop stop-color="#EF4744"/>
<stop offset="1" stop-color="#FF9966"/>
</linearGradient>
<linearGradient id="paint7_linear" x1="26.4122" y1="35.9248" x2="26.4122" y2="48" gradientUnits="userSpaceOnUse">
<stop stop-color="#EF4744"/>
<stop offset="1" stop-color="#FF9966"/>
</linearGradient>
<linearGradient id="paint8_linear" x1="24" y1="6.98462" x2="24" y2="47.9999" gradientUnits="userSpaceOnUse">
<stop stop-color="#EF4744"/>
<stop offset="1" stop-color="#FF9966"/>
</linearGradient>
</defs>
</svg>
