<svg width="48" height="48" viewBox="0 0 48 48" fill="none" xmlns="http://www.w3.org/2000/svg">
<path d="M40.8538 0.249756C39.5866 0.249756 38.5554 1.28098 38.5554 2.54817C38.5554 2.65236 38.573 2.75196 38.586 2.85232L33.9961 5.47481C33.5847 5.08791 33.0346 4.84658 32.4263 4.84658C31.8179 4.84658 31.2679 5.08791 30.8564 5.47481L26.2665 2.85232C26.2795 2.75196 26.2972 2.65236 26.2972 2.54817C26.2972 1.28098 25.2659 0.249756 23.9988 0.249756C22.7316 0.249756 21.7003 1.28098 21.7003 2.54817C21.7003 2.67151 21.718 2.79103 21.7371 2.90902L17.0982 5.43957C16.6906 5.07488 16.1596 4.84658 15.5713 4.84658C14.9829 4.84658 14.4519 5.07488 14.0451 5.43957L9.40615 2.90902C9.42454 2.79103 9.44216 2.67151 9.44216 2.54817C9.44216 1.28098 8.41094 0.249756 7.14375 0.249756C5.87656 0.249756 4.84534 1.28098 4.84534 2.54817C4.84534 3.81536 5.87656 4.84658 7.14375 4.84658C7.73214 4.84658 8.26307 4.61827 8.66989 4.25359L13.3088 6.78414C13.2905 6.90212 13.2728 7.02164 13.2728 7.14499C13.2728 8.41218 14.3041 9.4434 15.5713 9.4434C16.8384 9.4434 17.8697 8.41218 17.8697 7.14499C17.8697 7.02164 17.852 6.90212 17.8329 6.78414L22.4718 4.25359C22.8794 4.61827 23.4104 4.84658 23.9988 4.84658C24.6071 4.84658 25.1572 4.60524 25.5686 4.21834L30.1585 6.8416C30.1455 6.94119 30.1278 7.04079 30.1278 7.14499C30.1278 8.41218 31.1591 9.4434 32.4263 9.4434C33.6934 9.4434 34.7247 8.41218 34.7247 7.14499C34.7247 7.04079 34.707 6.94119 34.694 6.84083L39.2839 4.21758C39.6954 4.60524 40.2454 4.84658 40.8538 4.84658C42.121 4.84658 43.1522 3.81536 43.1522 2.54817C43.1522 1.28098 42.121 0.249756 40.8538 0.249756ZM7.14375 3.3143C6.72161 3.3143 6.37761 2.97031 6.37761 2.54817C6.37761 2.12602 6.72161 1.78203 7.14375 1.78203C7.56589 1.78203 7.90988 2.12602 7.90988 2.54817C7.90988 2.97031 7.56589 3.3143 7.14375 3.3143ZM15.5713 7.91112C15.1491 7.91112 14.8051 7.56713 14.8051 7.14499C14.8051 6.72285 15.1491 6.37885 15.5713 6.37885C15.9934 6.37885 16.3374 6.72285 16.3374 7.14499C16.3374 7.56713 15.9934 7.91112 15.5713 7.91112ZM23.9988 3.3143C23.5766 3.3143 23.2326 2.97031 23.2326 2.54817C23.2326 2.12602 23.5766 1.78203 23.9988 1.78203C24.4209 1.78203 24.7649 2.12602 24.7649 2.54817C24.7649 2.97031 24.4209 3.3143 23.9988 3.3143ZM32.4263 7.91112C32.0041 7.91112 31.6601 7.56713 31.6601 7.14499C31.6601 6.72285 32.0041 6.37885 32.4263 6.37885C32.8484 6.37885 33.1924 6.72285 33.1924 7.14499C33.1924 7.56713 32.8484 7.91112 32.4263 7.91112ZM40.8538 3.3143C40.4316 3.3143 40.0876 2.97031 40.0876 2.54817C40.0876 2.12602 40.4316 1.78203 40.8538 1.78203C41.2759 1.78203 41.6199 2.12602 41.6199 2.54817C41.6199 2.97031 41.2759 3.3143 40.8538 3.3143Z" fill="url(#paint0_linear)"/>
<path d="M46.9581 44.1057C46.4041 42.1666 44.8313 40.7163 42.8539 40.321L38.5566 39.4606V39.2592C39.974 38.4363 41.0297 37.0634 41.4342 35.4331C42.8477 35.1611 43.9196 33.9192 43.9196 32.4275V27.1588C43.9196 27.1266 43.9127 27.0967 43.9119 27.0646H43.9196V7.91113H37.7905V17.2266H39.3227V9.44341H42.3873V23.6476C41.874 23.1687 41.258 22.791 40.5593 22.5704C40.2076 22.0946 39.7862 21.6886 39.3227 21.3438V18.7581H37.7905V20.5164C37.1592 20.2911 36.4857 20.1693 35.7947 20.1693C35.6928 20.1693 35.5932 20.1823 35.4921 20.1854V11.7418H29.363V22.6914C29.2634 22.6524 29.1699 22.6033 29.0672 22.5712C28.5309 21.8449 27.8422 21.2664 27.0645 20.8565V7.91113H20.9355V20.8458C20.0935 21.199 19.3212 21.684 18.637 22.2701V11.7418H12.5079V20.1846C11.7112 20.2122 10.9389 20.3371 10.2095 20.5654V18.637H8.67727V21.2128C7.44915 21.8755 6.39877 22.8247 5.61272 23.9694V9.44341H8.67727V17.1048H10.2095V7.91113H4.08044V28.5968H4.09577C4.09194 28.698 4.08044 28.7968 4.08044 28.8995V32.4275C4.08044 33.9192 5.15227 35.1611 6.56579 35.4338C6.97031 37.0642 8.02605 38.4371 9.4434 39.2599V39.4614L5.14691 40.321C3.16874 40.7163 1.59586 42.1666 1.04195 44.1057L0 47.7502H11.4921H12.5079H35.4921H36.5079H48L46.9581 44.1057ZM40.0889 33.9598C40.0889 36.4949 38.0272 38.5566 35.4921 38.5566C33.3499 38.5566 31.5074 37.045 31.0308 34.9918C31.8698 34.4447 32.4275 33.5016 32.4275 32.4275V30.4509C33.235 30.1345 33.982 29.6579 34.5941 29.0458L34.7979 28.842L34.8791 28.9033C36.3877 30.0341 38.2126 30.7167 40.0889 30.8638V33.9598ZM18.2547 36.0751C18.7527 37.4227 19.7081 38.5474 20.9355 39.2592V39.4606L18.2547 39.9969L15.5725 39.4606V39.2561C16.793 38.5459 17.7545 37.4258 18.2547 36.0751ZM17.1048 32.4275C17.1048 31.8629 17.4151 31.3741 17.8709 31.1082V33.7468C17.4151 33.4809 17.1048 32.9922 17.1048 32.4275ZM19.4032 33.9598V30.8439C20.7991 30.6761 22.0923 30.0555 23.1021 29.0458L23.3059 28.842L23.3871 28.9033C24.8956 30.0341 26.7206 30.7167 28.5968 30.8638V33.9598C28.5968 36.4949 26.5351 38.5566 24 38.5566C21.4649 38.5566 19.4032 36.4949 19.4032 33.9598ZM27.0645 39.2592C28.2919 38.5466 29.2473 37.422 29.7453 36.0751C30.2455 37.4258 31.207 38.5459 32.4275 39.2561V39.4606L29.746 39.9969L27.0645 39.4606V39.2592ZM30.1291 33.7468V31.1082C30.5849 31.3741 30.8952 31.8629 30.8952 32.4275C30.8952 32.9922 30.5849 33.4809 30.1291 33.7468ZM41.6211 33.7468V31.1082C42.077 31.3741 42.3873 31.8629 42.3873 32.4275C42.3873 32.9922 42.077 33.4809 41.6211 33.7468ZM30.8952 13.2741H33.9598V20.3662C32.8596 20.6022 31.8238 21.0573 30.8952 21.6886V13.2741ZM35.7947 21.7016C37.2672 21.7016 38.6347 22.4333 39.4514 23.6591L39.6154 23.9058L39.9027 23.9778C41.366 24.3432 42.3873 25.651 42.3873 27.1588V29.7889C41.9345 29.5254 41.4158 29.363 40.855 29.363C39.0439 29.363 37.248 28.7646 35.7985 27.6775L34.6539 26.8186L33.5108 27.9617C33.1921 28.2804 32.8228 28.547 32.4275 28.7638V27.158C32.4275 25.7813 31.8399 24.5248 30.8837 23.6376C32.2107 22.3995 33.9598 21.7016 35.7947 21.7016ZM22.4677 9.44341H25.5323V20.3049C25.1316 20.2199 24.7209 20.1693 24.3026 20.1693C23.6729 20.1693 23.0599 20.2398 22.4677 20.367V9.44341ZM24.3026 21.7016C25.7751 21.7016 27.1427 22.4333 27.9594 23.6591L28.1233 23.9058L28.4107 23.9778C29.874 24.3432 30.8952 25.651 30.8952 27.1588V29.7889C30.4424 29.5254 29.9238 29.363 29.363 29.363C27.5518 29.363 25.756 28.7646 24.3065 27.6775L23.1618 26.8186L22.0188 27.9617C21.1155 28.8657 19.9142 29.363 18.637 29.363C18.0762 29.363 17.5576 29.5254 17.1048 29.7889V28.8987C17.1048 24.9301 20.3333 21.7016 24.3026 21.7016ZM14.0402 13.2741H17.1048V22.0126C16.2789 21.1431 15.2101 20.5524 14.0402 20.3049V13.2741ZM6.37885 33.7468C5.923 33.4809 5.61272 32.9922 5.61272 32.4275C5.61272 31.8629 5.923 31.3741 6.37885 31.1082V33.7468ZM5.61272 29.7889V28.8987C5.61272 24.9301 8.84122 21.7016 12.8106 21.7016C14.2831 21.7016 15.6506 22.4333 16.4673 23.6591L16.6313 23.9058L16.9186 23.9778C16.9676 23.99 17.0121 24.0146 17.0603 24.0291C16.1218 25.4204 15.5725 27.0967 15.5725 28.8995V29.0381C14.5803 28.7554 13.6395 28.2965 12.8144 27.6775L11.6698 26.8186L10.5267 27.9617C9.62344 28.8657 8.42214 29.363 7.14499 29.363C6.58418 29.363 6.06551 29.5254 5.61272 29.7889ZM7.91113 33.9598V30.8439C9.30703 30.6761 10.6003 30.0555 11.61 29.0458L11.8138 28.842L11.895 28.9033C12.9845 29.7207 14.2478 30.2923 15.5725 30.6079V32.4275C15.5725 33.5016 16.1302 34.4447 16.9692 34.9918C16.4926 37.045 14.6501 38.5566 12.5079 38.5566C9.9728 38.5566 7.91113 36.4949 7.91113 33.9598ZM11.9303 46.218H2.03179L2.51523 44.5263C2.91132 43.1412 4.03448 42.1046 5.44723 41.8226L10.9757 40.7171V39.8874C11.4668 40.0146 11.9778 40.0889 12.5079 40.0889C13.0351 40.0889 13.5476 40.0169 14.0402 39.8881V40.7171L15.0523 40.9194C13.8456 41.5997 12.9286 42.7244 12.534 44.1057L11.9303 46.218ZM30.7274 46.218L30.1061 43.7334L28.6198 44.105L29.1477 46.218H18.8523L19.3802 44.1057L17.8939 43.7342L17.2726 46.218H13.5238L14.0073 44.5263C14.4034 43.1412 15.5265 42.1046 16.9393 41.8226L22.4677 40.7171V39.8874C22.9588 40.0146 23.4698 40.0889 24 40.0889C24.5302 40.0889 25.0412 40.0146 25.5323 39.8874V40.7171L31.0615 41.8226C32.4742 42.1054 33.5974 43.1412 33.9935 44.5263L34.4762 46.218H30.7274ZM36.0697 46.218L35.466 44.1057C35.0714 42.7244 34.1544 41.6005 32.9477 40.9194L33.9598 40.7171V39.8881C34.4524 40.0169 34.965 40.0889 35.4921 40.0889C36.0222 40.0889 36.5332 40.0146 37.0243 39.8874V40.7171L42.5535 41.8226C43.9663 42.1054 45.0894 43.1412 45.4855 44.5263L45.9682 46.218H36.0697Z" fill="url(#paint1_linear)"/>
<defs>
<linearGradient id="paint0_linear" x1="23.9988" y1="0.249756" x2="23.9988" y2="9.4434" gradientUnits="userSpaceOnUse">
<stop stop-color="#EF4744"/>
<stop offset="1" stop-color="#FF9966"/>
</linearGradient>
<linearGradient id="paint1_linear" x1="24" y1="7.91113" x2="24" y2="47.7502" gradientUnits="userSpaceOnUse">
<stop stop-color="#EF4744"/>
<stop offset="1" stop-color="#FF9966"/>
</linearGradient>
</defs>
</svg>
