<svg width="48" height="48" viewBox="0 0 48 48" fill="none" xmlns="http://www.w3.org/2000/svg">
<path d="M42.3497 22.243C40.7164 21.4265 37.654 21.417 37.5244 21.417C37.1361 21.417 36.8213 21.7318 36.8213 22.1201C36.8213 22.5084 37.1361 22.8232 37.5244 22.8232C38.3147 22.8233 40.609 22.945 41.7208 23.5009C41.8218 23.5514 41.929 23.5752 42.0347 23.5752C42.2926 23.5752 42.5409 23.4327 42.6641 23.1864C42.8378 22.8391 42.697 22.4167 42.3497 22.243Z" fill="url(#paint0_linear)"/>
<path d="M45.8542 32.254L42.9503 31.4243C42.825 31.3885 42.7374 31.2724 42.7374 31.142V30.1728C42.9737 30.0091 43.1991 29.8259 43.4097 29.6214C44.4307 28.6307 44.9929 27.3018 44.9929 25.8794V24.5418L45.2737 23.9804C45.5818 23.364 45.7447 22.6739 45.7447 21.9848V18.3614C45.7447 17.9731 45.4298 17.6583 45.0415 17.6583H38.2753C35.8149 17.6583 33.8132 19.66 33.8132 22.1204V22.1623C33.8132 22.7353 33.9487 23.3091 34.2049 23.8216L34.565 24.5418V25.6902C34.565 27.5103 35.4619 29.1433 36.8204 30.126L36.8206 31.1418C36.8206 31.2985 36.8206 31.3634 36.24 31.5293L34.8231 31.9341L30.7242 30.4437C30.7389 30.2503 30.6737 30.0536 30.5326 29.9054L29.2228 28.5293V26.2193C29.3613 26.1052 29.4978 25.988 29.6301 25.8641C31.2824 24.3153 32.23 22.1287 32.23 19.8649V18.0201C32.729 16.9344 32.9818 15.7855 32.9818 14.6023V7.08447C32.9818 6.69616 32.667 6.38135 32.2787 6.38135H21.7535C18.0494 6.38135 15.036 9.39485 15.036 13.0988V14.6025C15.036 15.7857 15.2888 16.9346 15.7878 18.0203V19.6076C15.7878 22.236 16.9565 24.6039 18.795 26.165V28.5294L17.4852 29.9055C17.3441 30.0537 17.2789 30.2504 17.2936 30.4438L12.9675 32.0168C12.654 32.1308 12.3627 32.2852 12.0983 32.4723L11.4189 32.1326C13.4411 31.2524 14.0817 30.0144 14.1125 29.9529C14.2115 29.755 14.2115 29.5219 14.1125 29.324C13.6056 28.3102 13.5442 26.452 13.4948 24.9589C13.4784 24.4619 13.4629 23.9923 13.4332 23.5742C13.1934 20.2016 10.6296 17.6583 7.46925 17.6583C4.30894 17.6583 1.74497 20.2015 1.50534 23.5742C1.47562 23.9924 1.46006 24.462 1.44366 24.9591C1.39434 26.4521 1.33284 28.3101 0.826031 29.3239C0.727031 29.5218 0.727031 29.7549 0.826031 29.9528C0.856781 30.0143 1.49606 31.2498 3.52228 32.131L1.63538 33.0744C0.626625 33.5792 0 34.5931 0 35.7208V40.9154C0 41.3037 0.314812 41.6185 0.703125 41.6185C1.09144 41.6185 1.40625 41.3037 1.40625 40.9154V35.7208C1.40625 35.129 1.73503 34.597 2.26425 34.3323L4.61391 33.1576L5.43122 33.9343C6.00272 34.4774 6.73584 34.7488 7.46925 34.7488C8.20247 34.7488 8.93597 34.4772 9.50728 33.9343L10.3245 33.1577L11.0906 33.5407C10.7299 34.1179 10.5251 34.7948 10.5251 35.5038V40.9156C10.5251 41.3039 10.8399 41.6187 11.2282 41.6187C11.6166 41.6187 11.9314 41.3039 11.9314 40.9156V35.5038C11.9314 34.5386 12.5408 33.6684 13.4481 33.3385L18.0092 31.68L19.9079 34.5282C20.1506 34.8923 20.5396 35.1258 20.9751 35.169C21.0236 35.1738 21.0719 35.1761 21.1201 35.1761C21.5043 35.1761 21.8723 35.0249 22.1473 34.7499L23.3057 33.5915V40.9157C23.3057 41.304 23.6205 41.6188 24.0088 41.6188C24.3971 41.6188 24.7119 41.304 24.7119 40.9157V33.5915L25.8703 34.7499C26.1453 35.025 26.5133 35.1762 26.8975 35.1762C26.9456 35.1762 26.994 35.1738 27.0425 35.1691C27.478 35.1259 27.867 34.8924 28.1097 34.5283L30.0085 31.6802L34.5696 33.3387C35.4767 33.6686 36.0863 34.5388 36.0863 35.504V40.9158C36.0863 41.3041 36.4011 41.6189 36.7894 41.6189C37.1777 41.6189 37.4925 41.3041 37.4925 40.9158V35.504C37.4925 34.5264 37.1041 33.6095 36.4525 32.9314L36.6263 32.8818C36.8015 32.8318 37.0405 32.7633 37.2805 32.6456L39.0758 34.4408V40.9158C39.0758 41.3041 39.3906 41.6189 39.7789 41.6189C40.1672 41.6189 40.482 41.3041 40.482 40.9158V34.4408L42.2648 32.6581C42.3595 32.7063 42.4591 32.7469 42.5639 32.7768L45.4679 33.6065C46.1307 33.7959 46.5938 34.4097 46.5938 35.0991V40.9158C46.5938 41.3041 46.9086 41.6189 47.2969 41.6189C47.6852 41.6189 48 41.3041 48 40.9158V35.0991C48 33.7849 47.1176 32.615 45.8542 32.254ZM4.51078 31.0121C3.19556 30.5388 2.53584 29.9079 2.25422 29.5634C2.44622 29.0614 2.57072 28.4866 2.655 27.8797C3.04275 28.8094 3.69216 29.6031 4.51078 30.1694V31.0121ZM8.53875 32.915C7.93903 33.4848 6.99956 33.4848 6.40003 32.9149L5.74613 32.2936C5.85647 32.0868 5.91713 31.8525 5.91713 31.6069V30.8575C6.40763 31.0108 6.92906 31.0935 7.46944 31.0935C8.00916 31.0935 8.53031 31.0104 9.02166 30.858L9.02156 31.6068C9.02156 31.8525 9.08212 32.0869 9.19256 32.2938L8.53875 32.915ZM7.46963 29.6872C5.37 29.6872 3.66197 27.9791 3.66197 25.8796C3.66197 25.4913 3.34716 25.1764 2.95884 25.1764C2.91947 25.1764 2.88103 25.1805 2.84344 25.1868C2.8455 25.1263 2.84747 25.0657 2.84953 25.0058C2.86519 24.5223 2.88028 24.0657 2.90812 23.674C2.99794 22.4106 3.50278 21.2464 4.32966 20.3958C5.16394 19.5374 6.279 19.0647 7.46944 19.0647C8.65987 19.0647 9.77484 19.5374 10.6092 20.3958C11.4361 21.2464 11.9409 22.4106 12.0308 23.674C12.0585 24.0656 12.0737 24.5222 12.0896 25.0055C12.091 25.0471 12.0924 25.0892 12.0938 25.131C11.3288 23.9523 10.1474 23.0838 8.62088 22.5933C7.21059 22.1402 5.99766 22.1682 5.94647 22.1695C5.76234 22.1747 5.58759 22.2517 5.45981 22.3843L4.19119 23.7C3.92166 23.9795 3.92972 24.4247 4.20928 24.6942C4.48884 24.9637 4.93397 24.9556 5.2035 24.6761L6.25912 23.5814C7.16822 23.6258 10.0929 23.9659 11.2304 26.4707C10.9442 28.3164 9.35775 29.6872 7.46963 29.6872ZM10.4277 31.0144L10.4278 30.1758C11.2458 29.6127 11.8961 28.8205 12.2842 27.8838C12.3684 28.4892 12.4928 29.0628 12.6845 29.5636C12.4044 29.9048 11.7416 30.5414 10.4277 31.0144ZM17.194 19.6075V17.863C17.194 17.7572 17.1701 17.6526 17.1241 17.5573C16.6717 16.6203 16.4422 15.6262 16.4422 14.6025V13.0989C16.4422 10.1703 18.8249 7.78769 21.7535 7.78769H31.5756V14.6026C31.5756 15.6263 31.3462 16.6204 30.8937 17.5574C30.8477 17.6527 30.8238 17.7573 30.8238 17.8631V19.8651C30.8238 21.7693 30.0583 23.5354 28.6684 24.8383C28.4948 25.0008 28.3147 25.1533 28.1286 25.2953C28.1244 25.2981 28.1205 25.3012 28.1165 25.3041C26.8144 26.2927 25.2195 26.7732 23.5539 26.6653C19.9876 26.4344 17.194 23.3343 17.194 19.6075ZM21.153 33.7554C21.1481 33.7603 21.1368 33.7718 21.1138 33.7694C21.0909 33.7671 21.0819 33.7537 21.0781 33.7479L18.8914 30.4678L19.5951 29.7284L22.9124 31.9959L21.153 33.7554ZM24.0089 31.042L20.2013 28.4393V27.1268C21.1865 27.6594 22.2896 27.9925 23.4629 28.0684C23.6483 28.0804 23.8325 28.0863 24.0161 28.0863C25.3606 28.0863 26.6545 27.765 27.8166 27.1549V28.4393L24.0089 31.042ZM26.9397 33.7481C26.9359 33.7539 26.9269 33.7673 26.904 33.7696C26.881 33.7725 26.8698 33.7604 26.8648 33.7556L25.1054 31.9962L28.4227 29.7286L29.1265 30.468L26.9397 33.7481ZM39.7789 33.1548L38.1833 31.5593C38.2111 31.4328 38.2268 31.2944 38.2268 31.1417L38.2267 30.8449C38.6694 30.9903 39.1361 31.0765 39.619 31.0909C39.6732 31.0926 39.7269 31.0934 39.7809 31.0934C40.3146 31.0934 40.8354 31.0128 41.3312 30.8589V31.142C41.3312 31.2823 41.3488 31.4197 41.382 31.5518L39.7789 33.1548ZM42.4304 28.6123C41.6852 29.3355 40.7007 29.7174 39.6613 29.6853C37.6266 29.6243 35.9712 27.8321 35.9712 25.6904V24.3759C35.9712 24.2667 35.9458 24.1591 35.897 24.0615L35.4626 23.1928C35.3035 22.8745 35.2194 22.5183 35.2194 22.1624V22.1205C35.2194 20.4354 36.5903 19.0646 38.2753 19.0646H44.3384V21.9849C44.3384 22.4568 44.2268 22.9294 44.0158 23.3516L43.6609 24.0615C43.612 24.1592 43.5866 24.2667 43.5866 24.3759V25.8795C43.5866 26.9182 43.176 27.8887 42.4304 28.6123Z" fill="url(#paint1_linear)"/>
<path d="M44.2907 35.7014C43.9024 35.7014 43.5876 36.0162 43.5876 36.4045V40.9153C43.5876 41.3036 43.9024 41.6184 44.2907 41.6184C44.679 41.6184 44.9938 41.3036 44.9938 40.9153V36.4045C44.9938 36.0163 44.679 35.7014 44.2907 35.7014Z" fill="url(#paint2_linear)"/>
<path d="M3.70932 36.6306C3.32101 36.6306 3.0062 36.9454 3.0062 37.3337V40.9151C3.0062 41.3034 3.32101 41.6182 3.70932 41.6182C4.09763 41.6182 4.41245 41.3034 4.41245 40.9151V37.3337C4.41245 36.9455 4.09763 36.6306 3.70932 36.6306Z" fill="url(#paint3_linear)"/>
<path d="M29.7678 14.8571C27.1085 12.1978 21.5445 12.7062 19.2756 13.0482C18.5609 13.1559 18.0423 13.7607 18.0423 14.4862V16.106C18.0423 16.4943 18.3571 16.8091 18.7454 16.8091C19.1337 16.8091 19.4485 16.4943 19.4485 16.106V14.4861C19.4485 14.4622 19.4643 14.4418 19.4853 14.4386C20.3916 14.302 22.19 14.0912 24.0533 14.2155C26.2459 14.3614 27.834 14.9118 28.7735 15.8514C29.0481 16.126 29.4933 16.126 29.7678 15.8514C30.0424 15.5768 30.0424 15.1316 29.7678 14.8571Z" fill="url(#paint4_linear)"/>
<path d="M15.7402 37.2048C15.3519 37.2048 15.0371 37.5196 15.0371 37.908V40.9152C15.0371 41.3035 15.3519 41.6183 15.7402 41.6183C16.1285 41.6183 16.4433 41.3035 16.4433 40.9152V37.908C16.4433 37.5197 16.1285 37.2048 15.7402 37.2048Z" fill="url(#paint5_linear)"/>
<path d="M32.2799 37.2048C31.8916 37.2048 31.5768 37.5196 31.5768 37.908V40.9152C31.5768 41.3035 31.8916 41.6183 32.2799 41.6183C32.6682 41.6183 32.983 41.3035 32.983 40.9152V37.908C32.983 37.5197 32.6682 37.2048 32.2799 37.2048Z" fill="url(#paint6_linear)"/>
<defs>
<linearGradient id="paint0_linear" x1="39.7799" y1="21.417" x2="39.7799" y2="23.5752" gradientUnits="userSpaceOnUse">
<stop stop-color="#EF4744"/>
<stop offset="1" stop-color="#FF9966"/>
</linearGradient>
<linearGradient id="paint1_linear" x1="24" y1="6.38135" x2="24" y2="41.6189" gradientUnits="userSpaceOnUse">
<stop stop-color="#EF4744"/>
<stop offset="1" stop-color="#FF9966"/>
</linearGradient>
<linearGradient id="paint2_linear" x1="44.2907" y1="35.7014" x2="44.2907" y2="41.6184" gradientUnits="userSpaceOnUse">
<stop stop-color="#EF4744"/>
<stop offset="1" stop-color="#FF9966"/>
</linearGradient>
<linearGradient id="paint3_linear" x1="3.70932" y1="36.6306" x2="3.70932" y2="41.6182" gradientUnits="userSpaceOnUse">
<stop stop-color="#EF4744"/>
<stop offset="1" stop-color="#FF9966"/>
</linearGradient>
<linearGradient id="paint4_linear" x1="24.008" y1="12.769" x2="24.008" y2="16.8091" gradientUnits="userSpaceOnUse">
<stop stop-color="#EF4744"/>
<stop offset="1" stop-color="#FF9966"/>
</linearGradient>
<linearGradient id="paint5_linear" x1="15.7402" y1="37.2048" x2="15.7402" y2="41.6183" gradientUnits="userSpaceOnUse">
<stop stop-color="#EF4744"/>
<stop offset="1" stop-color="#FF9966"/>
</linearGradient>
<linearGradient id="paint6_linear" x1="32.2799" y1="37.2048" x2="32.2799" y2="41.6183" gradientUnits="userSpaceOnUse">
<stop stop-color="#EF4744"/>
<stop offset="1" stop-color="#FF9966"/>
</linearGradient>
</defs>
</svg>
