<svg width="48" height="48" viewBox="0 0 48 48" fill="none" xmlns="http://www.w3.org/2000/svg">
<path fill-rule="evenodd" clip-rule="evenodd" d="M44.2117 19.3759H12.2269L42.9487 10.4762C43.1874 10.407 43.3888 10.2455 43.509 10.028C43.6291 9.81006 43.6576 9.55371 43.5884 9.31494L41.9808 3.76501C41.3384 1.54834 39.2745 0 36.9615 0C36.474 0 35.9884 0.0692138 35.5175 0.205444L6.6729 8.56128C5.33879 8.94763 4.2332 9.83459 3.559 11.0581C2.88518 12.2816 2.72697 13.6904 3.11333 15.0242L4.684 20.4463V42.7826C4.684 45.6595 7.02446 48 9.90105 48H21.1664C21.6843 48 22.1039 47.5803 22.1039 47.0625C22.1039 46.5447 21.6843 46.125 21.1664 46.125H9.90141C8.05827 46.125 6.559 44.6257 6.559 42.7826V30.0245H11.3619H11.3641H11.3659H18.7077H18.7099H18.7121H26.0539H26.0561H26.0583H33.4001H33.4023H33.4041H43.2742V42.7826C43.2742 44.6257 41.7749 46.125 39.9318 46.125H28.6664C28.149 46.125 27.7289 46.5447 27.7289 47.0625C27.7289 47.5803 28.149 48 28.6664 48H39.9318C42.8088 48 45.1492 45.6595 45.1492 42.7826V20.3134C45.1492 19.7955 44.7295 19.3759 44.2117 19.3759ZM27.6806 28.1495L31.6639 21.2509H36.8447L32.8617 28.1495H27.6806ZM20.3344 28.1495L24.3177 21.2509H29.4985L25.5156 28.1495H20.3344ZM12.9886 28.1495L16.9715 21.2509H22.1526L18.1694 28.1495H12.9886ZM16.4742 16.0129L9.804 9.60645L14.8017 8.15881C14.8368 8.21008 14.8779 8.25842 14.9247 8.30347L21.5949 14.71L16.5972 16.1576C16.5621 16.1063 16.5207 16.0576 16.4742 16.0129ZM29.0367 4.21545L35.7068 10.6219L30.7092 12.0696C30.674 12.0183 30.633 11.9696 30.5861 11.9249L23.9159 5.51843L28.9136 4.0708C28.9488 4.12207 28.9898 4.17041 29.0367 4.21545ZM21.9805 6.25964L28.6507 12.6658L23.653 14.1138C23.6178 14.0625 23.5768 14.0138 23.53 13.9691L16.8598 7.56262L21.8575 6.11499C21.893 6.16589 21.934 6.2146 21.9805 6.25964ZM36.0394 2.00647C36.3404 1.91931 36.6506 1.875 36.9615 1.875C38.445 1.875 39.7681 2.8667 40.1797 4.28687L41.5267 8.93591L37.7653 10.0254C37.7298 9.97412 37.6888 9.92578 37.6419 9.88074L30.9721 3.47461L36.0394 2.00647ZM5.20146 11.9626C5.63359 11.1779 6.34148 10.6095 7.19475 10.3623L7.74553 10.2026C7.78105 10.2539 7.82207 10.3026 7.86858 10.3473L14.5387 16.7538L6.26128 19.1517L4.91435 14.5027C4.66716 13.6498 4.76933 12.7478 5.20146 11.9626ZM6.559 21.2509H14.8064L10.8235 28.1495H6.559V21.2509ZM35.0268 28.1495L39.0097 21.2509H43.2742V28.1495H35.0268Z" fill="url(#paint0_linear)"/>
<path fill-rule="evenodd" clip-rule="evenodd" d="M31.3989 37.9794C31.3989 37.6443 31.2202 37.3349 30.9302 37.1675L22.6937 32.4123C22.4037 32.2449 22.0463 32.2449 21.7562 32.4123C21.4662 32.5796 21.2875 32.8891 21.2875 33.2242V42.7346C21.2875 43.0694 21.4662 43.3788 21.7562 43.5462C21.9012 43.63 22.0631 43.6721 22.225 43.6721C22.3868 43.6721 22.5487 43.63 22.6937 43.5462L30.9302 38.7913C31.2202 38.6239 31.3989 38.3145 31.3989 37.9794ZM23.1625 41.1109V34.8479L28.5864 37.9794L23.1625 41.1109Z" fill="url(#paint1_linear)"/>
<path fill-rule="evenodd" clip-rule="evenodd" d="M24.9163 46.125C24.3999 46.125 23.9788 46.5461 23.9788 47.0625C23.9788 47.5789 24.3999 48 24.9163 48C25.433 48 25.8538 47.5789 25.8538 47.0625C25.8538 46.5461 25.433 46.125 24.9163 46.125Z" fill="url(#paint2_linear)"/>
<defs>
<linearGradient id="paint0_linear" x1="24.0278" y1="0" x2="24.0278" y2="48" gradientUnits="userSpaceOnUse">
<stop stop-color="#EF4744"/>
<stop offset="1" stop-color="#FF9966"/>
</linearGradient>
<linearGradient id="paint1_linear" x1="26.3432" y1="32.2867" x2="26.3432" y2="43.6721" gradientUnits="userSpaceOnUse">
<stop stop-color="#EF4744"/>
<stop offset="1" stop-color="#FF9966"/>
</linearGradient>
<linearGradient id="paint2_linear" x1="24.9163" y1="46.125" x2="24.9163" y2="48" gradientUnits="userSpaceOnUse">
<stop stop-color="#EF4744"/>
<stop offset="1" stop-color="#FF9966"/>
</linearGradient>
</defs>
</svg>
