<svg width="48" height="48" viewBox="0 0 48 48" fill="none" xmlns="http://www.w3.org/2000/svg">
<g clip-path="url(#clip0)">
<path d="M25.0613 32.5941L19.9823 30.2651C22.2743 29.5172 25.2268 28.6501 25.2611 28.6401C25.4601 28.5817 25.6225 28.4373 25.7061 28.2475C25.7897 28.0578 25.7846 27.8395 25.6934 27.6534C25.6804 27.627 24.3998 24.9471 24.3998 19.0827V16.3497C24.3998 11.0641 20.0997 6.76392 14.8141 6.76392C9.52846 6.76392 5.22835 11.064 5.22835 16.3497V19.0827C5.22835 24.9471 3.94772 27.627 3.9361 27.6509C3.84282 27.8375 3.83719 28.0557 3.92063 28.2469C4.00416 28.438 4.16813 28.5821 4.36838 28.6405C4.40269 28.6504 7.36022 29.5127 9.63543 30.2588L4.54266 32.5941C2.60026 33.4848 1.38254 35.5163 1.51267 37.6492L2.10376 47.3399C2.12654 47.7129 2.4361 48.0003 2.80491 48.0003C2.81926 48.0003 2.83379 47.9998 2.84832 47.999C3.23588 47.9753 3.53101 47.6419 3.50729 47.2543L2.9162 37.5636C2.86229 36.6788 3.1262 35.8181 3.6241 35.1203L5.54082 37.4203C6.15863 38.1616 6.49884 39.1013 6.49884 40.0663V47.2971C6.49884 47.6855 6.81366 48.0003 7.20197 48.0003C7.59028 48.0003 7.90509 47.6855 7.90509 47.2971V40.0664C7.90509 38.7731 7.44909 37.5137 6.62119 36.5201L4.64007 34.1427C4.79485 34.0415 4.95788 33.9507 5.12879 33.8724L8.4975 32.3276C9.45768 34.9464 11.9676 36.7277 14.8021 36.7277C17.6455 36.7277 20.1471 34.9491 21.1064 32.3275L24.4754 33.8724C24.6463 33.9507 24.8093 34.0415 24.9641 34.1427L22.983 36.5201C22.155 37.5137 21.6991 38.773 21.6991 40.0664V47.2971C21.6991 47.6855 22.0139 48.0003 22.4022 48.0003C22.7905 48.0003 23.1053 47.6855 23.1053 47.2971V40.0664C23.1053 39.1014 23.4455 38.1617 24.0633 37.4204L25.9801 35.1204C26.478 35.8182 26.7419 36.6789 26.688 37.5637L26.0969 47.2544C26.0732 47.642 26.3683 47.9753 26.7558 47.9991C26.7704 47.9999 26.7849 48.0004 26.7992 48.0004C27.1681 48.0004 27.4776 47.713 27.5004 47.34L28.0915 37.6493C28.2214 35.5163 27.0038 33.4848 25.0613 32.5941ZM6.63469 19.8353C6.63469 19.4836 6.87094 19.1667 7.17263 19.1138C7.4265 19.069 7.66978 19.1624 7.824 19.3635C7.95459 19.5337 8.12869 19.6553 8.32744 19.7154C8.61843 19.8033 8.93953 19.7517 9.18637 19.5775C9.75234 19.178 10.232 18.6713 10.6122 18.0715C10.8201 17.7434 10.7227 17.3091 10.3947 17.1012C10.0667 16.8934 9.63234 16.9907 9.4244 17.3187C9.20962 17.6576 8.95303 17.9555 8.65884 18.2078C8.19169 17.7992 7.55991 17.6181 6.92953 17.7287C6.828 17.7465 6.73013 17.7737 6.63469 17.8061V16.3497C6.63469 11.8394 10.304 8.17016 14.8142 8.17016C19.3243 8.17016 22.9937 11.8394 22.9937 16.3497V19.0827C22.9937 23.5574 23.7034 26.2817 24.1273 27.5095C22.9653 27.8562 20.6669 28.5506 18.9597 29.122V27.4217C20.1422 26.641 21.1061 25.5275 21.7023 24.1769C22.057 23.3735 22.2566 22.4808 22.2793 21.5954C22.3545 18.6631 19.858 17.9262 17.2149 17.1459C15.028 16.5002 12.5494 15.7685 10.5216 13.7959C10.2432 13.5252 9.79809 13.5313 9.52734 13.8096C9.25659 14.0879 9.26268 14.5331 9.54103 14.8038C11.818 17.0187 14.5897 17.837 16.8168 18.4945C19.5887 19.3128 20.919 19.7849 20.8735 21.5592C20.8555 22.2629 20.6973 22.9717 20.4159 23.6089C19.436 25.8282 17.2372 27.2622 14.8142 27.2622C11.8591 27.2622 9.32709 25.1534 8.79337 22.2479C8.66709 21.5601 8.031 21.0597 7.34306 21.1111C7.27837 21.1157 7.21153 21.1102 7.14412 21.0942C6.85369 21.0255 6.63469 20.7097 6.63469 20.3597V19.8353ZM5.50144 27.5084C5.80988 26.6146 6.26897 24.9285 6.4965 22.3543C6.60028 22.3994 6.70828 22.4362 6.82022 22.4627C7.01653 22.5092 7.21584 22.5271 7.41281 22.5158C7.7954 24.5776 8.99756 26.3107 10.6444 27.4071V29.1123C8.95275 28.5421 6.66234 27.8528 5.50144 27.5084ZM14.802 35.3214C12.5236 35.3214 10.5107 33.866 9.78084 31.7392L10.764 31.2883C11.5456 30.93 12.0506 30.1428 12.0506 29.2829V28.1423C12.9103 28.4817 13.8433 28.6684 14.8142 28.6684C15.7691 28.6684 16.6954 28.4864 17.5534 28.1505V29.2828C17.5534 30.1427 18.0585 30.9298 18.8401 31.2882L19.8239 31.7394C19.0946 33.8686 17.0878 35.3214 14.802 35.3214Z" fill="url(#paint0_linear)"/>
<path d="M46.0302 3.79834L35.5091 0.040748C35.3562 -0.0139082 35.189 -0.0139082 35.0361 0.040748L24.515 3.79834C24.2352 3.89827 24.0483 4.1634 24.0483 4.46049C24.0483 4.60308 24.0637 8.00105 25.398 12.0993C27.1783 17.5675 30.4841 21.6401 34.9581 23.8771C35.0571 23.9266 35.1648 23.9514 35.2725 23.9514C35.3803 23.9514 35.488 23.9266 35.587 23.8771C40.061 21.6401 43.3668 17.5675 45.1471 12.0993C46.4815 8.00095 46.4968 4.60308 46.4968 4.46049C46.4969 4.1633 46.3101 3.89827 46.0302 3.79834ZM43.8101 11.6639C43.0698 13.9376 42.0534 15.9604 40.7891 17.6762C39.2914 19.7087 37.4368 21.316 35.2725 22.4577C33.1153 21.3196 31.2656 19.719 29.7705 17.6959C28.507 15.986 27.4902 13.9701 26.7481 11.704C25.7601 8.68673 25.5266 6.0143 25.4715 4.94986L35.2724 1.44953L45.074 4.95005C45.0202 6.00783 44.7899 8.65448 43.8101 11.6639Z" fill="url(#paint1_linear)"/>
<path d="M42.8406 5.85068L41.7758 5.47033C41.4103 5.33974 41.0077 5.53024 40.8772 5.89605C40.7467 6.26168 40.9372 6.66405 41.303 6.79464L41.8208 6.97961C40.8102 13.1029 38.0673 16.419 35.9759 18.1131V4.89246L38.7241 5.87393C39.0898 6.00452 39.4922 5.81393 39.6227 5.44821C39.7533 5.08249 39.5627 4.68021 39.197 4.54962L35.514 3.23431C35.4675 3.21734 35.4192 3.20515 35.3698 3.19821H35.3697C35.3695 3.19821 35.3694 3.19812 35.3692 3.19812C35.3295 3.19259 35.2899 3.19053 35.2508 3.19174L35.2502 3.19184C35.2499 3.19184 35.2496 3.19184 35.2493 3.19184C35.2489 3.19184 35.2486 3.19184 35.2483 3.19184C35.248 3.19184 35.2477 3.19184 35.2474 3.19184C35.247 3.19184 35.2467 3.19184 35.2464 3.19184C35.246 3.19212 35.2459 3.19184 35.2455 3.19184C35.2341 3.19231 35.2226 3.19306 35.2112 3.19399C35.211 3.19399 35.2106 3.19399 35.2104 3.19399C35.2099 3.19409 35.2099 3.19409 35.2096 3.19409C35.2093 3.19409 35.209 3.19409 35.2089 3.19418C35.1481 3.19971 35.0887 3.21321 35.032 3.23384L27.6971 5.85349C27.3831 5.96561 27.1911 6.28296 27.2373 6.61314C27.4645 8.23549 27.975 10.6931 29.1172 13.1878C30.493 16.193 32.4363 18.5127 34.8931 20.0827C35.0085 20.1565 35.1401 20.1934 35.2718 20.1934C35.4036 20.1934 35.5355 20.1563 35.6511 20.0823C38.0939 18.5173 40.031 16.1982 41.4084 13.1893C42.55 10.6957 43.0672 8.23652 43.3001 6.61268C43.3476 6.28174 43.1555 5.96308 42.8406 5.85068ZM34.5694 18.1177C32.465 16.4213 29.7055 13.1015 28.7151 6.98327L34.5694 4.89246V18.1177Z" fill="url(#paint2_linear)"/>
</g>
<defs>
<linearGradient id="paint0_linear" x1="14.8021" y1="6.76392" x2="14.8021" y2="48.0004" gradientUnits="userSpaceOnUse">
<stop stop-color="#EF4744"/>
<stop offset="1" stop-color="#FF9966"/>
</linearGradient>
<linearGradient id="paint1_linear" x1="35.2726" y1="-0.000244141" x2="35.2726" y2="23.9514" gradientUnits="userSpaceOnUse">
<stop stop-color="#EF4744"/>
<stop offset="1" stop-color="#FF9966"/>
</linearGradient>
<linearGradient id="paint2_linear" x1="35.2689" y1="3.19141" x2="35.2689" y2="20.1934" gradientUnits="userSpaceOnUse">
<stop stop-color="#EF4744"/>
<stop offset="1" stop-color="#FF9966"/>
</linearGradient>
<clipPath id="clip0">
<rect width="48" height="48" fill="white"/>
</clipPath>
</defs>
</svg>
