<svg width="48" height="48" viewBox="0 0 48 48" fill="none" xmlns="http://www.w3.org/2000/svg">
<g clip-path="url(#clip0)">
<path d="M42.9699 9.0304L38.9699 5.0304C38.7021 4.7623 38.2831 4.7189 37.966 4.9264L33.5212 7.84L28.7283 5.84L27.9932 0.6864C27.9367 0.2924 27.5991 -9.99744e-05 27.2011 2.56332e-08H20.8011C20.4031 -9.99744e-05 20.0656 0.2924 20.0091 0.6864L19.2731 5.84L14.4851 7.84L10.0396 4.928C9.72245 4.7205 9.30335 4.7639 9.03555 5.032L5.03555 9.032C4.76715 9.3005 4.72435 9.7206 4.93315 10.0376L7.89315 14.5336L7.39715 15.68L8.86595 16.3152L9.53395 14.7728C9.64125 14.525 9.61625 14.2398 9.46755 14.0144L6.62595 9.7024L9.70515 6.6232L13.9627 9.412C14.1856 9.5563 14.4652 9.5821 14.7107 9.4808L20.3107 7.136C20.5693 7.0264 20.7515 6.7893 20.7907 6.5112L21.4947 1.6H26.5075L27.2091 6.5136C27.2483 6.7917 27.4305 7.0288 27.6891 7.1384L33.2892 9.4816C33.5343 9.5829 33.8137 9.5571 34.0363 9.4128L38.2955 6.6256L41.3963 9.7264L39.3163 13.2464C39.1926 13.4551 39.1702 13.7088 39.2556 13.936L40.1427 16.2792L41.6395 15.7128L40.8883 13.7296L43.0923 10.0032C43.2783 9.689 43.2279 9.2887 42.9699 9.0304Z" fill="url(#paint0_linear)"/>
<path d="M32.5655 30.6344L30.1656 28.2344C30.0156 28.0844 29.8122 28 29.6 28H18.4C18.1878 28 17.9844 28.0844 17.8344 28.2344L15.4344 30.6344C15.2844 30.7844 15.2 30.9878 15.2 31.2V47.2C15.2 47.6418 15.5582 48 16 48H32C32.4417 48 32.7999 47.6418 32.7999 47.2V31.2C32.7999 30.9878 32.7156 30.7844 32.5655 30.6344ZM26.7312 29.6H29.2687L26.4 32.4688L25.1312 31.2L26.7312 29.6ZM25.2688 33.6L24.2344 34.6344C24.0838 34.7841 23.9995 34.9877 24 35.2C23.9985 34.9898 23.9143 34.7886 23.7656 34.64L22.7312 33.6L24 32.3312L25.2688 33.6ZM24.4688 29.6L24 30.0688L23.5311 29.6H24.4688ZM21.2688 29.6L22.8688 31.2L21.6 32.4688L18.7312 29.6H21.2688ZM20.9 46.4H16.8V31.5312L17.6 30.7312L21.0344 34.1656L22.3544 35.4856L20.9 46.4ZM22.5144 46.4L23.9928 35.3056C23.9976 35.2719 24 35.238 24 35.204C24.0002 35.2553 24.0055 35.3065 24.016 35.3568L26.2239 46.4H22.5144ZM31.2 46.4H27.856L25.6687 35.4632L26.9656 34.1656L30.4 30.7312L31.2 31.5312V46.4Z" fill="url(#paint1_linear)"/>
<path d="M29.6001 10.4H22.4001C19.7502 10.4026 17.6027 12.5501 17.6001 15.2V20C17.6041 23.533 20.4671 26.396 24.0001 26.4C27.5331 26.396 30.3961 23.533 30.4001 20V11.2C30.4001 10.7582 30.0419 10.4 29.6001 10.4ZM28.8001 20C28.8001 22.651 26.6511 24.8 24.0001 24.8C21.3491 24.8 19.2001 22.651 19.2001 20V16.8H25.6001C26.7825 16.7997 27.9228 16.3607 28.8001 15.568V20ZM25.6001 15.2H19.2001C19.2001 13.4327 20.6328 12 22.4001 12H28.8001C28.8001 13.7673 27.3674 15.2 25.6001 15.2Z" fill="url(#paint2_linear)"/>
<path d="M47.7656 33.8344L45.3656 31.4344C45.2156 31.2844 45.0122 31.2 44.8 31.2H38.4C38.1878 31.2 37.9844 31.2844 37.8344 31.4344L35.4344 33.8344C35.2844 33.9844 35.2 34.1878 35.2 34.4V47.2C35.2 47.6418 35.5582 48 36 48H47.2C47.6418 48 48 47.6418 48 47.2V34.4C48 34.1878 47.9156 33.9844 47.7656 33.8344ZM46.4 46.4H42.4V34.4H40.8V46.4H36.8V34.7312L38.4 33.1312L40.2344 34.9656L40.8 34.4L41.3656 33.8344L40.3312 32.8H42.932L41.8512 33.8168L42.4 34.4L42.9488 34.9832L44.856 33.1872L46.4 34.7312V46.4Z" fill="url(#paint3_linear)"/>
<path d="M42.3992 17.6H40.8256C38.6236 17.6044 36.8375 19.3844 36.8256 21.5864L36.8128 25.592C36.804 28.2385 38.9422 30.3911 41.5888 30.4C41.5941 30.4 41.5995 30.4 41.6048 30.4C44.2505 30.3969 46.3948 28.2537 46.3992 25.608V21.6C46.3966 19.392 44.6072 17.6026 42.3992 17.6ZM38.4256 21.592C38.4299 20.2799 39.4872 19.2144 40.7992 19.2C40.7993 20.5152 39.7408 21.5855 38.4256 21.6V21.592ZM44.7992 25.6056C44.7961 27.3676 43.3692 28.7956 41.6072 28.8C39.8443 28.8 38.4152 27.3709 38.4152 25.608C38.4152 25.6053 38.4152 25.6027 38.4152 25.6L38.4232 23.2C39.6738 23.1925 40.8489 22.6005 41.5992 21.6C42.3546 22.6072 43.5402 23.2 44.7992 23.2V25.6056ZM42.3992 19.2C43.7247 19.2 44.7992 20.2745 44.7992 21.6C43.4737 21.6 42.3992 20.5255 42.3992 19.2Z" fill="url(#paint4_linear)"/>
<path d="M12.5656 33.8344L10.1656 31.4344C10.0156 31.2844 9.8122 31.2 9.6 31.2H3.2C2.9878 31.2 2.7844 31.2844 2.6344 31.4344L0.2344 33.8344C0.0844 33.9844 0 34.1878 0 34.4V47.2C0 47.6418 0.3582 48 0.8 48H12C12.4418 48 12.8 47.6418 12.8 47.2V34.4C12.8 34.1878 12.7156 33.9844 12.5656 33.8344ZM11.2 46.4H7.2V34.4H5.6V46.4H1.6V34.7312L3.2 33.1312L5.0344 34.9656L5.6 34.4L6.1656 33.8344L5.1312 32.8H7.732L6.6512 33.8168L7.2 34.4L7.7488 34.9832L9.656 33.1872L11.2 34.7312V46.4Z" fill="url(#paint5_linear)"/>
<path d="M7.19922 17.6H5.62562C3.42362 17.6044 1.63752 19.3844 1.62562 21.5864L1.61282 25.592C1.60402 28.2385 3.74222 30.3911 6.38882 30.4C6.39412 30.4 6.39952 30.4 6.40482 30.4C9.05052 30.3969 11.1948 28.2537 11.1992 25.608V21.6C11.1966 19.392 9.40722 17.6026 7.19922 17.6ZM7.19922 19.2C8.21262 19.2042 9.11422 19.8445 9.45202 20.8H7.99922C6.98582 20.7958 6.08422 20.1555 5.74642 19.2H7.19922ZM3.99922 19.8464V19.9928C4.00022 20.2057 3.91512 20.41 3.76322 20.5592C3.65922 20.6604 3.52852 20.7298 3.38642 20.7592C3.51732 20.4116 3.72712 20.0992 3.99922 19.8464ZM9.59922 25.608C9.59482 27.3691 8.16832 28.7956 6.40722 28.8C4.64432 28.8 3.21522 27.3709 3.21522 25.608C3.21522 25.6053 3.21522 25.6027 3.21522 25.6L3.22562 22.3936C3.85192 22.3901 4.45162 22.1397 4.89442 21.6968C5.02092 21.5687 5.13272 21.4271 5.22802 21.2744C5.97032 21.9955 6.96432 22.3992 7.99922 22.4H9.59922V25.608Z" fill="url(#paint6_linear)"/>
</g>
<defs>
<linearGradient id="paint0_linear" x1="24.0026" y1="0" x2="24.0026" y2="16.3152" gradientUnits="userSpaceOnUse">
<stop stop-color="#EF4744"/>
<stop offset="1" stop-color="#FF9966"/>
</linearGradient>
<linearGradient id="paint1_linear" x1="24" y1="28" x2="24" y2="48" gradientUnits="userSpaceOnUse">
<stop stop-color="#EF4744"/>
<stop offset="1" stop-color="#FF9966"/>
</linearGradient>
<linearGradient id="paint2_linear" x1="24.0001" y1="10.4" x2="24.0001" y2="26.4" gradientUnits="userSpaceOnUse">
<stop stop-color="#EF4744"/>
<stop offset="1" stop-color="#FF9966"/>
</linearGradient>
<linearGradient id="paint3_linear" x1="41.6" y1="31.2" x2="41.6" y2="48" gradientUnits="userSpaceOnUse">
<stop stop-color="#EF4744"/>
<stop offset="1" stop-color="#FF9966"/>
</linearGradient>
<linearGradient id="paint4_linear" x1="41.606" y1="17.6" x2="41.606" y2="30.4" gradientUnits="userSpaceOnUse">
<stop stop-color="#EF4744"/>
<stop offset="1" stop-color="#FF9966"/>
</linearGradient>
<linearGradient id="paint5_linear" x1="6.4" y1="31.2" x2="6.4" y2="48" gradientUnits="userSpaceOnUse">
<stop stop-color="#EF4744"/>
<stop offset="1" stop-color="#FF9966"/>
</linearGradient>
<linearGradient id="paint6_linear" x1="6.40601" y1="17.6" x2="6.40601" y2="30.4" gradientUnits="userSpaceOnUse">
<stop stop-color="#EF4744"/>
<stop offset="1" stop-color="#FF9966"/>
</linearGradient>
<clipPath id="clip0">
<rect width="48" height="48" fill="white"/>
</clipPath>
</defs>
</svg>
