<svg width="239" height="145" viewBox="0 0 239 145" fill="none" xmlns="http://www.w3.org/2000/svg">
<g clip-path="url(#clip0)">
<path d="M151.996 145C200.047 145 239 141.495 239 137.172C239 132.848 200.047 129.344 151.996 129.344C103.945 129.344 64.9919 132.848 64.9919 137.172C64.9919 141.495 103.945 145 151.996 145Z" fill="#3F3D56"/>
<path opacity="0.3" d="M109.469 63.9631L203.905 63.9631V6.10352e-05L109.469 6.10352e-05L109.469 63.9631Z" fill="#3F3D56"/>
<path d="M197.877 5.8606H169.914V36.3351H197.877V5.8606Z" fill="#F2F2F2"/>
<path d="M125.711 7.70239L152.669 7.70239V5.86052L125.711 5.86052V7.70239Z" fill="#F2F2F2"/>
<path d="M169.914 42.8652H179.458V41.0234H169.914V42.8652Z" fill="#F2F2F2"/>
<path d="M170.252 46.2141H197.544V44.3723H170.252V46.2141Z" fill="#F2F2F2"/>
<path d="M120.186 14.4001L159.032 14.4001V12.5583L120.186 12.5583V14.4001Z" fill="#F2F2F2"/>
<path d="M120.186 19.5908L159.032 19.5908V17.749L120.186 17.749V19.5908Z" fill="#F2F2F2"/>
<path d="M120.186 24.7815L159.032 24.7815V22.9396L120.186 22.9396V24.7815Z" fill="#F2F2F2"/>
<path d="M120.186 29.9722L159.032 29.9722V28.1303L120.186 28.1303V29.9722Z" fill="#F2F2F2"/>
<path d="M120.186 35.1628L159.032 35.1628V33.321L120.186 33.321V35.1628Z" fill="#F2F2F2"/>
<path d="M120.186 40.3538L159.032 40.3538V38.5119L120.186 38.5119V40.3538Z" fill="#F2F2F2"/>
<path d="M120.186 45.5444L159.032 45.5444V43.7026L120.186 43.7026V45.5444Z" fill="#F2F2F2"/>
<path d="M174.115 23.262C174.529 22.9675 174.985 22.7385 175.469 22.583C178.535 21.4423 181.747 20.7431 185.009 20.5062C187.846 20.3051 190.92 20.544 193.136 22.3269C193.481 22.5797 193.763 22.9083 193.96 23.2873C194.239 23.8888 194.155 24.588 194.064 25.2448C194.044 25.4996 193.98 25.7489 193.875 25.9818C193.576 26.5494 192.842 26.7483 192.205 26.6802C191.567 26.6122 190.969 26.3424 190.34 26.2173C189.951 26.1495 189.557 26.1094 189.162 26.0974L185.218 25.8838C182.765 25.751 180.28 25.6205 177.874 26.1155C177.134 26.2486 176.418 26.4952 175.753 26.8466C175.203 27.1552 174.833 27.5979 174.323 27.028C173.427 26.0268 172.932 24.1868 174.115 23.262Z" fill="#2F2E41"/>
<path d="M180.226 25.0064C180.226 25.0064 185.532 22.6282 187.544 25.3723C189.556 28.1164 186.446 27.0188 186.446 27.0188L182.97 28.1164L179.129 27.3847L180.226 25.0064Z" fill="#F2F2F2"/>
<path d="M180.502 23.2683C180.502 23.2683 181.234 26.7442 180.685 27.6589C180.136 28.5736 183.795 29.8542 183.795 29.8542L187.271 28.3906C187.271 28.3906 186.356 22.7195 187.271 21.6218L180.502 23.2683Z" fill="#FFB9B9"/>
<path opacity="0.1" d="M180.502 23.2683C180.502 23.2683 181.234 26.7442 180.685 27.6589C180.136 28.5736 183.795 29.8542 183.795 29.8542L187.271 28.3906C187.271 28.3906 186.356 22.7195 187.271 21.6218L180.502 23.2683Z" fill="black"/>
<path d="M188.917 19.7924C188.916 21.2476 188.338 22.6429 187.309 23.6719C186.28 24.7009 184.884 25.2795 183.429 25.2807C183.102 25.2812 182.776 25.2518 182.454 25.1929C181.427 25.0074 180.474 24.5328 179.707 23.8249C178.94 23.117 178.391 22.2051 178.124 21.1961C177.857 20.1871 177.883 19.1229 178.2 18.1283C178.516 17.1338 179.11 16.25 179.911 15.5808C180.711 14.9116 181.687 14.4846 182.722 14.35C183.757 14.2154 184.809 14.3788 185.754 14.8209C186.699 15.263 187.499 15.9655 188.059 16.8461C188.62 17.7266 188.917 18.7487 188.917 19.7924Z" fill="#FFB9B9"/>
<path d="M192.231 36.5026H174.729L175.126 34.7796L176.844 27.2932L178.829 25.952L178.831 25.9503L179.764 25.3191L180.228 25.006C180.228 25.006 180.502 25.1315 180.819 25.3023C180.911 25.3542 181.004 25.4078 181.098 25.4647C181.1 25.4631 181.1 25.4647 181.1 25.4647C181.252 25.5529 181.396 25.6531 181.532 25.7645C181.557 25.7879 181.579 25.808 181.601 25.8298C181.949 26.1781 182.965 28.0266 184.646 27.0806C184.731 27.0339 184.813 26.9825 184.892 26.9265C185.331 26.6233 185.748 26.2916 186.143 25.9336C186.496 25.6104 186.726 25.3609 186.913 25.1885C186.997 25.1046 187.093 25.0335 187.198 24.9775C187.277 24.936 187.365 24.9148 187.454 24.9155C188.003 24.9155 188.735 26.0123 188.735 26.0123L188.757 26.0759L188.759 26.0809L191.068 33.0131L192.231 36.5026Z" fill="#F2F2F2"/>
<path d="M174.728 36.5024H180.032C180.044 35.8892 180.012 35.276 179.937 34.6673C179.775 33.4433 179.376 32.2645 179.125 31.0555C178.904 29.9961 178.797 28.9161 178.805 27.8339C178.807 27.6849 178.81 27.5342 178.824 27.3835C178.837 27.0385 178.936 26.7022 179.113 26.4057C179.239 26.2131 179.411 26.049 179.545 25.8648C179.592 25.8045 179.633 25.7401 179.667 25.6723V25.6706C179.684 25.6373 179.699 25.6032 179.713 25.5685C179.742 25.4884 179.759 25.4042 179.763 25.319C179.793 24.7664 179.292 24.2339 178.752 24.0062C177.992 23.7212 177.162 23.6877 176.382 23.9108C175.61 24.1341 174.863 24.4395 174.155 24.8217C173.916 24.9389 173.678 25.0594 173.449 25.1934C173.175 25.3487 172.923 25.5402 172.7 25.7627C172.131 26.3504 171.881 27.1692 171.681 27.9612C171.489 28.5666 171.423 29.2049 171.488 29.8366C171.49 29.8567 171.495 29.8784 171.498 29.8985C171.697 30.9417 172.548 31.7253 173.002 32.6864C173.527 33.8016 173.492 35.101 173.283 36.3166C173.273 36.3786 173.261 36.4405 173.249 36.5025H174.728V36.5024Z" fill="#2F2E41"/>
<path d="M196.32 29.8031C195.654 31.9925 195.171 34.2333 194.875 36.5025H187.313C187.115 35.9633 186.918 35.4236 186.722 34.8833C186.565 34.4756 186.43 34.0597 186.318 33.6375C186.199 33.1466 186.142 32.6425 186.149 32.1372C186.149 32.0167 186.154 31.8944 186.164 31.7739C186.165 31.773 186.166 31.7718 186.166 31.7705C186.166 31.7693 186.165 31.7681 186.164 31.7672C186.21 31.13 186.358 30.5042 186.601 29.9136C186.713 29.6451 186.842 29.3839 186.987 29.1316C187.338 28.4953 187.763 27.8959 188.142 27.273C188.378 26.8924 188.583 26.4937 188.756 26.0808C188.756 26.0799 188.756 26.079 188.757 26.0781C188.757 26.0773 188.757 26.0765 188.758 26.0758C188.984 25.5493 189.102 24.9827 189.105 24.4098C189.093 23.6713 187.844 22.3837 189.202 22.5076C191.055 22.675 192.648 23.7417 194.099 24.9573C194.486 25.2821 194.865 25.6187 195.235 25.9502C195.807 26.466 196.412 27.0285 196.584 27.7804C196.612 27.9002 196.628 28.0225 196.633 28.1454C196.623 28.7117 196.517 29.2722 196.32 29.8031Z" fill="#2F2E41"/>
<path d="M184.989 27.7837C184.798 27.2694 184.506 26.7986 184.13 26.3995C183.751 26.0787 183.302 25.8512 182.819 25.735C182.193 25.5563 181.546 25.4635 180.895 25.4593C180.12 25.4545 179.222 25.6623 178.893 26.3638C178.632 26.9208 178.834 27.5804 179.097 28.1366C179.21 28.4247 179.397 28.6776 179.64 28.8692C179.974 29.095 180.406 29.0878 180.802 29.1634C181.416 29.3194 181.998 29.5829 182.52 29.9419L183.877 30.7621L186.208 32.1711C186.146 32.1339 186.168 30.5355 186.096 30.2736C185.866 29.4297 185.347 28.5829 184.989 27.7837Z" fill="#FFB9B9"/>
<path d="M188.778 16.9322C188.68 16.604 188.465 16.3233 188.173 16.1436C188.188 15.792 188.145 15.4404 188.046 15.1028C187.713 14.1203 186.926 14.1766 186.183 13.7422C185.861 13.5537 185.881 13.3871 185.713 13.0775C185.493 12.6717 185.164 12.3357 184.763 12.1077C184.286 11.8041 183.783 11.4913 183.219 11.4529C182.034 11.3721 181.126 12.4866 179.993 12.8443C179.494 13.002 178.958 13.0085 178.456 13.1575C177.954 13.3065 177.453 13.6624 177.379 14.1805C177.344 14.4197 177.405 14.6651 177.37 14.9042C177.3 15.3795 176.883 15.7124 176.604 16.1033C175.987 16.9677 176.058 18.189 176.551 19.1296C176.655 19.3242 176.774 19.5104 176.907 19.6866C176.948 20.1311 177.076 20.5634 177.283 20.959C177.777 21.8995 178.626 22.6024 179.513 23.1863C179.441 22.8744 179.397 22.5565 179.382 22.2365C179.369 22.1299 179.383 22.0218 179.422 21.9218C179.521 21.7153 179.782 21.6603 179.981 21.5472C180.393 21.3129 180.555 20.7943 180.567 20.3201C180.579 19.846 180.479 19.3711 180.528 18.8994C180.53 18.791 180.555 18.6841 180.601 18.5858C180.646 18.4874 180.712 18.3997 180.794 18.3284C180.946 18.2416 181.12 18.2001 181.295 18.2089C182.14 18.1745 183.023 18.159 183.768 17.7594C184.008 17.5998 184.266 17.4691 184.537 17.3701C185.171 17.2049 185.818 17.6488 186.183 18.1921C186.548 18.7354 186.73 19.3819 187.067 19.9431C187.404 20.5043 187.985 21.0048 188.636 20.9383C188.673 20.9384 188.709 20.9308 188.743 20.9159C188.776 20.901 188.806 20.8792 188.831 20.8519C188.859 20.8014 188.871 20.7438 188.867 20.6862L188.903 18.1973C188.933 17.7715 188.891 17.3438 188.778 16.9322Z" fill="#2F2E41"/>
<path d="M174.303 33.5539C174.422 34.5334 174.494 35.5163 174.519 36.5025H169.914V32.6329C169.938 32.5392 169.963 32.4471 169.993 32.355C170.281 31.4675 170.885 30.7241 171.41 29.9522C171.435 29.9136 171.461 29.8751 171.487 29.8366C171.709 29.511 171.901 29.1651 172.059 28.8035C172.135 28.626 172.255 27.767 172.382 27.6934C172.928 27.3769 173.372 28.7298 173.447 29.0312C173.715 30.1046 173.948 31.1879 174.124 32.2813C174.192 32.7049 174.252 33.1291 174.303 33.5539Z" fill="#2F2E41"/>
<path d="M197.574 36.5025H187.004C186.913 36.2898 186.824 36.0772 186.731 35.8662C186.071 34.3752 185.219 32.9774 184.196 31.7086C184.027 31.5408 183.917 31.3229 183.882 31.0874C183.879 30.9896 183.903 30.8927 183.951 30.8077C184.112 30.508 184.537 30.3322 184.882 30.1899C185.239 30.0463 185.566 29.8399 185.85 29.5804C186.101 29.3547 186.293 29.0714 186.409 28.7549C186.44 28.6621 186.464 28.5669 186.479 28.4702C186.528 28.5339 186.578 28.5992 186.627 28.6628C186.746 28.8202 186.866 28.9759 186.988 29.1316C188.161 30.6369 189.448 32.1205 191.067 33.0129C191.49 33.2487 191.937 33.4389 192.4 33.5806C192.444 33.6001 192.492 33.6101 192.541 33.6101C192.589 33.6101 192.637 33.6001 192.681 33.5806C192.75 33.5245 192.794 33.444 192.804 33.3562C192.948 32.7534 192.998 32.1322 193.103 31.5211C193.297 30.4091 193.67 29.3358 194.207 28.343C194.507 27.7854 195.481 25.7476 196.099 27.0319C196.276 27.4019 196.455 27.7731 196.635 28.1454C196.747 28.3815 196.861 28.6159 196.975 28.852C197.395 29.601 197.586 30.4568 197.525 31.3134C197.542 33.0448 197.558 34.7745 197.574 36.5025Z" fill="#2F2E41"/>
<path opacity="0.1" d="M174.727 36.5025H175.643L175.124 34.7796L174.376 32.2964C174.384 32.7168 174.36 33.1372 174.304 33.5539C174.191 34.415 173.944 35.2533 173.574 36.0387C173.502 36.1911 173.425 36.3451 173.363 36.5025H174.727Z" fill="black"/>
<path opacity="0.1" d="M193.383 31.2073C193.254 31.5541 193.371 31.9377 193.471 32.2941C193.759 33.328 193.893 34.3986 193.87 35.4716C193.874 35.4904 193.874 35.5099 193.868 35.5284C193.863 35.5469 193.853 35.5638 193.84 35.5775C193.826 35.5913 193.81 35.6015 193.791 35.6072C193.773 35.6129 193.754 35.6139 193.735 35.6102C193.312 35.6361 192.829 35.6388 192.542 35.3275L193.383 31.2073Z" fill="black"/>
<path opacity="0.3" d="M94.4364 0.658447H0V64.6215H94.4364V0.658447Z" fill="#3F3D56"/>
<path d="M33.9923 6.5188H6.02979V36.9934H33.9923V6.5188Z" fill="#F2F2F2"/>
<path d="M78.194 6.5188H51.2361V8.36067H78.194V6.5188Z" fill="#F2F2F2"/>
<path d="M15.9074 41.6819H6.36328V43.5238H15.9074V41.6819Z" fill="#F2F2F2"/>
<path d="M33.6561 45.0305H6.36328V46.8724H33.6561V45.0305Z" fill="#F2F2F2"/>
<path d="M83.7227 13.2166H44.8765V15.0584H83.7227V13.2166Z" fill="#F2F2F2"/>
<path d="M83.7227 18.4072H44.8765V20.2491H83.7227V18.4072Z" fill="#F2F2F2"/>
<path d="M83.7227 23.5979H44.8765V25.4398H83.7227V23.5979Z" fill="#F2F2F2"/>
<path d="M83.7227 28.7888H44.8765V30.6307H83.7227V28.7888Z" fill="#F2F2F2"/>
<path d="M83.7227 33.9795H44.8765V35.8214H83.7227V33.9795Z" fill="#F2F2F2"/>
<path d="M83.7227 39.1702H44.8765V41.012H83.7227V39.1702Z" fill="#F2F2F2"/>
<path d="M83.7227 44.3608H44.8765V46.2027H83.7227V44.3608Z" fill="#F2F2F2"/>
<path d="M33.2305 37.1608H29.5954C29.3157 36.409 29.0674 35.6477 28.8503 34.8769C28.707 33.9706 28.2939 33.1285 27.6648 32.4607C27.4727 32.2465 27.3017 32.0144 27.1541 31.7675C26.8424 31.1595 26.73 30.4688 26.8326 29.7933C26.8535 29.6053 26.8848 29.4186 26.9264 29.234C27.0854 28.5191 27.3517 27.8326 27.5744 27.136C27.6214 26.9946 27.7073 26.8692 27.8222 26.7741C27.937 26.6791 28.0763 26.6183 28.224 26.5985C28.4637 26.5584 28.7098 26.5868 28.934 26.6806C28.9836 26.7007 29.0312 26.7254 29.0763 26.7542C29.4731 26.9937 29.6791 27.4826 29.8449 27.9297C30.6034 29.9658 31.3613 32.0019 32.1187 34.038C32.266 34.4331 32.4134 34.8294 32.5607 35.2268C32.7784 35.8095 32.9944 36.3922 33.1786 36.9866C33.197 37.0453 33.2138 37.1022 33.2305 37.1608Z" fill="#D0CDE1"/>
<path d="M18.0966 10.3618C17.1928 10.667 16.374 11.3809 16.1889 12.3168C16.1031 12.7506 16.1557 13.2015 16.0835 13.6378C15.9161 14.6496 15.1218 15.4224 14.3893 16.1401C13.6567 16.8579 12.9003 17.6919 12.8468 18.7161C12.7882 19.8376 13.6016 20.8883 13.4608 22.0025C13.2973 23.2969 11.9301 24.1357 11.5922 25.3959C11.3665 26.2374 11.643 27.1438 12.098 27.8868C12.965 29.3027 14.447 30.2639 16.0252 30.7792C17.6035 31.2945 19.2843 31.4029 20.9444 31.4203C22.9658 31.4414 25.1605 31.2679 26.6792 29.9338C27.5468 29.1649 28.0916 28.0965 28.2044 26.9428C28.3487 25.3974 27.7037 23.8007 28.1486 22.3137C28.4286 21.3779 29.1308 20.5233 29.026 19.5521C28.9235 18.6025 28.0942 17.9295 27.5253 17.1624C26.9941 16.4462 26.6717 15.6003 26.3558 14.7665L25.2749 11.9133C25.0625 11.3524 24.8291 10.7625 24.3556 10.3944C23.4691 9.7052 22.0436 9.84061 21.007 9.98275C20.0454 10.1146 19.0214 10.0494 18.0966 10.3618Z" fill="#2F2E41"/>
<path d="M18.9318 19.7647C18.9318 19.7647 19.0376 22.9387 18.7202 23.2561C18.4028 23.5735 19.9898 25.6895 19.9898 25.6895L22.8464 25.5837L24.3275 24.4199L23.0579 22.7271C23.0579 22.7271 22.529 19.9763 22.9522 19.3415C23.3754 18.7067 18.9318 19.7647 18.9318 19.7647Z" fill="#A0616A"/>
<path opacity="0.1" d="M18.9318 19.7647C18.9318 19.7647 19.0376 22.9387 18.7202 23.2561C18.4028 23.5735 19.9898 25.6895 19.9898 25.6895L22.8464 25.5837L24.3275 24.4199L23.0579 22.7271C23.0579 22.7271 22.529 19.9763 22.9522 19.3415C23.3754 18.7067 18.9318 19.7647 18.9318 19.7647Z" fill="black"/>
<path d="M20.6786 20.9814C22.7822 20.9814 24.4874 19.2761 24.4874 17.1726C24.4874 15.069 22.7822 13.3638 20.6786 13.3638C18.5751 13.3638 16.8699 15.069 16.8699 17.1726C16.8699 19.2761 18.5751 20.9814 20.6786 20.9814Z" fill="#A0616A"/>
<path d="M22.6301 37.1609H25.7177C25.8333 36.9516 25.9421 36.7339 26.0677 36.5363V36.5346C26.205 36.2957 26.398 36.0935 26.6303 35.9452C26.778 35.8776 26.9178 35.7939 27.0472 35.6957C27.1711 35.5614 27.2587 35.3978 27.3017 35.2202C27.5144 34.5559 27.6317 33.8647 27.65 33.1674C27.655 32.9329 27.65 32.6952 27.6634 32.4607C27.67 32.2776 27.6935 32.0954 27.7337 31.9166C27.8397 31.5529 27.9934 31.205 28.1908 30.8818C28.6094 30.1199 29.0292 29.358 29.45 28.5962C29.5258 28.3816 29.555 28.1532 29.5354 27.9264C29.5263 27.6205 29.4324 27.3231 29.2641 27.0674C29.2055 26.9619 29.1419 26.8564 29.0749 26.7543C28.8166 26.3422 28.5158 25.9583 28.1774 25.609C27.4595 24.856 26.5881 24.2661 25.6223 23.8793C25.5011 23.8385 25.3858 23.7822 25.279 23.7119C25.1531 23.6054 25.0466 23.478 24.9642 23.3351C24.6294 22.8311 24.2208 22.2635 23.6164 22.2953C23.518 22.2459 23.4107 22.2167 23.3009 22.2092C23.1911 22.2017 23.0809 22.2162 22.9767 22.2518C22.9449 22.2601 22.9136 22.2701 22.883 22.2819C22.652 22.3842 22.4277 22.5011 22.2115 22.6319C21.6554 22.9205 21.0252 23.0349 20.4032 22.9601C20.3302 22.9549 20.2588 22.9368 20.1922 22.9065C20.1216 22.8617 20.0564 22.8089 19.998 22.7491C19.8452 22.6239 19.6619 22.5416 19.4669 22.5104C19.2719 22.4792 19.072 22.5003 18.8878 22.5716C18.7149 22.6332 18.562 22.7409 18.4458 22.883C18.3353 23.022 18.2583 23.1895 18.136 23.3201C17.8196 23.6583 17.2972 23.6717 16.835 23.67C15.8752 23.6432 14.9156 23.7315 13.9768 23.9329C13.1523 24.1159 12.3818 24.4885 11.7264 25.0213L11.7247 25.023C11.6343 25.1 11.5506 25.1787 11.4669 25.2624C11.2764 25.4418 11.1248 25.6583 11.0215 25.8987C10.8942 26.2269 10.911 26.5969 10.7954 26.9301C10.6682 27.3035 10.3852 27.6083 10.2713 27.9833C10.1843 28.268 10.196 28.5828 10.052 28.8406C10.0587 28.8457 10.0637 28.8507 10.0704 28.8557C10.6799 29.3915 11.2006 30.0948 11.8118 30.6256C12.1665 30.8958 12.4665 31.2311 12.6959 31.6135C12.74 31.6994 12.7764 31.7891 12.8047 31.8814C12.8735 32.2015 12.9038 32.5286 12.8951 32.8559C12.9722 34.4215 13.8211 35.8414 14.7705 37.0872C14.7889 37.1123 14.8073 37.1374 14.8274 37.1609L22.6301 37.1609Z" fill="#D0CDE1"/>
<path d="M12.695 31.6136C12.551 32.6132 12.4059 33.6123 12.2596 34.6108C12.1931 35.1456 12.0936 35.6757 11.9616 36.1982C11.8745 36.5213 11.7623 36.8378 11.6836 37.161H7.32349C7.32571 36.98 7.33969 36.7993 7.36535 36.6201C7.47762 35.9765 7.6601 35.347 7.90953 34.7431C8.41688 33.3734 8.92367 32.0026 9.42989 30.6307C9.64588 30.0463 9.83174 29.4352 10.0695 28.8558C10.1114 28.7487 10.1566 28.6415 10.2051 28.5377C10.458 27.9818 11.1595 28.2095 11.6786 28.2932C11.8211 28.3109 11.96 28.3504 12.0905 28.4104C12.2483 28.4973 12.3814 28.6229 12.4773 28.7754C12.9696 29.5038 12.8624 30.4666 12.7352 31.3373C12.7218 31.4294 12.7084 31.5215 12.695 31.6136Z" fill="#D0CDE1"/>
<path d="M26.0691 36.5363C26.0758 36.5598 26.1478 36.8093 26.2667 37.1609H22.6316C24.4333 36.8511 26.0691 36.5347 26.0691 36.5347V36.5363Z" fill="#2F2E41"/>
<path d="M20.996 17.1726C23.2748 17.1726 25.1222 16.1779 25.1222 14.9508C25.1222 13.7237 23.2748 12.729 20.996 12.729C18.7172 12.729 16.8699 13.7237 16.8699 14.9508C16.8699 16.1779 18.7172 17.1726 20.996 17.1726Z" fill="#2F2E41"/>
<path d="M154.934 24.2053H60.4976V88.1684H154.934V24.2053Z" fill="#3F3D56"/>
<path opacity="0.1" d="M141.204 83.8149C147.308 83.8149 152.255 83.2901 152.255 82.6428C152.255 81.9955 147.308 81.4707 141.204 81.4707C135.101 81.4707 130.153 81.9955 130.153 82.6428C130.153 83.2901 135.101 83.8149 141.204 83.8149Z" fill="black"/>
<path d="M94.4865 30.0659H66.5239V60.5405H94.4865V30.0659Z" fill="#F2F2F2"/>
<path d="M75.531 44.0577C75.6218 44.0853 75.7194 44.0805 75.8071 44.0443C75.8948 44.008 75.9673 43.9425 76.0121 43.8589C76.3989 43.2495 75.6868 42.4638 75.841 41.7587C75.9645 41.1938 76.6064 40.8585 76.7376 40.2954C76.8651 39.7482 76.4722 39.1315 76.7378 38.6364C76.9459 38.2485 77.4656 38.1464 77.9005 38.2144C78.3354 38.2823 78.7482 38.4735 79.1875 38.5003C79.7729 38.536 80.331 38.2783 80.9034 38.1506C81.4759 38.0229 82.1742 38.0729 82.5109 38.5531C82.9433 39.1697 82.5047 40.0283 82.6553 40.7662C82.7748 41.3521 83.2653 41.8373 83.2759 42.4353C83.2796 42.6478 82.721 42.4766 82.7507 42.6871C82.7803 42.8975 82.5163 42.7122 82.7274 42.6872C82.8136 42.6661 82.8908 42.6181 82.9479 42.5502C83.005 42.4823 83.039 42.3979 83.045 42.3094C83.0701 42.1341 83.3996 42.0756 83.3958 41.8986C83.3868 41.4837 84.137 41.7634 84.2606 41.3672C84.5447 40.4435 84.4864 39.4484 84.0964 38.5643C83.8954 38.2031 83.7349 37.8208 83.6178 37.4244C83.5076 36.8742 83.681 36.2836 83.4993 35.7527C83.2543 35.0374 82.4438 34.6727 81.6913 34.5986C80.9387 34.5246 80.174 34.6571 79.4258 34.5479C78.7555 34.4501 78.1066 34.1596 77.4306 34.2016C76.6193 34.2522 75.9134 34.7748 75.3511 35.3617C74.7888 35.9486 74.3117 36.6236 73.6731 37.1264C73.4776 37.2609 73.2972 37.4162 73.1351 37.5896C72.8098 37.986 72.7768 38.5507 72.8673 39.0554C72.9578 39.5601 73.1547 40.0416 73.2378 40.5476C73.3159 41.0231 73.2918 41.5089 73.3255 41.9896C73.3333 42.4745 73.4801 42.9469 73.7484 43.3509C73.8643 43.5082 74.0146 43.6371 74.1879 43.7276C74.3611 43.8181 74.5527 43.8679 74.7481 43.8731C74.8834 43.8763 74.9978 43.7546 75.1344 43.7863C75.3052 43.826 75.3794 43.9882 75.531 44.0577Z" fill="#2F2E41"/>
<path d="M69.3794 60.7078C69.5016 59.0317 69.5937 57.7793 69.5937 57.7793L70.384 55.6963L72.9208 60.7078L69.3794 60.7078Z" fill="#575A89"/>
<path opacity="0.1" d="M69.3794 60.7078C69.5016 59.0317 69.5937 57.7793 69.5937 57.7793L70.384 55.6963L72.9208 60.7078L69.3794 60.7078Z" fill="black"/>
<path d="M75.261 44.2281C75.261 44.2281 77.6264 50.2491 76.2645 51.396C74.9026 52.5429 83.8623 49.4607 83.8623 49.4607L83.6473 48.6722C83.6473 48.6722 80.7085 47.5254 82.1421 44.2281C83.5756 40.9309 75.261 44.2281 75.261 44.2281Z" fill="#A0616A"/>
<path opacity="0.1" d="M75.261 44.2281C75.261 44.2281 77.6264 50.2491 76.2645 51.396C74.9026 52.5429 83.8623 49.4607 83.8623 49.4607L83.6473 48.6722C83.6473 48.6722 80.7085 47.5254 82.1421 44.2281C83.5756 40.9309 75.261 44.2281 75.261 44.2281Z" fill="black"/>
<path d="M78.6266 46.6652C81.3977 46.6652 83.644 44.4187 83.644 41.6476C83.644 38.8765 81.3977 36.6301 78.6266 36.6301C75.8555 36.6301 73.6091 38.8765 73.6091 41.6476C73.6091 44.4187 75.8555 46.6652 78.6266 46.6652Z" fill="#A0616A"/>
<path d="M90.8137 52.4713C90.8137 52.4713 90.7936 52.8698 90.7584 53.5663C90.6864 54.9846 90.5575 57.6419 90.4286 60.7078H70.9787C70.4705 60.0271 70.0544 59.2822 69.7413 58.4925C69.6566 58.2636 69.6075 58.023 69.5956 57.7792C69.4885 55.8787 71.1913 53.2264 72.3936 52.9736C73.7549 52.6856 76.3351 49.963 76.3351 49.963C76.3434 50.0666 76.3778 50.1665 76.4352 50.2532C76.4926 50.3399 76.5711 50.4105 76.6633 50.4586V50.4603C76.8714 50.5678 77.1041 50.6186 77.3381 50.6076C78.1786 50.6076 81.8757 48.9014 83.0629 48.3438C83.2956 48.235 83.4312 48.1697 83.4312 48.1697C84.8004 48.7606 86.2148 49.2404 87.6608 49.6047C88.3823 49.7846 89.048 50.1407 89.5982 50.6409C90.1484 51.1412 90.5661 51.7701 90.8137 52.4713Z" fill="#575A89"/>
<path d="M74.6692 43.556C74.76 43.5836 74.8576 43.5788 74.9453 43.5426C75.033 43.5063 75.1055 43.4408 75.1503 43.3572C75.537 42.7478 74.825 41.962 74.9792 41.257C75.1027 40.6921 75.7446 40.3568 75.8758 39.7937C76.0033 39.2465 75.6104 38.6297 75.876 38.1347C76.084 37.7468 76.6038 37.6447 77.0387 37.7127C77.4736 37.7806 77.8863 37.9718 78.3257 37.9986C78.9111 38.0343 79.4692 37.7765 80.0416 37.6489C80.6141 37.5212 81.3124 37.5712 81.6491 38.0514C82.0815 38.668 81.6429 39.5266 81.7935 40.2645C81.913 40.8504 83.2752 41.2617 83.3988 40.8655C83.6829 39.9418 83.6246 38.9467 83.2346 38.0626C83.0336 37.7014 82.8731 37.3191 82.756 36.9227C82.6458 36.3725 82.8192 35.7819 82.6375 35.251C82.3925 34.5356 81.582 34.171 80.8294 34.0969C80.0769 34.0228 79.3122 34.1554 78.564 34.0462C77.8937 33.9483 77.2448 33.6578 76.5688 33.6999C75.7575 33.7504 75.0516 34.2731 74.4893 34.86C73.9269 35.4469 73.4499 36.1219 72.8113 36.6247C72.6158 36.7592 72.4354 36.9145 72.2732 37.0879C71.948 37.4843 71.915 38.049 72.0055 38.5537C72.096 39.0584 72.2928 39.5399 72.376 40.0459C72.4541 40.5214 72.43 41.0072 72.4637 41.4879C72.4715 41.9728 72.6183 42.4452 72.8866 42.8492C73.0025 43.0065 73.1528 43.1354 73.326 43.2259C73.4993 43.3164 73.6909 43.3661 73.8863 43.3714C74.0216 43.3745 74.1359 43.2529 74.2726 43.2846C74.4433 43.3243 74.5176 43.4865 74.6692 43.556Z" fill="#2F2E41"/>
<path opacity="0.1" d="M93.2994 60.7079H87.6231C87.1911 57.5399 86.8345 54.2279 86.8345 54.2279L87.9814 53.7256L90.3122 52.4714C90.3122 52.4714 90.483 52.8766 90.7576 53.5665C91.3436 55.0417 92.4069 57.8179 93.2994 60.7079Z" fill="black"/>
<path d="M93.7987 60.7078H87.3925C86.4431 57.2417 85.5071 53.4743 85.5071 53.4743L87.945 51.6826L90.8116 52.4713C90.8116 52.4713 92.4893 56.4648 93.7987 60.7078Z" fill="#575A89"/>
<path d="M138.692 30.0659H111.734V31.9078H138.692V30.0659Z" fill="#EF4744"/>
<path d="M76.4052 65.2288H66.8611V67.0706H76.4052V65.2288Z" fill="#EF4744"/>
<path d="M94.1539 68.5776H66.8611V70.4195H94.1539V68.5776Z" fill="#EF4744"/>
<path d="M144.217 36.7634H105.371V38.6053H144.217V36.7634Z" fill="#F2F2F2"/>
<path d="M144.217 41.9543H105.371V43.7962H144.217V41.9543Z" fill="#F2F2F2"/>
<path d="M144.217 47.145H105.371V48.9869H144.217V47.145Z" fill="#F2F2F2"/>
<path d="M144.217 52.3357H105.371V54.1776H144.217V52.3357Z" fill="#F2F2F2"/>
<path d="M144.217 57.5264H105.371V59.3682H144.217V57.5264Z" fill="#F2F2F2"/>
<path d="M144.217 62.717H105.371V64.5589H144.217V62.717Z" fill="#F2F2F2"/>
<path d="M144.217 67.908H105.371V69.7498H144.217V67.908Z" fill="#F2F2F2"/>
<path d="M151.706 68.1568L141.087 78.7759L136.624 74.3126C136.482 74.1709 136.314 74.0585 136.129 73.9819C135.944 73.9052 135.746 73.8657 135.545 73.8657C135.345 73.8657 135.147 73.9052 134.961 73.9819C134.776 74.0585 134.608 74.1709 134.466 74.3126L134.306 74.0728C133.71 74.6686 133.871 75.8745 134.466 76.4703L140.257 82.2613C140.476 82.4796 140.772 82.6022 141.08 82.6023C141.389 82.6024 141.685 82.4799 141.903 82.2618L153.863 70.3145C154.459 69.7189 154.675 68.6267 154.08 68.0308C153.484 67.4352 152.302 67.5611 151.706 68.1568Z" fill="#57B894"/>
<path opacity="0.1" d="M151.706 68.1568L141.087 78.7759L136.624 74.3126C136.482 74.1709 136.314 74.0585 136.129 73.9819C135.944 73.9052 135.746 73.8657 135.545 73.8657C135.345 73.8657 135.147 73.9052 134.961 73.9819C134.776 74.0585 134.608 74.1709 134.466 74.3126L134.306 74.0728C133.71 74.6686 133.871 75.8745 134.466 76.4703L140.257 82.2613C140.476 82.4796 140.772 82.6022 141.08 82.6023C141.389 82.6024 141.685 82.4799 141.903 82.2618L153.863 70.3145C154.459 69.7189 154.675 68.6267 154.08 68.0308C153.484 67.4352 152.302 67.5611 151.706 68.1568Z" fill="black"/>
<path d="M151.706 67.6858L141.087 78.3049L136.624 73.8416C136.482 73.6999 136.314 73.5876 136.129 73.5109C135.944 73.4342 135.746 73.3947 135.545 73.3947C135.345 73.3947 135.146 73.4342 134.961 73.5109C134.776 73.5876 134.608 73.6999 134.466 73.8416C134.325 73.9833 134.212 74.1515 134.136 74.3366C134.059 74.5217 134.02 74.7201 134.02 74.9205C134.02 75.1208 134.059 75.3192 134.136 75.5043C134.212 75.6895 134.325 75.8576 134.466 75.9993L140.257 81.7904C140.476 82.0086 140.772 82.1312 141.08 82.1313C141.389 82.1314 141.685 82.0089 141.903 81.7908L153.863 69.8435C154.005 69.7019 154.117 69.5337 154.194 69.3486C154.271 69.1635 154.31 68.9651 154.31 68.7648C154.31 68.5644 154.271 68.3659 154.194 68.1808C154.117 67.9957 154.005 67.8275 153.863 67.6858C153.577 67.3997 153.189 67.239 152.785 67.239C152.38 67.239 151.992 67.3997 151.706 67.6858Z" fill="#57B894"/>
<path opacity="0.1" d="M229.829 129.192C229.829 141.166 213.139 137.462 192.705 137.462C172.27 137.462 155.829 141.166 155.829 129.192C155.829 117.219 172.516 114.615 192.95 114.615C213.385 114.615 229.829 117.219 229.829 129.192Z" fill="black"/>
<path d="M229.829 126.956C229.829 138.929 213.139 135.225 192.705 135.225C172.27 135.225 155.829 138.929 155.829 126.956C155.829 114.982 172.516 112.378 192.95 112.378C213.385 112.378 229.829 114.982 229.829 126.956Z" fill="#3F3D56"/>
<path d="M160.064 89.4453L159.308 90.3234C159.308 90.3234 150.113 91.1868 150.486 92.6795C150.86 94.1722 161.557 90.6892 161.557 90.6892L160.064 89.4453Z" fill="#FFC1C7"/>
<path d="M176.732 88.6987C176.732 88.6987 166.905 92.1817 161.556 90.689L164.044 95.6647C164.044 95.6647 176.732 95.2915 178.971 93.0525C181.21 90.8134 176.732 88.6987 176.732 88.6987Z" fill="#EF4744"/>
<path opacity="0.1" d="M176.732 88.6987C176.732 88.6987 166.905 92.1817 161.556 90.689L164.044 95.6647C164.044 95.6647 176.732 95.2915 178.971 93.0525C181.21 90.8134 176.732 88.6987 176.732 88.6987Z" fill="black"/>
<path d="M170.076 62.0166C173.717 62.0166 176.669 59.0649 176.669 55.4238C176.669 51.7827 173.717 48.8311 170.076 48.8311C166.435 48.8311 163.484 51.7827 163.484 55.4238C163.484 59.0649 166.435 62.0166 170.076 62.0166Z" fill="#FFC1C7"/>
<path d="M175.7 61.6133C175.927 62.0466 176.215 62.4452 176.554 62.7973C177.457 63.7797 178.535 64.5861 179.732 65.1753C175.99 65.9358 172.211 66.4978 168.409 66.859C168.811 65.4456 168.282 63.9339 167.572 62.6476C166.862 61.3613 165.957 60.1625 165.513 58.762L169.969 58.8818C170.778 58.9035 171.589 58.9278 172.397 58.8882C173.001 58.8586 174.008 58.4966 174.572 58.63C175.764 58.9118 175.179 60.5559 175.7 61.6133Z" fill="#FFC1C7"/>
<path d="M190.665 92.5551L194.396 97.0332C194.396 97.0332 200.616 111.587 187.057 113.08C173.499 114.572 163.423 111.96 163.423 111.96C163.423 111.96 157.95 109.348 157.826 111.338C157.701 113.329 157.204 118.926 154.218 124.399L151.606 130.37C151.606 130.37 150.238 131.739 150.611 133.604C150.984 135.47 142.277 136.092 142.401 133.604C142.401 133.604 143.645 131.49 143.645 130.246C143.645 129.002 145.635 126.017 145.635 126.017L149.243 108.104C149.243 108.104 148.994 98.8991 157.452 100.641C165.911 102.382 177.977 100.267 177.977 100.267L180.714 90.6892L190.665 92.5551Z" fill="#2F2E41"/>
<path opacity="0.1" d="M190.665 92.5551L194.396 97.0332C194.396 97.0332 200.616 111.587 187.057 113.08C173.499 114.572 163.423 111.96 163.423 111.96C163.423 111.96 157.95 109.348 157.826 111.338C157.701 113.329 157.204 118.926 154.218 124.399L151.606 130.37C151.606 130.37 150.238 131.739 150.611 133.604C150.984 135.47 142.277 136.092 142.401 133.604C142.401 133.604 143.645 131.49 143.645 130.246C143.645 129.002 145.635 126.017 145.635 126.017L149.243 108.104C149.243 108.104 148.994 98.8991 157.452 100.641C165.911 102.382 177.977 100.267 177.977 100.267L180.714 90.6892L190.665 92.5551Z" fill="black"/>
<path d="M176.669 92.2272C176.669 92.2272 188.051 87.9524 194.395 97.033C194.395 97.033 196.012 111.089 189.544 111.711C183.075 112.333 174.617 112.209 172.626 110.094C170.636 107.98 158.073 102.009 158.073 102.009C158.073 102.009 151.819 98.8187 150.592 102.964C149.365 107.109 149.241 108.104 149.241 108.104C149.241 108.104 142.773 112.831 140.16 113.702C140.16 113.702 138.419 116.189 137.424 116.189C136.429 116.189 130.334 117.558 130.956 112.955L141.031 103.75L151.107 93.9232C151.107 93.9232 153.968 89.6939 161.307 91.9329C166.178 93.3825 171.118 94.5865 176.109 95.5403L176.669 92.2272Z" fill="#2F2E41"/>
<path d="M150.238 133.356C150.238 133.356 152.601 139.326 150.611 140.073C148.621 140.819 144.392 140.322 144.392 140.322C144.392 140.322 139.416 139.7 138.172 139.824C136.928 139.948 131.828 138.953 132.574 136.963C133.321 134.973 137.177 135.47 137.177 135.47L140.66 133.853C140.66 133.853 141.033 132.609 141.904 133.107C142.774 133.604 145.262 135.47 150.238 133.356Z" fill="#CBCEDA"/>
<path d="M137.3 115.692C137.3 115.692 139.912 121.538 135.683 121.041C131.453 120.543 128.219 119.673 126.975 119.548C125.779 119.428 122.395 118.273 122.914 115.971C122.942 115.822 122.954 115.67 122.948 115.519C122.948 115.21 123.368 114.604 126.726 114.697C126.726 114.697 129.214 114.697 130.209 112.955C130.209 112.955 133.941 117.682 137.3 115.692Z" fill="#CBCEDA"/>
<path d="M165.535 65.9351C165.535 65.9351 174.492 60.3375 181.955 65.9351C189.418 71.5328 194.394 97.0332 194.394 97.0332L177.104 93.177C177.104 93.177 176.357 90.1916 175.362 89.694C174.367 89.1965 174.243 87.0818 174.243 87.0818C174.243 87.0818 168.894 85.4647 169.267 79.2451C169.64 73.0255 165.535 65.9351 165.535 65.9351Z" fill="#EF4744"/>
<path d="M170.14 66.1838H165.537C165.537 66.1838 162.8 69.2937 162.427 77.1304L160.935 83.35C160.935 83.35 157.825 90.8135 159.691 92.0574C161.557 93.3013 165.164 93.177 165.91 90.6891C166.657 88.2013 171.757 73.7718 171.757 73.7718L170.14 66.1838Z" fill="#EF4744"/>
<path d="M168.821 46.8438C169.963 46.3758 171.211 46.2337 172.428 46.4333C173.645 46.6328 174.783 47.1662 175.715 47.974C178.104 50.106 178.586 53.5839 179.19 56.7284C179.794 59.8728 181.009 63.3745 183.972 64.5868C182.636 64.7652 181.28 64.7258 179.957 64.47L184.436 68.4834L176.892 66.0243C174.524 65.2526 172.037 64.4711 169.585 64.907C165.523 65.629 162.696 69.4475 158.794 70.789L159.228 68.6735L156.61 68.6534C157.237 68.1895 157.75 67.5885 158.11 66.8964C157.987 66.7466 157.834 66.623 157.662 66.533C157.49 66.443 157.302 66.3884 157.109 66.3725C156.018 59.5668 160.059 52.8392 165.326 48.3929C166.362 47.5183 167.508 46.6783 168.846 46.4595C170.184 46.2407 171.746 46.839 172.211 48.1124" fill="#2F2E41"/>
<path d="M54.6819 109.217C54.6819 123.535 63.6642 135.121 74.7645 135.121L54.6819 109.217Z" fill="#3F3D56"/>
<path d="M74.7649 135.121C74.7649 120.642 84.7886 108.926 97.176 108.926L74.7649 135.121Z" fill="#EF4744"/>
<path d="M61.957 110.514C61.957 124.115 67.6849 135.121 74.7634 135.121L61.957 110.514Z" fill="#EF4744"/>
<path d="M74.7649 135.12C74.7649 116.62 86.3507 101.649 100.669 101.649L74.7649 135.12Z" fill="#3F3D56"/>
<path d="M70.5396 135.303C70.5396 135.303 73.3876 135.215 74.2459 134.604C75.1043 133.993 78.627 133.263 78.8399 134.243C79.0528 135.224 83.12 139.119 79.9045 139.145C76.6891 139.171 72.4333 138.644 71.5766 138.122C70.7199 137.6 70.5396 135.303 70.5396 135.303Z" fill="#A8A8A8"/>
<path opacity="0.2" d="M79.9619 138.804C76.7465 138.83 72.4907 138.303 71.634 137.781C70.9816 137.383 70.7216 135.957 70.6346 135.3C70.5744 135.302 70.5396 135.303 70.5396 135.303C70.5396 135.303 70.7199 137.6 71.5766 138.122C72.4333 138.644 76.6891 139.171 79.9046 139.145C80.8327 139.137 81.1533 138.807 81.1357 138.318C81.0068 138.613 80.6528 138.798 79.9619 138.804Z" fill="black"/>
</g>
<defs>
<clipPath id="clip0">
<rect width="239" height="145" fill="white"/>
</clipPath>
</defs>
</svg>
