<svg width="281" height="171" viewBox="0 0 281 171" fill="none" xmlns="http://www.w3.org/2000/svg">
<g clip-path="url(#clip0)">
<path d="M43.313 148.523C45.614 157.001 53.4953 162.252 53.4953 162.252C53.4953 162.252 57.646 153.757 55.345 145.279C53.0441 136.8 45.1628 131.549 45.1628 131.549C45.1628 131.549 41.0121 140.045 43.313 148.523Z" fill="#3F3D56"/>
<path d="M46.6935 146.701C53.0074 152.828 53.7785 162.246 53.7785 162.246C53.7785 162.246 44.313 161.73 37.9991 155.604C31.6853 149.477 30.9141 140.059 30.9141 140.059C30.9141 140.059 40.3796 140.575 46.6935 146.701Z" fill="#EF4744"/>
<path d="M252.815 170.316H30.4854V171H252.815V170.316Z" fill="#2F2E41"/>
<path d="M56.6101 170.658H47.6895V161.766H56.6101V170.658ZM48.3757 169.974H55.9239V162.45H48.3757V169.974Z" fill="#3F3D56"/>
<path d="M75.6013 6.78076H0V82.1394H75.6013V6.78076Z" fill="#3F3D56"/>
<path d="M75.601 25.5296V27.2592C74.4488 26.4983 73.5187 25.4475 72.9049 24.2131C71.8984 22.1612 71.9303 19.796 71.9621 17.508C71.9986 14.7888 72.035 12.2238 70.3044 10.5532C68.4007 8.71919 65.3539 8.97795 62.4072 9.22765C62.0611 9.25489 61.715 9.28665 61.3734 9.31388C58.4177 9.53635 55.1249 8.79184 53.5264 6.78076H55.5211C56.9831 7.76132 59.2192 8.10634 61.2732 7.95198C61.6057 7.92928 61.9473 7.8975 62.2888 7.87027C65.3903 7.60698 68.9062 7.30735 71.2517 9.57264C73.4104 11.6518 73.3694 14.6389 73.3284 17.5262C73.2966 19.6553 73.2692 21.8525 74.1346 23.6139C74.4936 24.3415 74.9917 24.9923 75.601 25.5296Z" fill="#EF4744"/>
<path d="M75.601 37.4914V39.5161C75.2692 39.084 74.8972 38.6843 74.4897 38.3222C72.1397 36.2566 68.765 35.8027 65.5041 35.3578C65.0806 35.3033 64.6661 35.2443 64.2517 35.1853C58.9641 34.4271 55.6851 32.6158 54.2322 29.6605C53.2257 27.6086 53.2576 25.2434 53.2895 22.9554C53.3259 20.2361 53.3624 17.6712 51.6317 16.0006C49.728 14.1666 46.6812 14.4253 43.7346 14.675C43.3885 14.7023 43.0423 14.734 42.7008 14.7612C38.9025 15.0472 34.544 13.7353 33.9474 10.1898C33.7425 8.97316 34.0476 7.85642 34.4985 6.78052H35.9923C35.4913 7.86096 35.1179 8.90509 35.2955 9.96284C35.7464 12.6685 39.3989 13.64 42.6006 13.3993C42.933 13.3767 43.2746 13.3449 43.6162 13.3176C46.7177 13.0544 50.2336 12.7547 52.579 15.02C54.7378 17.0992 54.6968 20.0863 54.6558 22.9735C54.6239 25.1027 54.5966 27.2999 55.4619 29.0612C56.7007 31.5853 59.6382 33.1469 64.4475 33.837C64.8574 33.896 65.2719 33.955 65.6863 34.0095C69.1476 34.4771 72.7318 34.9628 75.396 37.3008C75.4644 37.3598 75.5327 37.4233 75.601 37.4914Z" fill="#EF4744"/>
<path d="M75.6004 71.6209V74.4174C73.9563 72.6741 72.5809 70.2817 71.5288 67.2901C71.3057 66.6545 71.0916 66.0053 70.8776 65.3562C69.698 61.8016 68.4774 58.129 65.5718 55.782C62.4658 53.2761 58.0162 52.7223 53.7124 52.1866C53.1614 52.1185 52.6103 52.0504 52.0638 51.9778C45.0866 51.0562 40.7646 48.8636 38.8472 45.2772C37.5173 42.7849 37.5583 39.9158 37.5993 37.1421C37.6494 33.8463 37.6995 30.7321 35.4133 28.7074C32.9038 26.4829 28.8824 26.7962 24.9976 27.1004C24.5376 27.1367 24.0822 27.173 23.6359 27.2048C18.6216 27.5498 12.8695 25.9609 12.0862 21.6618C11.699 19.5554 12.6873 17.6896 13.6392 15.8828C14.1857 14.8477 14.7049 13.8626 14.969 12.8503C15.5247 10.7666 14.837 8.41958 13.3113 6.78076H15.5429C16.1868 7.71303 16.625 8.77092 16.8283 9.88452C17.0317 10.9981 16.9956 12.1421 16.7224 13.2407C16.4082 14.4256 15.8252 15.5332 15.2605 16.6046C14.3906 18.248 13.5754 19.8005 13.8623 21.3894C14.4635 24.6671 19.2774 25.8474 23.4992 25.5568C23.941 25.5251 24.3919 25.4887 24.8427 25.457C28.9325 25.1347 33.5688 24.776 36.6657 27.5225C39.5121 30.0421 39.4575 33.6647 39.4028 37.1648C39.3664 39.7479 39.3254 42.4127 40.464 44.5509C42.099 47.6061 45.9792 49.5036 52.3234 50.3435C52.8608 50.4161 53.4073 50.4842 53.9538 50.5523C58.5263 51.1198 63.2491 51.7054 66.7605 54.5427C70.0532 57.2029 71.3512 61.1025 72.5991 64.875C72.8131 65.5196 73.0272 66.1551 73.2458 66.7862C73.8249 68.4895 74.6159 70.1138 75.6004 71.6209Z" fill="#EF4744"/>
<path d="M0 37.2101C2.07676 39.716 6.48076 40.6421 10.4293 40.3697C10.8757 40.3379 11.3311 40.3016 11.7911 40.2653C15.6759 39.9611 19.6973 39.6479 22.2067 41.8723C24.493 43.897 24.4429 47.0112 24.3928 50.307C24.3518 53.0808 24.3108 55.9498 25.6407 58.4421C27.558 62.0285 31.8801 64.2211 38.8572 65.1427C39.4038 65.2153 39.9548 65.2834 40.5059 65.3515C44.8097 65.8872 49.2593 66.441 52.3653 68.9469C55.2709 71.294 56.4915 74.9666 57.671 78.5211C57.8851 79.1703 58.0991 79.8195 58.3223 80.455C58.5272 81.0406 58.7458 81.599 58.9736 82.1392H60.9228C60.5812 81.3993 60.2898 80.6593 60.0393 79.9511C59.8207 79.3201 59.6066 78.6846 59.3926 78.0399C58.1447 74.2674 56.8467 70.3679 53.554 67.7076C50.0426 64.8703 45.3198 64.2847 40.7473 63.7172C40.2008 63.6491 39.6542 63.5811 39.1168 63.5084C32.7727 62.6686 28.8924 60.771 27.2575 57.7158C26.1189 55.5776 26.1599 52.9128 26.1963 50.3298C26.251 46.8297 26.3056 43.207 23.4592 40.6875C20.3623 37.941 15.726 38.2996 11.6362 38.6219C11.1854 38.6537 10.7345 38.69 10.2927 38.7218C6.07089 39.0124 1.257 37.832 0.655828 34.5544C0.368918 32.9655 1.18413 31.4129 2.054 29.7696C2.61873 28.6982 3.20168 27.5905 3.51593 26.4057C4.37213 23.1643 2.92842 19.5735 1.02479e-05 17.6123V19.8368C1.59857 21.4801 2.32726 23.8816 1.76252 26.0152C1.49838 27.0276 0.979184 28.0127 0.432668 29.0478C0.286932 29.3247 0.14119 29.5971 1.02479e-05 29.8785L0 37.2101Z" fill="#EF4744"/>
<path d="M33.4422 82.1393H31.5522C31.452 81.8442 31.3563 81.5446 31.2561 81.245C30.0765 77.6904 28.856 74.0178 25.9504 71.6708C22.8443 69.1649 18.3948 68.6111 14.091 68.0754C13.5399 68.0073 12.9889 67.9392 12.4423 67.8666C6.28492 67.054 2.19062 65.2472 0 62.369V57.8521C0.140789 58.7538 0.425218 59.6274 0.842533 60.4397C2.47754 63.4949 6.3578 65.3924 12.7019 66.2323C13.2393 66.3049 13.7859 66.373 14.3324 66.4411C18.9049 67.0086 23.6277 67.5942 27.1391 70.4315C30.4318 73.0917 31.7298 76.9913 32.9776 80.7638C33.1325 81.2268 33.2828 81.6853 33.4422 82.1393Z" fill="#EF4744"/>
<path d="M178.073 6.78076H102.472V82.1394H178.073V6.78076Z" fill="#3F3D56"/>
<path d="M138.907 12.2284C138.906 16.474 137.779 20.644 135.639 24.315C133.499 27.986 130.423 31.0272 126.723 33.1301C123.023 35.2329 118.83 36.3223 114.571 36.2879C110.312 36.2534 106.138 35.0962 102.472 32.9338V6.78076H138.283C138.699 8.56679 138.909 10.3947 138.907 12.2284Z" fill="#EF4744"/>
<path d="M158.489 41.7361C166.538 41.7361 173.063 35.2321 173.063 27.2091C173.063 19.1861 166.538 12.6821 158.489 12.6821C150.44 12.6821 143.916 19.1861 143.916 27.2091C143.916 35.2321 150.44 41.7361 158.489 41.7361Z" fill="#EF4744"/>
<path d="M125.699 68.5202C131.485 68.5202 136.174 63.8455 136.174 58.079C136.174 52.3124 131.485 47.6377 125.699 47.6377C119.914 47.6377 115.225 52.3124 115.225 58.079C115.225 63.8455 119.914 68.5202 125.699 68.5202Z" fill="#EF4744"/>
<path d="M178.074 69.7914V82.1393H163.085C162.449 80.1531 162.424 78.0224 163.013 76.0217C163.602 74.021 164.778 72.2419 166.391 70.9135C168.003 69.5852 169.978 68.7684 172.06 68.5684C174.142 68.3684 176.237 68.7944 178.074 69.7914H178.074Z" fill="#EF4744"/>
<path d="M152.113 60.3487C153.622 60.3487 154.846 59.1292 154.846 57.6249C154.846 56.1206 153.622 54.9011 152.113 54.9011C150.604 54.9011 149.38 56.1206 149.38 57.6249C149.38 59.1292 150.604 60.3487 152.113 60.3487Z" fill="#EF4744"/>
<path d="M280.999 6.78076H205.398V82.1394H280.999V6.78076Z" fill="#3F3D56"/>
<path d="M242.288 6.78076V37.6506H205.398V39.4664H244.109V6.78076H242.288Z" fill="#EF4744"/>
<path d="M277.872 82.1393L281.001 77.704V74.549L275.645 82.1393H277.872ZM265.165 49.6443L248.401 73.4095L260.857 82.1393H264.022L250.938 72.9692L265.607 52.1729L281.001 62.9637V60.7438L265.165 49.6443Z" fill="#EF4744"/>
<path d="M237.278 46.6345L227.619 56.2632L237.278 65.8918L246.938 56.2632L237.278 46.6345ZM230.192 56.2632L237.278 49.1995L244.365 56.2632L237.278 63.3269L230.192 56.2632Z" fill="#EF4744"/>
<path d="M37.0544 13.68C40.8442 13.68 43.9164 10.6176 43.9164 6.84C43.9164 3.06237 40.8442 0 37.0544 0C33.2646 0 30.1924 3.06237 30.1924 6.84C30.1924 10.6176 33.2646 13.68 37.0544 13.68Z" fill="#F2F2F2"/>
<path d="M143.072 13.68C146.862 13.68 149.934 10.6176 149.934 6.84C149.934 3.06237 146.862 0 143.072 0C139.283 0 136.21 3.06237 136.21 6.84C136.21 10.6176 139.283 13.68 143.072 13.68Z" fill="#F2F2F2"/>
<path d="M244.289 13.68C248.079 13.68 251.151 10.6176 251.151 6.84C251.151 3.06237 248.079 0 244.289 0C240.499 0 237.427 3.06237 237.427 6.84C237.427 10.6176 240.499 13.68 244.289 13.68Z" fill="#F2F2F2"/>
<path d="M136.041 46.683C139.642 46.683 142.56 43.7738 142.56 40.185C142.56 36.5963 139.642 33.687 136.041 33.687C132.441 33.687 129.522 36.5963 129.522 40.185C129.522 43.7738 132.441 46.683 136.041 46.683Z" fill="#FFB8B8"/>
<path d="M132.608 43.2631C132.608 43.2631 134.324 52.1551 133.638 53.8651C132.952 55.5751 143.245 53.1811 143.245 53.1811C143.245 53.1811 141.186 44.2891 141.529 42.2371C141.872 40.1851 132.608 43.2631 132.608 43.2631Z" fill="#FFB8B8"/>
<path d="M121.286 74.043L121.972 83.2768L125.377 97.7787L126.432 101.745L128.148 95.5888L126.432 81.5668L125.849 75.2539L121.286 74.043Z" fill="#FFB8B8"/>
<path d="M157.31 72.675V82.251C157.31 82.251 156.281 94.563 154.222 97.6411C152.164 100.719 151.478 85.3291 151.478 85.3291L153.091 74.0431L157.31 72.675Z" fill="#FFB8B8"/>
<path d="M126.777 102.429C126.777 102.429 125.061 104.481 126.434 125.343C127.806 146.205 125.747 161.253 130.208 161.253C130.208 161.253 128.835 165.699 132.609 166.041C136.383 166.383 138.099 166.725 138.442 165.699C138.785 164.673 139.471 159.885 138.442 159.885C138.442 159.885 138.442 161.253 139.128 155.781C139.814 150.309 139.814 124.317 141.53 120.897L147.02 133.551C147.02 133.551 147.02 139.365 148.049 142.101C149.078 144.837 150.794 160.569 150.794 160.569L150.451 162.963C150.451 162.963 158.685 164.331 159.028 162.963C159.371 161.595 159.371 159.543 159.028 158.859C158.685 158.175 158.685 158.175 159.371 156.807C160.057 155.439 160.057 154.413 159.714 153.387C159.371 152.361 159.371 130.131 159.371 130.131C159.371 130.131 158.685 103.113 154.568 101.745C150.451 100.377 126.777 102.429 126.777 102.429Z" fill="#2F2E41"/>
<path d="M131.235 163.305L128.49 168.093C128.49 168.093 124.201 166.554 125.059 170.487C132.436 171 137.582 170.316 137.582 170.316C137.582 170.316 139.298 171 139.641 169.974C139.984 168.948 138.783 165.357 137.754 165.357C136.725 165.357 131.235 163.305 131.235 163.305Z" fill="#2F2E41"/>
<path d="M151.136 161.937C151.136 161.937 148.392 168.093 149.421 168.435C150.45 168.777 159.714 170.145 160.4 170.487C161.086 170.829 164.517 171.171 164.86 169.119C165.204 167.067 163.145 166.383 163.145 166.383C163.145 166.383 159.371 165.699 158.342 162.279C157.312 158.859 151.136 161.937 151.136 161.937Z" fill="#2F2E41"/>
<path d="M143.932 52.155C143.932 52.155 134.668 50.445 132.61 52.155C130.551 53.865 121.974 57.285 121.974 58.995C121.974 60.705 126.434 77.463 126.434 77.463C126.434 77.463 124.032 102.771 126.434 103.455C128.836 104.139 132.953 102.087 137.756 104.481C142.56 106.875 156.284 102.429 156.284 102.429C156.284 102.429 151.137 80.541 152.51 76.437C153.882 72.333 154.911 58.311 154.911 58.311C154.911 58.311 149.079 52.155 143.932 52.155Z" fill="#8985A8"/>
<path d="M124.374 57.969L121.972 58.653C121.972 58.653 116.825 74.727 118.884 75.411C120.943 76.095 126.775 77.463 127.462 77.463C128.148 77.463 124.374 57.969 124.374 57.969Z" fill="#8985A8"/>
<path d="M149.421 56.259L154.911 58.311C154.911 58.311 162.116 71.649 160.4 73.359C158.685 75.069 151.136 76.779 151.136 76.779L149.421 56.259Z" fill="#8985A8"/>
<path d="M135.843 32.1589C135.301 32.061 134.744 32.0856 134.212 32.2307C133.787 32.4184 133.395 32.6744 133.053 32.9885C132.433 33.4816 131.77 33.9195 131.072 34.297C130.516 34.5979 129.918 34.8764 129.53 35.3743C129.347 35.626 129.2 35.9024 129.095 36.1953C128.426 37.8974 128.247 39.7516 128.576 41.5498C128.613 41.8054 128.69 42.0535 128.805 42.2851C129.161 42.94 129.949 43.1981 130.612 43.5414C131.872 44.1932 132.827 45.2907 133.86 46.2607C134.244 46.6425 134.675 46.9738 135.143 47.2464C136.617 48.0474 138.419 47.7861 140.073 47.5028C140.191 47.5026 140.307 47.4793 140.415 47.4341C140.523 47.389 140.621 47.323 140.703 47.2399C140.786 47.1567 140.851 47.0582 140.895 46.9499C140.939 46.8416 140.961 46.7256 140.96 46.6088L142.266 40.7536C142.503 39.886 142.616 38.9895 142.601 38.0906C142.51 36.6693 141.738 34.7004 140.691 33.6907C139.472 32.5143 137.437 32.3271 135.843 32.1589Z" fill="#2F2E41"/>
<path d="M91.6919 165.501C93.1872 165.501 94.3995 164.292 94.3995 162.802C94.3995 161.311 93.1872 160.103 91.6919 160.103C90.1966 160.103 88.9844 161.311 88.9844 162.802C88.9844 164.292 90.1966 165.501 91.6919 165.501Z" fill="#EF4744"/>
<path d="M91.6895 170.599C90.1425 170.599 88.6302 170.142 87.3439 169.285C86.0576 168.428 85.0551 167.21 84.4631 165.786C83.8711 164.361 83.7162 162.793 84.018 161.281C84.3198 159.769 85.0647 158.379 86.1586 157.289C87.2525 156.199 88.6462 155.456 90.1635 155.155C91.6808 154.854 93.2535 155.009 94.6827 155.599C96.112 156.189 97.3336 157.188 98.193 158.47C99.0525 159.753 99.5113 161.26 99.5113 162.802C99.5089 164.869 98.6841 166.851 97.2177 168.313C95.7514 169.774 93.7632 170.596 91.6895 170.599ZM91.6895 155.605C90.2615 155.605 88.8655 156.027 87.6782 156.818C86.4909 157.609 85.5654 158.733 85.019 160.048C84.4725 161.363 84.3295 162.81 84.6081 164.206C84.8867 165.602 85.5743 166.885 86.5841 167.891C87.5938 168.898 88.8803 169.583 90.2809 169.861C91.6815 170.138 93.1332 169.996 94.4525 169.451C95.7718 168.906 96.8994 167.984 97.6928 166.8C98.4861 165.617 98.9096 164.225 98.9096 162.802C98.9074 160.894 98.146 159.065 96.7924 157.715C95.4389 156.366 93.6037 155.607 91.6895 155.605Z" fill="#2F2E41"/>
<path d="M223.441 165.843C224.936 165.843 226.148 164.635 226.148 163.144C226.148 161.654 224.936 160.445 223.441 160.445C221.946 160.445 220.733 161.654 220.733 163.144C220.733 164.635 221.946 165.843 223.441 165.843Z" fill="#EF4744"/>
<path d="M223.442 170.941C221.895 170.941 220.383 170.484 219.096 169.627C217.81 168.77 216.808 167.552 216.216 166.128C215.624 164.703 215.469 163.135 215.77 161.623C216.072 160.111 216.817 158.721 217.911 157.631C219.005 156.541 220.399 155.798 221.916 155.497C223.433 155.196 225.006 155.351 226.435 155.941C227.864 156.531 229.086 157.53 229.945 158.812C230.805 160.095 231.264 161.602 231.264 163.144C231.261 165.211 230.437 167.193 228.97 168.655C227.504 170.116 225.516 170.938 223.442 170.941ZM223.442 155.947C222.014 155.947 220.618 156.369 219.431 157.16C218.243 157.951 217.318 159.075 216.771 160.39C216.225 161.705 216.082 163.152 216.361 164.548C216.639 165.944 217.327 167.227 218.337 168.233C219.346 169.24 220.633 169.925 222.033 170.203C223.434 170.48 224.886 170.338 226.205 169.793C227.524 169.248 228.652 168.326 229.445 167.143C230.239 165.959 230.662 164.568 230.662 163.144C230.66 161.236 229.898 159.407 228.545 158.058C227.191 156.708 225.356 155.949 223.442 155.947V155.947Z" fill="#2F2E41"/>
<path d="M223.441 150.795C224.936 150.795 226.148 149.587 226.148 148.096C226.148 146.606 224.936 145.397 223.441 145.397C221.946 145.397 220.733 146.606 220.733 148.096C220.733 149.587 221.946 150.795 223.441 150.795Z" fill="#EF4744"/>
<path d="M223.442 155.893C221.895 155.893 220.383 155.435 219.096 154.579C217.81 153.722 216.808 152.504 216.216 151.08C215.624 149.655 215.469 148.087 215.77 146.575C216.072 145.063 216.817 143.673 217.911 142.583C219.005 141.493 220.399 140.75 221.916 140.449C223.433 140.148 225.006 140.303 226.435 140.893C227.864 141.483 229.086 142.482 229.945 143.764C230.805 145.047 231.264 146.554 231.264 148.096C231.261 150.163 230.437 152.145 228.97 153.607C227.504 155.068 225.516 155.89 223.442 155.893ZM223.442 140.899C222.014 140.899 220.618 141.321 219.431 142.112C218.243 142.903 217.318 144.027 216.771 145.342C216.225 146.657 216.082 148.104 216.361 149.5C216.639 150.896 217.327 152.178 218.337 153.185C219.346 154.192 220.633 154.877 222.033 155.155C223.434 155.432 224.886 155.29 226.205 154.745C227.524 154.2 228.652 153.278 229.445 152.094C230.239 150.911 230.662 149.519 230.662 148.096C230.66 146.188 229.898 144.359 228.545 143.009C227.191 141.66 225.356 140.901 223.442 140.899Z" fill="#2F2E41"/>
</g>
<defs>
<clipPath id="clip0">
<rect width="281" height="171" fill="white"/>
</clipPath>
</defs>
</svg>
