<svg width="232" height="142" viewBox="0 0 232 142" fill="none" xmlns="http://www.w3.org/2000/svg">
<path d="M182.689 81.3379L180.206 79.2502L180.439 78.9729L180.672 79.1691C180.636 79.0408 180.63 78.9061 180.653 78.7749C180.682 78.6423 180.745 78.5195 180.836 78.4182C180.954 78.2718 181.115 78.165 181.295 78.1119C181.478 78.0611 181.672 78.0665 181.852 78.1272C182.053 78.1924 182.24 78.297 182.4 78.4348C182.573 78.5756 182.714 78.7515 182.813 78.9509C182.902 79.1272 182.936 79.3266 182.91 79.5225C182.886 79.7048 182.811 79.8766 182.694 80.0177C182.616 80.1139 182.515 80.1892 182.4 80.2367C182.296 80.2801 182.184 80.3012 182.071 80.2989L182.945 81.0337L182.689 81.3379ZM181.345 79.7378C181.515 79.9052 181.738 80.0079 181.975 80.0281C182.061 80.0313 182.146 80.0149 182.224 79.9801C182.302 79.9454 182.372 79.8932 182.427 79.8276C182.483 79.7603 182.523 79.681 182.544 79.5958C182.565 79.5106 182.566 79.4217 182.547 79.336C182.483 79.0971 182.338 78.888 182.137 78.7445C181.966 78.5774 181.742 78.4746 181.504 78.4536C181.419 78.4486 181.333 78.4636 181.254 78.4972C181.176 78.5308 181.106 78.5822 181.05 78.6473C180.995 78.7162 180.957 78.7969 180.938 78.8831C180.919 78.9693 180.921 79.0586 180.942 79.1441C181.004 79.3827 181.146 79.5926 181.345 79.7378Z" fill="#3F3D56"/>
<path d="M183.449 79.0369L183.068 77.5965L181.695 77.4785L182.015 77.0982L182.668 77.1765C182.791 77.1919 182.893 77.2066 182.974 77.2205C182.941 77.1085 182.914 77.0074 182.891 76.9173L182.721 76.258L183.027 75.8945L183.351 77.2256L184.862 77.3566L184.548 77.7302L183.68 77.6297L183.447 77.6012L183.759 78.6684L183.449 79.0369Z" fill="#3F3D56"/>
<path d="M176.118 83.8814L174.476 85.835L176.429 87.4774L178.072 85.5238L176.118 83.8814Z" fill="#3F3D56"/>
<path d="M178.745 80.7554L177.103 82.709L179.057 84.3514L180.699 82.3978L178.745 80.7554Z" fill="#3F3D56"/>
<path d="M182.689 81.3379L180.206 79.2502L180.439 78.9729L180.672 79.1691C180.636 79.0408 180.63 78.9061 180.653 78.7749C180.682 78.6423 180.745 78.5195 180.836 78.4182C180.954 78.2718 181.115 78.165 181.295 78.1119C181.478 78.0611 181.672 78.0665 181.852 78.1272C182.053 78.1924 182.24 78.297 182.4 78.4348C182.573 78.5756 182.714 78.7515 182.813 78.9509C182.902 79.1272 182.936 79.3266 182.91 79.5225C182.886 79.7048 182.811 79.8766 182.694 80.0177C182.616 80.1139 182.515 80.1892 182.4 80.2367C182.296 80.2801 182.184 80.3012 182.071 80.2989L182.945 81.0337L182.689 81.3379ZM181.345 79.7378C181.515 79.9052 181.738 80.0079 181.975 80.0281C182.061 80.0313 182.146 80.0149 182.224 79.9801C182.302 79.9454 182.372 79.8932 182.427 79.8276C182.483 79.7603 182.523 79.681 182.544 79.5958C182.565 79.5106 182.566 79.4217 182.547 79.336C182.483 79.0971 182.338 78.888 182.137 78.7445C181.966 78.5774 181.742 78.4746 181.504 78.4536C181.419 78.4486 181.333 78.4636 181.254 78.4972C181.176 78.5308 181.106 78.5822 181.05 78.6473C180.995 78.7162 180.957 78.7969 180.938 78.8831C180.919 78.9693 180.921 79.0586 180.942 79.1441C181.004 79.3827 181.146 79.5926 181.345 79.7378Z" fill="#3F3D56"/>
<path d="M183.449 79.0369L183.068 77.5965L181.695 77.4785L182.015 77.0982L182.668 77.1765C182.791 77.1919 182.893 77.2066 182.974 77.2205C182.941 77.1085 182.914 77.0074 182.891 76.9173L182.721 76.258L183.027 75.8945L183.351 77.2256L184.862 77.3566L184.548 77.7302L183.68 77.6297L183.447 77.6012L183.759 78.6684L183.449 79.0369Z" fill="#3F3D56"/>
<path d="M176.118 83.8814L174.476 85.835L176.429 87.4774L178.072 85.5238L176.118 83.8814Z" fill="#3F3D56"/>
<path d="M178.745 80.7554L177.103 82.709L179.057 84.3514L180.699 82.3978L178.745 80.7554Z" fill="#3F3D56"/>
<path d="M232 141.49H0V142H232V141.49Z" fill="#3F3D56"/>
<path d="M123.291 23.9464C124.899 23.9464 126.203 22.6428 126.203 21.0346C126.203 19.4265 124.899 18.1228 123.291 18.1228C121.683 18.1228 120.379 19.4265 120.379 21.0346C120.379 22.6428 121.683 23.9464 123.291 23.9464Z" fill="#F2F2F2"/>
<path d="M51.618 29.816C51.6015 28.685 51.2442 27.5853 50.5929 26.6605C49.9416 25.7357 49.0265 25.0288 47.9672 24.6322C49.1815 24.1415 50.1861 23.2418 50.8071 22.0887C51.4281 20.9357 51.6265 19.6018 51.368 18.3178C51.1095 17.0339 50.4102 15.8808 49.3913 15.0579C48.3724 14.2351 47.0979 13.7943 45.7884 13.8118C44.4788 13.8293 43.2166 14.3041 42.2201 15.1539C41.2235 16.0037 40.5554 17.1752 40.3313 18.4655C40.1073 19.7559 40.3413 21.084 40.9929 22.2201C41.6446 23.3561 42.6729 24.2286 43.8999 24.6866C42.8507 25.1103 41.9541 25.8411 41.3276 26.7832C40.7011 27.7254 40.3739 28.8349 40.3891 29.9662C40.4042 31.0976 40.7609 32.1979 41.4124 33.123C42.0639 34.048 42.9798 34.7546 44.0399 35.15C42.8256 35.6406 41.821 36.5404 41.2 37.6934C40.579 38.8465 40.3806 40.1804 40.6391 41.4643C40.8976 42.7482 41.5968 43.9014 42.6157 44.7243C43.6346 45.5471 44.9091 45.9879 46.2187 45.9704C47.5283 45.9529 48.7905 45.4781 49.787 44.6283C50.7836 43.7785 51.4517 42.607 51.6757 41.3166C51.8998 40.0263 51.6658 38.6982 51.0141 37.5621C50.3625 36.4261 49.3342 35.5536 48.1072 35.0955C49.1555 34.6707 50.0514 33.9396 50.6777 32.9978C51.304 32.0559 51.6317 30.947 51.618 29.816ZM40.7595 19.4961C40.7458 18.5358 41.0033 17.5912 41.5024 16.7708C42.0015 15.9503 42.7219 15.2872 43.5808 14.8578C44.4398 14.4283 45.4025 14.2499 46.3583 14.343C47.3141 14.4361 48.2243 14.7969 48.9842 15.3841C49.7442 15.9712 50.3231 16.7608 50.6545 17.6621C50.9858 18.5635 51.0562 19.54 50.8575 20.4796C50.6588 21.4191 50.1991 22.2836 49.5312 22.9736C48.8633 23.6637 48.0143 24.1513 47.0817 24.3805C46.32 24.2316 45.5357 24.2421 44.7783 24.4113C43.6522 24.1653 42.6424 23.5459 41.9129 22.6536C41.1833 21.7613 40.7768 20.6485 40.7595 19.4961ZM51.2476 40.2861C51.2613 41.2463 51.0038 42.1909 50.5047 43.0114C50.0056 43.8319 49.2852 44.4949 48.4263 44.9244C47.5673 45.3538 46.6046 45.5323 45.6488 45.4392C44.693 45.3461 43.7828 44.9852 43.0229 44.3981C42.2629 43.811 41.684 43.0214 41.3526 42.12C41.0212 41.2187 40.9509 40.2421 41.1496 39.3026C41.3482 38.363 41.8079 37.4986 42.4759 36.8085C43.1438 36.1185 43.9928 35.6309 44.9254 35.4017C45.6871 35.5505 46.4713 35.54 47.2288 35.3709C48.3548 35.6168 49.3646 36.2363 50.0942 37.1286C50.8238 38.0209 51.2303 39.1336 51.2476 40.2861ZM47.2217 34.8438C46.46 34.6949 45.6758 34.7054 44.9183 34.8746C43.7914 34.6304 42.7805 34.0115 42.0506 33.1188C41.3207 32.2261 40.9149 31.1124 40.8995 29.9594C40.8841 28.8064 41.2599 27.6822 41.9656 26.7703C42.6713 25.8584 43.6653 25.2126 44.7853 24.9384C45.547 25.0872 46.3313 25.0767 47.0888 24.9076C48.2157 25.1517 49.2266 25.7707 49.9565 26.6634C50.6864 27.5561 51.0922 28.6698 51.1076 29.8228C51.123 30.9758 50.7472 32.1 50.0415 33.0119C49.3357 33.9238 48.3417 34.5695 47.2217 34.8438H47.2217Z" fill="#F2F2F2"/>
<path d="M27.1035 50.7451H22.8833V99.9189V104.139H27.1035H49.672V99.9189H27.1035V50.7451Z" fill="#EF4744"/>
<path d="M64.352 50.7451H60.1318V104.139H86.9206V50.7451H64.352ZM82.7004 99.919H64.352V54.9653H82.7004V99.919Z" fill="#EF4744"/>
<path d="M160.955 50.8369H138.387V104.231H165.175V50.8369H160.955ZM160.955 100.011H142.607V55.0571H160.955V100.011Z" fill="#EF4744"/>
<path d="M119.673 77.4424H116.186V81.6625H119.673V100.011H101.324V55.0573H123.893V50.8372H101.324H97.104V55.0573V100.011V104.231H101.324H119.673H123.893V100.011V81.6625H127.379V77.4424H123.893H119.673Z" fill="#EF4744"/>
<path d="M39.8662 45.9961H38.5093V46.4484H39.8662V45.9961Z" fill="#3F3D56"/>
<path d="M145.416 46.4484H142.638V45.9961H145.416V46.4484ZM139.861 46.4484H137.083V45.9961H139.861V46.4484ZM134.306 46.4484H131.528V45.9961H134.306V46.4484ZM128.75 46.4484H125.973V45.9961H128.75V46.4484ZM123.195 46.4484H120.417V45.9961H123.195V46.4484ZM117.64 46.4484H114.862V45.9961H117.64V46.4484ZM112.084 46.4484H109.307V45.9961H112.084V46.4484ZM106.529 46.4484H103.751V45.9961H106.529V46.4484ZM100.974 46.4484H98.196V45.9961H100.974V46.4484ZM95.4185 46.4484H92.6409V45.9961H95.4186L95.4185 46.4484ZM89.8632 46.4484H87.0855V45.9961H89.8632V46.4484ZM84.3079 46.4484H81.5302V45.9961H84.3079V46.4484ZM78.7525 46.4484H75.9749V45.9961H78.7525V46.4484ZM73.1972 46.4484H70.4195V45.9961H73.1972V46.4484ZM67.642 46.4484H64.8643V45.9961H67.642V46.4484ZM62.0866 46.4484H59.309V45.9961H62.0866L62.0866 46.4484ZM56.5313 46.4484H53.7537V45.9961H56.5313V46.4484ZM50.976 46.4484H48.1983V45.9961H50.976V46.4484ZM45.4208 46.4484H42.6431V45.9961H45.4208V46.4484Z" fill="#3F3D56"/>
<path d="M149.55 45.9961H148.193V46.4484H149.55V45.9961Z" fill="#3F3D56"/>
<path d="M169.962 57.7561H169.51V59.113H169.962V57.7561Z" fill="#3F3D56"/>
<path d="M169.962 93.0363H169.51V90.2094H169.962V93.0363ZM169.962 87.3824H169.51V84.5555H169.962V87.3824ZM169.962 81.7285H169.51V78.9016H169.962V81.7285ZM169.962 76.0747H169.51V73.2477H169.962V76.0747ZM169.962 70.4208H169.51V67.5938H169.962V70.4208ZM169.962 64.7669H169.51V61.9399H169.962V64.7669Z" fill="#3F3D56"/>
<path d="M169.962 95.8633H169.51V97.2202H169.962V95.8633Z" fill="#3F3D56"/>
<path d="M23.1872 30.4478H22.7349V124.528H23.1872V30.4478Z" fill="#F2F2F2"/>
<path d="M165.438 30.3914H164.985V124.472H165.438V30.3914Z" fill="#F2F2F2"/>
<path d="M187.885 103.892H0.17627V104.344H187.885V103.892Z" fill="#F2F2F2"/>
<path d="M187.829 50.5193H0.119629V50.9716H187.829V50.5193Z" fill="#F2F2F2"/>
<path d="M202.152 28.1987C202.169 28.5176 202.109 28.8358 201.977 29.1265C201.797 29.399 201.555 29.625 201.271 29.786L199.209 31.1765C198.601 31.5865 197.914 32.3132 198.304 32.9343C198.454 33.1347 198.658 33.289 198.892 33.3794C201.004 34.393 203.413 34.5858 205.755 34.5485C207.249 34.5247 208.811 34.3924 210.075 33.5975C210.677 33.2192 211.197 32.6985 211.858 32.4361C212.315 32.2545 212.909 32.1218 213.026 31.6439C213.185 30.9964 212.333 30.6375 211.717 30.3808C210.4 29.8313 209.486 28.5615 209.057 27.2004C208.628 25.8393 208.625 24.3834 208.693 22.9581C208.711 22.8565 208.709 22.7522 208.687 22.6514C208.664 22.5507 208.622 22.4554 208.562 22.3713C208.425 22.2598 208.254 22.1996 208.078 22.2012C206.658 22.0582 205.23 22.0341 203.807 22.1292C203.277 22.1239 202.755 22.2596 202.295 22.5225C201.429 23.1158 201.921 24.1212 202.012 24.9561C202.128 26.0329 202.175 27.116 202.152 28.1987Z" fill="#9F616A"/>
<path d="M211.07 0C210.275 0.887392 209.186 1.45775 208.004 1.60611C205.96 1.89814 207.566 5.11036 207.566 5.11036C207.566 5.11036 206.982 3.94228 208.15 2.9202C209.318 1.89813 211.07 1.31409 211.07 0Z" fill="#2F2E41"/>
<path d="M207.129 8.30245C208.521 8.30245 209.649 7.17404 209.649 5.78208C209.649 4.39012 208.521 3.26172 207.129 3.26172C205.737 3.26172 204.608 4.39012 204.608 5.78208C204.608 7.17404 205.737 8.30245 207.129 8.30245Z" fill="#2F2E41"/>
<path d="M210.072 8.26387C208.124 7.24685 204.775 6.44695 202.995 6.50413L203.445 4.78296C205.021 5.85337 208.353 6.66821 210.522 6.5427L210.072 8.26387Z" fill="#EF4744"/>
<path d="M204.461 24.4623C209.456 24.4623 213.505 20.4133 213.505 15.4187C213.505 10.424 209.456 6.375 204.461 6.375C199.466 6.375 195.417 10.424 195.417 15.4187C195.417 20.4133 199.466 24.4623 204.461 24.4623Z" fill="#2F2E41"/>
<path d="M201.716 128.613H197.565V135.729H201.716V128.613Z" fill="#9F616A"/>
<path d="M213.726 128.613H209.575V135.729H213.726V128.613Z" fill="#9F616A"/>
<path d="M196.529 54.9292L194.519 61.6373L214.913 62.0457L213.282 54.9292L207.944 51.3711L196.529 54.9292Z" fill="#9F616A"/>
<path d="M203.643 25.8708C207.246 25.8708 210.167 22.9502 210.167 19.3475C210.167 15.7448 207.246 12.8242 203.643 12.8242C200.041 12.8242 197.12 15.7448 197.12 19.3475C197.12 22.9502 200.041 25.8708 203.643 25.8708Z" fill="#9F616A"/>
<path d="M191.698 46.2681C191.235 47.429 191.013 48.6717 191.044 49.9212C191.101 51.3701 191.553 53.2231 191.271 54.48C190.184 59.3424 188.57 66.5625 185.653 70.5002C184.968 71.4246 183.629 71.9342 182.613 72.6345C181.598 73.3347 180.631 74.1003 180.081 75.3395C179.652 76.3035 179.667 77.4735 179.7 78.5676C179.718 79.1711 179.776 79.8602 180.299 80.2583C180.408 80.2126 180.5 80.1346 180.562 80.0349C180.625 79.9352 180.655 79.8187 180.649 79.7011C180.675 79.453 180.626 79.2 180.668 78.9441C180.718 78.7187 180.817 78.5072 180.959 78.3252C181.101 78.1431 181.282 77.9951 181.488 77.892C183.87 76.42 186.419 75.1355 187.681 72.5733C188.943 70.0111 189.901 67.7257 191.61 65.4692C192.092 64.8992 192.541 64.301 192.953 63.6779C193.617 62.5372 194.116 61.3083 194.436 60.0276C195.135 57.3442 195.45 54.5189 195.663 51.7816C195.772 50.3826 195.764 48.8842 194.702 47.9797C193.72 47.1432 192.525 47.2491 191.698 46.2681Z" fill="#9F616A"/>
<path d="M221.186 43.1294C221.528 44.3624 221.643 45.6472 221.525 46.9213C221.382 48.4645 220.898 50.0017 221.115 51.5363C221.956 57.4727 221.039 63.6145 221.511 69.5915C221.622 70.9948 222.073 72.5477 222.154 73.9531C222.234 75.3584 222.071 76.8246 221.356 78.037C220.8 78.98 219.949 79.7071 219.114 80.4157C218.654 80.8065 218.047 81.2221 217.496 80.9751C217.448 80.8648 217.435 80.7418 217.461 80.6241C217.487 80.5063 217.55 80.3998 217.64 80.3198C217.804 80.144 218.021 80.021 218.173 79.8338C218.465 79.4725 218.452 78.9607 218.42 78.4973C218.226 75.7448 217.821 72.9229 218.572 70.2678C219.321 67.6207 218.861 64.7301 218.098 62.087C217.894 61.3806 217.628 60.6923 217.45 59.9787C217.143 58.741 217.107 57.4543 217.073 56.1795L216.863 48.3137C216.828 46.9737 216.909 45.3935 218.027 44.6527C219.06 43.9676 220.373 44.0652 221.186 43.1294Z" fill="#9F616A"/>
<path d="M214.91 59.1408C213.578 59.8667 212.231 60.5987 210.769 61.0038C209.238 61.4279 207.632 61.4795 206.044 61.5284C204.15 61.7172 202.237 61.4466 200.47 60.7396L194.704 58.7717C190.626 68.5662 189.023 79.4192 191.236 89.7956C192.042 93.5735 191.198 97.4867 191.199 101.35C191.175 102.719 191.225 104.088 191.348 105.452C191.463 106.504 191.664 107.544 191.803 108.593C192.645 114.983 191.124 121.521 192.074 127.896C192.204 128.771 193.266 129.256 194.11 129.522C194.536 129.643 194.97 129.731 195.41 129.783C197.645 130.111 199.907 130.438 202.156 130.224C202.705 130.171 203.356 130.002 203.524 129.476C203.657 129.057 203.414 128.555 203.643 128.18C205.103 125.78 204.015 122.491 204.165 119.686C204.562 112.265 204.077 104.805 204.761 97.4055C204.892 95.9891 204.706 94.7385 204.834 93.3218L204.921 92.3596L205.186 89.4366C205.344 93.5109 205.514 97.4876 205.672 101.562C205.718 102.747 205.766 103.947 206.114 105.081C206.298 105.681 206.564 106.255 206.715 106.864C206.854 107.523 206.925 108.194 206.928 108.867L207.602 126.817C207.599 127.463 207.553 128.107 207.465 128.747C207.398 129.482 207.385 130.347 207.963 130.805C208.264 131.012 208.619 131.127 208.985 131.138C210.084 131.241 211.188 131.047 212.275 130.853C213.375 130.657 215.662 130.461 216.762 130.265C216.929 130.244 217.091 130.198 217.245 130.129C217.741 129.875 217.864 129.218 217.817 128.662C217.77 128.107 217.616 127.534 217.788 127.004C220.016 120.128 217.311 112.578 217.813 105.368C218.26 98.9465 218.197 92.502 218.134 86.0655C218.096 82.2592 217.839 78.5361 217.918 74.7304C218.015 70.0935 218.361 65.2367 216.396 61.0355C216.049 60.2938 215.599 59.5826 214.91 59.1408Z" fill="#2F2E41"/>
<path d="M202.31 133.06C202.31 133.06 198.011 130.985 197.269 133.06C196.528 135.136 195.046 140.029 196.676 141.215C197.204 141.599 197.822 141.84 198.47 141.915C199.118 141.99 199.775 141.895 200.376 141.641C201.429 141.193 202.46 140.628 202.31 140.177C202.014 139.287 202.31 133.06 202.31 133.06Z" fill="#2F2E41"/>
<path d="M208.983 133.06C208.983 133.06 213.282 130.985 214.024 133.06C214.765 135.136 216.248 140.029 214.617 141.215C214.089 141.599 213.471 141.84 212.823 141.915C212.175 141.99 211.518 141.895 210.917 141.641C209.864 141.193 208.833 140.628 208.983 140.177C209.279 139.287 208.983 133.06 208.983 133.06Z" fill="#2F2E41"/>
<path d="M214.308 31.5279C208.093 31.4174 201.876 31.6535 195.687 32.2352C195.226 32.2489 194.773 32.3538 194.353 32.5439C194.001 32.7572 193.693 33.0358 193.446 33.3646C190.675 36.6892 189.07 40.8298 188.876 45.1529C188.853 45.7118 188.874 46.3302 189.253 46.742C190.969 48.608 193.144 49.9699 194.504 52.1094C194.819 52.687 195.201 53.2255 195.642 53.714C195.391 55.2428 195.354 56.7992 195.531 58.3382C196.432 57.1602 197.78 56.3863 199.19 55.9268C200.6 55.4673 202.085 55.296 203.558 55.1273C205.708 54.881 208.009 54.6607 209.925 55.6674C211.429 56.4575 212.524 57.9294 214.105 58.5495C214.319 57.2243 214.443 55.8861 214.475 54.5441C214.52 52.6648 215.93 51.2772 216.673 49.5507C216.876 49.041 217.122 48.5498 217.409 48.0827C218.162 46.9352 219.388 46.1637 220.683 45.71C221.978 45.2562 223.353 45.0901 224.716 44.9269C225.336 44.0549 225.136 42.9398 224.705 41.9606C224.275 40.9814 223.555 40.1639 222.932 39.2941C221.723 37.6049 220.854 35.6784 219.525 34.0817C218.897 33.2985 218.104 32.6636 217.202 32.2222C216.3 31.7807 215.312 31.5437 214.308 31.5279Z" fill="#2F2E41"/>
<path d="M206.282 9.11719C206.282 9.11719 203.214 13.0621 197.077 13.9387C190.941 14.8153 195.762 24.4584 195.762 24.4584C195.762 24.4584 194.009 20.9518 197.515 17.8836C201.022 14.8153 206.282 13.0621 206.282 9.11719Z" fill="#2F2E41"/>
<path d="M206.283 9.11719C206.283 9.11719 208.036 15.2537 210.666 16.1303C213.296 17.0069 211.981 26.2117 207.598 27.0883C207.598 27.0883 211.324 22.0476 209.132 18.1027C206.941 14.1579 205.626 11.0896 206.283 9.11719Z" fill="#2F2E41"/>
<path d="M206.282 9.11719C206.282 9.11719 203.214 13.0621 197.077 13.9387C190.941 14.8153 195.762 24.4584 195.762 24.4584C195.762 24.4584 194.009 20.9518 197.515 17.8836C201.022 14.8153 206.282 13.0621 206.282 9.11719Z" fill="#2F2E41"/>
<path d="M206.283 9.11719C206.283 9.11719 208.036 15.2537 210.666 16.1303C213.296 17.0069 211.981 26.2117 207.598 27.0883C207.598 27.0883 211.324 22.0476 209.132 18.1027C206.941 14.1579 205.626 11.0896 206.283 9.11719Z" fill="#2F2E41"/>
<path d="M98.2124 42.4904V39.246H98.5746V39.5508C98.6498 39.4409 98.7487 39.3492 98.8639 39.2824C98.9844 39.2197 99.119 39.1889 99.2548 39.193C99.4431 39.1895 99.628 39.2434 99.7849 39.3476C99.9415 39.455 100.062 39.6069 100.132 39.7838C100.211 39.9797 100.251 40.1896 100.249 40.4011C100.252 40.6239 100.208 40.8448 100.119 41.0493C100.042 41.2312 99.9111 41.3852 99.744 41.491C99.5896 41.5905 99.4099 41.6437 99.2261 41.6445C99.1021 41.6465 98.9795 41.6177 98.8694 41.5605C98.7692 41.5086 98.6808 41.4364 98.6099 41.3485V42.4903L98.2124 42.4904ZM98.5724 40.432C98.5535 40.6696 98.6183 40.9064 98.7557 41.1012C98.8083 41.1687 98.8757 41.2233 98.9526 41.2608C99.0295 41.2983 99.114 41.3177 99.1996 41.3176C99.2874 41.3174 99.3739 41.297 99.4526 41.2582C99.5312 41.2193 99.6 41.163 99.6535 41.0935C99.7952 40.8909 99.862 40.6453 99.8423 40.3989C99.8602 40.1605 99.795 39.9233 99.6579 39.7275C99.6066 39.6588 99.5402 39.6029 99.4638 39.5642C99.3873 39.5255 99.303 39.5051 99.2173 39.5044C99.1292 39.5067 99.0427 39.5293 98.9648 39.5705C98.8868 39.6117 98.8194 39.6703 98.7679 39.7418C98.6246 39.9422 98.5556 40.1862 98.5724 40.432Z" fill="#3F3D56"/>
<path d="M100.463 41.5916L101.32 40.3725L100.527 39.2461H101.024L101.384 39.796C101.452 39.9006 101.506 39.9882 101.547 40.0588C101.612 39.9617 101.672 39.8755 101.726 39.8004L102.122 39.2461H102.596L101.786 40.3504L102.658 41.5916H102.17L101.689 40.8627L101.561 40.6662L100.944 41.5916L100.463 41.5916Z" fill="#3F3D56"/>
<path d="M87.9536 39.0969H85.4014V41.6492H87.9536V39.0969Z" fill="#3F3D56"/>
<path d="M92.0366 39.0969H89.4844V41.6492H92.0366V39.0969Z" fill="#3F3D56"/>
<path d="M96.1216 39.0969H93.5693V41.6492H96.1216V39.0969Z" fill="#3F3D56"/>
</svg>
