<svg width="288" height="221" viewBox="0 0 288 221" fill="none" xmlns="http://www.w3.org/2000/svg">
<path opacity="0.1" d="M282.429 50.32C279.486 44.6077 275.626 39.4152 271.004 34.9486L112.512 33.6298L243.004 18.154C234.465 15.3003 225.531 13.8039 216.528 13.7192C203.966 5.15264 187.82 0.0126953 170.209 0.0126953C154.407 0.0126953 139.795 4.15979 127.883 11.1963C117.76 6.79213 106.219 4.29471 93.9575 4.29471C58.7425 4.29471 29.3996 24.8901 22.8164 52.2039L282.429 50.32Z" fill="#EF4744"/>
<path opacity="0.1" d="M288 73.227C287.989 65.7429 286.301 58.356 283.061 51.6082L8.37494 75.9561C5.58684 80.2016 3.41984 84.823 1.93954 89.6804L87.0015 100.388L0 108.193C2.61749 139.115 34.0069 163.529 72.3517 163.529C91.6528 163.529 109.19 157.342 122.186 147.253C135.222 157.533 152.928 163.855 172.438 163.855C201.383 163.855 226.368 149.937 238.003 129.815C261.343 123.557 279.475 107.85 285.681 88.1988L178.109 74.1104H288C288 73.8151 288 73.5223 288 73.227Z" fill="#EF4744"/>
<path opacity="0.1" d="M127.428 220.997C168.246 220.997 201.335 219.523 201.335 217.703C201.335 215.884 168.246 214.409 127.428 214.409C86.611 214.409 53.522 215.884 53.522 217.703C53.522 219.523 86.611 220.997 127.428 220.997Z" fill="#EF4744"/>
<path d="M171.294 211.909V213.9H112.355V212.283C115.95 210.953 119.068 208.587 121.316 205.486C123.564 202.385 124.84 198.687 124.983 194.861C125.125 191.034 124.128 187.252 122.118 183.992C120.107 180.732 117.174 178.142 113.688 176.548H170.893C167.486 178.106 164.605 180.618 162.598 183.779C160.592 186.941 159.546 190.615 159.588 194.358C159.631 198.101 160.759 201.751 162.837 204.866C164.914 207.982 167.852 210.428 171.294 211.909Z" fill="#C8CAD7"/>
<path opacity="0.1" d="M170.895 176.548C168.266 177.754 165.94 179.531 164.088 181.751C162.236 183.971 160.904 186.576 160.19 189.376H124.397C123.683 186.576 122.351 183.971 120.499 181.751C118.647 179.532 116.321 177.754 113.692 176.548H170.895Z" fill="black"/>
<path d="M44.8569 166.406V177.582C44.8569 183.753 49.3783 188.755 54.9573 188.755H228.374C233.953 188.755 238.474 183.753 238.474 177.582V166.406H44.8569Z" fill="#C8CAD7"/>
<path opacity="0.1" d="M171.294 211.909V213.9H112.355V212.283C113.971 211.683 115.499 210.869 116.9 209.865H167.68C168.808 210.673 170.019 211.358 171.294 211.909Z" fill="black"/>
<path d="M188.348 210.486H95.2987C93.9615 210.486 92.8774 211.569 92.8774 212.904V213.966C92.8774 215.302 93.9615 216.384 95.2987 216.384H188.348C189.685 216.384 190.769 215.302 190.769 213.966V212.904C190.769 211.569 189.685 210.486 188.348 210.486Z" fill="#C8CAD7"/>
<path d="M238.474 43.9453C238.471 41.272 237.405 38.7093 235.511 36.8204C233.618 34.9315 231.05 33.8709 228.374 33.8716H54.965C52.2873 33.8689 49.7182 34.9286 47.8226 36.8177C45.9271 38.7068 44.8603 41.2706 44.8569 43.9453V168.58H238.474V43.9453Z" fill="#474157"/>
<path d="M233.202 48.4463V155.54C233.203 156.192 233.074 156.838 232.824 157.441C232.575 158.044 232.208 158.592 231.747 159.053C231.285 159.514 230.737 159.88 230.133 160.13C229.53 160.379 228.883 160.507 228.23 160.507H55.1189C54.4659 160.507 53.8191 160.379 53.2157 160.13C52.6122 159.88 52.0639 159.514 51.6021 159.053C51.1403 158.592 50.7741 158.044 50.5243 157.441C50.2745 156.838 50.1462 156.192 50.1465 155.54V48.4463C50.1465 47.1291 50.6704 45.8657 51.6029 44.9343C52.5354 44.0028 53.8002 43.4795 55.1189 43.4795H228.217C228.871 43.4778 229.519 43.6051 230.124 43.8539C230.729 44.1028 231.278 44.4684 231.741 44.9298C232.204 45.3911 232.572 45.9392 232.823 46.5427C233.073 47.1461 233.202 47.793 233.202 48.4463Z" fill="#4C4C78"/>
<path d="M141.668 40.9974C142.956 40.9974 144 39.9545 144 38.668C144 37.3815 142.956 36.3386 141.668 36.3386C140.381 36.3386 139.336 37.3815 139.336 38.668C139.336 39.9545 140.381 40.9974 141.668 40.9974Z" fill="white"/>
<path d="M141.668 183.791C144.844 183.791 147.418 181.219 147.418 178.048C147.418 174.876 144.844 172.304 141.668 172.304C138.493 172.304 135.918 174.876 135.918 178.048C135.918 181.219 138.493 183.791 141.668 183.791Z" fill="white"/>
<path d="M88.8277 45.9641V160.507H55.1189C54.4659 160.507 53.8191 160.379 53.2157 160.129C52.6122 159.88 52.0639 159.514 51.6021 159.053C51.1403 158.592 50.7741 158.044 50.5243 157.441C50.2745 156.838 50.1462 156.192 50.1465 155.54V48.4463L50.3274 47.7716L50.8117 45.9641H88.8277Z" fill="white"/>
<path d="M93.1528 47.7717V58.0822H50.1465V48.4464L50.3274 47.7717H93.1528Z" fill="#4C4C78"/>
<path d="M233.202 48.4463H50.1465C50.1465 47.7941 50.2751 47.1484 50.525 46.5459C50.775 45.9434 51.1413 45.3961 51.603 44.9351C52.0648 44.4741 52.613 44.1084 53.2163 43.8591C53.8195 43.6098 54.4661 43.4816 55.1189 43.482H228.217C228.871 43.4799 229.519 43.6069 230.124 43.8554C230.728 44.104 231.278 44.4694 231.741 44.9306C232.204 45.3917 232.572 45.9397 232.823 46.543C233.073 47.1463 233.202 47.793 233.202 48.4463Z" fill="#C8CAD7"/>
<path d="M55.1197 47.2066C55.8066 47.2066 56.3635 46.6504 56.3635 45.9643C56.3635 45.2781 55.8066 44.7219 55.1197 44.7219C54.4328 44.7219 53.876 45.2781 53.876 45.9643C53.876 46.6504 54.4328 47.2066 55.1197 47.2066Z" fill="#EDEDF4"/>
<path d="M58.8487 47.2066C59.5356 47.2066 60.0925 46.6504 60.0925 45.9643C60.0925 45.2781 59.5356 44.7219 58.8487 44.7219C58.1618 44.7219 57.605 45.2781 57.605 45.9643C57.605 46.6504 58.1618 47.2066 58.8487 47.2066Z" fill="#EDEDF4"/>
<path d="M62.5787 47.2066C63.2656 47.2066 63.8225 46.6504 63.8225 45.9643C63.8225 45.2781 63.2656 44.7219 62.5787 44.7219C61.8918 44.7219 61.335 45.2781 61.335 45.9643C61.335 46.6504 61.8918 47.2066 62.5787 47.2066Z" fill="#EDEDF4"/>
<path d="M82.4009 52.3108H56.5752V54.686H82.4009V52.3108Z" fill="#EF4744"/>
<path opacity="0.5" d="M82.4009 63.8943H56.5752V66.2695H82.4009V63.8943Z" fill="#EF4744"/>
<path opacity="0.5" d="M82.4009 72.084H56.5752V74.4592H82.4009V72.084Z" fill="#EF4744"/>
<path opacity="0.5" d="M82.4009 80.2737H56.5752V82.6489H82.4009V80.2737Z" fill="#EF4744"/>
<path opacity="0.5" d="M82.4009 88.4612H56.5752V90.8364H82.4009V88.4612Z" fill="#EF4744"/>
<path opacity="0.5" d="M82.4009 96.6509H56.5752V99.0261H82.4009V96.6509Z" fill="#EF4744"/>
<path opacity="0.5" d="M82.4009 104.841H56.5752V107.216H82.4009V104.841Z" fill="#EF4744"/>
<path opacity="0.5" d="M82.4009 113.028H56.5752V115.403H82.4009V113.028Z" fill="#EF4744"/>
<path opacity="0.5" d="M224.412 61.0454H109.974V61.4273H224.412V61.0454Z" fill="#DCE0ED"/>
<path opacity="0.5" d="M224.412 69.9124H109.974V70.2942H224.412V69.9124Z" fill="#DCE0ED"/>
<path opacity="0.5" d="M224.412 78.782H109.974V79.1638H224.412V78.782Z" fill="#DCE0ED"/>
<path opacity="0.5" d="M224.412 87.6489H109.974V88.0308H224.412V87.6489Z" fill="#DCE0ED"/>
<path opacity="0.5" d="M224.412 96.5161H109.974V96.898H224.412V96.5161Z" fill="#DCE0ED"/>
<path opacity="0.5" d="M224.412 96.8953H109.832V79.4566L120.34 84.6297L131.215 86.1011L140.757 83.227L152.269 74.3091L158.06 70.969L162.293 70.1543L166.343 70.3707L173.005 73.6573L182.058 79.4184L189.164 80.3324L194.799 78.3925L206.74 68.6218L212.836 66.4502L219.215 67.4354L224.412 70.4318V96.8953Z" fill="#EF4744"/>
<path d="M129.803 86.1063C119.486 86.1063 109.949 79.803 109.832 79.7215L110.114 79.2989C110.262 79.3982 124.938 89.0976 137.408 84.2377C141.96 82.4684 145.192 79.7113 148.332 77.0484C151.602 74.2659 154.691 71.6361 158.899 70.4956C163.741 69.1896 169.004 70.3734 173.013 73.6625C176.439 76.4756 183.264 80.9944 190.474 79.6426C194.149 78.9552 197.248 76.2719 200.529 73.4334C206.809 67.9854 213.323 62.3618 224.56 70.437L224.262 70.8494C213.341 63.0109 206.992 68.5048 200.855 73.8178C197.521 76.7047 194.371 79.4185 190.561 80.1441C183.144 81.5315 176.176 76.9262 172.682 74.0571C168.8 70.8698 163.695 69.7293 159.026 70.9894C154.925 72.0994 151.89 74.691 148.655 77.4354C145.493 80.1263 142.22 82.9114 137.594 84.7138C135.107 85.6583 132.464 86.1306 129.803 86.1063Z" fill="#EF4744"/>
<path d="M165.038 72.9369C166.605 72.9369 167.875 71.6684 167.875 70.1035C167.875 68.5386 166.605 67.27 165.038 67.27C163.471 67.27 162.201 68.5386 162.201 70.1035C162.201 71.6684 163.471 72.9369 165.038 72.9369Z" fill="#EF4744"/>
<path d="M93.9493 131.678C90.0727 129.448 88.5971 128.896 88.5971 128.893L88.518 128.837C88.0946 128.513 87.7583 128.089 87.5394 127.603C87.5394 127.514 87.5394 127.424 87.5394 127.348V127.374C87.6031 126.192 88.4416 125.121 89.2393 124.184C89.919 123.384 90.5986 122.586 91.2783 121.788C91.5125 121.546 91.6916 121.256 91.8033 120.938C91.8448 120.771 91.8637 120.6 91.8594 120.429C91.8594 120.357 91.8594 120.289 91.8594 120.22C91.8594 119.624 91.8313 119.028 91.8109 118.438C91.7905 117.916 91.658 117.262 91.1355 117.165C90.8654 117.109 90.5086 117.206 90.3709 116.974C90.3209 116.879 90.3081 116.769 90.3352 116.666C90.3352 116.666 90.3352 116.681 90.3352 116.689C90.3343 116.68 90.3343 116.67 90.3352 116.661C90.4357 116.259 90.5006 115.849 90.5289 115.436C90.5381 115.227 90.5096 115.017 90.4448 114.818C90.1415 113.955 89.1042 113.601 88.1867 113.438C87.2692 113.275 86.2395 113.135 85.6635 112.42C85.5056 112.181 85.3354 111.951 85.1538 111.73C84.8869 111.495 84.5624 111.335 84.2133 111.266C83.0751 110.985 81.8753 111.089 80.8032 111.564C80.3597 111.763 79.9137 112.028 79.4269 112C78.9401 111.972 78.489 111.618 77.9895 111.534C77.1841 111.396 76.4119 111.989 76.0143 112.689C75.7785 113.105 75.653 113.574 75.6498 114.051C75.6498 114.077 75.6498 114.105 75.6498 114.13C75.6397 114.644 75.8277 115.142 76.1748 115.52C76.5214 115.882 77.0388 116.129 77.1943 116.602C77.2529 116.796 77.2402 117.005 77.2911 117.198C77.2911 117.224 77.3064 117.246 77.3141 117.272L77.286 117.305C76.4582 118.369 76.0097 119.679 76.0117 121.027C76.0197 122.336 76.4437 123.608 77.2224 124.66C78.0011 125.713 79.0944 126.491 80.3445 126.882C80.3445 126.941 80.3445 127.002 80.3445 127.066C80.3617 127.448 80.2955 127.829 80.1502 128.183C80.005 128.537 79.7842 128.855 79.5034 129.115L74.0034 131.32C74.0034 131.32 70.6901 130.927 69.4973 135.762C69.3061 136.564 69.2374 137.391 69.2934 138.214C69.3367 138.944 69.2348 140.227 68.3861 141.887C67.0276 144.545 67.336 150.642 70.1141 151.245C72.7367 151.816 73.7638 151.579 73.8708 151.551V151.658C73.8275 152.803 73.4121 162.671 71.9007 163.878C71.4802 164.206 71.5592 164.43 71.9007 164.58C71.9007 164.58 71.9007 164.644 71.9007 164.758C71.8548 165.482 71.6204 168.228 70.6085 169.794C69.4463 171.599 69.5789 182.037 69.5789 182.037L68.7786 188.195C68.7786 188.195 69.2705 191.998 68.7786 192.663C68.3377 193.256 67.7591 207.329 67.6266 210.379H67.5756C67.3336 210.394 67.0989 210.467 66.8918 210.593C66.6848 210.719 66.5118 210.894 66.3879 211.102C65.7304 212.156 63.4621 214.098 63.4621 214.098C62.9702 214.799 61.1453 215.468 60.1819 215.784C60.053 215.825 59.9284 215.879 59.8098 215.944C59.4491 216.14 59.1593 216.445 58.9815 216.815C58.9188 216.924 58.8789 217.044 58.864 217.169C58.8491 217.293 58.8596 217.42 58.8948 217.54C59.1497 218.144 64.2649 218.559 65.5596 217.963C66.5791 217.489 70.6162 216.863 72.2932 216.619C72.5975 216.58 72.8804 216.442 73.0973 216.225C73.3142 216.009 73.4527 215.726 73.4911 215.422C73.5072 215.317 73.5019 215.21 73.4756 215.108C73.4493 215.005 73.4026 214.908 73.3382 214.824C73.017 214.427 72.8514 213.342 72.7774 212.635C72.9136 212.579 73.0407 212.503 73.1547 212.411C73.0171 210.216 73.332 208.017 74.0798 205.949C75.3134 202.691 75.6855 196.652 75.3771 192.727C75.3771 192.727 79.1415 176.543 82.1056 175.033C82.1515 175.089 83.5889 176.932 83.7724 182.64C83.9559 188.437 86.0535 192.24 86.0535 192.24C86.0535 192.24 85.1283 202.082 86.0535 205.766L84.8378 211.568C84.7871 211.526 84.7386 211.482 84.6925 211.436C84.6925 211.436 84.7282 211.598 84.7791 211.856L84.7537 211.978L84.8046 211.991C84.9423 212.716 85.1461 213.981 85.0595 214.725C85.0111 215.15 84.8938 215.728 84.8046 216.298C84.6772 217.192 84.6415 218.06 85.113 218.248C85.8776 218.559 90.4219 218.984 91.1941 217.994C91.3672 217.791 91.4799 217.543 91.5196 217.28C91.5592 217.016 91.5242 216.746 91.4184 216.502C91.3624 216.365 91.2869 216.237 91.1941 216.122C91.1941 216.122 89.9886 214.154 90.3302 212.767C90.3614 212.632 90.3647 212.491 90.3397 212.355C90.3147 212.218 90.262 212.088 90.1849 211.973C90.3616 209.776 90.7154 207.598 91.2426 205.458C92.0072 202.553 93.6434 196.184 92.4455 191.993C92.3997 191.83 92.3487 191.668 92.2926 191.51C91.6006 189.223 91.3694 186.822 91.6121 184.445C91.1663 182.416 91.1663 180.315 91.6121 178.287C92.3462 174.909 92.8635 171.599 92.8635 171.599C92.8635 171.599 93.2713 167.131 92.9145 164.392L92.8916 164.216L93.0853 164.173C93.0853 164.173 92.0378 159.524 91.6657 156.566C91.579 155.866 91.4643 154.983 91.3394 154.038C91.6811 153.98 92.0177 153.894 92.3461 153.784C95.6798 152.635 96.7273 142.249 96.7273 142.249V138.954C96.7273 138.954 97.8385 133.921 93.9493 131.678ZM69.1176 211.871L68.9544 211.784L69.1176 211.871Z" fill="url(#paint0_linear)"/>
<path d="M91.9385 191.609C93.3836 195.761 91.6837 202.5 90.9191 205.509C90.4042 207.685 90.0633 209.898 89.8996 212.128C88.1408 212.424 86.3416 212.383 84.5984 212.006L85.8727 205.809C84.9705 202.138 85.8727 192.329 85.8727 192.329C85.8727 192.329 83.8338 188.536 83.6451 182.76C83.4667 177.075 82.065 175.237 82.0191 175.178C79.106 176.691 75.441 192.813 75.441 192.813C75.7417 196.723 75.3798 202.742 74.1666 205.993C73.4354 208.056 73.1277 210.246 73.2619 212.431C72.8413 212.785 72.2551 212.846 71.6231 212.744C69.9027 212.467 67.8408 210.985 67.8408 210.985C67.8408 210.985 68.5035 193.419 68.9852 192.752C69.4669 192.085 68.9852 188.299 68.9852 188.299L69.7676 182.161C69.7676 182.161 69.6478 171.752 70.7871 169.942C71.776 168.381 72.0028 165.642 72.0487 164.924C72.0487 164.809 72.0487 164.746 72.0487 164.746L73.792 162.661C73.792 162.661 90.6616 161.388 91.9258 162.661C92.2367 162.971 92.4355 163.679 92.5426 164.565C92.8892 167.294 92.4916 171.747 92.4916 171.747C92.4916 171.747 91.9819 175.056 91.2631 178.424C90.8281 180.447 90.8281 182.539 91.2631 184.562C91.0277 186.933 91.2571 189.326 91.9385 191.609Z" fill="#65617D"/>
<path d="M90.8831 217.996C90.1313 218.989 85.7042 218.569 84.9498 218.25C84.4885 218.06 84.5242 217.197 84.6491 216.305C84.7281 215.738 84.8428 215.16 84.8887 214.74C85.011 213.655 84.5293 211.458 84.5293 211.458C84.5293 211.458 85.5233 212.512 85.7629 211.458C85.8183 211.257 85.9275 211.075 86.0789 210.932C86.2302 210.788 86.4179 210.689 86.6218 210.644C87.1382 210.488 87.6934 210.522 88.1866 210.74C88.9691 211.079 90.274 211.802 90.0395 212.777C89.7082 214.159 90.8831 216.12 90.8831 216.12C90.9743 216.235 91.0481 216.363 91.1023 216.499C91.208 216.744 91.2435 217.014 91.2048 217.278C91.1661 217.543 91.0547 217.791 90.8831 217.996Z" fill="#A27772"/>
<path opacity="0.1" d="M90.8818 217.996C90.13 218.989 85.7029 218.569 84.9485 218.251C84.4872 218.06 84.5229 217.197 84.6478 216.306C85.1218 216.527 85.9221 216.713 87.278 216.588C87.593 216.558 87.9097 216.548 88.2261 216.558C89.1846 216.603 90.145 216.584 91.101 216.502C91.2062 216.747 91.2414 217.016 91.2027 217.28C91.164 217.544 91.0529 217.792 90.8818 217.996Z" fill="black"/>
<path opacity="0.1" d="M75.441 192.813C75.7417 196.723 75.3798 202.742 74.1666 205.992C73.4354 208.056 73.1277 210.246 73.2618 212.431C72.8413 212.785 72.2551 212.846 71.623 212.744C71.9875 210.198 73.5346 199.269 74.5285 190.631C75.6576 180.792 80.9435 174.022 80.9435 174.022L81.9987 175.181C79.106 176.69 75.441 192.813 75.441 192.813Z" fill="black"/>
<path d="M89.0748 129.568L88.3382 133.178L84.7369 139.227L80.2946 137.33C80.2946 137.33 74.2542 131.011 78.0492 130.11C78.5041 130.013 78.9338 129.822 79.3108 129.55C80.055 128.988 80.2895 128.173 80.2946 127.374C80.2646 126.478 80.0548 125.598 79.6778 124.784L87.4487 122.348C87.1273 123.368 86.9396 124.424 86.8905 125.492C86.8319 127.605 87.6169 128.649 88.2617 129.145C88.5018 129.339 88.7782 129.483 89.0748 129.568Z" fill="#FBBEBE"/>
<path opacity="0.1" d="M87.4506 122.348C87.1291 123.368 86.9415 124.424 86.8924 125.492C86.105 126.426 85.0568 127.103 83.8819 127.438C82.7069 127.773 81.4585 127.751 80.2965 127.374C80.2665 126.478 80.0567 125.598 79.6797 124.784L87.4506 122.348Z" fill="black"/>
<path d="M88.339 121.355C88.339 122.569 87.9786 123.756 87.3034 124.765C86.6282 125.775 85.6685 126.561 84.5457 127.026C83.4229 127.49 82.1874 127.612 80.9954 127.375C79.8034 127.138 78.7085 126.554 77.8491 125.695C76.9897 124.837 76.4045 123.743 76.1674 122.553C75.9303 121.362 76.052 120.128 76.5171 119.006C76.9822 117.885 77.7698 116.926 78.7803 116.252C79.7908 115.577 80.9788 115.217 82.1942 115.217C83.0017 115.215 83.8017 115.373 84.5481 115.68C85.2945 115.988 85.9727 116.44 86.5437 117.011C87.1147 117.581 87.5673 118.258 87.8754 119.004C88.1835 119.75 88.341 120.549 88.339 121.355Z" fill="#FBBEBE"/>
<path opacity="0.1" d="M89.0748 129.568L88.3382 133.178L84.7369 139.227L80.2946 137.33C80.2946 137.33 74.2542 131.011 78.0492 130.11C78.5041 130.013 78.9338 129.822 79.3108 129.55C78.6252 131.431 81.4542 135.344 81.4542 135.344C81.783 135.828 82.54 135.525 82.54 135.525C84.3597 135.25 87.7163 130.016 88.2617 129.145C88.5018 129.339 88.7782 129.483 89.0748 129.568Z" fill="black"/>
<path opacity="0.1" d="M92.5547 164.57C91.4843 164.824 85.5663 166.12 83.3234 165.794C80.8538 165.433 76.0495 165.194 76.0495 165.194C76.0495 165.194 72.9911 165.357 72.0532 164.939C72.0532 164.824 72.0532 164.761 72.0532 164.761L73.7965 162.676C73.7965 162.676 90.6662 161.403 91.9303 162.676C92.2616 162.976 92.44 163.681 92.5547 164.57Z" fill="black"/>
<path d="M81.4566 135.525C81.4566 135.525 78.2784 131.128 79.4763 129.415L74.1063 131.615C74.1063 131.615 70.8746 131.223 69.7098 136.039C69.5231 136.84 69.4553 137.665 69.5085 138.486C69.5518 139.211 69.4524 140.489 68.6241 142.144C67.2988 144.792 67.6046 150.871 70.3113 151.472C73.018 152.073 73.9865 151.772 73.9865 151.772C73.9865 151.772 73.6246 162.785 72.0597 164.048C70.4948 165.311 76.0534 165.01 76.0534 165.01C76.0534 165.01 80.8551 165.265 83.3248 165.614C85.7945 165.962 92.7218 164.341 92.7218 164.341C92.7218 164.341 91.7023 159.707 91.3353 156.759C90.9683 153.811 90.1323 147.533 90.1323 147.533L96.2772 139.219C96.2772 139.219 97.3603 134.194 93.5654 131.969C89.7704 129.744 88.3406 129.194 88.3406 129.194C88.3406 129.194 84.5176 135.398 82.5398 135.698C82.5398 135.703 81.7854 136.009 81.4566 135.525Z" fill="#FF748E"/>
<path opacity="0.1" d="M74.4063 137.271C74.4063 137.271 74.3477 139.257 74.7096 140.039C75.0715 140.82 76.3943 145.153 76.3943 145.153H73.3843C73.3843 145.153 75.0103 143.409 74.8905 142.567C74.7708 141.724 74.4063 137.271 74.4063 137.271Z" fill="black"/>
<path d="M83.3225 152.251C83.3225 152.251 76.6705 150.627 76.0512 149.245C75.4318 147.862 73.7217 144.761 73.7217 144.761L74.4226 143.817L77.6594 146.363C77.6594 146.363 81.5155 149.418 83.3225 149.733C85.1295 150.049 83.3225 152.251 83.3225 152.251Z" fill="#FBBEBE"/>
<path opacity="0.05" d="M83.3225 152.251C83.3225 152.251 76.6705 150.627 76.0512 149.245C75.4318 147.862 73.7217 144.761 73.7217 144.761L74.4226 143.817L77.6594 146.363C77.6594 146.363 81.5155 149.418 83.3225 149.733C85.1295 150.049 83.3225 152.251 83.3225 152.251Z" fill="black"/>
<path d="M89.0767 144.433V148.038H88.4956C85.6294 148.038 82.8103 148.766 80.3041 150.156L79.2184 150.756L78.9253 150.919L77.0571 146.719L78.8055 145.153H78.8947C79.3229 145.194 81.1707 145.347 81.9531 145.084C82.7356 144.822 83.6225 144.03 85.8118 144.591C86.8924 144.865 87.8125 146.075 88.8702 145.698L89.0767 144.433Z" fill="#FBBEBE"/>
<path opacity="0.1" d="M94.8889 137.872L96.0945 139.227V142.506C96.0945 142.506 95.075 152.857 91.8178 154C88.5606 155.143 82.7572 153.338 82.7572 153.338C82.7572 153.338 81.256 149.367 81.9569 149.125C82.6578 148.883 88.1604 147.434 88.1604 147.434C88.1604 147.434 88.0814 141.363 89.2869 139.558C89.2869 139.558 88.5045 133.901 91.2137 133.781C93.923 133.662 94.8889 137.872 94.8889 137.872Z" fill="black"/>
<path d="M95.0666 137.872L96.2722 139.227V142.506C96.2722 142.506 95.2527 152.857 91.9929 154C88.7332 155.143 82.9349 153.338 82.9349 153.338C82.9349 153.338 81.4338 149.367 82.1347 149.125C82.8356 148.883 88.3356 147.434 88.3356 147.434C88.3356 147.434 88.2591 141.363 89.4647 139.558C89.4647 139.558 88.6797 133.901 91.3915 133.781C94.1032 133.662 95.0666 137.872 95.0666 137.872Z" fill="#FF748E"/>
<path opacity="0.1" d="M86.6539 123.962C86.7076 123.566 86.6602 123.164 86.5163 122.791C86.4408 122.607 86.3062 122.453 86.1337 122.354C85.9612 122.254 85.7605 122.215 85.5631 122.241C85.0534 122.361 84.824 123.03 84.3194 123.191C83.8937 123.326 83.4273 123.025 83.2234 122.628C83.0528 122.214 82.9812 121.766 83.0144 121.32C83.0144 120.81 83.0144 120.314 83.0144 119.81C83.0144 119.263 82.9966 118.672 82.6576 118.242C82.2371 117.707 81.2508 117.478 80.5932 117.496C80.1544 117.5 79.7332 117.669 79.4132 117.969C79.2525 118.131 79.0576 118.255 78.8428 118.331C78.6281 118.408 78.3988 118.436 78.172 118.412C77.972 118.382 77.7847 118.295 77.6318 118.163C77.479 118.03 77.3667 117.857 77.308 117.664C77.3068 117.657 77.3068 117.65 77.308 117.644C77.8201 116.967 78.4668 116.404 79.2076 115.99C79.9483 115.576 80.7669 115.32 81.6117 115.237C82.4566 115.155 83.3093 115.248 84.1163 115.511C84.9232 115.775 85.6668 116.202 86.3001 116.767C86.9335 117.331 87.4429 118.021 87.7962 118.792C88.1495 119.563 88.339 120.398 88.3529 121.246C88.3667 122.094 88.2045 122.935 87.8766 123.717C87.5487 124.499 87.0621 125.205 86.4475 125.79C86.5493 125.185 86.6182 124.575 86.6539 123.962Z" fill="black"/>
<path d="M78.1692 118.232C77.9691 118.201 77.7817 118.114 77.6285 117.982C77.4753 117.849 77.3624 117.677 77.3027 117.483C77.2542 117.29 77.267 117.081 77.2084 116.89C77.0682 116.417 76.5636 116.17 76.2246 115.811C75.5466 115.093 75.59 113.909 76.0691 113.043C76.4591 112.346 77.2109 111.758 77.9985 111.893C78.4853 111.979 78.9058 112.325 79.4002 112.356C79.8947 112.387 80.3101 112.122 80.7434 111.923C81.7873 111.451 82.961 111.347 84.0719 111.628C84.4139 111.696 84.731 111.855 84.9895 112.089C85.1649 112.309 85.3283 112.538 85.4788 112.776C86.0395 113.491 87.0462 113.631 87.9408 113.794C88.8354 113.957 89.8498 114.304 90.1429 115.172C90.3391 115.742 90.1429 116.361 90.0384 116.954C89.9994 117.075 90.0076 117.207 90.0613 117.323C90.2015 117.554 90.5507 117.458 90.8259 117.511C91.3357 117.618 91.4631 118.275 91.4809 118.784C91.5047 119.375 91.5209 119.969 91.5294 120.566C91.5444 120.787 91.5272 121.009 91.4784 121.226C91.3684 121.534 91.1948 121.816 90.9687 122.053L88.9781 124.441C88.0963 125.5 87.1609 126.732 87.3368 128.099C86.9188 128.285 86.4244 127.926 86.2867 127.488C86.1491 127.05 86.2587 126.582 86.353 126.134C86.5133 125.359 86.6181 124.574 86.6665 123.784C86.7202 123.387 86.6729 122.984 86.5289 122.61C86.4529 122.426 86.3179 122.272 86.1449 122.173C85.972 122.073 85.7709 122.034 85.5731 122.061C85.0634 122.18 84.8366 122.85 84.3319 123.01C83.9063 123.148 83.4399 122.845 83.236 122.447C83.0665 122.033 82.995 121.585 83.027 121.139V119.629C83.027 119.082 83.0092 118.491 82.6702 118.061C82.2522 117.526 81.2633 117.297 80.6058 117.315C80.1669 117.32 79.7458 117.489 79.4257 117.789C79.2633 117.952 79.0659 118.077 78.8483 118.154C78.6307 118.231 78.3985 118.257 78.1692 118.232Z" fill="#7C5C5C"/>
<path opacity="0.1" d="M79.5581 137.121L81.4467 144.861C81.4467 144.861 82.9325 144.853 79.5581 137.121Z" fill="black"/>
<path opacity="0.1" d="M86.006 135.825C86.006 135.825 83.5338 139.868 84.4998 144.046L84.9585 144.079C84.9585 144.079 84.1379 142.144 86.006 135.825Z" fill="black"/>
<path opacity="0.1" d="M87.5703 158.695C87.5703 158.695 90.6032 157.691 90.825 160.018C90.825 160.018 90.2515 158.422 87.5703 158.695Z" fill="black"/>
<path opacity="0.1" d="M78.804 145.334C78.804 145.334 78.2025 149.547 79.2857 151.233C77.5861 151.831 75.7822 152.076 73.9845 151.953L73.6226 145.334H78.804Z" fill="black"/>
<path opacity="0.1" d="M79.2184 150.757L78.9253 150.92L77.0571 146.719L78.8055 145.153H78.8947C78.8667 145.357 78.3799 148.975 79.2184 150.757Z" fill="black"/>
<path d="M78.8052 145.153C78.8052 145.153 78.2037 149.367 79.2869 151.052C77.5873 151.65 75.7834 151.895 73.9857 151.772L71.8779 145.153H78.8052Z" fill="#FF748E"/>
<path d="M73.5923 215.435C73.5576 215.735 73.4238 216.015 73.2119 216.231C73.0001 216.447 72.7223 216.586 72.4225 216.626C70.7888 216.881 66.846 217.492 65.852 217.965C64.5776 218.569 59.5873 218.146 59.3452 217.545C59.3113 217.425 59.3014 217.298 59.3163 217.174C59.3312 217.049 59.3704 216.929 59.4319 216.82C59.5484 216.58 59.7121 216.367 59.9131 216.192C60.1141 216.017 60.3483 215.884 60.6017 215.802C61.5447 215.486 63.3237 214.821 63.8028 214.124C63.8028 214.124 66.0202 212.184 66.6523 211.138C66.7709 210.931 66.939 210.757 67.1413 210.632C67.3437 210.506 67.5741 210.432 67.8119 210.417C68.3395 210.392 68.9257 210.659 69.1678 211.812C69.1678 211.812 72.058 213.459 72.8404 212.016C72.8404 212.016 72.9602 214.233 73.4394 214.842C73.5028 214.926 73.5489 215.021 73.5752 215.123C73.6014 215.225 73.6072 215.331 73.5923 215.435Z" fill="#A27772"/>
<path opacity="0.1" d="M73.5923 215.435C73.5576 215.735 73.4237 216.015 73.2119 216.231C73 216.447 72.7223 216.586 72.4224 216.626C70.7887 216.881 66.8459 217.492 65.852 217.965C64.5776 218.569 59.5873 218.146 59.3452 217.545C59.3113 217.425 59.3014 217.298 59.3163 217.174C59.3312 217.049 59.3704 216.929 59.4319 216.82C59.6036 216.454 59.8863 216.151 60.2398 215.954C61.0554 216.494 62.8649 217.023 66.8459 216.402C70.6435 215.809 72.5218 215.229 73.4393 214.834C73.5037 214.919 73.5504 215.016 73.5767 215.119C73.603 215.222 73.6082 215.33 73.5923 215.435Z" fill="black"/>
<g opacity="0.1">
<path opacity="0.1" d="M90.0342 117.035C90.0355 117.025 90.0355 117.015 90.0342 117.004C90.1534 116.559 90.2159 116.101 90.2203 115.64C90.1819 116.008 90.1197 116.374 90.0342 116.735C90.0114 116.833 90.0114 116.936 90.0342 117.035Z" fill="black"/>
<path opacity="0.1" d="M86.5184 122.666C86.6128 122.883 86.6631 123.117 86.6662 123.354C86.6936 123.027 86.6429 122.699 86.5184 122.396C86.4424 122.212 86.3075 122.058 86.1346 121.958C85.9618 121.858 85.7606 121.818 85.5626 121.844C85.0529 121.964 84.826 122.636 84.3214 122.796C83.8958 122.931 83.4294 122.628 83.2255 122.231C83.0536 121.817 82.982 121.369 83.0165 120.922C83.0165 120.413 83.0165 119.917 83.0165 119.415C83.0165 118.868 82.9987 118.277 82.6597 117.847C82.2391 117.31 81.2528 117.083 80.5927 117.099C80.1542 117.104 79.7337 117.274 79.4152 117.575C79.2543 117.736 79.0593 117.859 78.8445 117.935C78.6298 118.011 78.4007 118.039 78.174 118.015C77.9733 117.985 77.7852 117.899 77.6318 117.767C77.4783 117.634 77.3658 117.461 77.3075 117.267C77.2565 117.073 77.2718 116.867 77.2132 116.674C77.073 116.2 76.5684 115.956 76.2294 115.597C75.9132 115.246 75.7324 114.795 75.7196 114.324C75.6955 114.602 75.7282 114.882 75.8158 115.147C75.9034 115.413 76.0441 115.657 76.2294 115.866C76.5684 116.225 77.073 116.472 77.2132 116.946C77.2718 117.137 77.2565 117.346 77.3075 117.539C77.3669 117.733 77.4797 117.905 77.633 118.038C77.7863 118.17 77.9738 118.257 78.174 118.288C78.4009 118.311 78.6301 118.283 78.8448 118.206C79.0596 118.13 79.2545 118.006 79.4152 117.845C79.7351 117.548 80.1537 117.38 80.5902 117.374C81.2503 117.353 82.2366 117.587 82.6571 118.122C82.9961 118.552 83.0114 119.14 83.0139 119.69C83.0139 120.199 83.0139 120.696 83.0139 121.197C82.9793 121.645 83.0509 122.094 83.2229 122.508C83.4268 122.906 83.8932 123.206 84.3189 123.071C84.8286 122.911 85.0452 122.241 85.5601 122.119C85.7578 122.093 85.9587 122.132 86.1318 122.231C86.305 122.33 86.4408 122.483 86.5184 122.666Z" fill="black"/>
<path opacity="0.1" d="M91.4713 121.009C91.3608 121.318 91.1872 121.6 90.9615 121.839C90.2955 122.633 89.632 123.428 88.971 124.224C88.1351 125.23 87.2481 126.393 87.3118 127.676C87.373 126.5 88.1937 125.431 88.971 124.497L90.9615 122.109C91.1871 121.871 91.3607 121.589 91.4713 121.281C91.5204 121.064 91.5375 120.841 91.5223 120.619C91.5209 120.751 91.5037 120.882 91.4713 121.009Z" fill="black"/>
<path opacity="0.1" d="M86.2763 127.274C86.2434 127.169 86.2229 127.061 86.2151 126.951C86.1984 127.151 86.2191 127.352 86.2763 127.544C86.4113 127.982 86.9083 128.341 87.3263 128.155C87.3263 128.066 87.3085 127.977 87.3059 127.9C86.893 128.066 86.4011 127.702 86.2763 127.274Z" fill="black"/>
</g>
<path opacity="0.1" d="M66.2656 211.675C66.2656 211.675 66.8951 212.78 69.1787 211.805L66.2656 211.675Z" fill="black"/>
<path opacity="0.1" d="M85.5474 211.939C85.5474 211.939 87.5175 214.254 89.9973 212.703L85.5474 211.939Z" fill="black"/>
<path opacity="0.1" d="M91.2769 184.567C91.2769 184.567 89.8853 185.435 89.8394 185.932C89.7935 186.428 90.5581 185.57 90.5581 185.57L91.2769 184.567Z" fill="black"/>
<path opacity="0.1" d="M91.8247 191.222C91.3418 191.625 90.7404 191.859 90.112 191.889C89.0721 191.935 89.1588 193.289 89.8393 192.882C90.5198 192.474 91.8247 191.222 91.8247 191.222Z" fill="black"/>
<path opacity="0.1" d="M92.0886 192.09C92.0886 192.09 91.4208 195.364 90.8779 194.732L92.0886 192.09Z" fill="black"/>
<g opacity="0.5">
<path opacity="0.5" d="M136.906 116.763H120.084V120.327H136.906V116.763Z" fill="#DCE0ED"/>
<path opacity="0.5" d="M175.53 116.763H158.709V120.327H175.53V116.763Z" fill="#DCE0ED"/>
<path opacity="0.5" d="M214.155 116.763H197.333V120.327H214.155V116.763Z" fill="#DCE0ED"/>
</g>
<path opacity="0.1" d="M242.819 205.15C246.61 205.15 249.683 204.631 249.683 203.992C249.683 203.352 246.61 202.833 242.819 202.833C239.028 202.833 235.956 203.352 235.956 203.992C235.956 204.631 239.028 205.15 242.819 205.15Z" fill="#EF4744"/>
<path opacity="0.1" d="M29.3665 219.776C33.1572 219.776 36.2301 219.257 36.2301 218.617C36.2301 217.978 33.1572 217.459 29.3665 217.459C25.5759 217.459 22.5029 217.978 22.5029 218.617C22.5029 219.257 25.5759 219.776 29.3665 219.776Z" fill="#EF4744"/>
<path d="M227.799 218.136C233.459 218.136 238.048 217.361 238.048 216.405C238.048 215.449 233.459 214.674 227.799 214.674C222.14 214.674 217.551 215.449 217.551 216.405C217.551 217.361 222.14 218.136 227.799 218.136Z" fill="#EF4744"/>
<path d="M232.032 213.576C232.5 213.196 232.84 212.682 233.008 212.102C233.136 211.517 232.886 210.817 232.328 210.603C231.701 210.364 231.03 210.796 230.521 211.237C230.011 211.677 229.432 212.174 228.767 212.082C229.109 211.772 229.364 211.379 229.509 210.942C229.653 210.504 229.682 210.037 229.593 209.585C229.564 209.397 229.485 209.221 229.363 209.076C229.014 208.704 228.385 208.862 227.967 209.154C226.642 210.086 226.272 211.884 226.264 213.503C226.132 212.92 226.244 212.311 226.241 211.721C226.239 211.13 226.073 210.448 225.569 210.135C225.255 209.967 224.904 209.885 224.549 209.895C223.953 209.872 223.287 209.931 222.882 210.366C222.372 210.908 222.508 211.815 222.946 212.403C223.384 212.991 224.057 213.37 224.671 213.783C225.165 214.077 225.586 214.478 225.905 214.956C225.941 215.024 225.971 215.095 225.994 215.168H229.73C230.565 214.742 231.339 214.207 232.032 213.576Z" fill="#EF4744"/>
<path d="M29.6787 201.433C29.6787 201.433 31.0805 203.264 29.0339 206.016C26.9873 208.768 25.3001 211.107 25.9755 212.831C25.9755 212.831 29.0645 207.701 31.5826 207.63C34.1006 207.558 32.444 204.519 29.6787 201.433Z" fill="#EF4744"/>
<path opacity="0.1" d="M29.6802 201.433C29.8029 201.61 29.8998 201.804 29.9682 202.008C32.4201 204.885 33.725 207.571 31.3675 207.637C29.1731 207.701 26.5403 211.621 25.9082 212.612C25.929 212.688 25.9537 212.764 25.9821 212.838C25.9821 212.838 29.0711 207.708 31.5892 207.637C34.1073 207.566 32.4456 204.519 29.6802 201.433Z" fill="black"/>
<path d="M32.2826 203.765C32.2826 204.409 32.2112 204.931 32.122 204.931C32.0328 204.931 31.9614 204.422 31.9614 203.765C31.9614 203.108 32.0506 203.424 32.1398 203.424C32.229 203.424 32.2826 203.121 32.2826 203.765Z" fill="#FFD037"/>
<path d="M33.1755 204.534C32.6097 204.842 32.1153 205.028 32.0745 204.949C32.0337 204.87 32.4543 204.557 33.0201 204.249C33.5859 203.941 33.3641 204.165 33.4049 204.249C33.4457 204.333 33.7413 204.226 33.1755 204.534Z" fill="#FFD037"/>
<path d="M22.2866 201.433C22.2866 201.433 20.8848 203.264 22.9314 206.016C24.978 208.768 26.6652 211.107 25.9898 212.831C25.9898 212.831 22.9033 207.701 20.3827 207.63C17.8621 207.558 19.5213 204.519 22.2866 201.433Z" fill="#EF4744"/>
<path opacity="0.1" d="M22.2848 201.433C22.1622 201.61 22.0652 201.804 21.9968 202.008C19.545 204.885 18.24 207.571 20.5976 207.637C22.792 207.701 25.4247 211.621 26.0568 212.612C26.0363 212.689 26.0108 212.764 25.9804 212.838C25.9804 212.838 22.8939 207.708 20.3733 207.637C17.8526 207.566 19.5195 204.519 22.2848 201.433Z" fill="black"/>
<path d="M19.6821 203.765C19.6821 204.409 19.756 204.931 19.8452 204.931C19.9344 204.931 20.0058 204.422 20.0058 203.765C20.0058 203.108 19.9166 203.424 19.8274 203.424C19.7382 203.424 19.6821 203.121 19.6821 203.765Z" fill="#FFD037"/>
<path d="M18.7883 204.534C19.3541 204.842 19.846 205.028 19.8893 204.949C19.9326 204.87 19.5095 204.557 18.9437 204.249C18.3779 203.941 18.5997 204.165 18.5563 204.249C18.513 204.333 18.2225 204.226 18.7883 204.534Z" fill="#FFD037"/>
<path d="M20.1343 212.599C20.1343 212.599 24.049 212.477 25.2316 211.639C26.4142 210.801 31.2541 209.796 31.5472 211.143C31.8403 212.489 37.4296 217.835 33.0102 217.871C28.5908 217.907 22.7416 217.184 21.5641 216.468C20.3866 215.753 20.1343 212.599 20.1343 212.599Z" fill="#A8A8A8"/>
<path opacity="0.2" d="M33.0803 217.403C28.6609 217.438 22.8091 216.715 21.6316 216C20.7371 215.453 20.3777 213.495 20.2605 212.594H20.1279C20.1279 212.594 20.3828 215.745 21.5552 216.463C22.7276 217.181 28.5819 217.902 33.0013 217.866C34.2756 217.866 34.7165 217.403 34.6936 216.731C34.5152 217.143 34.0284 217.395 33.0803 217.403Z" fill="black"/>
<path d="M118.896 141.653C118.896 136.449 123.135 132.452 128.347 132.452H128.421V130.085H128.347C121.827 130.085 116.526 135.143 116.526 141.653C116.526 143.337 116.887 145.001 117.586 146.534C118.284 148.067 119.304 149.432 120.576 150.538L122.255 148.86C121.203 147.976 120.357 146.873 119.777 145.628C119.197 144.383 118.896 143.026 118.896 141.653Z" fill="#EF4744"/>
<path opacity="0.5" d="M128.657 130.087V132.455C130.175 132.465 131.668 132.84 133.01 133.549C134.351 134.257 135.503 135.279 136.366 136.526C137.229 137.773 137.778 139.209 137.968 140.713C138.158 142.218 137.981 143.745 137.455 145.167C136.928 146.589 136.066 147.863 134.942 148.882C133.818 149.9 132.464 150.634 130.996 151.019C129.528 151.405 127.989 151.431 126.509 151.097C125.028 150.762 123.651 150.076 122.492 149.097L120.807 150.774C122.243 152.028 123.961 152.916 125.814 153.363C127.668 153.809 129.602 153.801 131.452 153.339C133.302 152.877 135.012 151.974 136.437 150.708C137.862 149.443 138.959 147.851 139.634 146.07C140.309 144.289 140.543 142.371 140.316 140.48C140.088 138.589 139.405 136.781 138.326 135.211C137.247 133.64 135.804 132.354 134.119 131.462C132.435 130.57 130.559 130.098 128.652 130.087H128.657Z" fill="#EF4744"/>
<path opacity="0.5" d="M206.138 132.333C211.347 132.333 215.348 136.566 215.348 141.772C215.348 141.795 215.348 141.821 215.348 141.846H217.719C217.719 141.821 217.719 141.795 217.719 141.772C217.719 135.263 212.654 129.965 206.138 129.965C204.451 129.965 202.785 130.325 201.251 131.023C199.716 131.721 198.349 132.74 197.243 134.01L198.922 135.688C199.807 134.637 200.912 133.792 202.158 133.213C203.405 132.633 204.763 132.333 206.138 132.333Z" fill="#EF4744"/>
<path d="M217.716 142.083H215.346C215.336 143.599 214.96 145.09 214.251 146.431C213.541 147.771 212.519 148.921 211.271 149.783C210.022 150.645 208.584 151.194 207.078 151.383C205.572 151.573 204.043 151.397 202.619 150.871C201.196 150.345 199.92 149.484 198.9 148.361C197.881 147.238 197.147 145.886 196.761 144.42C196.375 142.953 196.348 141.416 196.683 139.937C197.018 138.459 197.705 137.082 198.685 135.925L197.013 134.247C195.758 135.681 194.869 137.397 194.422 139.248C193.975 141.1 193.983 143.032 194.446 144.88C194.909 146.728 195.812 148.436 197.079 149.859C198.347 151.282 199.94 152.378 201.723 153.053C203.506 153.727 205.426 153.961 207.319 153.733C209.213 153.506 211.023 152.824 212.595 151.746C214.167 150.669 215.454 149.227 216.348 147.544C217.241 145.861 217.713 143.988 217.724 142.083H217.716Z" fill="#EF4744"/>
<path opacity="0.5" d="M171.782 130.78L171.31 133.137C174.779 134.535 176.996 137.931 176.996 141.89C176.997 143.591 176.537 145.26 175.666 146.722C174.794 148.184 173.543 149.383 172.045 150.192C170.547 151.002 168.858 151.392 167.157 151.322C165.455 151.251 163.804 150.722 162.379 149.791C160.953 148.861 159.806 147.562 159.059 146.033C158.311 144.505 157.992 142.803 158.133 141.107C158.275 139.412 158.873 137.787 159.863 136.403C160.854 135.019 162.201 133.929 163.761 133.247L162.711 131.121C160.774 131.992 159.108 133.368 157.888 135.105C156.668 136.842 155.94 138.876 155.779 140.992C155.619 143.107 156.032 145.227 156.976 147.128C157.92 149.029 159.36 150.64 161.144 151.793C162.927 152.945 164.989 153.596 167.111 153.677C169.234 153.758 171.339 153.265 173.206 152.252C175.072 151.238 176.63 149.741 177.716 147.917C178.802 146.094 179.376 144.011 179.377 141.89C179.377 136.78 176.349 132.422 171.782 130.78Z" fill="#EF4744"/>
<path d="M167.853 132.315C168.985 132.314 170.105 132.547 171.143 132.997L171.615 130.642C170.415 130.181 169.139 129.945 167.853 129.947C166.183 129.947 164.533 130.302 163.011 130.988L164.071 133.109C165.263 132.584 166.551 132.314 167.853 132.315Z" fill="#EF4744"/>
<defs>
<linearGradient id="paint0_linear" x1="77.862" y1="218.617" x2="77.862" y2="111.103" gradientUnits="userSpaceOnUse">
<stop stop-color="#808080" stop-opacity="0.25"/>
<stop offset="0.54" stop-color="#808080" stop-opacity="0.12"/>
<stop offset="1" stop-color="#808080" stop-opacity="0.1"/>
</linearGradient>
</defs>
</svg>
