<svg width="203" height="150" viewBox="0 0 203 150" fill="none" xmlns="http://www.w3.org/2000/svg">
<g clip-path="url(#clip0)">
<path d="M176.824 150C191.28 150 203 148.483 203 146.612C203 144.741 191.28 143.224 176.824 143.224C162.367 143.224 150.647 144.741 150.647 146.612C150.647 148.483 162.367 150 176.824 150Z" fill="#3F3D56"/>
<path d="M79.025 4.97119H0V54.1396H79.025V4.97119Z" fill="#F2F2F2"/>
<path d="M84.0104 0.180664H4.98535V49.3491H84.0104V0.180664Z" stroke="#3F3D56" stroke-width="2" stroke-miterlimit="10"/>
<path d="M56.6357 36.6898C59.0184 34.3135 60.6411 31.2858 61.2985 27.9896C61.9559 24.6935 61.6185 21.277 60.329 18.1721C59.0394 15.0672 56.8557 12.4134 54.0539 10.5463C51.2521 8.67919 47.9581 7.68262 44.5884 7.68262V24.6747L56.6357 36.6898Z" fill="#3F3D56"/>
<path d="M44.5878 7.68262C40.8009 7.68307 37.1221 8.94161 34.1323 11.2595C31.1425 13.5774 29.012 16.8225 28.0774 20.4825C27.1428 24.1424 27.4573 28.0085 28.9711 31.4704C30.485 34.9322 33.112 37.7925 36.4374 39.5995L44.5878 24.6746V7.68262Z" fill="#EF4744"/>
<path d="M56.6348 36.6897L44.5875 24.6746L36.437 39.5994C39.6678 41.3525 43.3805 42.0164 47.0207 41.492C50.6609 40.9676 54.0335 39.283 56.6348 36.6897Z" fill="#575A89"/>
<path d="M11.2376 39.1357H7.9751V42.3895H11.2376V39.1357Z" fill="#EF4744"/>
<path d="M15.95 39.1357H12.6875V42.3895H15.95V39.1357Z" fill="#3F3D56"/>
<path d="M20.6624 39.1357H17.3999V42.3895H20.6624V39.1357Z" fill="#575A89"/>
<path d="M77.7558 39.8589H64.3433V40.4012H77.7558V39.8589Z" fill="#3F3D56"/>
<path d="M77.7558 41.4858H64.3433V42.0281H77.7558V41.4858Z" fill="#3F3D56"/>
<path d="M77.7558 43.1128H64.3433V43.6551H77.7558V43.1128Z" fill="#3F3D56"/>
<path d="M69.7811 73.4814H24.8311V122.65H69.7811V73.4814Z" fill="#F2F2F2"/>
<path d="M74.3113 68.7817H29.3613V117.95H74.3113V68.7817Z" stroke="#3F3D56" stroke-width="2" stroke-miterlimit="10"/>
<path d="M34.1423 112.403H31.7188V114.82H34.1423V112.403Z" fill="#EF4744"/>
<path d="M37.6433 112.403H35.2197V114.82H37.6433V112.403Z" fill="#3F3D56"/>
<path d="M41.1438 112.403H38.7202V114.82H41.1438V112.403Z" fill="#575A89"/>
<path d="M68.3322 113.453H58.9072V113.834H68.3322V113.453Z" fill="#3F3D56"/>
<path d="M68.3322 114.596H58.9072V114.977H68.3322V114.596Z" fill="#3F3D56"/>
<path d="M68.3322 115.739H58.9072V116.12H68.3322V115.739Z" fill="#3F3D56"/>
<path d="M51.8374 77.4583V81.4351C54.2034 81.4351 56.5162 82.1348 58.4834 83.4458C60.4506 84.7567 61.9839 86.62 62.8893 88.8C63.7947 90.9801 64.0316 93.3789 63.57 95.6932C63.1085 98.0075 61.9691 100.133 60.2962 101.802L63.1157 104.614C65.3464 102.389 66.8655 99.5548 67.4809 96.4691C68.0963 93.3833 67.7805 90.1849 66.5733 87.2782C65.366 84.3715 63.3217 81.8871 60.6987 80.1391C58.0758 78.3912 54.992 77.4583 51.8374 77.4583Z" fill="#3F3D56"/>
<path d="M63.1154 104.614L60.2958 101.802C58.2506 103.842 55.5333 105.074 52.6473 105.269C49.7613 105.464 46.9021 104.61 44.5995 102.863L42.186 106.031C45.2567 108.358 49.069 109.497 52.917 109.237C56.7651 108.976 60.3882 107.334 63.1154 104.614Z" fill="#575A89"/>
<path d="M39.8747 93.3657C39.8747 90.2015 41.135 87.1669 43.3784 84.9295C45.6219 82.6921 48.6646 81.4351 51.8372 81.4351V77.4583C48.4983 77.4582 45.2435 78.5032 42.5317 80.446C39.8199 82.3888 37.7878 85.1314 36.7218 88.2872C35.6559 91.443 35.6098 94.8528 36.5902 98.0361C37.5706 101.219 39.5279 104.016 42.1862 106.03L44.5997 102.863C43.1302 101.752 41.9389 100.316 41.1191 98.6678C40.2993 97.02 39.8734 95.2052 39.8747 93.3657Z" fill="#EF4744"/>
<path d="M168.858 25.4869C168.858 25.4869 168.118 30.966 170.02 31.5982C171.921 32.2304 171.393 37.0774 171.393 37.0774L165.688 41.3975L160.617 41.8189L159.349 35.2861L160.089 33.6002C160.089 33.6002 162.941 30.2284 160.934 26.7513C158.927 23.2742 168.858 25.4869 168.858 25.4869Z" fill="#FFB9B9"/>
<path opacity="0.1" d="M168.858 25.4869C168.858 25.4869 168.118 30.966 170.02 31.5982C171.921 32.2304 171.393 37.0774 171.393 37.0774L165.688 41.3975L160.617 41.8189L159.349 35.2861L160.089 33.6002C160.089 33.6002 162.941 30.2284 160.934 26.7513C158.927 23.2742 168.858 25.4869 168.858 25.4869Z" fill="black"/>
<path d="M163.575 68.1608L156.919 83.7552C156.919 83.7552 151.743 80.8049 148.679 81.121C145.615 81.4371 141.812 77.7493 141.812 77.7493L145.615 59.4152L152.693 39.9221L162.519 46.1388L163.575 68.1608Z" fill="#575A89"/>
<path opacity="0.1" d="M163.575 68.1608L156.919 83.7552C156.919 83.7552 151.743 80.8049 148.679 81.121C145.615 81.4371 141.812 77.7493 141.812 77.7493L145.615 59.4152L152.693 39.9221L162.519 46.1388L163.575 68.1608Z" fill="black"/>
<path d="M174.033 134.437V139.495H169.279L170.019 133.594L174.033 134.437Z" fill="#575A89"/>
<path d="M186.394 125.692L189.881 127.799L187.345 133.594L184.704 133.278L182.168 129.696L186.394 125.692Z" fill="#575A89"/>
<path d="M174.985 66.6858L181.219 81.3319C181.219 81.3319 179 97.5586 179.106 98.9284C179.211 100.298 179.317 100.825 178.789 101.984C178.261 103.143 178.049 103.881 178.366 105.25C178.683 106.62 178.789 107.147 178.577 107.674C178.366 108.201 176.887 129.907 176.148 131.382C175.408 132.857 176.57 135.28 175.831 135.491C175.091 135.702 169.597 135.175 169.28 133.911C168.963 132.646 170.337 129.59 169.597 128.642C168.858 127.694 169.703 93.5546 168.646 91.2365C167.59 88.9184 155.968 86.8111 155.968 86.8111C155.968 86.8111 154.912 80.0675 155.546 79.0139C156.18 77.9602 157.025 71.322 157.025 71.322L174.985 66.6858Z" fill="#2F2E41"/>
<path d="M168.858 138.652C168.858 138.652 171.816 135.175 174.351 138.652C174.351 138.652 174.563 142.761 176.359 143.604C178.155 144.447 177.31 147.819 174.774 147.924C172.238 148.03 168.963 148.451 168.858 147.082C168.752 145.712 169.28 144.869 168.329 144.447C167.378 144.026 168.329 141.602 168.329 141.602L168.858 138.652Z" fill="#2F2E41"/>
<path d="M169.174 88.2863C169.174 88.2863 169.068 95.8728 168.329 96.9264C167.589 97.9801 167.167 98.6123 167.589 99.7714C168.012 100.93 168.646 103.038 168.329 103.459C168.012 103.881 168.646 106.093 168.646 106.093C168.646 106.093 176.781 109.992 180.584 118.105C180.584 118.105 184.493 124.533 185.655 124.638C186.818 124.744 188.191 123.901 187.557 126.324C186.923 128.748 184.493 131.909 182.697 131.593C180.901 131.276 179.528 128.221 179.528 128.221C179.528 128.221 165.476 113.996 163.997 113.575C162.518 113.153 158.292 109.781 157.553 107.674C156.813 105.567 155.228 87.9702 155.968 86.8111C156.707 85.6521 159.454 84.0715 159.454 84.0715L169.174 88.2863Z" fill="#2F2E41"/>
<path d="M187.45 125.271C187.45 125.271 194 125.481 194.106 127.062C194.212 128.642 191.359 138.02 191.782 140.233C192.204 142.445 188.507 147.503 186.077 146.449C183.647 145.396 185.548 139.917 185.548 139.917C185.548 139.917 183.118 132.436 183.541 132.33C183.964 132.225 188.19 130.96 187.978 129.696C187.767 128.432 187.45 125.271 187.45 125.271Z" fill="#2F2E41"/>
<path d="M163.944 31.124C167.562 31.124 170.495 28.1991 170.495 24.5912C170.495 20.9832 167.562 18.0583 163.944 18.0583C160.327 18.0583 157.394 20.9832 157.394 24.5912C157.394 28.1991 160.327 31.124 163.944 31.124Z" fill="#FFB9B9"/>
<path d="M170.548 34.6539C170.548 34.6539 166.956 38.4471 164.314 37.8149C161.673 37.1827 160.3 32.6519 160.3 32.6519L155.545 31.8089C155.545 31.8089 152.165 46.7712 152.165 48.2463C152.165 49.7215 155.545 65.6321 155.545 68.477C155.545 71.3219 152.798 73.0078 157.024 72.9024C161.25 72.7971 159.243 71.4273 165.371 71.3219C171.498 71.2166 172.449 72.5863 173.717 70.3736C174.582 68.93 175.649 67.6171 176.887 66.475L174.668 58.6778L174.351 36.6558C174.351 36.6558 171.642 31.3874 170.408 31.8089C170.408 31.8089 171.076 34.127 170.548 34.6539Z" fill="#EF4744"/>
<path d="M169.245 30.877C169.245 30.877 174.878 31.4928 176.463 32.6518C178.047 33.8109 182.485 34.6538 182.379 35.4968C182.273 36.3397 177.202 48.3517 177.202 48.3517C177.202 48.3517 174.878 57.8348 176.885 60.0475C178.893 62.2603 186.394 86.3895 185.126 88.3915C183.858 90.3935 179.843 82.2802 179.843 82.2802C179.843 82.2802 174.455 64.8944 171.497 61.9441C168.539 58.9938 168.328 43.0833 168.328 42.3457C168.328 41.6081 169.245 30.877 169.245 30.877Z" fill="#575A89"/>
<path d="M161.007 32.099C161.007 32.099 154.067 29.4907 151.637 30.5444C149.207 31.5981 147.728 31.8088 147.728 31.8088L146.882 42.1349C146.882 42.1349 146.565 56.9918 143.819 60.5743C141.072 64.1568 139.276 79.1191 139.698 80.5942C140.121 82.0694 138.959 84.5982 140.755 83.966C142.551 83.3338 147.516 68.793 147.516 68.793C147.516 68.793 147.516 60.4689 150.475 58.1508C153.433 55.8328 158.293 46.2443 158.504 43.9262C158.715 41.6081 160.723 35.1806 160.723 35.1806L161.007 32.099Z" fill="#575A89"/>
<path d="M184.811 65.316C184.811 65.316 181.641 71.2166 181.219 72.2703C180.796 73.324 177.838 80.489 173.612 78.9085C169.386 77.3279 177.732 69.6361 177.732 69.6361L179.634 63.2086C179.634 63.2086 184.599 62.1549 184.811 65.316Z" fill="#FFB9B9"/>
<path d="M148.782 31.8088H147.726C147.726 31.8088 146.669 30.9658 145.401 31.4927C144.133 32.0195 141.175 31.2819 141.175 31.598C141.175 31.9142 137.9 30.6497 136.527 31.2819C135.153 31.9142 130.188 32.1249 130.188 32.1249C130.188 32.1249 128.18 37.1825 129.554 38.1309C130.927 39.0792 132.935 38.3416 133.885 39.0792C134.836 39.8168 136.632 38.9738 137.266 39.9221C137.9 40.8704 140.224 42.5563 140.753 41.5026C141.281 40.449 140.224 39.5007 142.443 40.6597C144.662 41.8187 148.148 41.8187 148.148 41.8187L148.782 31.8088Z" fill="#575A89"/>
<path d="M164.535 19.7645C163.649 19.5603 162.729 19.7866 161.831 19.9334C160.933 20.0801 159.944 20.1285 159.184 19.6289C158.624 19.26 158.279 18.6496 157.955 18.0625C157.82 17.8528 157.73 17.6175 157.691 17.3713C157.652 16.9371 157.929 16.541 158.223 16.2185C159.59 14.7209 161.586 13.9013 163.599 13.6409C165.254 13.4269 166.979 13.5702 168.508 14.2387C170.036 14.9072 171.349 16.1314 171.95 17.684C172.227 18.4787 172.4 19.3057 172.464 20.1444C172.555 20.7616 172.567 21.3877 172.499 22.0078C172.418 22.4674 172.297 22.9191 172.137 23.3577L171.142 26.355C171.07 26.6382 170.937 26.9021 170.75 27.1276C170.655 27.238 170.526 27.3146 170.383 27.3458C170.24 27.377 170.091 27.3613 169.958 27.3008C170.037 26.9753 170.049 26.6369 169.993 26.3065C169.962 26.1419 169.882 25.9903 169.764 25.8713C169.646 25.7523 169.494 25.6714 169.329 25.6389C168.963 25.6001 168.649 25.8837 168.301 26.0058C168.134 26.0553 167.958 26.0697 167.785 26.0481C167.612 26.0265 167.445 25.9694 167.295 25.8804C167.145 25.7913 167.015 25.6722 166.913 25.5307C166.812 25.3891 166.74 25.2281 166.704 25.0578C166.649 24.7151 166.742 24.3483 166.611 24.0265C166.459 23.6495 166.054 23.4519 165.75 23.181C165.473 22.9257 165.274 22.5968 165.178 22.2328C165.082 21.8689 165.091 21.485 165.206 21.1265C165.288 20.877 165.517 20.7636 165.471 20.4771C165.411 20.1011 164.855 19.8383 164.535 19.7645Z" fill="#2F2E41"/>
<path d="M136.844 42.7512H91.8936V91.9197H136.844V42.7512Z" fill="#F2F2F2"/>
<path d="M141.376 38.0513H96.4258V87.2197H141.376V38.0513Z" stroke="#3F3D56" stroke-width="2" stroke-miterlimit="10"/>
<path d="M100.774 41.1243V78.7237H137.205" stroke="#3F3D56" stroke-width="2" stroke-miterlimit="10"/>
<path d="M110.926 65.5278H102.77V78.543H110.926V65.5278Z" fill="#575A89"/>
<path d="M122.706 56.6702H114.549V78.5429H122.706V56.6702Z" fill="#3F3D56"/>
<path d="M134.487 46.3665H126.331V78.5429H134.487V46.3665Z" fill="#EF4744"/>
<path d="M102.654 81.6729H100.23V84.09H102.654V81.6729Z" fill="#EF4744"/>
<path d="M106.157 81.6729H103.733V84.09H106.157V81.6729Z" fill="#3F3D56"/>
<path d="M109.656 81.6729H107.232V84.09H109.656V81.6729Z" fill="#575A89"/>
<path d="M136.844 82.7227H127.419V83.1037H136.844V82.7227Z" fill="#3F3D56"/>
<path d="M136.844 83.8657H127.419V84.2468H136.844V83.8657Z" fill="#3F3D56"/>
<path d="M136.844 85.009H127.419V85.3901H136.844V85.009Z" fill="#3F3D56"/>
<path d="M131.281 32.1188C133.207 32.2023 134.638 33.9447 134.43 35.8565C134.241 37.5886 133.545 39.7438 131.351 40.5717C127.442 42.0468 127.653 33.7228 128.393 33.4066C128.886 33.1959 129.661 32.0486 131.281 32.1188Z" fill="#FFB9B9"/>
<path d="M181.218 34.9338L182.38 35.4968C182.38 35.4968 184.916 40.6598 185.021 41.3974C185.127 42.135 186.817 44.8745 186.183 45.6121C185.55 46.3497 184.599 48.2463 185.233 48.9839C185.866 49.7215 187.346 52.6718 187.346 53.7254C187.346 54.7791 185.761 57.6241 186.817 57.9402C187.874 58.2563 187.557 62.3656 187.346 62.6817C187.134 62.9978 184.387 68.1609 184.387 68.1609C184.387 68.1609 183.859 62.2603 178.682 64.6837C178.682 64.6837 178.26 61.7334 178.682 61.5227C179.105 61.3119 180.161 60.0475 179.316 59.8368C178.471 59.6261 177.309 57.0972 177.52 56.7811C177.731 56.465 178.26 56.0435 177.731 55.7274C177.203 55.4113 176.781 53.6201 176.886 53.304C176.992 52.9879 175.724 51.5127 175.724 51.5127L181.218 34.9338Z" fill="#575A89"/>
</g>
<defs>
<clipPath id="clip0">
<rect width="203" height="150" fill="white"/>
</clipPath>
</defs>
</svg>
