<svg width="189" height="140" viewBox="0 0 189 140" fill="none" xmlns="http://www.w3.org/2000/svg">
<g clip-path="url(#clip0)">
<path d="M136.005 83.0528L137.492 82.1356C137.633 82.0461 137.773 81.9506 137.916 81.861C134.727 81.3128 131.821 79.6925 129.679 77.2684C127.537 74.8442 126.287 71.7615 126.137 68.5305C126.028 66.3085 126.448 64.0922 127.363 62.0643C128.215 60.1668 129.473 58.4793 131.049 57.1207C132.624 55.7622 134.478 54.7656 136.481 54.2013L136.407 60.0508L139.622 53.684C139.635 53.6819 139.648 53.6819 139.661 53.684C141.524 53.597 143.386 53.8777 145.14 54.51C146.894 55.1423 148.507 56.1137 149.885 57.369C151.264 58.6242 152.382 60.1386 153.175 61.8257C153.968 63.5127 154.421 65.3394 154.508 67.2015C154.52 67.4721 154.508 67.7387 154.508 67.9973C155.626 66.722 156.641 65.3551 157.314 63.8569C158.676 60.8227 158.707 57.3867 158.594 53.2104C158.379 44.9336 158.023 36.5951 157.557 28.2804C154.201 27.9078 151.087 26.3511 148.776 23.8899C146.465 21.4286 145.108 18.2243 144.948 14.8524C144.928 14.4167 144.934 13.9889 144.948 13.5632C144.948 13.4577 144.948 13.3503 144.964 13.2448C144.992 12.833 145.03 12.4251 145.093 12.0232C145.093 11.9555 145.117 11.8919 145.129 11.8242C145.187 11.4833 145.257 11.1464 145.338 10.8135C145.37 10.6901 145.4 10.5648 145.434 10.4414C145.533 10.0793 145.633 9.72319 145.77 9.37102C145.812 9.25363 145.862 9.14022 145.905 9.02483C146.007 8.76617 146.116 8.5115 146.232 8.25882C146.293 8.12552 146.353 7.9942 146.419 7.8609C146.435 7.82707 146.449 7.79325 146.467 7.75942C147.965 4.80053 150.454 2.46012 153.499 1.14501C156.545 -0.170105 159.956 -0.376761 163.138 0.56096L163.042 8.17327L166.227 1.88605C168.839 3.3807 170.905 5.67107 172.122 8.42264C173.34 11.1742 173.645 14.2428 172.994 17.1803H173.01C172.988 17.2818 172.956 17.3793 172.933 17.4787C172.889 17.6658 172.841 17.8508 172.789 18.0358C172.722 18.2726 172.646 18.5054 172.568 18.7382C172.509 18.9113 172.451 19.0884 172.385 19.2595C172.29 19.5102 172.186 19.7549 172.071 19.9996C172.007 20.1429 171.949 20.2881 171.872 20.4294C171.69 20.7955 171.491 21.1536 171.275 21.5038C171.201 21.6251 171.117 21.7405 171.04 21.8619C170.888 22.0967 170.735 22.3295 170.57 22.5563C170.469 22.6955 170.359 22.8288 170.252 22.9661C170.096 23.1651 169.937 23.3641 169.772 23.5451C169.654 23.6784 169.535 23.8097 169.412 23.943C169.238 24.1261 169.059 24.3032 168.874 24.4782C168.753 24.5956 168.629 24.713 168.502 24.8244C168.293 25.0095 168.074 25.1866 167.853 25.3597C167.742 25.4472 167.634 25.5387 167.519 25.6223C167.183 25.8716 166.836 26.1058 166.478 26.3246C166.41 26.3644 166.338 26.3982 166.279 26.438C165.98 26.6151 165.682 26.7802 165.361 26.9354C165.228 27.0011 165.089 27.0588 164.951 27.1205C164.694 27.2359 164.436 27.3473 164.171 27.4488C164.018 27.5065 163.86 27.5602 163.703 27.6139C163.442 27.7034 163.178 27.785 162.907 27.8586C162.748 27.9024 162.591 27.9462 162.429 27.984C162.139 28.0536 161.842 28.1113 161.544 28.161C161.524 28.161 161.506 28.161 161.486 28.173C161.682 31.68 161.857 35.1891 162.009 38.7001C162.856 36.9628 164.049 35.4167 165.514 34.1567C166.98 32.8967 168.688 31.9494 170.533 31.3728C172.378 30.7961 174.322 30.6024 176.244 30.8035C178.167 31.0046 180.028 31.5963 181.714 32.5422L179.204 39.4164L184.367 34.4602C187.131 36.9925 188.777 40.5171 188.945 44.2611C189.011 45.5748 188.89 46.8911 188.585 48.1707C187.936 50.9398 186.47 53.4501 184.377 55.3759C182.283 57.3018 179.659 58.5543 176.845 58.9711C174.031 59.3878 171.156 58.9494 168.594 57.7129C166.032 56.4764 163.901 54.4987 162.477 52.0365C162.477 52.3927 162.503 52.7508 162.513 53.107C162.607 56.7918 162.724 61.3758 160.887 65.4705C159.643 68.246 157.639 70.5003 155.658 72.5197C154.37 73.8349 153.035 75.1063 151.665 76.3378C150.319 78.1451 148.561 79.606 146.538 80.5996C144.289 82.3319 141.96 83.9541 139.552 85.4662L138.089 86.4093C136.738 87.2469 135.352 88.1065 133.993 88.9958C134.232 88.9719 134.469 88.9461 134.711 88.9361C137.721 88.7952 140.697 89.6142 143.21 91.2747C145.723 92.9352 147.642 95.3513 148.692 98.174L139.819 105.394L149.572 103.132C149.569 105.532 148.958 107.893 147.795 109.993C146.632 112.093 144.956 113.864 142.923 115.141C140.889 116.417 138.565 117.158 136.168 117.294C133.771 117.429 131.378 116.955 129.214 115.915C129.433 116.19 129.654 116.463 129.873 116.735C130.309 117.278 130.743 117.818 131.167 118.353C136.939 125.661 138.547 132.6 135.687 137.891L132.212 136.013C134.998 130.864 130.818 124.274 128.066 120.8C127.65 120.275 127.224 119.745 126.794 119.208C123.106 114.632 118.926 109.435 119.031 103.066C119.181 93.4765 128.513 87.6926 136.005 83.0528Z" fill="#F2F2F2"/>
<path d="M90.6616 140C140.733 140 181.323 138.129 181.323 135.822C181.323 133.514 140.733 131.644 90.6616 131.644C40.5906 131.644 0 133.514 0 135.822C0 138.129 40.5906 140 90.6616 140Z" fill="#3F3D56"/>
<path d="M163.905 134.264C164.502 133.168 163.825 131.825 163.053 130.846C162.281 129.867 161.339 128.856 161.359 127.605C161.387 125.814 163.288 124.757 164.809 123.808C165.935 123.103 166.973 122.268 167.904 121.319C168.294 120.954 168.617 120.523 168.857 120.046C169.169 119.346 169.161 118.55 169.142 117.782C169.075 115.227 168.949 112.675 168.763 110.126" stroke="#3F3D56" stroke-width="4" stroke-miterlimit="10"/>
<path d="M171.651 109.99C171.629 109.523 171.49 109.068 171.246 108.669C171.003 108.269 170.663 107.937 170.258 107.702L169.633 108.94L169.651 107.444C169.223 107.316 168.771 107.292 168.333 107.375C167.894 107.458 167.482 107.645 167.131 107.92C166.78 108.196 166.5 108.551 166.315 108.957C166.13 109.363 166.045 109.807 166.068 110.253C166.103 110.992 166.43 111.686 166.977 112.184C167.248 112.431 167.565 112.621 167.91 112.745C168.254 112.869 168.62 112.924 168.986 112.907C169.352 112.89 169.711 112.801 170.042 112.645C170.374 112.489 170.671 112.269 170.918 111.998C171.164 111.728 171.355 111.411 171.479 111.066C171.603 110.722 171.658 110.356 171.641 109.99H171.651Z" fill="#57B793"/>
<path d="M166.669 128.892C166.377 129.46 165.898 129.91 165.313 130.167C164.728 130.424 164.072 130.472 163.456 130.304C162.839 130.135 162.3 129.759 161.927 129.24C161.555 128.721 161.372 128.09 161.41 127.452C161.448 126.814 161.704 126.209 162.135 125.738C162.566 125.266 163.147 124.957 163.778 124.862C164.41 124.768 165.056 124.893 165.606 125.217C166.157 125.542 166.579 126.045 166.803 126.644L165.059 128.062L166.978 127.617C166.978 128.06 166.872 128.497 166.669 128.892Z" fill="#57B793"/>
<path d="M165.29 123.462C164.924 123.48 164.557 123.425 164.212 123.301C163.867 123.177 163.549 122.985 163.278 122.738C163.007 122.491 162.788 122.193 162.632 121.861C162.477 121.528 162.388 121.169 162.372 120.802C162.35 120.365 162.433 119.929 162.613 119.531C162.78 119.158 163.027 118.826 163.337 118.558C163.646 118.291 164.011 118.094 164.404 117.983L164.39 119.135L165.023 117.881C165.764 117.847 166.487 118.108 167.035 118.607C167.583 119.105 167.911 119.802 167.945 120.542C167.98 121.282 167.719 122.005 167.22 122.553C166.721 123.101 166.024 123.428 165.284 123.462H165.29Z" fill="#57B793"/>
<path d="M172.072 118.944C171.333 118.978 170.61 118.718 170.063 118.221C169.516 117.723 169.189 117.028 169.154 116.29C169.119 115.551 169.379 114.828 169.877 114.281C170.375 113.734 171.07 113.408 171.809 113.373C172.331 113.347 172.85 113.47 173.306 113.727L172.812 115.08L173.827 114.105C174.372 114.603 174.697 115.296 174.731 116.033C174.744 116.291 174.72 116.55 174.659 116.801C174.52 117.391 174.192 117.919 173.725 118.306C173.258 118.693 172.678 118.917 172.072 118.944Z" fill="#57B793"/>
<path opacity="0.1" d="M171.275 110.727C170.63 110.798 170.003 110.999 169.356 111.039C168.709 111.079 167.999 110.924 167.589 110.42C167.368 110.15 167.258 109.807 167.071 109.513C166.895 109.238 166.654 109.01 166.369 108.85C166.2 109.203 166.107 109.586 166.097 109.976C166.086 110.367 166.158 110.755 166.307 111.116C166.456 111.477 166.679 111.802 166.962 112.071C167.245 112.34 167.582 112.547 167.95 112.677C168.318 112.808 168.709 112.86 169.098 112.829C169.488 112.799 169.866 112.687 170.21 112.501C170.553 112.315 170.854 112.059 171.092 111.75C171.33 111.44 171.5 111.084 171.591 110.705C171.484 110.709 171.378 110.717 171.275 110.727Z" fill="black"/>
<path opacity="0.1" d="M172.071 118.944C171.59 118.968 171.11 118.867 170.679 118.651C170.248 118.434 169.88 118.109 169.612 117.708C169.345 117.307 169.186 116.844 169.151 116.363C169.116 115.882 169.207 115.4 169.414 114.965C169.636 115.114 169.826 115.305 169.975 115.528C170.174 115.828 170.294 116.174 170.529 116.451C170.963 116.962 171.707 117.129 172.382 117.097C173.057 117.066 173.705 116.877 174.372 116.815C174.464 116.815 174.559 116.799 174.653 116.797C174.515 117.387 174.188 117.915 173.722 118.303C173.256 118.69 172.677 118.915 172.071 118.944Z" fill="black"/>
<path opacity="0.1" d="M165.29 123.462C164.924 123.48 164.557 123.425 164.212 123.301C163.867 123.176 163.549 122.985 163.278 122.738C163.007 122.491 162.788 122.193 162.632 121.86C162.477 121.528 162.388 121.169 162.372 120.802C162.35 120.365 162.433 119.929 162.613 119.531C162.845 119.682 163.047 119.874 163.21 120.098C163.427 120.404 163.562 120.756 163.807 121.039C164.279 121.564 165.071 121.749 165.786 121.731C166.5 121.713 167.143 121.546 167.832 121.495C167.662 122.044 167.327 122.528 166.872 122.88C166.417 123.232 165.865 123.435 165.29 123.462Z" fill="black"/>
<path opacity="0.1" d="M166.669 128.892C166.519 129.226 166.304 129.528 166.037 129.779C165.771 130.03 165.457 130.227 165.114 130.357C164.771 130.487 164.406 130.548 164.04 130.538C163.673 130.527 163.313 130.444 162.978 130.294C162.644 130.143 162.342 129.929 162.091 129.662C161.839 129.395 161.643 129.082 161.513 128.739C161.382 128.396 161.321 128.031 161.332 127.665C161.343 127.299 161.426 126.938 161.576 126.604C161.805 126.756 162.012 126.94 162.189 127.151C162.454 127.475 162.629 127.841 162.937 128.146C163.509 128.705 164.43 128.942 165.25 128.957C165.724 128.964 166.198 128.942 166.669 128.892Z" fill="black"/>
<path d="M159.694 133C159.694 133 161.898 132.933 162.562 132.459C163.227 131.986 165.946 131.421 166.119 132.181C166.292 132.941 169.433 135.961 166.943 135.973C164.453 135.985 161.159 135.575 160.496 135.177C159.834 134.779 159.694 133 159.694 133Z" fill="#656380"/>
<path opacity="0.2" d="M166.987 135.709C164.499 135.728 161.203 135.311 160.54 134.913C160.037 134.606 159.834 133.502 159.768 132.993H159.694C159.694 132.993 159.834 134.769 160.49 135.181C161.147 135.593 164.447 135.993 166.937 135.977C167.656 135.977 167.905 135.714 167.891 135.336C167.797 135.561 167.522 135.705 166.987 135.709Z" fill="black"/>
<path d="M38.6954 128.126C37.2504 125.452 38.8944 122.177 40.7733 119.793C42.6523 117.41 44.9531 114.931 44.9034 111.893C44.8317 107.527 40.1981 104.951 36.496 102.637C33.7489 100.92 31.2148 98.8833 28.9465 96.5705C28.0369 95.6413 27.1552 94.6505 26.6258 93.4647C25.8615 91.7576 25.8814 89.8177 25.9311 87.9474C26.0903 81.7133 26.3982 75.491 26.8547 69.2808" stroke="#3F3D56" stroke-width="4" stroke-miterlimit="10"/>
<path d="M19.8141 68.9406C19.8686 67.8016 20.2085 66.6947 20.8025 65.7213C21.3965 64.7479 22.2256 63.9392 23.2137 63.3696L24.7383 66.3839L24.6925 62.7349C26.0776 62.3269 27.5566 62.3695 28.9159 62.8566C30.2752 63.3436 31.4444 64.2499 32.2549 65.4445C33.0653 66.6392 33.4749 68.0604 33.4246 69.5029C33.3743 70.9455 32.8667 72.3347 31.975 73.4701C31.0834 74.6054 29.8538 75.4281 28.4639 75.8194C27.074 76.2106 25.5956 76.1502 24.2423 75.6468C22.889 75.1434 21.7308 74.2231 20.9348 73.0188C20.1389 71.8144 19.7464 70.3884 19.8141 68.9465V68.9406Z" fill="#57B793"/>
<path d="M31.9604 115.012C32.6451 116.346 33.7513 117.417 35.1073 118.057C36.4632 118.698 37.9929 118.873 39.4587 118.556C40.9245 118.238 42.2443 117.446 43.2131 116.301C44.1819 115.157 44.7455 113.724 44.8162 112.227C44.8638 111.285 44.7125 110.344 44.3724 109.465C43.8751 108.176 42.997 107.068 41.8548 106.289C40.7125 105.51 39.3603 105.098 37.9777 105.106C36.5952 105.114 35.2478 105.542 34.1147 106.334C32.9815 107.126 32.1163 108.244 31.634 109.539L35.8874 112.997L31.208 111.908C31.2061 112.988 31.4641 114.053 31.9604 115.012Z" fill="#57B793"/>
<path d="M35.321 101.797C36.9908 101.874 38.6304 101.333 39.9277 100.28C41.2249 99.2257 42.0891 97.7318 42.3559 96.0823C42.6226 94.4328 42.2733 92.7428 41.3743 91.3341C40.4752 89.9254 39.0894 88.8963 37.4806 88.4428L37.5164 91.2462L35.9838 88.1961H35.9659C34.1613 88.112 32.3972 88.7478 31.0617 89.9638C29.7261 91.1799 28.9285 92.8764 28.8443 94.6803C28.7601 96.4842 29.3962 98.2476 30.6127 99.5827C31.8292 100.918 33.5264 101.715 35.331 101.799L35.321 101.797Z" fill="#57B793"/>
<path d="M18.788 90.8003C19.8424 90.8517 20.8942 90.6574 21.8605 90.2327C22.8269 89.808 23.6812 89.1647 24.3562 88.3534C25.0312 87.5421 25.5083 86.5851 25.7498 85.5579C25.9914 84.5307 25.9907 83.4614 25.748 82.4345C25.5053 81.4076 25.0272 80.4511 24.3513 79.6406C23.6754 78.83 22.8203 78.1876 21.8535 77.764C20.8867 77.3405 19.8347 77.1473 18.7804 77.1998C17.7261 77.2524 16.6985 77.5492 15.7786 78.0667L16.9728 81.3635L14.5067 78.982C13.8475 79.5816 13.313 80.3054 12.9339 81.1118C12.5548 81.9182 12.3385 82.7914 12.2974 83.6815C12.2658 84.3113 12.3241 84.9423 12.4706 85.5557C12.8091 86.9981 13.6092 88.2906 14.7493 89.2372C15.8895 90.1837 17.3075 90.7325 18.788 90.8003Z" fill="#57B793"/>
<path opacity="0.1" d="M20.7309 70.7548C22.3033 70.9279 23.8319 71.4154 25.4083 71.5129C26.9846 71.6104 28.7182 71.2343 29.7154 70.0087C30.2528 69.3482 30.5215 68.5125 30.9753 67.7923C31.4053 67.1212 31.9947 66.5669 32.691 66.1787C33.1246 67.0415 33.3697 67.9866 33.4099 68.9512C33.4502 69.9159 33.2848 70.8781 32.9246 71.774C32.5644 72.6698 32.0177 73.4789 31.3208 74.1474C30.6239 74.8159 29.7928 75.3287 28.8825 75.6515C27.9722 75.9744 27.0037 76.1001 26.0411 76.0202C25.0786 75.9403 24.144 75.6566 23.2995 75.1881C22.455 74.7195 21.7198 74.0768 21.1428 73.3025C20.5657 72.5282 20.1601 71.6401 19.9526 70.6971C20.2174 70.7091 20.4761 70.727 20.7309 70.7548Z" fill="black"/>
<path opacity="0.1" d="M18.7895 90.8007C19.9631 90.8548 21.1307 90.6047 22.1791 90.0747C23.2275 89.5446 24.121 88.7527 24.7729 87.7757C25.4248 86.7987 25.813 85.6698 25.8998 84.4986C25.9866 83.3274 25.769 82.1537 25.2681 81.0913C24.7274 81.4548 24.2624 81.9197 23.8988 82.4602C23.4131 83.1924 23.1205 84.038 22.5493 84.7105C21.4884 85.956 19.6772 86.3638 18.0331 86.2902C16.3891 86.2166 14.8027 85.7471 13.1667 85.5978C12.9398 85.5779 12.7089 85.562 12.48 85.556C12.8181 86.9972 13.617 88.2888 14.7556 89.2352C15.8942 90.1816 17.3103 90.7312 18.7895 90.8007Z" fill="black"/>
<path opacity="0.1" d="M35.3205 101.797C36.4826 101.852 37.6394 101.608 38.6804 101.088C39.7214 100.569 40.6119 99.7918 41.267 98.8306C41.9221 97.8695 42.3199 96.7567 42.4225 95.5982C42.525 94.4397 42.3289 93.2743 41.8529 92.2131C41.2921 92.5855 40.8043 93.0576 40.4138 93.6059C39.8844 94.352 39.554 95.2115 38.935 95.8999C37.7865 97.1792 35.8559 97.6309 34.1143 97.5891C32.4285 97.5533 30.8043 97.1394 29.1284 97.0101C29.5433 98.3474 30.3604 99.5244 31.4683 100.381C32.5763 101.238 33.9213 101.732 35.3205 101.797Z" fill="black"/>
<path opacity="0.1" d="M31.959 115.012C32.6437 116.346 33.7499 117.417 35.1059 118.058C36.4618 118.698 37.9915 118.874 39.4573 118.556C40.9231 118.238 42.2429 117.446 43.2117 116.301C44.1805 115.157 44.7441 113.725 44.8148 112.227C44.8624 111.285 44.7111 110.345 44.371 109.465C43.8106 109.833 43.3076 110.282 42.8782 110.796C42.2313 111.592 41.8034 112.48 41.055 113.216C39.6617 114.581 37.4146 115.146 35.4143 115.205C34.2597 115.209 33.1059 115.145 31.959 115.012Z" fill="black"/>
<path d="M85.8305 132.101L59.5575 137.473L58.9604 137.413L35.8721 135.086V105.838L64.1354 101.063L84.6362 103.451L84.6422 103.58L84.6442 103.644L85.8305 132.101Z" fill="#EF4744"/>
<path opacity="0.1" d="M85.83 132.101L59.5571 137.473L58.96 137.413V107.43L84.6418 103.58L85.83 132.101Z" fill="black"/>
<path opacity="0.05" d="M84.6442 103.644L84.6362 103.65L58.9604 107.43L35.8721 105.838L64.1354 101.063L84.6362 103.451L84.6422 103.58L84.6442 103.644Z" fill="black"/>
<path d="M114.69 133.295L88.4169 138.667L87.8198 138.607L64.7314 136.279V107.032L92.9948 102.257L113.496 104.644L113.502 104.774L113.504 104.837L114.69 133.295Z" fill="#3F3D56"/>
<path opacity="0.1" d="M114.69 133.295L88.4169 138.667L87.8198 138.607V108.624L113.502 104.774L114.69 133.295Z" fill="black"/>
<path opacity="0.05" d="M113.504 104.837L113.496 104.843L87.8198 108.624L64.7314 107.032L92.9947 102.257L113.496 104.644L113.502 104.774L113.504 104.837Z" fill="black"/>
<path d="M96.578 104.644L70.3051 110.016L69.708 109.956L46.6196 107.629V78.3811L74.8829 73.606L95.3838 75.9935L95.3898 76.1228L95.3918 76.1865L96.578 104.644Z" fill="#3F3D56"/>
<path opacity="0.1" d="M96.5781 104.644L70.3051 110.016L69.708 109.957V79.973L95.3898 76.123L96.5781 104.644Z" fill="black"/>
<path opacity="0.05" d="M95.3918 76.1865L95.3838 76.1925L69.708 79.9727L46.6196 78.3811L74.883 73.606L95.3838 75.9935L95.3898 76.1228L95.3918 76.1865Z" fill="black"/>
<path d="M111.506 105.87L97.7939 108.675L97.4814 108.643L85.4316 107.428V92.1634L100.182 89.6704L110.883 90.9179L110.887 90.9855V91.0174L111.506 105.87Z" fill="#3F3D56"/>
<path opacity="0.1" d="M111.504 105.87L97.7925 108.675L97.48 108.643V92.9951L110.885 90.9856L111.504 105.87Z" fill="black"/>
<path opacity="0.05" d="M110.887 91.0174L110.883 91.0214L97.4814 92.9951L85.4316 92.1634L100.182 89.6704L110.883 90.9179L110.887 90.9856V91.0174Z" fill="black"/>
<path d="M74.6838 76.2247L60.9721 79.0281L60.6596 78.9982L48.6099 77.7826V62.5182L63.3605 60.0251L74.0608 61.2726L74.0647 61.3403V61.3721L74.6838 76.2247Z" fill="#3F3D56"/>
<path opacity="0.1" d="M74.6814 76.2247L60.9697 79.0281L60.6572 78.9983V63.3499L74.0624 61.3403L74.6814 76.2247Z" fill="black"/>
<path opacity="0.05" d="M74.0648 61.3721L74.0608 61.3761L60.6596 63.3498L48.6099 62.5182L63.3605 60.0251L74.0608 61.2726L74.0648 61.3403V61.3721Z" fill="black"/>
<path d="M98.7673 75.6277L85.0556 78.4311L84.7431 78.4013L72.6934 77.1856V61.9212L87.444 59.4282L98.1443 60.6757L98.1483 60.7434V60.7752L98.7673 75.6277Z" fill="#EF4744"/>
<path opacity="0.1" d="M98.7654 75.6278L85.0537 78.4312L84.7412 78.4013V62.7529L98.1464 60.7434L98.7654 75.6278Z" fill="black"/>
<path opacity="0.05" d="M98.1483 60.7752L98.1443 60.7792L84.7431 62.7529L72.6934 61.9212L87.444 59.4282L98.1443 60.6757L98.1483 60.7434V60.7752Z" fill="black"/>
<path d="M105.933 60.3074L92.2211 63.1108L91.9086 63.081L79.8589 61.8653V46.6009L94.6095 44.1079L105.31 45.3554L105.314 45.4231V45.4549L105.933 60.3074Z" fill="#3F3D56"/>
<path opacity="0.1" d="M105.931 60.3077L92.2192 63.1111L91.9067 63.0813V47.4329L105.312 45.4233L105.931 60.3077Z" fill="black"/>
<path opacity="0.05" d="M105.314 45.4549L105.31 45.4589L91.9086 47.4326L79.8589 46.6009L94.6095 44.1079L105.31 45.3554L105.314 45.4231V45.4549Z" fill="black"/>
<path d="M115.27 29.1022C115.124 30.3955 114.137 31.438 113.771 32.6835C113.222 34.5637 114.169 36.5832 115.475 38.0555C116.527 39.2254 117.801 40.1749 119.223 40.8491C120.645 41.5232 122.187 41.9087 123.759 41.983C124.22 42.0228 124.686 41.9721 125.128 41.8338C125.522 41.6735 125.877 41.4306 126.169 41.1215C127.148 40.1367 127.676 38.7738 127.885 37.3989C128.094 36.0241 128.014 34.6254 127.932 33.2386C127.932 32.9516 127.88 32.6671 127.777 32.399C127.644 32.1441 127.46 31.9187 127.238 31.7365C126.532 31.088 125.754 30.5225 124.919 30.0513C124.561 29.8523 124.177 29.6533 123.948 29.3091C123.791 29.035 123.689 28.7329 123.647 28.4198L123.39 27.1146C123.345 26.7382 123.217 26.3767 123.014 26.0561C122.562 25.4473 121.697 25.3637 120.938 25.3339L118.152 25.2244C117.286 25.1906 116.147 24.9419 115.302 25.113C114.505 25.2702 114.774 25.9984 114.917 26.6589C115.125 27.4579 115.243 28.2773 115.27 29.1022Z" fill="#FFC0C6"/>
<path opacity="0.1" d="M115.27 29.1022C115.124 30.3955 114.137 31.438 113.771 32.6835C113.222 34.5637 114.169 36.5832 115.475 38.0555C116.527 39.2254 117.801 40.1749 119.223 40.8491C120.645 41.5232 122.187 41.9087 123.759 41.983C124.22 42.0228 124.686 41.9721 125.128 41.8338C125.522 41.6735 125.877 41.4306 126.169 41.1215C127.148 40.1367 127.676 38.7738 127.885 37.3989C128.094 36.0241 128.014 34.6254 127.932 33.2386C127.932 32.9516 127.88 32.6671 127.777 32.399C127.644 32.1441 127.46 31.9187 127.238 31.7365C126.532 31.088 125.754 30.5225 124.919 30.0513C124.561 29.8523 124.177 29.6533 123.948 29.3091C123.791 29.035 123.689 28.7329 123.647 28.4198L123.39 27.1146C123.345 26.7382 123.217 26.3767 123.014 26.0561C122.562 25.4473 121.697 25.3637 120.938 25.3339L118.152 25.2244C117.286 25.1906 116.147 24.9419 115.302 25.113C114.505 25.2702 114.774 25.9984 114.917 26.6589C115.125 27.4579 115.243 28.2773 115.27 29.1022Z" fill="black"/>
<path d="M132.967 87.3505L131.785 100.307C131.477 103.705 131.162 107.117 130.557 110.472C130.358 111.628 130.103 112.778 129.813 113.918C129.005 117.083 127.832 120.177 127.454 123.422C127.442 123.516 127.432 123.621 127.422 123.707C127.345 124.423 127.277 125.147 127.024 125.816C126.825 126.311 126.544 126.763 126.339 127.252C125.941 128.231 125.878 129.314 125.828 130.374C124.393 129.564 122.822 129.025 121.192 128.782C120.396 128.665 119.53 128.583 119.003 127.987C118.406 127.338 118.475 126.345 118.575 125.474C118.888 122.768 119.2 120.063 119.51 117.36C119.614 116.197 119.814 115.044 120.108 113.914C120.215 113.538 120.344 113.168 120.476 112.798C120.657 112.288 120.84 111.779 120.977 111.256C121.168 110.415 121.3 109.562 121.371 108.703C121.692 105.981 122.078 103.265 122.416 100.546L122.434 100.402C122.942 96.2799 123.328 92.1375 123.217 87.9852C123.201 87.3704 123.175 86.7556 123.135 86.1388C123.079 85.2454 122.998 84.7719 123.732 84.2128C124.55 83.596 125.627 83.1643 126.562 82.7604C127.066 82.5415 132.611 80.5718 132.733 81.0055C132.99 81.9268 133.124 82.8782 133.131 83.8348C133.142 85.0088 133.087 86.1825 132.967 87.3505Z" fill="#605D82"/>
<path opacity="0.1" d="M130.556 110.472C130.357 111.628 130.102 112.778 129.812 113.918C129.004 117.084 127.831 120.177 127.453 123.423C127.441 123.516 127.431 123.622 127.421 123.707C124.949 120.177 122.867 116.381 120.455 112.814C120.636 112.305 120.819 111.795 120.957 111.272C121.155 110.426 121.293 109.568 121.371 108.703C121.691 105.982 122.077 103.266 122.416 100.546L122.434 100.403C122.573 100.98 122.773 101.541 123.031 102.076C124.651 105.367 128.5 107.03 130.383 110.18C130.445 110.278 130.503 110.375 130.556 110.472Z" fill="black"/>
<path d="M110.497 81.5387C110.578 84.1769 111 86.7933 111.422 89.3997L112.292 94.7717C112.768 97.7163 113.265 100.719 114.659 103.355C115.702 105.329 117.202 107.012 118.562 108.781C121.902 113.13 124.412 118.058 127.578 122.535C128.5 123.836 129.815 125.245 131.386 124.972C132.417 124.795 133.165 123.936 133.973 123.275C134.929 122.495 136.079 121.924 136.831 120.945C137.584 119.966 137.731 118.343 136.712 117.646C136.364 117.41 135.94 117.32 135.546 117.169C133.967 116.572 132.944 115.028 132.295 113.468C131.647 111.908 131.25 110.235 130.385 108.785C128.502 105.635 124.65 103.972 123.03 100.679C122.123 98.8365 122.035 96.6996 121.967 94.6563L121.79 89.4216C121.77 88.8486 121.756 88.2537 121.989 87.7304C122.608 86.3377 124.479 86.2064 125.996 86.0293C127.716 85.8285 129.382 85.3033 130.906 84.4814C131.78 84.0098 132.632 83.4089 133.096 82.5335C133.521 81.7377 133.579 80.8006 133.629 79.8973L134.154 70.4087C134.2 69.593 134.24 68.7474 133.955 67.9834C133.233 66.0614 130.805 65.4327 128.753 65.5242C124.935 65.6953 121.412 67.3368 117.806 68.447C116.912 68.7215 116.014 68.9682 115.093 69.1533C114.297 69.3144 113.301 69.2488 112.537 69.5074C111.168 69.969 111.201 72.9654 111.008 74.2069C110.61 76.6296 110.439 79.0842 110.497 81.5387Z" fill="#605D82"/>
<path d="M130.869 125.374C131.205 125.714 131.315 126.212 131.402 126.681C131.889 129.287 132.142 131.931 132.159 134.582C132.137 134.829 132.186 135.078 132.3 135.298C132.396 135.429 132.524 135.532 132.672 135.597C133.646 136.06 134.774 135.414 135.586 134.704C137.089 133.388 138.361 131.622 138.446 129.626C138.468 129.113 138.411 128.593 138.5 128.086C138.631 127.334 139.071 126.679 139.457 126.023C140.118 124.904 140.652 123.715 141.05 122.477C141.197 122.012 141.297 121.427 140.93 121.102C140.802 121.001 140.655 120.924 140.498 120.878L136.1 119.246C135.718 119.105 134.77 121.538 134.621 121.805C134.253 122.455 133.886 122.823 133.148 122.975C132.41 123.126 131.498 122.907 130.793 123.283C129.599 123.918 130.194 124.696 130.869 125.374Z" fill="#535070"/>
<path d="M124.087 126.876C124.005 126.714 123.891 126.57 123.752 126.453C123.549 126.323 123.318 126.245 123.078 126.224C122.242 126.081 121.25 125.987 120.671 126.61C120.13 127.193 120.223 128.142 119.772 128.798C119.628 128.997 119.433 129.176 119.31 129.395C119.156 129.73 119.088 130.098 119.111 130.466C119.087 131.478 119.063 132.495 119.135 133.506C119.192 134.353 119.334 135.243 119.865 135.907C120.717 136.974 122.254 137.127 123.615 137.195L124.72 137.252C125.023 137.288 125.331 137.259 125.623 137.169C125.804 137.085 125.967 136.967 126.101 136.819C126.235 136.672 126.338 136.499 126.404 136.311C126.979 134.883 126.069 133.345 125.508 131.912C124.861 130.263 124.976 128.434 124.087 126.876Z" fill="#535070"/>
<path d="M114.953 21.8104C114.939 21.6656 114.96 21.5195 115.014 21.3846C115.176 21.1001 115.598 21.1857 115.916 21.2573C117.196 21.5796 118.545 21.2871 119.865 21.3627C121.185 21.4383 122.669 22.0969 122.934 23.3902C123.891 22.7129 124.716 21.8659 125.368 20.8912C125.734 20.344 126.053 19.7173 126.003 19.0607C125.932 18.1137 125.137 17.4054 124.411 16.8045L122.221 15.0138C121.933 14.7494 121.6 14.5379 121.238 14.3891C120.733 14.216 120.179 14.2996 119.646 14.2996C118.054 14.2996 116.346 13.5734 114.927 14.2996C114.33 14.604 113.886 15.1273 113.456 15.6366L111.499 17.9525C111.351 18.1001 111.243 18.2829 111.185 18.4838C111.129 18.7663 111.274 19.0448 111.326 19.3293C111.418 19.8466 111.195 20.3998 111.366 20.8972C111.651 21.7209 112.654 21.8383 113.267 22.3118C113.494 22.4869 113.852 23.0858 114.125 23.0778C114.604 23.0678 114.939 22.1924 114.953 21.8104Z" fill="#3F3D56"/>
<path d="M118.273 28.6406C121.735 28.6406 124.542 25.8346 124.542 22.3733C124.542 18.9119 121.735 16.106 118.273 16.106C114.81 16.106 112.003 18.9119 112.003 22.3733C112.003 25.8346 114.81 28.6406 118.273 28.6406Z" fill="#FFC0C6"/>
<path d="M119.741 36.0877C119.529 35.4803 119.129 34.956 118.599 34.5905C118.069 34.225 117.437 34.0373 116.794 34.0543C116.609 34.0895 116.418 34.0651 116.248 33.9847C116.152 33.9112 116.075 33.8157 116.023 33.7061C115.643 33.0202 115.337 32.2959 115.11 31.5454C115.01 31.2131 114.873 30.8212 114.537 30.7356C114.266 30.666 113.989 30.8411 113.808 31.054C113.648 31.2824 113.473 31.501 113.287 31.7086C112.49 32.4129 111.097 31.7702 110.263 32.4169C110.126 32.5223 110.012 32.6576 109.865 32.7551C109.722 32.8424 109.567 32.9094 109.405 32.9541C107.786 33.4805 106.199 34.1004 104.652 34.8104C105.21 38.1609 105.779 41.5751 107.085 44.7088C107.706 46.201 108.408 47.6634 108.906 49.2014C110.008 52.6096 110.056 56.2566 110.07 59.8399C110.07 62.2911 110.07 64.794 109.274 67.114C109.095 67.6392 108.876 68.1605 108.826 68.7057C108.776 69.2508 108.94 69.8676 109.387 70.1939C109.647 70.3648 109.944 70.4694 110.253 70.4983C111.629 70.6973 113.014 70.3352 114.367 70.0208C117.996 69.1812 121.698 68.6997 125.39 68.2301L131.58 67.4343C132.024 67.4032 132.459 67.2906 132.862 67.102C133.994 66.4832 134.102 64.7801 133.397 63.6978C133.061 63.1785 132.585 62.7527 132.301 62.2036C132.016 61.6544 131.994 60.8824 132.482 60.5024C133.477 59.7265 133.178 58.288 133.226 57.0305C133.359 53.5129 133.341 49.9979 133.172 46.4855C133.122 45.7571 133.11 45.0266 133.137 44.2969C133.206 43.0594 133.513 41.8477 133.819 40.644L135.7 33.2426C135.209 32.4666 134.267 31.9732 133.377 31.7503C132.488 31.5275 131.558 31.4618 130.68 31.1893C128.889 30.6322 127.281 29.2195 125.404 29.3509C125.262 29.3534 125.122 29.3874 124.994 29.4503C124.572 29.6911 124.638 30.2999 124.612 30.7854C124.552 31.8618 123.76 32.7591 122.888 33.3898C122.016 34.0205 121.017 34.4781 120.215 35.1964C120.076 35.3013 119.961 35.4356 119.879 35.5895C119.798 35.7435 119.75 35.9136 119.741 36.0877Z" fill="#3F3D56"/>
<path d="M94.8998 43.1092C94.4845 43.3791 94.0431 43.6064 93.5822 43.7877C93.1443 43.9608 92.6766 44.0981 92.3183 44.4005C92.1409 44.5543 91.992 44.7382 91.8784 44.9436C91.6663 45.3199 91.5591 45.7461 91.5679 46.1779C91.5767 46.6096 91.7013 47.0311 91.9286 47.3984C92.1559 47.7656 92.4776 48.0652 92.8602 48.2658C93.2428 48.4664 93.6722 48.5607 94.1036 48.5389C94.6789 48.5091 95.2222 48.2763 95.7497 48.0475L100.172 46.1235C100.921 45.7992 101.729 45.4212 102.083 44.685C102.124 44.6161 102.139 44.5352 102.127 44.4562C102.093 44.3695 102.027 44.2986 101.944 44.2572C100.947 43.6091 100.075 42.7868 99.3702 41.8299C99.189 41.5832 98.9721 41.0022 98.7094 40.853C97.7739 40.3337 95.6502 42.6237 94.8998 43.1092Z" fill="#FFC0C6"/>
<path d="M142.175 41.5474L143.805 43.4097C144.155 43.8076 144.506 44.2055 144.824 44.6353C145.608 45.7141 146.236 46.8976 146.691 48.1509C147.046 49.0801 147.34 50.0709 147.217 51.0578C147.134 51.5637 146.997 52.0593 146.809 52.5361C146.51 53.4526 146.139 54.3441 145.7 55.2022C145.333 55.8533 144.919 56.4764 144.46 57.0664C143.197 58.7388 141.816 60.318 140.326 61.7918C139.769 62.3429 139.53 63.2363 139.293 63.9804C138.845 65.3552 137.78 66.4276 136.751 67.4423C136.42 67.7921 136.054 68.1068 135.659 68.3814C135.066 68.7636 134.373 68.9603 133.668 68.9465C133.361 68.9483 133.056 68.8852 132.775 68.7615C132.07 68.4272 131.712 67.6135 131.638 66.8375C131.573 66.1324 131.691 65.4225 131.98 64.7762C132.916 62.705 135.318 61.8077 137.016 60.2956C138.011 59.4102 138.774 58.296 139.526 57.1958C140.035 56.508 140.461 55.762 140.794 54.9734C141.172 53.9606 141.025 52.7629 141.357 51.7362C141.496 51.3005 141.755 50.9086 141.896 50.4768C142.038 50.0451 142.085 49.5337 141.821 49.1617C141.622 48.9238 141.369 48.738 141.082 48.6205C139.998 48.0713 138.783 47.363 138.576 46.1633C138.494 45.4989 138.667 44.8279 139.062 44.2871C139.455 43.7532 139.914 43.2717 140.429 42.8545C140.901 42.4288 141.699 41.9572 142.175 41.5474Z" fill="#FFC0C6"/>
<path d="M93.8525 45.7078C93.5659 45.1268 93.2056 44.5339 92.6245 44.2454C92.3416 44.1235 92.0368 44.0605 91.7288 44.0605C91.4207 44.0605 91.116 44.1235 90.8331 44.2454C90.2699 44.4889 89.7423 44.8074 89.2647 45.1925L87.8595 46.2291C87.541 46.4381 87.2592 46.6982 87.0255 46.9991C86.8027 47.3641 86.6552 47.77 86.5916 48.1929C86.3926 49.1618 86.2314 50.1586 86.3707 51.1395C86.5936 52.7312 87.549 54.108 88.5999 55.3177C89.2567 56.0698 90.0688 56.8298 91.068 56.8637C91.4999 56.8776 91.9796 56.7065 92.1587 56.3145C92.2212 56.1588 92.2542 55.9928 92.2562 55.8251C92.3637 54.0583 91.7308 52.3333 90.9943 50.7237C90.7953 50.2859 90.5803 49.8323 90.5963 49.3528C90.5902 49.2714 90.6111 49.1903 90.656 49.122C90.7192 49.0558 90.8038 49.0142 90.8948 49.0046C91.9039 48.8057 93.6435 49.5896 94.3501 48.4694C94.8079 47.7293 94.1789 46.3664 93.8525 45.7078Z" fill="#FFC0C6"/>
<path d="M114.622 19.8385C114.61 19.6935 114.631 19.5477 114.686 19.4127C114.847 19.1262 115.269 19.2137 115.587 19.2854C116.867 19.6077 118.217 19.3152 119.536 19.3908C120.856 19.4664 122.339 20.125 122.605 21.4182C123.562 20.7399 124.387 19.8931 125.04 18.9193C125.406 18.3701 125.724 17.7434 125.675 17.0868C125.603 16.1398 124.807 15.4315 124.082 14.8326L121.893 13.0419C121.605 12.7775 121.273 12.566 120.912 12.4172C120.404 12.2441 119.853 12.3276 119.319 12.3276C117.727 12.3276 116.019 11.6014 114.6 12.3276C114.003 12.6321 113.559 13.1553 113.129 13.6647L111.171 15.9806C111.023 16.1286 110.916 16.3113 110.858 16.5118C110.802 16.7944 110.948 17.0729 111 17.3574C111.091 17.8747 110.868 18.4278 111.039 18.9233C111.324 19.7489 112.327 19.8663 112.94 20.3399C113.167 20.515 113.525 21.1138 113.798 21.1059C114.27 21.0959 114.604 20.2205 114.622 19.8385Z" fill="#3F3D56"/>
<path d="M101.305 37.0131C101.052 37.1771 100.83 37.3838 100.648 37.6239C100.419 37.9721 100.372 38.4197 100.175 38.7779C99.7527 39.5618 98.7635 39.8423 98.1484 40.485C98.0487 40.5728 97.9791 40.6897 97.9494 40.8192C97.9456 40.9942 98.0041 41.1649 98.1146 41.3007L101.088 45.9724C102.083 46.0599 103.027 45.4391 104.018 45.5227C104.386 45.5526 104.766 45.6799 105.121 45.5705C105.374 45.4577 105.611 45.3126 105.827 45.1387C106.424 44.7647 107.205 44.7209 107.7 44.2295C108.196 43.738 108.238 43.0158 108.232 42.3453C108.241 41.7633 108.181 41.1824 108.055 40.6143C107.617 38.8236 106.245 37.4428 105.385 35.8551C104.965 35.0812 104.739 34.6295 103.853 35.1607C102.967 35.692 102.143 36.4003 101.305 37.0131Z" fill="#3F3D56"/>
<path d="M137.414 34.6513C137.973 35.014 138.477 35.4549 138.911 35.9605C139.363 36.5434 139.619 37.2597 140.055 37.8566C140.491 38.4535 141.051 38.8832 141.528 39.4165C142.255 40.2242 142.746 41.2071 143.228 42.184C142.049 43.7176 140.764 45.167 139.383 46.5214C139.229 46.7025 139.025 46.8352 138.797 46.9034C138.643 46.92 138.487 46.898 138.343 46.8393C138.199 46.7806 138.072 46.6871 137.973 46.5672C137.758 46.3443 137.607 46.0658 137.402 45.833C136.919 45.3351 136.275 45.0242 135.585 44.9556C134.9 44.8889 134.211 44.8789 133.525 44.9257C133.374 44.9436 133.222 44.918 133.085 44.8521C132.983 44.7823 132.901 44.6878 132.846 44.5775C132.05 43.2087 132.299 41.4896 132.584 39.9258L133.234 36.3445C133.329 35.6607 133.512 34.992 133.778 34.3549C134.025 33.8276 134.574 32.9323 135.255 33.0914C135.935 33.2506 136.839 34.2375 137.414 34.6513Z" fill="#3F3D56"/>
<path d="M80.654 60.9046L66.9423 63.708L66.6298 63.6781L54.5801 62.4625V47.1981L69.3307 44.7051L80.031 45.9526L80.035 46.0202V46.0521L80.654 60.9046Z" fill="#EF4744"/>
<path opacity="0.1" d="M80.6531 60.9044L66.9414 63.7078L66.6289 63.6779V48.0295L80.0341 46.02L80.6531 60.9044Z" fill="black"/>
<path opacity="0.05" d="M80.035 46.0521L80.031 46.056L66.6298 48.0297L54.5801 47.1981L69.3307 44.7051L80.031 45.9526L80.035 46.0202V46.0521Z" fill="black"/>
<path d="M87.8195 45.7833L74.1078 48.5886L73.7953 48.5568L61.7456 47.3411V32.0767L76.4963 29.5837L87.1965 30.8312L87.2005 30.8989V30.9307L87.8195 45.7833Z" fill="#3F3D56"/>
<path opacity="0.1" d="M87.8186 45.7833L74.1069 48.5887L73.7944 48.5569V32.9084L87.1996 30.8989L87.8186 45.7833Z" fill="black"/>
<path opacity="0.05" d="M87.2005 30.9307L87.1965 30.9347L73.7953 32.9084L61.7456 32.0767L76.4963 29.5837L87.1965 30.8312L87.2005 30.8989V30.9307Z" fill="black"/>
</g>
<defs>
<clipPath id="clip0">
<rect width="189" height="140" fill="white"/>
</clipPath>
</defs>
</svg>
