<svg width="201" height="141" viewBox="0 0 201 141" fill="none" xmlns="http://www.w3.org/2000/svg">
<path d="M198.728 83.0301C198.728 102.743 187.032 109.626 172.603 109.626C158.174 109.626 146.478 102.743 146.478 83.0301C146.478 63.3168 172.603 38.2385 172.603 38.2385C172.603 38.2385 198.728 63.3169 198.728 83.0301Z" fill="#F2F2F2"/>
<path d="M171.65 106.611L171.918 90.1125L183.053 69.7021L171.96 87.5245L172.08 80.1062L179.754 65.3393L172.112 78.1432L172.328 64.8011L180.546 53.0449L172.362 62.7031L172.497 38.2385L171.648 70.6251L171.718 69.2891L163.362 56.4755L171.584 71.8539L170.805 86.7547L170.782 86.3591L161.15 72.8747L170.753 87.7565L170.655 89.6198L170.638 89.6479L170.646 89.8009L168.671 127.606H171.31L171.626 108.079L181.206 93.2336L171.65 106.611Z" fill="#3F3D56"/>
<path d="M144.385 65.0879C144.385 90.5837 129.258 99.4858 110.597 99.4858C91.9356 99.4858 76.8079 90.5837 76.8079 65.0879C76.8079 39.5921 110.597 7.15747 110.597 7.15747C110.597 7.15747 144.385 39.5921 144.385 65.0879Z" fill="#F2F2F2"/>
<path d="M109.367 95.5857L109.713 74.248L124.114 47.8503L109.767 70.9008L109.923 61.3065L119.848 42.208L109.964 58.7675V58.7677L110.243 41.5118L120.872 26.307L110.287 38.7983L110.462 7.15747L109.364 49.0443L109.454 47.3163L98.6479 30.7442L109.281 50.6334L108.274 69.905L108.244 69.3935L95.7864 51.9537L108.206 71.2007L108.08 73.6108L108.058 73.6471L108.068 73.8449L105.513 122.739H108.926L109.336 97.4842L121.725 78.2845L109.367 95.5857Z" fill="#3F3D56"/>
<path d="M196.637 131.227C196.637 133.146 191.071 134.937 181.455 136.446C164.03 139.183 133.308 141 98.3176 141C44.0192 141 0 136.625 0 131.227C0 130.481 0.844919 129.75 2.44572 129.051C4.25112 128.26 7.02079 127.506 10.624 126.802C18.0521 125.35 29.0266 124.109 42.4127 123.186C57.9509 122.118 76.7418 121.482 97.0123 121.457C97.4462 121.455 97.8812 121.455 98.3176 121.455C100.76 121.455 103.18 121.464 105.579 121.482C106.706 121.489 107.828 121.5 108.945 121.512C120.884 121.639 132.183 121.979 142.45 122.492C142.909 122.514 143.365 122.539 143.82 122.562C143.975 122.569 144.131 122.579 144.286 122.587C144.328 122.588 144.37 122.59 144.411 122.594C146.429 122.7 148.402 122.814 150.331 122.934C150.964 122.972 151.591 123.012 152.212 123.054C158.25 123.446 163.824 123.904 168.836 124.418C169.692 124.506 170.532 124.595 171.356 124.686C177.698 125.382 183.039 126.174 187.154 127.034C193.235 128.304 196.637 129.725 196.637 131.227Z" fill="#3F3D56"/>
<path opacity="0.1" d="M142.643 135.589C154.475 135.589 164.066 133.363 164.066 130.616C164.066 127.869 154.475 125.643 142.643 125.643C130.812 125.643 121.221 127.869 121.221 130.616C121.221 133.363 130.812 135.589 142.643 135.589Z" fill="black"/>
<path opacity="0.1" d="M196.636 131.227C196.636 133.146 191.07 134.938 181.454 136.447C174.183 135.651 169.15 133.933 169.15 131.944C169.15 129.467 176.947 127.414 187.152 127.034C193.234 128.304 196.636 129.725 196.636 131.227Z" fill="black"/>
<path opacity="0.1" d="M106.593 128.958C106.593 132.235 83.2766 134.891 54.516 134.891C26.0255 134.891 2.87848 132.286 2.44653 129.051C7.9764 126.632 22.5352 124.556 42.4131 123.186C46.297 123.081 50.3499 123.025 54.516 123.025C83.2766 123.025 106.593 125.681 106.593 128.958Z" fill="black"/>
<path d="M97.0113 0H10.6235V129.656H97.0113V0Z" fill="#3F3D56"/>
<path d="M97.0106 45.022H15.8479V84.8088H97.0106V45.022Z" fill="#2F2E41"/>
<path d="M128.885 45.8945H48.5928V83.7619H128.885V45.8945Z" fill="#3F3D56"/>
<path d="M71.4531 51.4785H53.5137V57.9352H71.4531V51.4785Z" fill="#EF4744"/>
<path d="M123.963 62.8213H57.9531V64.5663H123.963V62.8213Z" fill="#EF4744"/>
<path d="M123.963 67.3584H57.9531V69.1034H123.963V67.3584Z" fill="#EF4744"/>
<path d="M123.963 71.8955H57.9531V73.6405H123.963V71.8955Z" fill="#EF4744"/>
<path d="M123.963 76.4326H57.9531V78.1777H123.963V76.4326Z" fill="#EF4744"/>
<path d="M34.312 14.6582H16.3726V21.1148H34.312V14.6582Z" fill="#F2F2F2"/>
<path d="M86.8247 26.001H20.8147V27.746H86.8247V26.001Z" fill="#F2F2F2"/>
<path d="M86.8247 30.5381H20.8147V32.2831H86.8247V30.5381Z" fill="#F2F2F2"/>
<path d="M86.8247 35.0752H20.8147V36.8202H86.8247V35.0752Z" fill="#F2F2F2"/>
<path d="M86.8247 39.6123H20.8147V41.3573H86.8247V39.6123Z" fill="#F2F2F2"/>
<path d="M35.009 88.8225H17.0696V95.2792H35.009V88.8225Z" fill="#F2F2F2"/>
<path d="M87.5195 100.165H21.5095V101.91H87.5195V100.165Z" fill="#F2F2F2"/>
<path d="M87.5195 104.702H21.5095V106.447H87.5195V104.702Z" fill="#F2F2F2"/>
<path d="M87.5195 109.239H21.5095V110.984H87.5195V109.239Z" fill="#F2F2F2"/>
<path d="M87.5195 113.776H21.5095V115.521H87.5195V113.776Z" fill="#F2F2F2"/>
<path d="M136.98 26.6601C136.98 26.6601 140.562 31.2573 140.114 34.509C139.666 37.7607 147.5 30.0239 147.5 30.0239C147.5 30.0239 144.814 24.4176 146.269 21.7266C147.724 19.0355 136.98 26.6601 136.98 26.6601Z" fill="#FFB9B9"/>
<path d="M149.514 119.725C149.514 119.725 154.214 124.883 153.431 126.004C152.648 127.126 138.883 131.386 137.316 131.162C135.749 130.938 134.966 129.817 135.525 129.48C136.085 129.144 139.666 127.238 139.666 127.238L142.688 123.762C142.688 123.762 144.926 122.529 144.926 121.856C144.926 121.183 149.514 119.725 149.514 119.725Z" fill="#2F2E41"/>
<path d="M141.569 125.444C141.569 125.444 139.778 128.359 139.442 128.471C139.107 128.583 141.121 132.62 141.121 132.62L145.821 131.162L148.395 129.032L147.836 126.116L141.569 125.444Z" fill="#FFB9B9"/>
<path d="M136.754 69.8289L134.516 79.8081C134.516 79.8081 126.794 97.1877 132.166 100.215L143.916 122.753L150.183 119.949L139.664 96.8514L144.476 70.2774L136.754 69.8289Z" fill="#D0CDE1"/>
<path opacity="0.1" d="M136.754 69.8289L134.516 79.8081C134.516 79.8081 126.794 97.1877 132.166 100.215L143.916 122.753L150.183 119.949L139.664 96.8514L144.476 70.2774L136.754 69.8289Z" fill="black"/>
<path d="M137.539 71.3986H136.404C136.315 74.8471 136.508 78.2971 136.98 81.7142C137.763 87.4327 139.777 100.551 139.777 100.551C139.777 100.551 139.554 103.018 140.225 103.803C140.897 104.588 141.008 103.579 141.12 105.373C141.232 107.167 142.295 119.64 142.295 119.64C142.295 119.64 143.023 122.192 142.239 122.753C141.456 123.313 139.889 126.341 141.008 126.789C142.128 127.238 149.849 127.798 150.185 127.462C150.521 127.125 150.185 106.046 150.185 106.046C150.185 106.046 149.961 101.785 149.737 101.561C149.514 101.336 148.506 98.309 148.842 97.6362C149.178 96.9634 148.954 94.9452 148.954 94.6088C148.954 94.2724 147.947 94.6088 148.842 93.1511C149.737 91.6935 149.849 80.0323 149.849 80.0323C149.849 80.0323 154.662 72.632 153.207 70.7258L137.539 71.3986Z" fill="#D0CDE1"/>
<path d="M140.114 28.342C144.193 28.342 147.5 25.0287 147.5 20.9416C147.5 16.8545 144.193 13.5413 140.114 13.5413C136.034 13.5413 132.728 16.8545 132.728 20.9416C132.728 25.0287 136.034 28.342 140.114 28.342Z" fill="#FFB9B9"/>
<path d="M147.499 28.7905C147.499 28.7905 143.023 29.9118 141.232 32.6028L139.665 32.9392V34.509C139.665 34.509 136.755 43.8155 137.427 47.852C138.098 51.8886 137.427 59.7374 136.308 61.8679C135.189 63.9983 134.853 64.4468 135.413 65.3438C135.972 66.2408 136.755 69.2682 136.196 70.6137C135.636 71.9592 136.196 73.3048 141.344 73.6411C146.492 73.9775 153.766 73.9775 153.766 72.1835C153.766 70.3895 153.318 65.3438 153.766 63.9983C154.214 62.6527 154.438 61.7557 154.214 60.5223C153.99 59.2889 154.661 45.4974 154.661 45.4974C154.661 45.4974 154.773 31.7058 147.499 28.7905Z" fill="#2F2E41"/>
<path d="M136.979 63.4377L130.824 72.6321C130.824 72.6321 124.333 78.5748 126.683 81.2659C129.034 83.9569 135.189 73.417 135.189 73.417L141.903 65.7924L136.979 63.4377Z" fill="#FFB9B9"/>
<path d="M140.896 129.032C140.896 129.032 140.672 127.574 139.888 127.574C139.105 127.574 133.845 131.162 133.845 131.162C133.845 131.162 126.907 131.947 129.593 133.405C132.278 134.862 148.729 135.086 148.841 134.526C148.953 133.965 149.177 128.437 148.394 128.454C147.61 128.471 141.343 129.704 141.343 129.704L140.896 129.032Z" fill="#2F2E41"/>
<path d="M140.639 17.1185C140.376 17.248 140.087 17.3135 139.795 17.3096C139.493 17.3268 139.132 17.308 138.972 17.0513C138.896 16.8824 138.861 16.6979 138.869 16.5129C138.838 16.2752 138.758 16.0464 138.636 15.8404C138.513 15.6344 138.35 15.4553 138.157 15.3141C137.964 15.1729 137.744 15.0724 137.51 15.0187C137.277 14.9651 137.036 14.9594 136.8 15.0019C136.832 15.3725 136.945 15.7316 137.13 16.0541C136.803 16.1653 136.454 16.1994 136.112 16.1537C135.769 16.1081 135.442 15.9838 135.155 15.7908L135.042 17.3011C134.64 17.4934 134.126 17.5335 133.776 17.2583C133.426 16.9832 133.398 16.3375 133.794 16.1342C133.305 16.032 132.706 15.8124 132.67 15.3131C132.637 14.8575 133.12 14.524 133.209 14.076C133.282 13.7106 133.082 13.3134 133.223 12.9689C133.409 12.5162 134.084 12.4 134.219 11.9298C134.288 11.6903 134.189 11.4341 134.213 11.186C134.275 10.5363 135.09 10.2666 135.74 10.3035C136.391 10.3404 137.101 10.5134 137.653 10.1677C137.921 10.0001 138.108 9.73182 138.343 9.52084C138.669 9.24121 139.073 9.07081 139.501 9.0336C139.928 8.99639 140.356 9.09425 140.724 9.3134C140.986 9.47636 141.214 9.70219 141.506 9.80124C142.103 10.0039 142.725 9.62042 143.35 9.53201C143.578 9.49283 143.812 9.50602 144.034 9.57058C144.257 9.63514 144.462 9.74938 144.634 9.90472C144.801 10.0656 144.91 10.2772 144.945 10.5067C144.979 10.7362 144.937 10.9707 144.825 11.1738C145.191 11.1118 145.579 11.0519 145.924 11.1893C146.269 11.3267 146.533 11.7407 146.373 12.0766C146.314 12.1647 146.267 12.2606 146.234 12.3615C146.202 12.557 146.39 12.724 146.579 12.7801C146.769 12.8361 146.975 12.8256 147.16 12.8937C147.928 13.175 147.743 14.4037 148.347 14.955C148.554 15.1059 148.773 15.24 149.002 15.356C149.302 15.5642 149.521 15.8693 149.623 16.2202C149.725 16.5711 149.704 16.9465 149.563 17.2836C149.442 17.5521 149.239 17.8084 149.264 18.102C149.298 18.5138 149.739 18.7393 150.048 19.0129C150.33 19.2734 150.522 19.6163 150.598 19.9929C150.675 20.3694 150.63 20.7605 150.472 21.1104C150.188 21.7041 149.573 22.1542 149.51 22.8097C149.483 23.0946 149.569 23.3791 149.564 23.6652C149.546 23.9298 149.468 24.1868 149.337 24.4172C149.206 24.6477 149.025 24.8455 148.807 24.9961C148.369 25.2937 147.875 25.4995 147.356 25.6013C147.112 25.6598 146.821 25.7514 146.762 25.9957C146.692 26.2853 147.014 26.5488 146.981 26.8449C146.96 26.9736 146.889 27.0887 146.783 27.165C146.347 27.5071 145.656 27.2138 145.389 26.7272C145.122 26.2406 145.156 25.6509 145.198 25.0971L145.348 23.0836C145.395 22.4571 145.39 21.7131 144.881 21.3472C144.317 20.9427 143.496 21.2702 142.859 20.9968C142.195 20.712 141.957 19.8785 141.984 19.1553C142.01 18.432 142.217 17.7077 142.098 16.9937C141.951 16.109 141.165 15.5143 140.372 16.0877C141.069 15.9925 141.19 16.794 140.639 17.1185Z" fill="#2F2E41"/>
<path opacity="0.1" d="M146.83 34.1725C146.83 34.1725 142.353 35.9666 142.353 39.7789C142.353 43.5912 142.577 48.6369 141.794 50.3188C141.01 52.0007 140.339 52.5613 140.787 53.9068C141.234 55.2523 142.018 55.0281 140.787 56.0372C139.555 57.0464 139.667 55.3645 139.555 57.0464C139.444 58.7283 140.675 58.9525 139.555 59.7374C138.436 60.5223 135.527 63.6618 136.758 64.671C137.989 65.6801 141.234 68.9318 142.353 67.6984C143.472 66.465 144.032 63.3254 145.599 63.5497C147.165 63.774 147.389 63.8861 147.165 62.7648C146.942 61.6435 145.934 61.6435 147.277 61.3072C148.62 60.9708 149.18 61.7557 148.732 60.6344C148.285 59.5131 147.949 59.0646 148.844 57.8312C149.739 56.5979 150.187 56.2615 150.075 55.0281C149.963 53.7947 152.537 42.6941 152.537 42.6941C152.537 42.6941 153.321 33.2755 146.83 34.1725Z" fill="black"/>
<path opacity="0.1" d="M145.597 33.9484C145.597 33.9484 141.12 35.7424 141.12 39.5547C141.12 43.367 141.344 48.4127 140.561 50.0946C139.777 51.7765 139.106 52.3372 139.553 53.6827C140.001 55.0282 140.784 54.804 139.553 55.8131C138.322 56.8222 138.434 55.1403 138.322 56.8222C138.21 58.5041 139.441 58.7284 138.322 59.5133C137.203 60.2982 134.294 63.4377 135.525 64.4468C136.756 65.456 140.001 68.7077 141.12 67.4743C142.239 66.2409 142.799 63.1013 144.366 63.3256C145.932 63.5498 146.156 63.662 145.932 62.5407C145.708 61.4194 144.701 61.4194 146.044 61.083C147.387 60.7467 147.947 61.5316 147.499 60.4103C147.051 59.289 146.716 58.8405 147.611 57.6071C148.506 56.3737 148.954 56.0374 148.842 54.804C148.73 53.5706 151.304 42.47 151.304 42.47C151.304 42.47 152.087 33.0514 145.597 33.9484Z" fill="black"/>
<path d="M146.157 33.612C146.157 33.612 141.681 35.406 141.681 39.2183C141.681 43.0306 141.905 48.0763 141.121 49.7582C140.338 51.4401 139.666 52.0007 140.114 53.3463C140.562 54.6918 141.345 54.4675 140.114 55.4767C138.883 56.4858 138.995 54.8039 138.883 56.4858C138.771 58.1677 140.002 58.392 138.883 59.1769C137.764 59.9617 134.854 63.1013 136.085 64.1104C137.316 65.1196 140.562 68.3712 141.681 67.1378C142.8 65.9044 143.36 62.7649 144.926 62.9892C146.493 63.2134 146.717 63.3255 146.493 62.2043C146.269 61.083 145.262 61.083 146.605 60.7466C147.948 60.4102 148.508 61.1951 148.06 60.0739C147.612 58.9526 147.276 58.5041 148.172 57.2707C149.067 56.0373 149.515 55.7009 149.403 54.4675C149.291 53.2341 151.865 42.1336 151.865 42.1336C151.865 42.1336 152.648 32.715 146.157 33.612Z" fill="#2F2E41"/>
<path d="M169.552 111.079C169.552 120.889 175.695 128.827 183.286 128.827L169.552 111.079Z" fill="#2F2E41"/>
<path d="M183.286 128.827C183.286 118.907 190.14 110.879 198.611 110.879L183.286 128.827Z" fill="#EF4744"/>
<path d="M174.527 111.968C174.527 121.286 178.444 128.827 183.285 128.827L174.527 111.968Z" fill="#EF4744"/>
<path d="M183.286 128.827C183.286 116.151 191.209 105.894 201 105.894L183.286 128.827Z" fill="#2F2E41"/>
<path d="M180.398 128.952C180.398 128.952 182.345 128.892 182.932 128.473C183.519 128.054 185.928 127.554 186.074 128.226C186.219 128.897 189.001 131.566 186.802 131.584C184.603 131.602 181.693 131.241 181.107 130.883C180.521 130.526 180.398 128.952 180.398 128.952Z" fill="#A8A8A8"/>
<path opacity="0.2" d="M186.841 131.35C184.642 131.368 181.732 131.007 181.146 130.65C180.7 130.377 180.522 129.4 180.463 128.949C180.422 128.951 180.398 128.952 180.398 128.952C180.398 128.952 180.521 130.526 181.107 130.883C181.693 131.241 184.603 131.602 186.802 131.584C187.437 131.579 187.656 131.353 187.644 131.018C187.556 131.22 187.314 131.346 186.841 131.35Z" fill="black"/>
</svg>
