<svg width="184" height="156" viewBox="0 0 184 156" fill="none" xmlns="http://www.w3.org/2000/svg">
<g clip-path="url(#clip0)">
<path d="M98.6091 144.301C52.4018 140.78 -2.70254 104.927 0.102902 68.0105C2.90835 31.094 56.2775 -3.27215 102.485 0.249118C148.692 3.77039 175.291 72.7611 172.485 109.678C169.68 146.594 144.816 147.823 98.6091 144.301Z" fill="#F2F2F2"/>
<path d="M87.9239 13.5547H0.236328V104.419H87.9239V13.5547Z" fill="#3F3D56"/>
<path d="M60.1781 50.2625C62.0862 53.7914 62.7849 57.85 62.167 61.815C61.5491 65.7801 59.6487 69.4325 56.7576 72.2115C53.8665 74.9904 50.1444 76.7424 46.1629 77.1983C42.1814 77.6543 38.1605 76.789 34.7175 74.7354C31.2745 72.6818 28.5997 69.5533 27.1039 65.8303C25.608 62.1073 25.3737 57.9956 26.437 54.1263C27.5003 50.2571 29.8023 46.8443 32.9897 44.4118C36.1771 41.9794 40.0736 40.6617 44.0811 40.6612C44.2262 40.6612 44.3709 40.6634 44.5153 40.6667L44.3218 32.8378C44.2415 32.837 44.1615 32.8347 44.0811 32.8347C38.3151 32.8364 32.7119 34.7494 28.1458 38.2752C23.5798 41.8011 20.3077 46.7414 18.8402 52.3252C17.3727 57.909 17.7924 63.8223 20.0338 69.1421C22.2751 74.462 26.2121 78.8892 31.2302 81.7329C36.2484 84.5766 42.0654 85.6768 47.7737 84.8619C53.4819 84.0469 58.7601 81.3626 62.7847 77.2278C66.8093 73.0931 69.3538 67.7405 70.0212 62.0053C70.6886 56.2701 69.4413 50.4751 66.474 45.5244L60.1781 50.2625Z" fill="#EF4744"/>
<path opacity="0.3" d="M60.1793 50.2624L66.4752 45.5243C64.176 41.6877 60.9317 38.5064 57.053 36.285C53.1743 34.0637 48.7911 32.8766 44.323 32.8376L44.5165 40.6666C47.7401 40.7422 50.8864 41.6695 53.6369 43.3546C56.3874 45.0397 58.6444 47.4227 60.1793 50.2624Z" fill="#EF4744"/>
<path d="M57.2126 81.595L66.3836 90.8653" stroke="#2F2E41" stroke-width="2" stroke-miterlimit="10"/>
<path d="M63.4607 24.7993L57.0867 36.1807" stroke="#2F2E41" stroke-width="2" stroke-miterlimit="10"/>
<path d="M74.0093 90.8652H58.95V94.3013H74.0093V90.8652Z" fill="#F2F2F2"/>
<path d="M70.577 21.3811H55.5176V24.8171H70.577V21.3811Z" fill="#F2F2F2"/>
<path d="M184 12.7913H96.312V49.4422H184V12.7913Z" fill="#3F3D56"/>
<path d="M131.738 41.043H121.825C121.149 37.127 121.149 33.1237 121.825 29.2078H131.738C130.621 33.0736 130.621 37.1771 131.738 41.043Z" fill="#FF6584"/>
<path d="M159.439 41.043H149.526C148.85 37.127 148.85 33.1237 149.526 29.2078H159.439C158.322 33.0736 158.322 37.1771 159.439 41.043Z" fill="#FF6584"/>
<path d="M117.663 33.0254H107.751C107.074 29.1094 107.074 25.1062 107.751 21.1902H117.663C116.547 25.056 116.547 29.1596 117.663 33.0254Z" fill="#EF4744"/>
<path d="M135.39 33.0254H145.303C145.979 29.1094 145.979 25.1062 145.303 21.1902H135.39C136.507 25.056 136.507 29.1596 135.39 33.0254Z" fill="#EF4744"/>
<path d="M162.651 33.0254H172.563C173.24 29.1094 173.24 25.1062 172.563 21.1902H162.651C163.768 25.056 163.768 29.1596 162.651 33.0254Z" fill="#EF4744"/>
<path d="M167.226 144.697C167.226 148.503 149.464 156 127.671 156C105.878 156 88.3069 148.503 88.3069 144.697C88.3069 140.89 105.878 142.215 127.671 142.215C149.464 142.215 167.226 140.89 167.226 144.697Z" fill="#3F3D56"/>
<path opacity="0.1" d="M167.226 144.697C167.226 148.503 149.464 156 127.671 156C105.878 156 88.3069 148.503 88.3069 144.697C88.3069 140.89 105.878 142.215 127.671 142.215C149.464 142.215 167.226 140.89 167.226 144.697Z" fill="black"/>
<path d="M127.671 151.609C149.464 151.609 167.131 148.524 167.131 144.717C167.131 140.91 149.464 137.824 127.671 137.824C105.878 137.824 88.2119 140.91 88.2119 144.717C88.2119 148.524 105.878 151.609 127.671 151.609Z" fill="#3F3D56"/>
<path opacity="0.1" d="M127.671 150.111C144.727 150.111 158.553 147.696 158.553 144.717C158.553 141.738 144.727 139.323 127.671 139.323C110.616 139.323 96.79 141.738 96.79 144.717C96.79 147.696 110.616 150.111 127.671 150.111Z" fill="black"/>
<path d="M114.041 103.846H104.128C103.452 99.93 103.452 95.9267 104.128 92.0107H114.041C112.924 95.8766 112.924 99.9801 114.041 103.846Z" fill="#EF4744"/>
<path d="M145.403 43.9153L146.766 44.5978C146.766 44.5978 154.149 63.1394 151.65 67.5757C149.151 72.012 141.313 80.3159 141.313 80.3159L139.836 76.1071L145.876 62.9952L145.403 43.9153Z" fill="#575A89"/>
<path opacity="0.1" d="M145.403 43.9153L146.766 44.5978C146.766 44.5978 154.149 63.1394 151.65 67.5757C149.151 72.012 141.313 80.3159 141.313 80.3159L139.836 76.1071L145.876 62.9952L145.403 43.9153Z" fill="black"/>
<path d="M143.925 136.623C143.925 136.623 145.856 141.06 144.833 141.401C143.811 141.742 142.561 141.742 141.312 141.742C140.062 141.742 138.586 141.287 138.358 140.832C138.131 140.377 139.267 137.42 139.267 137.42L143.925 136.623Z" fill="#F2F2F2"/>
<path d="M117.913 138.898C117.913 138.898 119.162 142.88 118.594 143.107C118.026 143.335 116.209 144.358 115.186 144.017C114.164 143.676 112.574 142.88 112.233 142.538C111.892 142.197 112.233 140.377 112.233 140.377L113.823 138.102L117.913 138.898Z" fill="#F2F2F2"/>
<path d="M140.29 79.7472L141.918 80.316C141.918 80.316 142.335 84.1836 141.88 85.5486C141.426 86.9136 140.403 96.81 140.971 98.8576C141.539 100.905 141.199 104.204 141.199 104.204C141.199 104.204 144.606 115.352 143.925 117.74C143.243 120.129 143.357 123.542 144.038 125.248C144.72 126.954 145.288 127.637 144.947 129.002C144.606 130.367 143.925 131.049 144.606 132.187C145.288 133.324 146.651 133.666 145.97 134.689C145.288 135.713 144.606 136.509 144.834 137.192C145.061 137.874 138.813 139.126 138.245 138.102C138.245 138.102 140.063 136.509 138.245 135.599C136.428 134.689 136.996 131.277 136.996 131.277C136.996 131.277 133.815 118.195 133.929 117.172C134.042 116.148 128.931 100.223 128.931 100.223C128.931 100.223 121.433 122.973 120.979 123.997C120.525 125.021 121.547 127.523 120.979 128.206C120.411 128.888 121.206 130.594 120.411 131.277C119.616 131.959 121.774 134.462 120.411 135.372C119.048 136.282 118.366 139.126 118.48 139.695C118.593 140.263 112.8 139.581 112.8 138.785C112.8 137.988 112.914 137.306 112.346 135.941C111.778 134.576 111.437 133.666 111.891 133.211C112.346 132.756 112.687 132.187 112.232 130.594C111.778 129.002 112.914 124.11 112.573 123.2C112.232 122.29 112.346 116.148 112.346 116.148C112.346 116.148 113.482 107.161 113.141 105.683C112.8 104.204 113.141 103.863 113.255 103.294C113.368 102.725 114.05 96.5825 114.504 95.6725C114.958 94.7625 115.526 79.1785 118.139 78.3822C120.752 77.586 140.29 79.7472 140.29 79.7472Z" fill="#2F2E41"/>
<path d="M141.199 140.718C141.199 140.718 145.289 140.036 145.516 140.718C145.743 141.401 146.425 146.747 144.834 146.861C143.244 146.975 140.518 147.316 140.063 146.292C139.609 145.268 137.451 144.586 137.451 144.586C137.451 144.586 134.27 143.676 134.27 142.652C134.27 141.628 134.384 140.036 134.952 139.922C135.52 139.808 137.791 138.557 137.791 138.102C137.791 137.647 141.199 140.718 141.199 140.718Z" fill="#2F2E41"/>
<path d="M115.641 142.538C115.641 142.538 118.594 141.628 119.276 142.197C119.957 142.766 120.866 149.022 119.276 148.908C117.685 148.795 113.482 149.477 113.255 148.567C113.028 147.657 109.961 147.43 109.961 147.43C109.961 147.43 106.667 145.837 106.894 144.131C107.121 142.425 107.462 141.856 108.825 141.742C110.188 141.628 111.211 140.036 111.324 139.922C111.438 139.808 112.439 138.977 112.563 139.904C112.687 140.832 114.164 142.88 115.641 142.538Z" fill="#2F2E41"/>
<path d="M124.955 32.3125C128.782 32.3125 131.884 29.2059 131.884 25.3737C131.884 21.5415 128.782 18.4348 124.955 18.4348C121.128 18.4348 118.025 21.5415 118.025 25.3737C118.025 29.2059 121.128 32.3125 124.955 32.3125Z" fill="#FFB9B9"/>
<path d="M130.976 26.9663C130.976 26.9663 131.43 34.5877 133.134 35.2702C134.838 35.9527 124.501 35.9527 124.501 35.9527C124.501 35.9527 124.387 31.1751 122.91 30.0376C121.434 28.9001 130.976 26.9663 130.976 26.9663Z" fill="#FFB9B9"/>
<path d="M133.702 33.5638C133.702 33.5638 126.659 30.9475 124.16 35.0426C124.16 35.0426 116.208 38.7964 115.64 41.0714C115.072 43.3465 120.411 60.4093 120.411 60.4093C120.411 60.4093 120.411 74.5145 119.275 75.9933C118.14 77.4721 115.981 79.0646 117.458 79.4059C118.935 79.7471 142.108 82.2497 141.994 80.7709C141.881 79.2921 140.404 78.0408 141.994 77.1308C143.585 76.2208 142.221 75.197 143.244 72.2395C144.266 69.2819 146.765 44.8253 146.765 44.8253C146.765 44.8253 145.061 41.754 144.72 41.4127C144.38 41.0714 133.702 33.5638 133.702 33.5638Z" fill="#575A89"/>
<path d="M113.37 83.3872C113.37 83.3872 108.939 93.3974 112.802 94.7624C116.664 96.1274 116.437 84.1835 116.437 84.1835L113.37 83.3872Z" fill="#FFB9B9"/>
<path d="M128.278 26.6642C127.876 25.8583 127.275 24.9285 126.377 24.9776C125.923 25.0024 125.531 25.2854 125.126 25.4931C124.721 25.7008 124.203 25.8296 123.833 25.5649C123.291 25.1776 123.459 24.2592 122.975 23.8024C122.446 23.3037 121.383 23.5821 121.042 22.9401C120.86 22.5972 121.007 22.1719 120.928 21.7918C120.374 21.8022 119.803 21.8095 119.291 21.6013C118.778 21.3931 118.334 20.9108 118.348 20.3569C118.363 20.1681 118.416 19.9844 118.503 19.8163C118.59 19.6483 118.71 19.4994 118.856 19.3782C119.554 18.7424 120.564 18.6205 121.426 18.2349C122.111 17.928 122.708 17.4497 123.382 17.1178C124.542 16.5465 125.88 16.4357 127.169 16.5343C129.123 16.6839 131.099 17.3333 132.517 18.6892C133.934 20.0451 134.684 22.1842 134.073 24.0491C133.726 25.1058 132.992 25.994 132.583 27.0278C132.332 27.7353 132.158 28.4678 132.064 29.2127L131.776 30.9795C131.821 30.7045 131.218 30.0149 131.02 29.8508C130.589 29.4928 129.962 29.6143 129.561 29.2827C128.969 28.7923 128.626 27.3634 128.278 26.6642Z" fill="#2F2E41"/>
<path opacity="0.1" d="M118.254 40.2753L116.436 41.4128C116.436 41.4128 113.483 59.2719 113.824 61.7744C114.164 64.277 112.461 78.3822 113.029 79.5197C113.597 80.6573 113.824 80.8848 113.824 81.5673C113.824 82.2498 112.233 84.7523 113.256 85.2073C114.278 85.6623 118.027 86.4586 118.027 85.2073C118.027 83.9561 117.345 82.2498 118.595 81.4535C119.844 80.6573 120.753 75.5384 120.753 75.5384C120.753 75.5384 121.321 70.3058 121.889 69.2821C122.457 68.2583 123.252 64.5045 123.252 62.912C123.252 61.3194 124.615 54.8356 123.82 51.5368C123.025 48.238 122.798 39.3653 118.254 40.2753Z" fill="black"/>
<path d="M117.459 39.934L115.641 41.0715C115.641 41.0715 112.688 58.9306 113.029 61.4331C113.37 63.9357 111.666 78.0409 112.234 79.1784C112.802 80.316 113.029 80.5435 113.029 81.226C113.029 81.9085 111.438 84.411 112.461 84.866C113.483 85.321 117.232 86.1173 117.232 84.866C117.232 83.6148 116.55 81.9085 117.8 81.1122C119.049 80.316 119.958 75.1971 119.958 75.1971C119.958 75.1971 120.526 69.9645 121.094 68.9408C121.662 67.917 122.457 64.1632 122.457 62.5707C122.457 60.9781 123.82 54.4943 123.025 51.1955C122.23 47.8967 122.003 39.024 117.459 39.934Z" fill="#575A89"/>
</g>
<defs>
<clipPath id="clip0">
<rect width="184" height="156" fill="white"/>
</clipPath>
</defs>
</svg>
