<svg width="221" height="166" viewBox="0 0 221 166" fill="none" xmlns="http://www.w3.org/2000/svg">
<g clip-path="url(#clip0)">
<path opacity="0.4" d="M186.521 63.8206C189.446 63.8206 191.816 61.4513 191.816 58.5285C191.816 55.6057 189.446 53.2363 186.521 53.2363C183.596 53.2363 181.226 55.6057 181.226 58.5285C181.226 61.4513 183.596 63.8206 186.521 63.8206Z" fill="#EF4744"/>
<path opacity="0.4" d="M74.8713 34.7052C79.0404 34.7052 82.4201 31.3276 82.4201 27.1611C82.4201 22.9946 79.0404 19.6169 74.8713 19.6169C70.7022 19.6169 67.3225 22.9946 67.3225 27.1611C67.3225 31.3276 70.7022 34.7052 74.8713 34.7052Z" fill="#EF4744"/>
<path opacity="0.4" d="M60.9002 36.0562C63.8248 36.0562 66.1956 33.6868 66.1956 30.7641C66.1956 27.8413 63.8248 25.4719 60.9002 25.4719C57.9756 25.4719 55.6047 27.8413 55.6047 30.7641C55.6047 33.6868 57.9756 36.0562 60.9002 36.0562Z" fill="#EF4744"/>
<path d="M190.958 117.708C186.774 122.286 186.622 128.955 186.622 128.955C186.622 128.955 193.254 128.201 197.438 123.623C201.622 119.045 201.774 112.376 201.774 112.376C201.774 112.376 195.142 113.13 190.958 117.708Z" fill="#3F3D56"/>
<path d="M193.322 119.026C192.056 125.096 186.734 129.121 186.734 129.121C186.734 129.121 183.465 123.306 184.731 117.236C185.997 111.166 191.319 107.14 191.319 107.14C191.319 107.14 194.588 112.956 193.322 119.026Z" fill="#EF4744"/>
<path d="M187.887 56.3931V128.751L163.752 148.676H40.2822V72.8223L76.3088 56.3931H187.887Z" fill="#3F3D56"/>
<path opacity="0.1" d="M187.887 56.3931V56.683L179.223 62.4788L163.752 72.8223H40.2822L76.3088 56.3931H187.887Z" fill="black"/>
<path opacity="0.1" d="M187.886 56.3931V128.751L163.752 148.676L163.927 72.6475L179.222 62.4788L187.746 56.3931H187.886Z" fill="black"/>
<path d="M155.356 66.3553H80.1553L85.7517 63.2092H157.805L155.356 66.3553Z" fill="#2F2E41"/>
<path d="M220.262 152.612C220.262 152.612 221.72 158.704 220.394 158.969C219.069 159.234 212.575 159.149 210.984 159.414C209.394 159.678 206.081 159.234 206.081 158.042C206.081 156.85 209.526 156.055 209.526 156.055C209.526 156.055 214.43 153.406 214.563 153.274C214.695 153.141 220.262 152.612 220.262 152.612Z" fill="#2F2E41"/>
<path d="M219.068 116.717C219.068 116.717 218.671 121.221 218.671 121.618C218.671 122.015 219.068 128.24 218.671 128.505C218.273 128.77 218.936 130.625 218.936 131.287C218.936 131.949 221.056 142.943 220.526 147.181C219.996 151.419 221.321 151.022 220.924 151.419C220.526 151.817 220.526 151.817 220.526 152.612C220.526 153.406 216.285 154.068 216.285 154.068L211.646 124.797L214.032 116.055L219.068 116.717Z" fill="#575A89"/>
<path opacity="0.1" d="M219.068 116.717C219.068 116.717 218.671 121.221 218.671 121.618C218.671 122.015 219.068 128.24 218.671 128.505C218.273 128.77 218.936 130.625 218.936 131.287C218.936 131.949 221.056 142.943 220.526 147.181C219.996 151.419 221.321 151.022 220.924 151.419C220.526 151.817 220.526 151.817 220.526 152.612C220.526 153.406 216.285 154.068 216.285 154.068L211.646 124.797L214.032 116.055L219.068 116.717Z" fill="black"/>
<path d="M218.407 154.466C218.407 154.466 219.732 159.234 218.407 159.499C217.082 159.764 210.588 159.195 208.997 159.46C207.407 159.725 204.094 159.764 204.094 158.572C204.094 157.38 207.539 156.585 207.539 156.585C207.539 156.585 212.443 153.936 212.576 153.803C212.708 153.671 218.407 154.466 218.407 154.466Z" fill="#2F2E41"/>
<path d="M220.261 111.419C220.261 111.419 221.852 115.26 219.996 117.247C218.141 119.234 216.02 123.207 216.02 123.472C216.02 123.737 219.731 150.095 219.201 151.817C218.671 153.539 218.803 154.598 218.936 154.863C219.068 155.128 217.611 156.585 216.02 156.585C214.43 156.585 212.044 155.393 211.779 154.333C211.514 153.274 212.177 144.135 212.044 142.413C211.912 140.691 211.249 138.174 210.984 137.645C210.719 137.115 209.261 136.585 208.996 134.996C208.731 133.406 206.61 113.141 207.273 112.479C207.936 111.817 220.261 111.419 220.261 111.419Z" fill="#575A89"/>
<path d="M210.188 80.9554C212.677 80.9554 214.694 78.9392 214.694 76.4521C214.694 73.9649 212.677 71.9487 210.188 71.9487C207.7 71.9487 205.682 73.9649 205.682 76.4521C205.682 78.9392 207.7 80.9554 210.188 80.9554Z" fill="#FFB9B9"/>
<path d="M212.971 78.7037C212.971 78.7037 212.043 83.6044 212.706 84.1342C213.369 84.664 207.67 85.4587 207.67 85.4587C207.67 85.4587 207.007 78.9686 206.874 78.3064C206.742 77.6441 212.971 78.7037 212.971 78.7037Z" fill="#FFB9B9"/>
<path d="M206.874 85.0612C206.874 85.0612 208.465 80.4254 214.959 81.75C214.959 81.75 216.152 82.1473 215.754 82.5447C215.356 82.942 214.959 82.942 215.489 83.3394C216.019 83.7367 216.682 83.3394 216.284 83.7367C215.887 84.1341 219.863 86.5182 219.598 91.0216C219.333 95.5249 220.525 101.883 219.598 102.942C218.67 104.002 220.26 108.638 219.995 109.565C219.73 110.492 221.586 111.684 220.79 112.081C219.995 112.479 205.682 114.863 205.284 112.081C204.886 109.3 205.151 111.287 204.754 110.624C204.356 109.962 204.224 108.77 204.489 107.313C204.754 105.856 205.416 102.28 205.151 100.955C204.886 99.6309 205.151 88.505 205.947 87.1805C206.742 85.856 206.874 85.0612 206.874 85.0612Z" fill="#EF4744"/>
<path d="M209.659 117.379C209.659 117.379 211.647 124.929 209.129 124.929C206.611 124.929 206.743 117.115 206.743 117.115L209.659 117.379Z" fill="#FFB9B9"/>
<path d="M208.202 76.4519C208.202 76.836 208.758 77.0797 209.621 77.1353H209.622C209.988 77.1561 210.355 77.149 210.72 77.1141C211.271 77.0638 211.499 77.5817 211.593 78.2651C211.747 79.3923 211.532 80.9724 211.78 81.2201C212.122 81.5618 214.615 81.2188 215.394 80.444C215.516 80.3353 215.596 80.1886 215.624 80.0281C215.705 79.5549 215.939 79.1212 216.289 78.7923C216.749 78.2903 217.403 77.734 218.142 76.8492C219.467 75.2598 218.142 75.1274 217.744 73.9353C217.347 72.7433 216.684 72.3459 216.684 71.5512C216.684 70.7565 213.636 70.0942 211.117 70.2267C208.599 70.3591 209.129 73.538 209.129 73.538C209.129 73.538 208.98 73.9221 208.801 74.4174C208.559 75.039 208.362 75.6774 208.212 76.3274C208.206 76.3686 208.202 76.4102 208.202 76.4519Z" fill="#2F2E41"/>
<path opacity="0.1" d="M208.731 87.0481C208.731 87.0481 213.237 86.7832 213.635 93.4057C214.032 100.028 213.9 106.254 213.9 106.386C213.9 106.518 212.044 119.101 210.321 119.101C208.599 119.101 207.273 118.836 206.876 118.174C206.478 117.512 207.936 107.975 207.936 107.975C207.936 107.975 208.599 97.9091 207.538 94.7303C206.478 91.5514 206.345 87.4454 208.731 87.0481Z" fill="black"/>
<path d="M208.068 86.3857C208.068 86.3857 212.574 86.1208 212.971 92.7434C213.369 99.366 213.237 105.591 213.237 105.724C213.237 105.856 211.381 118.439 209.658 118.439C207.935 118.439 206.61 118.174 206.212 117.512C205.815 116.85 207.273 107.313 207.273 107.313C207.273 107.313 207.935 97.2467 206.875 94.0679C205.815 90.8891 205.682 86.7831 208.068 86.3857Z" fill="#EF4744"/>
<path d="M133.346 21.642C133.346 21.642 131.382 16.0813 129.963 17.8258C128.545 19.5704 132.145 22.5142 132.145 22.5142L133.346 21.642Z" fill="#A0616A"/>
<path d="M142.621 16.1904L141.44 16.628C141.44 16.628 140.875 19.1343 141.093 19.5704C141.312 20.0066 141.421 19.6795 141.093 20.5517C140.766 21.424 139.784 23.7137 139.675 24.0408C139.566 24.3679 133.347 21.9691 133.347 20.7698C133.347 20.7698 132.038 22.2962 131.384 22.6233C131.384 22.6233 138.584 27.8569 139.566 28.5111C140.548 29.1653 141.093 28.8382 141.966 28.075C142.839 27.3117 146.548 20.9879 146.548 20.9879L142.621 16.1904Z" fill="#575A89"/>
<path d="M139.456 54.8967C139.456 54.8967 139.565 56.0961 139.784 56.2051C140.002 56.3141 141.638 59.0399 139.784 59.5851C137.929 60.1302 136.838 59.9122 136.402 60.1302C135.965 60.3483 128.328 60.7844 128.219 59.5851C128.11 58.3857 131.928 58.1677 131.928 58.1677C131.928 58.1677 135.42 55.878 135.965 54.6786C136.511 53.4793 139.456 54.8967 139.456 54.8967Z" fill="#2F2E41"/>
<path d="M161.603 57.0774C161.603 57.0774 164.221 61.5477 163.566 62.0929C162.912 62.638 156.537 64.6247 155.602 64.7097C154.402 64.8187 153.529 63.8374 154.511 63.2922C155.493 62.7471 157.566 60.4574 157.566 59.6942V57.7316L161.603 57.0774Z" fill="#2F2E41"/>
<path d="M164.114 27.8569C164.114 27.8569 166.405 30.6918 162.805 35.2711L156.804 42.9034C156.804 42.9034 160.514 48.7911 160.623 51.844C160.732 54.8969 161.496 54.2427 161.714 55.5511C161.932 56.8595 162.914 56.2053 162.15 57.1866C161.386 58.1679 158.55 59.0402 157.677 58.2769C157.377 58.0025 157.142 57.6639 156.991 57.2863C156.84 56.9088 156.776 56.502 156.804 56.0963C156.804 55.6602 155.277 53.1524 155.168 52.3892C155.059 51.626 151.022 45.4111 151.022 45.4111C151.022 45.4111 149.713 41.704 151.24 39.6324C152.768 37.5608 153.777 34.6227 153.777 34.6227C153.777 34.6227 149.276 40.0686 146.112 41.3769C146.112 41.3769 144.912 41.595 145.131 42.1402C145.349 42.6853 145.131 43.0124 144.803 43.5576C144.476 44.1028 142.185 50.4266 141.421 52.0621C140.657 53.6976 140.985 54.6789 140.112 55.224C139.239 55.7692 135.312 55.3331 135.312 54.7879C135.312 54.2428 135.857 52.8253 136.184 52.0621C136.512 51.2989 139.13 42.4673 138.912 40.9408C138.694 39.4144 139.021 37.3427 140.657 36.4705C142.294 35.5982 150.586 28.5111 151.022 28.5111C151.458 28.5111 164.114 27.8569 164.114 27.8569Z" fill="#2F2E41"/>
<path d="M142.184 10.7388C144.715 10.7388 146.766 8.68855 146.766 6.15944C146.766 3.63033 144.715 1.58008 142.184 1.58008C139.654 1.58008 137.602 3.63033 137.602 6.15944C137.602 8.68855 139.654 10.7388 142.184 10.7388Z" fill="#A0616A"/>
<path d="M145.895 6.59546C145.895 6.59546 147.313 9.1032 149.058 9.43031C150.804 9.75742 144.476 14.7729 144.476 14.7729C144.476 14.7729 142.949 9.97547 141.64 9.75741C140.33 9.53934 145.895 6.59546 145.895 6.59546Z" fill="#A0616A"/>
<path d="M141.419 16.8447C141.419 18.2621 145.674 22.2963 145.674 22.2963L149.711 25.6763C149.711 25.6763 149.82 26.8756 150.256 26.9846C150.693 27.0937 151.238 27.0937 150.802 27.7479C150.365 28.4021 149.274 29.8195 150.256 30.0376C150.552 30.0825 150.851 30.1109 151.15 30.1226C151.412 30.1379 151.719 30.152 152.065 30.1651C152.872 30.1935 153.883 30.212 154.977 30.2044C155.288 30.2033 155.604 30.1996 155.926 30.1935C160.051 30.1117 164.83 29.6374 164.439 28.075C163.785 25.4582 164.221 24.5859 162.803 23.1685C161.384 21.7511 159.093 16.8446 159.093 16.8446C159.093 16.8446 154.511 9.10335 150.693 9.10335L149.9 8.89509C149.531 8.79807 149.141 8.81935 148.785 8.95594C148.43 9.09252 148.126 9.33748 147.917 9.65614C147.151 10.8217 145.944 12.5728 145.238 13.1375C144.147 14.0098 143.976 13.384 143.976 13.384C143.976 13.384 141.419 15.4272 141.419 16.8447Z" fill="#575A89"/>
<path d="M151.132 33.4175C151.132 33.4175 147.968 38.3239 149.931 39.1962C151.895 40.0684 152.986 34.0717 152.986 34.0717L151.132 33.4175Z" fill="#A0616A"/>
<path d="M145.18 5.6421C145.004 5.61993 144.948 5.39817 144.918 5.22351C144.76 4.2882 144.062 3.40128 143.125 3.25029C142.767 3.20267 142.403 3.232 142.057 3.33634C141.561 3.47224 141.096 3.70107 140.686 4.01064C140.486 4.19392 140.254 4.33955 140.001 4.44053C139.829 4.49099 139.099 4.81536 138.929 4.87025C138.554 4.99091 138.243 5.38321 137.857 5.30554C137.487 5.23123 137.347 4.78528 137.288 4.41328C137.152 3.56579 137.638 2.30127 138.12 1.5914C138.487 1.0527 139.106 0.742682 139.726 0.54099C140.452 0.32078 141.198 0.172666 141.953 0.0987987C142.972 -0.0214978 144.028 -0.0853215 145.004 0.229527C145.981 0.544376 146.87 1.31457 147.053 2.32392C147.091 2.53417 147.098 2.74953 147.144 2.95806C147.258 3.46677 147.595 3.89436 147.791 4.37717C147.933 4.73176 147.999 5.1121 147.984 5.49366C147.97 5.87523 147.876 6.24954 147.708 6.59248C147.436 7.13924 146.963 7.66464 147.065 8.26668L146.223 7.60324C146.101 7.53415 146.007 7.42546 145.956 7.29529C145.905 7.16513 145.9 7.02137 145.942 6.88801L146.064 5.83448C146.107 5.64361 146.088 5.44424 146.01 5.26487C145.635 4.61161 145.473 5.67908 145.18 5.6421Z" fill="#2F2E41"/>
<path opacity="0.1" d="M153.093 25.8943L152.065 30.1651C153.102 30.2022 154.473 30.2218 155.926 30.1935C156.293 29.0944 156.643 27.9485 156.912 26.8756C157.894 22.9504 156.257 16.9537 155.384 14.1188C154.511 11.284 152.329 10.5208 152.329 10.5208C151.435 10.8352 150.59 11.2757 149.82 11.8291C148.402 12.8104 153.093 25.8943 153.093 25.8943Z" fill="black"/>
<path opacity="0.1" d="M152.222 25.6762L151.151 30.1225C151.413 30.1378 151.721 30.152 152.067 30.1651C152.874 30.1934 153.884 30.212 154.979 30.2043C155.372 29.0366 155.753 27.8045 156.04 26.6575C157.022 22.7323 155.386 16.7356 154.513 13.9007C153.64 11.0659 151.731 14.1733 151.731 14.1733C151.731 14.1733 152.494 12.3197 151.076 13.301C149.658 14.2823 152.222 25.6762 152.222 25.6762Z" fill="black"/>
<path d="M151.895 10.3025C151.895 10.3025 154.077 11.0657 154.949 13.9006C155.822 16.7354 157.459 22.7322 156.477 26.6573C155.495 30.5825 153.422 35.489 153.422 35.489C153.422 35.489 151.349 33.9625 150.585 34.2896L152.658 25.676C152.658 25.676 147.967 12.5922 149.385 11.6109C150.155 11.0575 151 10.6169 151.895 10.3025Z" fill="#575A89"/>
<path d="M153.519 64.9923L123.335 2.13135L72.864 26.3362L91.4259 64.9923H153.519Z" fill="#F2F2F2"/>
<path d="M113.122 26.8058L86.3149 39.6619L87.1134 41.3247L113.92 28.4686L113.122 26.8058Z" fill="#3F3D56"/>
<path d="M120.219 41.5863L93.4126 54.4424L94.2111 56.1052L121.018 43.2492L120.219 41.5863Z" fill="#3F3D56"/>
<path d="M125.094 18.1087L118.439 21.3005L121.633 27.9519L128.288 24.76L125.094 18.1087Z" fill="#3F3D56"/>
<path d="M132.192 32.8897L125.536 36.0815L128.73 42.7329L135.386 39.541L132.192 32.8897Z" fill="#3F3D56"/>
<path d="M125.552 13.5015L122.811 21.2953L119.116 19.9973L118.611 21.435L123.74 23.2363L126.991 14.0068L125.552 13.5015Z" fill="#57B894"/>
<path d="M132.65 28.2825L129.91 36.0763L126.215 34.7786L125.709 36.216L130.838 38.0173L134.089 28.7878L132.65 28.2825Z" fill="#57B894"/>
<path d="M2.91318 137.341L16.5503 134.43L13.6373 120.802L0.000184974 123.713L2.91318 137.341Z" fill="#F2F2F2"/>
<path d="M16.1722 117.16C16.1722 117.16 11.1633 120.736 12.8329 122.166C14.5026 123.596 17.8419 117.875 17.8419 117.875L16.1722 117.16Z" fill="#FFB9B9"/>
<path d="M39.3081 122.643C39.3081 122.643 38.354 134.561 38.1155 136.23C37.877 137.899 37.6385 152.916 37.1614 154.585C36.6844 156.253 36.2073 160.306 36.2073 160.306H33.3451C33.3451 160.306 33.5836 152.916 32.8681 150.056C32.1525 147.195 32.391 139.329 32.391 139.329C32.391 139.329 30.9599 125.265 31.6755 123.358C32.391 121.451 39.3081 122.643 39.3081 122.643Z" fill="#FFB9B9"/>
<path d="M35.4907 159.591C35.4907 159.591 36.6833 160.306 36.6833 160.782C36.6833 161.259 36.4448 162.451 36.6833 162.928C36.9218 163.405 38.5914 165.312 37.6374 165.788C36.6833 166.265 32.3899 165.788 32.3899 165.788C32.3899 165.788 32.6284 162.451 32.8669 162.213C33.1055 161.974 32.6284 159.591 32.6284 159.591H35.4907Z" fill="#2F2E41"/>
<path d="M21.073 122.351C21.073 122.351 20.77 134.304 20.8319 135.988C20.8939 137.672 19.5538 152.632 19.8529 154.341C20.1521 156.051 20.2009 160.131 20.2009 160.131L23.0473 160.431C23.0473 160.431 23.5862 153.057 24.5983 150.288C25.6103 147.518 26.1993 139.67 26.1993 139.67C26.1993 139.67 29.0997 125.834 28.5884 123.863C28.0771 121.891 21.073 122.351 21.073 122.351Z" fill="#FFB9B9"/>
<path d="M20.9872 159.495C20.9872 159.495 19.7261 160.081 19.676 160.555C19.6259 161.029 19.7379 162.239 19.4507 162.688C19.1634 163.137 17.3027 164.859 18.2014 165.433C19.1002 166.007 23.4199 165.983 23.4199 165.983C23.4199 165.983 23.5332 162.64 23.321 162.377C23.1089 162.115 23.8336 159.795 23.8336 159.795L20.9872 159.495Z" fill="#2F2E41"/>
<path d="M35.9669 104.765C35.9669 104.765 37.875 105.003 38.5906 109.055C39.3061 113.108 41.9299 123.358 39.7832 124.073C37.6365 124.788 31.1964 126.218 30.9579 125.741C30.7194 125.265 30.2424 124.073 30.2424 124.073C30.2424 124.073 30.9579 126.218 30.0038 126.218C29.0498 126.218 19.7474 124.788 19.986 124.073C20.2245 123.358 20.7015 118.114 20.7015 118.114C20.7015 118.114 22.1326 109.294 23.5638 107.863C23.9779 107.466 24.2995 106.982 24.5056 106.447C24.7117 105.911 24.7973 105.337 24.7564 104.765H35.9669Z" fill="#2F2E41"/>
<path d="M39.5455 102.858C39.5455 102.858 36.4447 102.143 35.9677 103.096C35.4906 104.05 37.1603 105.48 37.8758 105.48C38.5914 105.48 39.784 104.765 39.784 104.765L39.5455 102.858Z" fill="#FFB9B9"/>
<path d="M33.1071 82.5961C35.4783 82.5961 37.4005 80.6751 37.4005 78.3054C37.4005 75.9357 35.4783 74.0146 33.1071 74.0146C30.7359 74.0146 28.8137 75.9357 28.8137 78.3054C28.8137 80.6751 30.7359 82.5961 33.1071 82.5961Z" fill="#FFB9B9"/>
<path d="M32.3895 81.4041C32.3895 81.4041 31.6739 84.7413 32.151 84.7413C32.628 84.7413 28.5732 86.8867 28.5732 86.8867L25.4724 86.4099L24.5183 84.9797C24.5183 84.9797 29.5273 81.6425 29.5273 79.7355C29.5273 77.8285 32.3895 81.4041 32.3895 81.4041Z" fill="#FFB9B9"/>
<path d="M30.243 84.7414C30.243 84.7414 30.9585 84.2646 31.197 84.2646H33.1052C33.3437 84.2646 36.4445 84.9798 36.4445 84.9798L38.3527 95.7066C38.3527 95.7066 35.0134 101.189 37.3986 105.48C37.3986 105.48 36.683 105.003 33.3437 105.241C30.0044 105.48 24.0414 106.195 23.8029 106.195C23.5644 106.195 23.5644 104.288 23.8029 103.811C24.0414 103.334 23.5644 103.573 23.5644 102.381C23.5644 101.189 22.8488 99.0438 22.8488 99.0438L19.5095 86.8867C19.5095 86.8867 23.8029 84.503 24.5185 84.7414C25.234 84.9798 27.3807 85.6949 27.8578 85.4565C28.3348 85.2181 30.243 84.7414 30.243 84.7414Z" fill="#EF4744"/>
<path d="M35.728 85.2181L36.4436 84.9797C36.4436 84.9797 37.8747 84.7414 39.5444 86.1716C41.214 87.6018 47.4156 91.8925 47.4156 91.8925C47.4156 91.8925 49.8008 93.7995 49.0852 95.9449C48.3697 98.0902 47.177 103.334 43.5992 103.096C43.5992 103.096 41.4525 105.957 40.2599 105.48C39.0673 105.003 38.1132 103.096 38.8288 102.858C39.5444 102.619 41.4525 100.236 41.4525 100.236L39.0673 95.7065H38.3518L35.728 94.2763L35.728 85.2181Z" fill="#EF4744"/>
<path d="M21.4184 86.6484L19.5103 86.8868C19.5103 86.8868 17.8406 87.6019 18.0791 90.7008C18.3177 93.7996 16.648 107.864 17.3636 109.532C17.3636 109.532 14.9784 117.637 15.4554 117.875C15.9325 118.114 18.7947 119.544 18.5562 118.59C18.3177 117.637 21.1799 110.962 21.1799 110.962C21.1799 110.962 24.5192 107.387 23.0881 102.381V98.3287L21.4184 86.6484Z" fill="#EF4744"/>
<path d="M36.6783 82.4537L33.6461 83.1139L33.2564 81.6217L33.4063 83.1661L28.5146 84.2311L28.2995 83.4074L28.3822 84.2599L25.2492 84.9421L24.5789 78.5123C23.8899 75.8739 26.4047 73.0619 29.0447 72.3732L30.2159 72.0678C32.1549 71.562 35.6796 72.0219 36.1856 73.9597C35.2999 77.3382 33.7899 81.0421 36.6783 82.4537Z" fill="#2F2E41"/>
</g>
<defs>
<clipPath id="clip0">
<rect width="221" height="166" fill="white"/>
</clipPath>
</defs>
</svg>
